<svg width="18" height="8" viewBox="0 0 18 8" fill="none" xmlns="http://www.w3.org/2000/svg">
<path d="M4.7779 6.77405L1.83181 3.99642L4.7779 1.21879C5.07403 0.939597 5.07403 0.488591 4.7779 0.209396C4.48178 -0.0697987 4.00342 -0.0697987 3.70729 0.209396L0.222096 3.4953C-0.0740315 3.7745 -0.0740315 4.2255 0.222096 4.5047L3.70729 7.7906C4.00342 8.0698 4.48178 8.0698 4.7779 7.7906C5.06644 7.51141 5.07403 7.05324 4.7779 6.77405Z" fill="white"/>
<path d="M13.2221 1.22595L16.1682 4.00358L13.2221 6.78121C12.926 7.0604 12.926 7.51141 13.2221 7.7906C13.5182 8.0698 13.9966 8.0698 14.2927 7.7906L17.7779 4.5047C18.074 4.2255 18.074 3.7745 17.7779 3.4953L14.2927 0.209395C13.9966 -0.0697994 13.5182 -0.0697994 13.2221 0.209395C12.9336 0.48859 12.926 0.946755 13.2221 1.22595Z" fill="white"/>
</svg>
