<svg width="10" height="10" viewBox="0 0 10 10" fill="none" xmlns="http://www.w3.org/2000/svg">
<path fill-rule="evenodd" clip-rule="evenodd" d="M9.49406 0.515541C9.80431 0.825791 9.80431 1.32881 9.49406 1.63906L6.12351 5.0096L9.49406 8.38014C9.80431 8.69039 9.80431 9.1934 9.49406 9.50365C9.18381 9.8139 8.68079 9.8139 8.37054 9.50365L5 6.13311L1.62946 9.50365C1.31921 9.8139 0.816193 9.8139 0.505943 9.50365C0.195693 9.1934 0.195693 8.69039 0.505943 8.38014L3.87649 5.0096L0.505943 1.63905C0.195693 1.3288 0.195693 0.825791 0.505943 0.515541C0.816193 0.205291 1.31921 0.205291 1.62946 0.515541L5 3.88608L8.37054 0.515541C8.68079 0.205291 9.18381 0.205291 9.49406 0.515541Z" fill="#202B39"/>
</svg>
