<svg width="18" height="18" viewBox="0 0 18 18" fill="none" xmlns="http://www.w3.org/2000/svg">
<path fill-rule="evenodd" clip-rule="evenodd" d="M9.00001 6.75001C7.75737 6.75001 6.75001 7.75737 6.75001 9.00001C6.75001 10.2426 7.75737 11.25 9.00001 11.25C10.2427 11.25 11.25 10.2426 11.25 9.00001C11.25 7.75737 10.2427 6.75001 9.00001 6.75001ZM5.25001 9.00001C5.25001 6.92894 6.92894 5.25001 9.00001 5.25001C11.0711 5.25001 12.75 6.92894 12.75 9.00001C12.75 11.0711 11.0711 12.75 9.00001 12.75C6.92894 12.75 5.25001 11.0711 5.25001 9.00001Z" fill="#292824"/>
<path fill-rule="evenodd" clip-rule="evenodd" d="M5.50347 1.52761C7.18677 0.739947 9.08671 0.543713 10.8955 0.970703C12.7042 1.39769 14.3158 2.42289 15.4692 3.8802C16.6225 5.3375 17.25 7.14153 17.25 9.00001V9.75001C17.25 10.5457 16.9339 11.3087 16.3713 11.8713C15.8087 12.4339 15.0457 12.75 14.25 12.75C13.4544 12.75 12.6913 12.4339 12.1287 11.8713C11.5661 11.3087 11.25 10.5457 11.25 9.75001V6.00001C11.25 5.58579 11.5858 5.25001 12 5.25001C12.4142 5.25001 12.75 5.58579 12.75 6.00001V9.75001C12.75 10.1478 12.908 10.5294 13.1893 10.8107C13.4707 11.092 13.8522 11.25 14.25 11.25C14.6478 11.25 15.0294 11.092 15.3107 10.8107C15.592 10.5294 15.75 10.1478 15.75 9.75001V9.00001C15.75 7.47944 15.2366 6.00341 14.293 4.81107C13.3493 3.61873 12.0307 2.77993 10.5508 2.43058C9.07095 2.08122 7.51645 2.24178 6.1392 2.88623C4.76195 3.53068 3.64265 4.62128 2.96263 5.98132C2.28261 7.34135 2.08172 8.89116 2.3925 10.3796C2.70329 11.8681 3.50754 13.208 4.67496 14.1823C5.84238 15.1566 7.30457 15.7082 8.82463 15.7477C10.3447 15.7872 11.8336 15.3123 13.05 14.4C13.3814 14.1515 13.8515 14.2186 14.1 14.55C14.3485 14.8814 14.2814 15.3515 13.95 15.6C12.4632 16.7151 10.6435 17.2955 8.78566 17.2472C6.92781 17.1989 5.14069 16.5248 3.71384 15.334C2.287 14.1431 1.30402 12.5055 0.924168 10.6862C0.544318 8.86697 0.789851 6.97276 1.62099 5.3105C2.45212 3.64823 3.82016 2.31528 5.50347 1.52761Z" fill="#292824"/>
</svg>
