<svg width="16" height="15" viewBox="0 0 16 15" fill="none" xmlns="http://www.w3.org/2000/svg">
<path fill-rule="evenodd" clip-rule="evenodd" d="M1.12471 1.05442C0 2.10883 0 3.80589 0 7.2V7.8C0 11.1941 0 12.8912 1.12471 13.9456C2.24942 15 4.05962 15 7.68 15H8.32C11.9404 15 13.7506 15 14.8753 13.9456C16 12.8912 16 11.1941 16 7.8V7.2C16 3.80589 16 2.10883 14.8753 1.05442C13.7506 0 11.9404 0 8.32 0H7.68C4.05962 0 2.24942 0 1.12471 1.05442ZM2.70003 4.56254C2.78669 8.46254 4.86667 10.8063 8.51334 10.8063H8.72005V8.57502C10.06 8.70002 11.0733 9.61878 11.48 10.8063H13.3734C12.8534 9.03128 11.4866 8.05002 10.6333 7.67502C11.4866 7.21253 12.6866 6.08753 12.9733 4.56254H11.2532C10.8799 5.80004 9.77338 6.92502 8.72005 7.03127V4.56254H6.99998V8.88752C5.93333 8.63753 4.58669 7.42503 4.52669 4.56254H2.70003Z" fill="#292824"/>
</svg>
