<svg width="48" height="48" viewBox="0 0 48 48" fill="none" xmlns="http://www.w3.org/2000/svg">
<path d="M43.6009 19.6C39.6009 16.2 33.0009 12 24.0009 12C23.0009 12 22.0009 12 21.4009 12.2C20.2009 12.4 19.4009 13.4 19.6009 14.6C19.8009 15.6 20.8009 16.4 21.8009 16.4C22.4009 16.4 23.2009 16.2 24.0009 16.2C31.8009 16.2 37.6009 19.8 41.0009 22.8C41.6009 23.2 42.0009 24 42.0009 25C42.0009 26 41.6009 26.6 41.0009 27.2C39.8009 28.2 38.4009 29.2 37.0009 30C36.0009 30.6 35.8009 31.8 36.2009 32.8C36.6009 33.4 37.2009 33.8 38.0009 33.8C38.4009 33.8 38.6009 33.8 39.0009 33.6C40.6009 32.6 42.2009 31.6 43.6009 30.4C45.2009 29 46.0009 27.2 46.0009 25.2C46.0009 22.8 45.2009 21 43.6009 19.6Z" fill="white"/>
<path d="M8.4 6.6C7.6 5.8 6.4 5.8 5.6 6.6C4.8 7.4 4.8 8.6 5.6 9.4L11.2 15C8.4 16.6 6 18.4 4.4 19.6C2.8 21 2 22.8 2 25C2 27.2 2.8 29 4.4 30.2C8.4 33.6 15 37.8 24 37.8C27 37.8 29.8 37.4 32.6 36.4L39.6 43.4C40 43.8 40.6 44 41 44C41.4 44 42 43.8 42.4 43.4C43.2 42.6 43.2 41.4 42.4 40.6L8.4 6.6ZM24 33.6C16.2 33.6 10.4 30 7 27C6.4 26.6 6 25.8 6 25C6 24.2 6.4 23.4 7 22.8C8.6 21.4 11.2 19.6 14.4 18.2L19.6 23.4C19.4 23.8 19.4 24.4 19.4 25C19.4 27.6 21.4 29.6 24 29.6C24.6 29.6 25 29.4 25.6 29.4L29.4 33.2C27.6 33.4 25.8 33.6 24 33.6Z" fill="white"/>
</svg>
