<svg width="140" height="22" viewBox="0 0 140 22" fill="none" xmlns="http://www.w3.org/2000/svg">
<path d="M48.8369 16.7226V14.2692C47.9006 14.9016 46.3317 15.458 44.8639 15.458C42.6623 15.458 41.8273 14.421 41.7007 12.2964H48.9635V10.703C48.9635 6.27674 47.0149 4.60742 44.0035 4.60742C40.3342 4.60742 38.5881 7.41492 38.5881 11.2594C38.5881 15.6856 40.7644 17.8355 44.6109 17.8355C46.5341 17.8355 47.9512 17.3297 48.8369 16.7226ZM67.6644 17.8355C69.0562 17.8355 70.0431 17.5826 70.777 17.0515V14.5981C70.0178 15.1292 69.1068 15.458 67.8415 15.458C65.6905 15.458 64.8048 13.7887 64.8048 11.1582C64.8048 8.40133 65.893 6.98494 67.8668 6.98494C69.0309 6.98494 70.1696 7.38962 70.777 7.76901V5.21445C70.1443 4.86035 69.0309 4.60742 67.5378 4.60742C63.6914 4.60742 61.6922 7.36433 61.6922 11.2341C61.6922 15.4833 63.6408 17.8355 67.6644 17.8355ZM21.2537 4.86035V9.89361H17.2301V4.86035H14.2188V17.5826H17.2301V12.2711H21.2537V17.5826H24.2651V4.86035H21.2537ZM37.8543 15.2051H36.5131V4.86035H27.732V5.94794C27.732 9.05895 27.5295 13.0805 26.4667 15.2051H25.5304V20.4913H28.314V17.5826H35.0706V20.4913H37.8543V15.2051ZM58.4531 17.5826H61.8694L57.036 10.7283L61.2873 4.86035H58.2506L53.9993 10.7283V4.86035H50.9879V17.5826H53.9993V11.3353L58.4531 17.5826ZM43.9529 6.98494C45.446 6.98494 45.9015 8.22429 45.9015 9.81773V10.0707H41.7007C41.7766 8.04723 42.5105 6.98494 43.9529 6.98494ZM33.5017 15.2051H29.2503C30.0854 13.2828 30.3132 9.81773 30.3132 7.61726V7.23787H33.5017V15.2051Z" fill="black"/>
<path d="M86.4964 17.5785H90.0645L83.7887 8.32131L89.6596 0H86.623L80.9292 8.09368V0H77.8672V17.5785H80.9292V9.33302L86.4964 17.5785Z" fill="black"/>
<path d="M100.304 8.89762C100.304 5.8119 98.7349 4.64844 95.5464 4.64844C93.5472 4.64844 91.9783 5.28076 91.0673 5.8119V8.31589C91.877 7.70886 93.6484 7.05125 95.1921 7.05125C96.6345 7.05125 97.2925 7.5571 97.2925 8.92291V9.63111H96.8116C92.206 9.63111 90.1562 11.1487 90.1562 13.7285C90.1562 16.3084 91.7252 17.7501 94.0533 17.7501C95.8247 17.7501 96.5839 17.1683 97.1659 16.5613H97.2925C97.3178 16.8901 97.419 17.3201 97.5202 17.573H100.456C100.354 16.536 100.304 15.499 100.304 14.462V8.89762ZM97.2925 14.5379C96.9129 15.0943 96.2043 15.5496 95.1415 15.5496C93.8762 15.5496 93.2435 14.7908 93.2435 13.6527C93.2435 12.1604 94.2811 11.6292 96.8623 11.6292H97.2925V14.5379Z" fill="black"/>
<path d="M105.51 4.86035H102.727V21.25H105.738V16.0903C106.497 17.2285 107.611 17.8355 108.901 17.8355C111.837 17.8355 113.861 15.4833 113.861 11.2088C113.861 6.95965 111.887 4.60742 109.053 4.60742C107.636 4.60742 106.472 5.26503 105.662 6.50438L105.51 4.86035ZM108.142 15.458C106.548 15.458 105.738 14.1681 105.738 11.2341C105.738 8.27487 106.598 6.98494 108.294 6.98494C109.939 6.98494 110.748 8.27487 110.748 11.2088C110.748 14.1681 109.888 15.458 108.142 15.458Z" fill="black"/>
<path d="M124.449 7.23103V4.85352H114.352V7.23103H117.894V17.5758H120.906V7.23103H124.449Z" fill="black"/>
<path d="M126.234 4.85352V17.5758H130.815C133.775 17.5758 135.876 16.0582 135.876 13.0737C135.876 10.2409 134.003 8.7486 130.865 8.7486H129.246V4.85352H126.234ZM136.989 4.85352V17.5758H140.001V4.85352H136.989ZM130.638 15.1982H129.246V11.1261H130.713C132.004 11.1261 132.763 11.7079 132.763 13.1748C132.763 14.6418 131.928 15.1982 130.638 15.1982Z" fill="black"/>
<path d="M11.6912 17.5785H8.62924V2.37752H7.26273C4.75747 2.37752 3.44157 3.64215 3.44157 5.51382C3.44157 7.63841 4.35258 8.62483 6.2252 9.88946L7.76884 10.9265L3.31504 17.5785H0L3.9983 11.6347C1.69548 9.99063 0.404891 8.39719 0.404891 5.69087C0.404891 2.30164 2.75832 0 7.23743 0H11.6912V17.5785Z" fill="black"/>
</svg>
