<svg width="112" height="18" viewBox="0 0 112 18" fill="none" xmlns="http://www.w3.org/2000/svg">
<path fill-rule="evenodd" clip-rule="evenodd" d="M3.18526 11.8757H2.19685H2.17013C2.17013 11.8757 2.17013 11.8757 2.17013 11.9019V12.3742C2.17013 12.3742 2.17013 12.3742 2.17013 12.4004H2.19685H3.18526H3.21198C3.21198 12.4004 3.21198 12.4004 3.21198 12.3742V11.9019C3.21198 11.9019 3.21198 11.9019 3.21198 11.8757C3.21198 11.8757 3.21198 11.8757 3.18526 11.8757ZM0.861151 11.8495C0.861151 11.8757 0.807724 11.9019 0.78101 11.9019C0.754296 11.9019 0.727582 11.8495 0.727582 11.8232C0.727582 11.797 0.754296 11.7708 0.78101 11.7445C0.807724 11.7183 0.834438 11.7183 0.861151 11.6921C0.887865 11.6921 0.914579 11.6658 0.941293 11.6658C0.968007 11.6658 0.994721 11.6658 1.02144 11.6658C1.04815 11.6658 1.07486 11.7183 1.04815 11.7445C1.04815 11.7708 0.994721 11.797 0.968007 11.7708H0.941293H0.914579C0.914579 11.7708 0.887865 11.7708 0.887865 11.797C0.861151 11.8232 0.861151 11.8232 0.861151 11.8495ZM0.754296 12.0856C0.78101 12.1381 0.78101 12.243 0.807724 12.3217C0.834438 12.4004 0.887865 12.6627 0.994721 12.6627C1.02144 12.6627 1.07486 12.6365 1.07486 12.584C1.07486 12.5578 1.07486 12.5578 1.07486 12.5316C1.04815 12.5053 1.04815 12.4791 1.04815 12.4266C1.04815 12.3742 1.10158 12.243 1.20843 12.243C1.31529 12.243 1.36872 12.3479 1.36872 12.4266C1.36872 12.4791 1.342 12.5053 1.342 12.5316C1.342 12.5578 1.342 12.5578 1.342 12.584C1.342 12.6365 1.39543 12.689 1.44886 12.689C1.55571 12.689 1.60914 12.4266 1.63586 12.3479C1.60914 12.2692 1.60914 12.1381 1.63586 12.0856C1.66257 12.0069 1.74271 11.9544 1.74271 11.8495C1.74271 11.6921 1.60914 11.5871 1.44886 11.5871C1.31529 11.5871 1.31529 11.6396 1.18172 11.6658C1.07486 11.6658 1.07486 11.5871 0.941293 11.5871C0.78101 11.5871 0.64744 11.6921 0.64744 11.8495C0.64744 11.9806 0.700868 12.0069 0.754296 12.0856ZM5.34909 11.5084C5.26895 11.4297 5.1621 11.3772 5.05524 11.3772C4.94838 11.3772 4.84153 11.4297 4.76139 11.5084C4.68124 11.5871 4.62782 11.6921 4.62782 11.797C4.62782 11.9019 4.68124 12.0069 4.76139 12.0856C4.84153 12.1643 4.94838 12.2168 5.05524 12.2168C5.1621 12.2168 5.26895 12.1643 5.34909 12.0856C5.42923 12.0069 5.48266 11.9019 5.48266 11.797C5.48266 11.6921 5.42923 11.5871 5.34909 11.5084ZM5.05524 11.2723C5.21552 11.2723 5.34909 11.3248 5.45595 11.4297C5.5628 11.5346 5.61623 11.6658 5.61623 11.8232C5.61623 11.9806 5.5628 12.1118 5.45595 12.2168C5.34909 12.3217 5.21552 12.3742 5.05524 12.3742C4.89496 12.3742 4.76139 12.3217 4.65453 12.2168C4.54767 12.1118 4.49425 11.9806 4.49425 11.8232C4.49425 11.6658 4.54767 11.5346 4.65453 11.4297C4.76139 11.3248 4.92167 11.2723 5.05524 11.2723ZM5.10867 11.6396C5.08195 11.6396 5.02853 11.6396 5.02853 11.5871C5.02853 11.5609 5.02853 11.5084 5.08195 11.5084C5.10867 11.5084 5.1621 11.5084 5.18881 11.5084C5.21552 11.5084 5.26895 11.5346 5.29566 11.5609C5.32238 11.5609 5.32238 11.5871 5.34909 11.6134C5.34909 11.6396 5.37581 11.6396 5.37581 11.6658C5.37581 11.6921 5.37581 11.7445 5.34909 11.7445C5.32238 11.7445 5.26895 11.7445 5.26895 11.7183V11.6921C5.26895 11.6921 5.26895 11.6658 5.24224 11.6658C5.24224 11.6658 5.21552 11.6396 5.18881 11.6396C5.13538 11.6396 5.10867 11.6396 5.10867 11.6396ZM3.18526 13.2662C3.21198 13.2399 3.23869 13.2137 3.26541 13.2399C3.29212 13.2662 3.31883 13.2924 3.29212 13.3186C3.23869 13.4236 3.15855 13.7384 3.15855 13.8958C3.15855 13.922 3.13184 13.9483 3.10512 13.9483C3.07841 13.9483 3.05169 13.922 3.05169 13.8958C3.05169 13.7646 3.13184 13.3973 3.18526 13.2662ZM5.05524 11.1149C5.42923 11.1149 5.7498 11.4297 5.7498 11.797C5.7498 12.1643 5.42923 12.4791 5.05524 12.4791C4.81481 12.4791 4.57439 12.3479 4.46753 12.1381C3.93325 12.5053 3.6394 12.8464 3.42569 14.1319C3.39898 14.2631 3.31883 14.368 3.18526 14.368C3.05169 14.368 2.91812 14.2106 2.91812 14.0794C3.02498 13.135 3.37226 12.3217 4.36068 11.9544C4.36068 11.9019 4.33396 11.8495 4.33396 11.797C4.36068 11.4297 4.68124 11.1149 5.05524 11.1149ZM9.06233 5.18581C9.06233 5.15958 9.06233 5.10711 9.08904 5.10711C9.11576 5.10711 9.16919 5.10711 9.16919 5.13334C9.27604 5.42193 9.40961 5.86792 9.32947 6.18274C9.32947 6.20897 9.27604 6.23521 9.24933 6.23521C9.22261 6.23521 9.1959 6.18274 9.1959 6.1565C9.27604 5.86792 9.16919 5.44816 9.06233 5.18581ZM7.24578 8.51764C7.24578 8.54387 7.24578 8.57011 7.19235 8.57011C7.16564 8.57011 7.13893 8.57011 7.13893 8.51764V8.49141V8.46517C7.13893 8.43894 7.13893 8.4127 7.16564 8.38647C7.16564 8.36023 7.19235 8.334 7.21907 8.30776C7.24578 8.28153 7.2725 8.28153 7.29921 8.30776C7.32592 8.334 7.32592 8.36023 7.29921 8.38647C7.29921 8.38647 7.2725 8.4127 7.2725 8.43894C7.2725 8.46517 7.2725 8.46517 7.2725 8.49141C7.24578 8.49141 7.24578 8.51764 7.24578 8.51764ZM7.8602 8.20282C7.78006 8.12412 7.64649 8.07165 7.53964 8.07165C7.40607 8.07165 7.29921 8.12412 7.21907 8.20282C7.13893 8.28153 7.0855 8.4127 7.0855 8.51764C7.0855 8.64881 7.13893 8.75375 7.21907 8.83246C7.29921 8.91116 7.43278 8.96363 7.53964 8.96363C7.67321 8.96363 7.78006 8.91116 7.8602 8.83246C7.94034 8.75375 7.99377 8.62258 7.99377 8.51764C7.99377 8.4127 7.94034 8.30776 7.8602 8.20282ZM7.51292 7.96671C7.67321 7.96671 7.80678 8.01918 7.91363 8.12412C8.02049 8.22906 8.07391 8.36023 8.07391 8.51764C8.07391 8.67505 8.02049 8.80622 7.91363 8.91116C7.80678 9.0161 7.67321 9.06857 7.51292 9.06857C7.35264 9.06857 7.21907 9.0161 7.11221 8.91116C7.00536 8.83246 6.95193 8.70128 6.95193 8.54387C6.95193 8.38647 7.00536 8.25529 7.11221 8.15035C7.21907 8.04541 7.35264 7.96671 7.51292 7.96671ZM7.51292 7.86177C7.72663 7.86177 7.94035 7.96671 8.07391 8.12412C9.22261 7.31084 9.27604 5.76298 8.98219 5.23828C8.74176 4.81852 9.08904 4.52994 9.30276 4.71358C9.81032 5.21205 9.86375 7.57318 8.20748 8.43894C8.20748 8.46517 8.20748 8.4914 8.20748 8.51764C8.20748 8.88493 7.88692 9.19975 7.51292 9.19975C7.13893 9.19975 6.81836 8.88493 6.81836 8.51764C6.84507 8.15035 7.13893 7.86177 7.51292 7.86177ZM10.959 16.4668C10.8522 16.6242 10.6652 16.7554 10.4515 16.7554C10.1309 16.7554 9.89046 16.493 9.89046 16.2045C9.89046 16.152 9.89046 16.0995 9.91718 16.047L10.959 16.4668ZM10.4782 15.6011C10.7987 15.6011 11.0392 15.8634 11.0392 16.152C11.0392 16.2045 11.0392 16.2569 11.0124 16.3094L9.9706 15.8634C10.0775 15.7322 10.2645 15.6011 10.4782 15.6011ZM0.51387 8.38647C0.51387 8.4127 0.487156 8.43894 0.460442 8.46517C0.433729 8.46517 0.433729 8.46517 0.407015 8.46517C0.407015 8.4127 0.407015 8.36023 0.433729 8.30776C0.460442 8.17659 0.487156 8.12412 0.540584 8.09788C0.567298 8.07165 0.594012 8.07165 0.620726 8.04541C0.64744 8.04541 0.674154 8.01918 0.727582 8.01918C0.754296 8.01918 0.78101 8.04541 0.78101 8.07165C0.78101 8.09788 0.754296 8.15035 0.727582 8.15035C0.700868 8.15035 0.674154 8.15035 0.674154 8.17659C0.64744 8.17659 0.64744 8.20282 0.620726 8.20282C0.594012 8.22906 0.567298 8.25529 0.567298 8.28153C0.540584 8.30776 0.51387 8.36023 0.51387 8.38647ZM0.300159 8.334C0.300159 8.20282 0.353587 8.09788 0.433729 8.01918C0.51387 7.96671 0.620726 7.91424 0.727582 7.91424C0.834438 7.91424 0.968007 7.96671 1.04815 8.04541C1.12829 8.12412 1.18172 8.22906 1.18172 8.36023C1.18172 9.17351 1.18172 9.98679 1.18172 10.8001C1.23515 10.8001 1.26186 10.8263 1.28857 10.8525C1.342 10.8788 1.342 10.905 1.342 10.9575C1.342 11.01 1.342 11.0362 1.28857 11.0624C1.26186 11.0887 1.20843 11.1149 1.18172 11.1149H0.273445C0.220017 11.1149 0.193303 11.0887 0.166589 11.0624C0.139875 11.0362 0.113161 10.9837 0.113161 10.9575C0.113161 10.905 0.139875 10.8788 0.166589 10.8525C0.193303 10.8001 0.246731 10.8001 0.273445 10.8001C0.300159 9.96056 0.300159 9.14728 0.300159 8.334ZM0.353587 10.905H0.273445H0.246731V10.9312V10.9575H0.273445H1.18172H1.20843V10.9312V10.905H1.18172H1.10158C1.07486 10.905 1.04815 10.8788 1.04815 10.8525V9.90809H0.433729V10.8525C0.433729 10.8788 0.407015 10.905 0.353587 10.905ZM15.1531 16.2045L14.5387 15.1288C14.512 15.1288 14.512 15.1551 14.4853 15.1551C14.4051 15.2075 14.2715 15.2862 14.1647 15.3387C14.1113 15.3649 14.0846 15.3912 14.0311 15.4174C13.9243 15.4961 13.8976 15.5223 13.8976 15.5223C13.8976 15.5223 13.9243 15.5486 13.951 15.5748C13.9777 15.6011 13.9777 15.6273 14.0044 15.6535L14.4853 15.3649C14.512 15.3387 14.5387 15.3649 14.5654 15.3912C14.5921 15.4174 14.5654 15.4436 14.5654 15.4699L14.0846 15.7585C14.1113 15.7847 14.1113 15.8109 14.138 15.8372C14.2181 15.9683 14.325 16.1258 14.4051 16.3619L14.7791 16.1258C14.8058 16.0995 14.8325 16.1258 14.8593 16.152C14.886 16.1782 14.8593 16.2045 14.8593 16.2307L14.4585 16.493C14.4585 16.5193 14.4853 16.5717 14.4853 16.6242C14.4853 16.6242 14.512 16.6242 14.5387 16.6242C14.5921 16.6242 14.6455 16.598 14.699 16.5717C14.886 16.493 15.1264 16.3356 15.2065 16.2307C15.1531 16.2307 15.1531 16.2045 15.1531 16.2045ZM15.3935 16.5717L15.2333 16.3094C15.1531 16.4143 14.9127 16.5717 14.699 16.6767C14.6188 16.7029 14.5654 16.7292 14.512 16.7292C14.4318 16.7292 14.3784 16.7292 14.3517 16.6767C14.325 16.6504 14.325 16.6242 14.325 16.6242C14.2715 16.2832 14.138 16.0733 14.0311 15.9159C14.0044 15.8896 14.0044 15.8634 13.9777 15.8372C13.9777 15.8109 13.951 15.8109 13.951 15.8109C13.9243 15.7585 13.8976 15.7322 13.8708 15.706C13.8174 15.6535 13.7907 15.6011 13.7907 15.5486C13.7907 15.4961 13.8708 15.4699 13.9777 15.3912C14.0044 15.3649 14.0578 15.3387 14.1113 15.3125C14.2181 15.2338 14.325 15.1551 14.4318 15.1026C14.4585 15.1026 14.4585 15.0764 14.4853 15.0764L12.7756 12.0856C12.6153 11.797 12.9893 11.6396 13.1228 11.9019L15.7408 16.4668C15.9011 16.6767 15.5004 16.7816 15.3935 16.5717ZM10.6652 13.476L11.4132 14.0794L11.5467 14.1844L11.3864 14.3418L11.2529 14.2368L11.0659 14.4205L11.1994 14.5254L11.0392 14.6828L10.9056 14.5779L10.7186 14.7615L10.8522 14.8665L10.6919 15.0239L10.5583 14.9189L10.3713 15.1026L10.5049 15.2075L10.3446 15.3649L10.1843 15.26L10.024 15.4174C9.91718 15.5223 9.75689 15.5486 9.65004 15.4436C9.54318 15.3649 9.54318 15.2075 9.62332 15.0764L9.75689 14.8927L9.62332 14.7878L9.75689 14.6041L9.89046 14.7091L10.024 14.473L9.89046 14.368L10.024 14.1844L10.1576 14.2893L10.2912 14.0532L10.1309 13.9483L10.2645 13.7646L10.398 13.8696L10.5316 13.6334L10.398 13.5285L10.5316 13.3449L10.6652 13.476ZM11.333 12.3217C11.3063 12.3479 11.2529 12.3479 11.2529 12.3217C11.2262 12.2955 11.2262 12.243 11.2529 12.243C11.3063 12.2168 11.3597 12.1905 11.4132 12.1905C11.4666 12.1905 11.52 12.1905 11.5734 12.1905C11.6002 12.1905 11.6269 12.2168 11.6536 12.2168C11.6803 12.243 11.707 12.243 11.7337 12.2692C11.7604 12.2955 11.7604 12.3217 11.7337 12.3479C11.707 12.3742 11.6803 12.3742 11.6536 12.3479C11.6536 12.3217 11.6269 12.3217 11.6002 12.3217C11.5734 12.3217 11.5734 12.2955 11.5467 12.2955C11.52 12.2955 11.4666 12.2955 11.4399 12.2955C11.3864 12.2955 11.3597 12.2955 11.333 12.3217ZM11.8673 12.1905L12.1077 12.5053L12.455 12.6627C12.7756 12.7939 12.829 13.3186 12.5351 13.5023L11.6803 14.1057L10.5316 13.1874L10.9857 12.2692C11.1727 11.9806 11.6803 11.9282 11.8673 12.1905ZM9.54318 10.4066C10.6385 10.5115 11.0926 10.6427 12.1344 11.01C11.4666 11.3248 9.91718 11.01 9.54318 10.4066ZM10.9857 10.013C10.959 10.0393 10.9056 10.0393 10.8789 10.0655C10.8255 10.0917 10.772 10.013 10.7453 9.98679C10.5316 9.72444 9.65004 9.88185 9.16919 10.1704C9.06233 10.2491 8.98219 10.2754 9.0089 10.4066C9.03562 10.8263 9.67675 11.4297 10.4515 11.6396C11.3864 11.9019 12.4283 11.6921 12.6954 11.0624C12.6954 11.0362 12.6954 11.01 12.6687 10.9575C12.3481 10.6164 11.4933 9.82938 10.9857 10.013ZM5.58952 6.1565L5.64295 6.91731C5.64295 7.07472 5.45595 7.15343 5.26895 7.15343L4.6011 7.17966C4.54768 7.17966 4.52096 7.12719 4.52096 7.07472C4.52096 6.94355 4.46753 6.83861 4.46753 6.70743C4.46753 6.60249 4.46753 6.55002 4.54767 6.55002C4.76139 6.52379 4.89496 6.39262 5.02853 6.0778C5.08195 5.94662 5.08195 5.97286 5.21552 5.99909L5.53609 6.05156C5.5628 6.05156 5.58952 6.10403 5.58952 6.1565ZM5.72309 4.79229C5.7498 4.87099 5.72309 4.92346 5.64295 4.9497C5.61623 4.9497 5.61623 4.9497 5.58952 4.9497C5.58952 5.08087 5.58952 5.21205 5.58952 5.34322C5.58952 5.4744 5.58952 5.60557 5.58952 5.73674C5.58952 5.86792 5.58952 5.86792 5.45595 5.84168C5.42923 5.84168 5.40252 5.84168 5.37581 5.81545C5.32238 5.81545 5.32238 5.78921 5.26895 5.78921C5.1621 5.76298 5.1621 5.76298 5.21552 5.6318C5.26895 5.52687 5.32238 5.39569 5.37581 5.29075L5.53609 4.92346C5.53609 4.92346 5.53609 4.92346 5.53609 4.89723C5.50938 4.87099 5.48266 4.87099 5.48266 4.81852C5.45595 4.73982 5.48266 4.68735 5.5628 4.66111C5.61623 4.68735 5.69637 4.71358 5.72309 4.79229ZM4.33396 6.78614C4.36068 6.89108 4.38739 7.02225 4.30725 7.07472C4.28054 7.07472 4.25382 7.10096 4.22711 7.10096C4.12025 7.15343 4.12025 7.15343 4.06682 7.04849C4.04011 7.02225 4.04011 6.99602 4.04011 6.96978C3.98668 6.83861 3.98668 6.86484 4.09354 6.78614C4.14697 6.7599 4.17368 6.73367 4.22711 6.70743C4.30725 6.65496 4.30725 6.6812 4.33396 6.78614ZM4.7881 6.62873C4.76139 6.65496 4.70796 6.62873 4.70796 6.60249C4.68124 6.57626 4.70796 6.52379 4.73467 6.52379C4.7881 6.49756 4.84153 6.44509 4.89496 6.41885C4.94838 6.36638 4.9751 6.31391 5.02853 6.26144C5.05524 6.23521 5.08195 6.23521 5.10867 6.23521C5.13538 6.26144 5.13538 6.28768 5.13538 6.31391C5.08195 6.36638 5.05524 6.44509 5.00181 6.49756C4.92167 6.55002 4.84153 6.60249 4.7881 6.62873ZM3.13184 7.15343C3.15855 7.12719 3.21198 7.15343 3.21198 7.17966C3.23869 7.2059 3.21198 7.25837 3.18526 7.25837L3.07841 7.31084C2.83798 7.46825 2.6777 7.57318 2.51742 7.62565C2.4907 7.62565 2.43727 7.62565 2.43727 7.59942C2.43727 7.57318 2.43727 7.52071 2.46399 7.52071C2.59756 7.46825 2.78455 7.36331 2.99827 7.2059L3.13184 7.15343ZM3.85311 6.78614L4.06682 7.49448C4.12025 7.62565 4.06682 7.78306 3.95997 7.83553C3.47912 8.07165 1.55571 9.6195 1.50229 8.85869L1.44886 8.07165C1.44886 7.94047 1.42214 7.75683 1.55571 7.73059C2.19685 7.54695 3.02498 7.2059 3.53255 6.6812C3.61269 6.57626 3.8264 6.65496 3.85311 6.78614ZM10.4782 4.29383C10.4515 4.32006 10.398 4.32006 10.398 4.29383C10.3713 4.26759 10.3713 4.21512 10.398 4.21512C10.5049 4.13642 10.6117 4.08395 10.7186 4.05771C10.8254 4.03148 10.959 4.03148 11.0659 4.03148C11.0926 4.03148 11.1193 4.05771 11.1193 4.11018C11.1193 4.16265 11.0926 4.16265 11.0392 4.16265C10.9323 4.13642 10.8255 4.16265 10.7453 4.16265C10.6652 4.18889 10.5583 4.24136 10.4782 4.29383ZM10.9056 5.68427C11.1727 5.68427 11.3864 5.57933 11.5734 5.42193C11.7337 5.26452 11.8406 5.0284 11.8406 4.76605C11.8406 4.50371 11.7337 4.29383 11.5734 4.11018C11.4132 3.95277 11.1727 3.84783 10.9056 3.84783C10.6385 3.84783 10.4247 3.95277 10.2377 4.11018C10.0775 4.26759 9.9706 4.50371 9.9706 4.76605C9.9706 5.0284 10.0775 5.23828 10.2377 5.42193C10.398 5.60557 10.6385 5.68427 10.9056 5.68427ZM10.9056 5.81545C10.6117 5.81545 10.3446 5.71051 10.1576 5.52687C9.9706 5.34322 9.83704 5.08087 9.83704 4.79229C9.83704 4.50371 9.94389 4.24136 10.1309 4.05771C10.3179 3.87407 10.585 3.74289 10.8789 3.74289C11.1727 3.74289 11.4399 3.84783 11.6269 4.03148C11.8139 4.21512 11.9474 4.47747 11.9474 4.76605C11.9474 5.05464 11.8406 5.31699 11.6536 5.50063C11.4666 5.68427 11.1994 5.81545 10.9056 5.81545ZM10.4515 6.36638C10.585 6.47132 10.6385 6.62873 10.5583 6.78614L10.4515 7.12719C10.3713 7.33707 10.1576 7.44201 9.94389 7.36331C9.73018 7.2846 9.62332 7.07472 9.70347 6.86484L9.81032 6.55002C9.86375 6.39262 10.024 6.28768 10.1843 6.28768L10.3446 5.84168C9.94389 5.65804 9.67675 5.23828 9.67675 4.79229C9.67675 4.13642 10.211 3.61172 10.8789 3.61172C11.5467 3.61172 12.081 4.13642 12.081 4.79229C12.081 5.44816 11.5467 5.97286 10.8789 5.97286C10.772 5.97286 10.6919 5.97286 10.6117 5.94662L10.4515 6.36638ZM9.14247 13.4236C9.40961 13.4236 9.62332 13.3186 9.81032 13.1612C9.9706 13.0038 10.0775 12.7677 10.0775 12.5053C10.0775 12.243 9.9706 12.0331 9.81032 11.8495C9.65004 11.6921 9.40961 11.5871 9.14247 11.5871C8.87533 11.5871 8.66162 11.6921 8.47462 11.8495C8.31434 12.0069 8.20748 12.243 8.20748 12.5053C8.20748 12.7677 8.31434 12.9776 8.47462 13.1612C8.63491 13.3186 8.87533 13.4236 9.14247 13.4236ZM9.14247 13.5547C8.84862 13.5547 8.58148 13.4498 8.39448 13.2662C8.20748 13.0825 8.07391 12.8202 8.07391 12.5316C8.07391 12.243 8.18077 11.9806 8.36777 11.797C8.55476 11.6134 8.82191 11.4822 9.11576 11.4822C9.40961 11.4822 9.67675 11.5871 9.86375 11.7708C10.0507 11.9544 10.1843 12.2168 10.1843 12.5053C10.1843 12.7939 10.0775 13.0563 9.89046 13.2399C9.70347 13.4236 9.43633 13.5547 9.14247 13.5547ZM9.65004 12.8464C9.67675 12.8202 9.70347 12.8202 9.73018 12.8202C9.75689 12.8464 9.75689 12.8726 9.75689 12.8989C9.67675 13.0038 9.59661 13.0825 9.48975 13.135C9.3829 13.1874 9.27604 13.2399 9.16919 13.2399C9.14247 13.2399 9.08904 13.2137 9.08904 13.1874C9.08904 13.1612 9.11576 13.1087 9.14247 13.1087C9.24933 13.1087 9.32947 13.0563 9.43633 13.0038C9.51647 13.0038 9.59661 12.9251 9.65004 12.8464ZM7.72663 11.5346C7.59306 11.6134 7.40607 11.5871 7.2725 11.5084L7.00536 11.2985C6.84507 11.1674 6.81836 10.9312 6.95193 10.7476C7.0855 10.5902 7.32592 10.564 7.51292 10.6951L7.78006 10.905C7.91363 11.01 7.96706 11.1936 7.88692 11.351L8.28763 11.6396C8.60819 11.3248 9.08904 11.2198 9.51647 11.3772C10.1309 11.5871 10.4515 12.2692 10.2377 12.8726C10.024 13.476 9.32947 13.7908 8.71505 13.581C8.10063 13.3711 7.78006 12.689 7.99377 12.0856C8.02049 12.0069 8.07391 11.9019 8.12734 11.8232L7.72663 11.5346ZM13.6037 5.99909C13.6037 5.97286 13.6304 5.92039 13.6571 5.92039C13.6838 5.92039 13.7373 5.94662 13.7373 5.97286C13.764 6.13027 13.764 6.26144 13.764 6.41885C13.764 6.55002 13.7373 6.65496 13.6838 6.7599L13.8441 6.81237C14.0846 6.89108 14.138 6.86484 14.0311 7.12719C13.8174 7.73059 13.016 9.25222 11.1727 9.22598V9.27845C11.1727 9.38339 11.0124 9.35715 11.0124 9.30469L10.7987 8.04541C10.7987 7.99294 10.9323 7.91424 10.959 8.01918V8.17659C11.2529 8.17659 11.4933 8.12412 11.7337 8.07165L11.7872 8.36023C11.7872 8.38647 11.8139 8.4127 11.8673 8.4127C11.894 8.4127 11.9207 8.38647 11.9207 8.334L11.8673 8.04541C12.0009 7.99294 12.1344 7.94047 12.2413 7.86177C12.2413 7.86177 12.2413 7.86177 12.2413 7.888L12.4016 8.15035C12.4283 8.17659 12.455 8.17659 12.4817 8.17659C12.5084 8.15035 12.5084 8.12412 12.5084 8.09788L12.3481 7.83553C12.3481 7.83553 12.3481 7.8093 12.3214 7.8093C12.455 7.70436 12.5619 7.59942 12.6687 7.49448C12.6687 7.49448 12.6687 7.49448 12.6687 7.52071L12.9359 7.73059C12.9626 7.75683 13.016 7.75683 13.016 7.73059C13.0427 7.70436 13.0427 7.65189 13.016 7.65189L12.7489 7.44201C12.7489 7.44201 12.7489 7.44201 12.7221 7.44201C12.8824 7.23213 12.9893 7.02225 13.0427 6.86484C13.1228 6.62873 13.1228 6.65496 13.3366 6.73367L13.5503 6.81237C13.577 6.70743 13.6037 6.60249 13.6304 6.49756C13.6304 6.26144 13.6304 6.13027 13.6037 5.99909ZM10.772 8.22906C10.585 8.28153 10.6919 9.17351 10.9056 9.12104L10.772 8.22906ZM8.79519 1.51293C9.16919 1.53917 9.65004 1.59164 9.91718 1.64411C10.0775 1.67034 10.4247 1.69658 10.6117 1.72281C10.7987 1.74904 10.7987 1.80151 10.6117 1.90645C9.94389 2.32621 9.11576 2.14257 8.63491 1.64411C8.47462 1.4867 8.58148 1.51293 8.79519 1.51293ZM9.91718 1.22435C9.89046 1.25058 9.83704 1.25058 9.81032 1.27682C9.75689 1.30305 9.70347 1.22435 9.67675 1.19811C9.40961 0.935764 8.58148 1.0407 8.07391 1.35552C7.94035 1.43423 7.91363 1.43423 7.96706 1.59164C8.47462 2.6935 10.3446 2.95585 11.1727 2.0901C11.4399 1.80151 11.4399 1.80151 11.146 1.61787C10.7987 1.38176 10.211 1.06694 9.91718 1.22435ZM5.88337 8.28153L5.37581 8.77999L5.69637 9.06857C5.77652 9.14728 5.85666 9.17351 5.96351 9.17351C6.04365 9.17351 6.15051 9.14728 6.20394 9.06857C6.28408 8.98987 6.31079 8.91116 6.31079 8.80622C6.31079 8.72752 6.28408 8.62258 6.20394 8.57011L5.88337 8.28153ZM4.92167 7.83553C5.00181 7.73059 5.13538 7.70436 5.26895 7.67812C5.40252 7.67812 5.50938 7.73059 5.61623 7.8093L6.28408 8.43894C6.39094 8.51764 6.41765 8.64881 6.44436 8.77999C6.44436 8.91116 6.39094 9.0161 6.31079 9.12104C6.23065 9.22598 6.09708 9.25222 5.96351 9.27845C5.82994 9.27845 5.72309 9.22598 5.61623 9.14728L4.94838 8.51764C4.84153 8.43893 4.81481 8.30776 4.7881 8.17659C4.7881 8.07165 4.84153 7.94047 4.92167 7.83553ZM5.5628 3.58549C5.58952 3.48055 5.66966 3.42808 5.7498 3.37561C5.82994 3.34937 5.9368 3.32314 6.04366 3.37561L6.7115 3.63796C6.81836 3.66419 6.87179 3.74289 6.92522 3.8216C6.95193 3.9003 6.97864 4.00524 6.92522 4.11018C6.8985 4.21512 6.81836 4.26759 6.73822 4.32006C6.65808 4.3463 6.55122 4.37253 6.44436 4.32006L5.77652 4.05771C5.66966 4.03148 5.61623 3.95277 5.5628 3.87407C5.53609 3.79536 5.53609 3.69042 5.5628 3.58549ZM6.39094 3.61172L6.20394 4.11018L6.49779 4.21512C6.57793 4.24136 6.63136 4.24136 6.7115 4.21512C6.76493 4.18889 6.81836 4.13642 6.84507 4.08395C6.87179 4.00524 6.87179 3.95277 6.84507 3.87407C6.81836 3.8216 6.76493 3.76913 6.7115 3.74289L6.39094 3.61172ZM3.21198 9.14728C3.18526 9.17351 3.13184 9.14728 3.13184 9.12104C3.10512 9.09481 3.13184 9.04234 3.15855 9.04234C3.21198 9.0161 3.26541 8.98987 3.31883 8.98987C3.37226 8.98987 3.42569 8.98987 3.47912 9.0161C3.50583 9.0161 3.53255 9.04234 3.55926 9.06857C3.58597 9.09481 3.61269 9.12104 3.6394 9.12104C3.66612 9.14728 3.66612 9.19975 3.6394 9.19975C3.61269 9.22598 3.55926 9.22598 3.55926 9.19975C3.55926 9.17351 3.53255 9.17351 3.50583 9.14728C3.47912 9.14728 3.47912 9.12104 3.4524 9.12104C3.42569 9.12104 3.37226 9.09481 3.34555 9.12104C3.29212 9.12104 3.23869 9.12104 3.21198 9.14728ZM4.09354 9.51456C4.09354 8.46517 2.4907 8.36023 2.17013 10.0655C2.08999 10.5377 2.17013 10.564 2.62427 10.9312C2.70441 11.1674 2.97155 11.5609 3.4524 11.5084C5.18881 11.3248 5.29567 9.85562 4.17368 9.6195C4.70796 9.30469 4.68124 8.75375 4.65453 8.46517C4.65453 8.4127 4.65453 8.36023 4.65453 8.334C4.68124 8.334 4.68124 8.30776 4.68124 8.28153C4.68124 8.25529 4.65453 8.20282 4.62782 8.20282C4.57439 8.20282 4.54767 8.22906 4.52096 8.28153C4.52096 8.30776 4.52096 8.38647 4.52096 8.43894C4.54767 8.72752 4.57439 9.25222 4.09354 9.51456ZM11.9741 14.7878C11.9474 14.814 11.894 14.814 11.894 14.7878C11.8673 14.7615 11.8673 14.7091 11.894 14.7091C11.9474 14.6828 12.0009 14.6566 12.0543 14.6304C12.1077 14.6304 12.1611 14.6304 12.2146 14.6304C12.2413 14.6304 12.268 14.6566 12.2947 14.6828C12.3214 14.7091 12.3481 14.7091 12.3749 14.7353C12.4016 14.7615 12.4016 14.7878 12.3749 14.814C12.3481 14.8402 12.3214 14.8402 12.2947 14.814C12.268 14.7878 12.268 14.7878 12.2413 14.7615C12.2146 14.7615 12.2146 14.7353 12.1879 14.7353C12.1611 14.7353 12.1077 14.7353 12.081 14.7353C12.0276 14.7615 12.0009 14.7615 11.9741 14.7878ZM12.7756 14.9189C12.455 14.0532 11.1193 14.473 11.4132 15.9159C11.4933 16.3094 11.5734 16.3094 12.0543 16.4668C12.1879 16.6242 12.5351 16.8603 12.9091 16.6767C14.2181 15.9946 13.8708 14.8402 12.9626 14.9189C13.2297 14.6041 13.1228 14.2106 13.0694 14.0007C13.0694 13.9745 13.0427 13.922 13.0427 13.922C13.0427 13.922 13.0694 13.8958 13.0694 13.8696C13.0694 13.8433 13.0427 13.8171 13.016 13.8171C12.9626 13.8171 12.9359 13.8433 12.9359 13.8958C12.9359 13.922 12.9626 13.9745 12.9626 14.027C12.9626 14.2368 13.0694 14.6041 12.7756 14.9189ZM5.58952 9.80315C5.5628 9.77691 5.58952 9.72444 5.61623 9.72444C5.64295 9.69821 5.69637 9.72444 5.69637 9.75068C5.7498 9.82938 5.91009 9.93432 6.07037 9.98679C6.25737 10.0655 6.47108 10.118 6.57793 10.0917C6.60465 10.0917 6.63136 10.118 6.65808 10.1442C6.65808 10.1704 6.63136 10.1967 6.60465 10.2229C6.47108 10.2491 6.23065 10.1967 6.01694 10.0917C5.82994 10.013 5.64295 9.90809 5.58952 9.80315ZM10.3713 8.43894C10.3179 8.43894 10.2912 8.46517 10.2377 8.51764C10.2377 8.51764 10.2377 8.51764 10.211 8.51764C10.1576 8.43893 10.024 8.28153 9.86375 8.17659C9.75689 8.09788 9.62332 8.01918 9.51647 8.01918C9.46304 8.01918 9.43633 8.04541 9.3829 8.12412C9.35618 8.17659 9.27604 8.28153 9.16919 8.30776C9.11576 8.334 9.03562 8.43894 8.95547 8.57011C8.90205 8.70128 8.82191 8.88493 8.82191 8.9374C8.84862 9.0161 8.92876 9.12104 9.03562 9.22598C9.14247 9.30469 9.24933 9.38339 9.35618 9.40963C8.18077 10.1704 6.39094 10.3278 5.58952 9.4621C5.42923 9.30469 5.29566 9.30469 5.18881 9.33092C5.05524 9.35716 4.9751 9.51457 5.00181 9.59327C5.26895 10.9312 9.08904 10.8788 10.3713 8.91116C10.4247 8.80622 10.6652 8.46517 10.3713 8.43894ZM9.54318 8.15035C9.54318 8.17659 9.51647 8.20282 9.48975 8.20282L9.94389 8.59634C9.9706 8.62258 9.9706 8.64881 9.94389 8.67505C9.91718 8.70128 9.89046 8.70128 9.86375 8.67505L9.40961 8.28153C9.35618 8.30776 9.30276 8.36023 9.24933 8.36023C9.24933 8.36023 9.16919 8.46517 9.11576 8.57011L9.3829 8.77999C9.40961 8.80622 9.40961 8.83246 9.3829 8.85869C9.35618 8.88493 9.32947 8.88493 9.30276 8.85869L9.03562 8.70128C8.98219 8.80622 8.92876 8.88493 8.92876 8.88493C8.95548 8.9374 9.0089 9.04234 9.08904 9.09481C9.1959 9.17351 9.30276 9.25222 9.40961 9.27845C9.43633 9.27845 9.5699 9.14728 9.73018 9.0161C9.89046 8.83246 10.0775 8.62258 10.1042 8.54387C10.0775 8.51764 9.94389 8.36023 9.78361 8.22906C9.73018 8.17659 9.5699 8.07165 9.54318 8.15035ZM1.12829 3.13949C1.36872 3.19196 1.63586 3.13949 1.82285 3.03455C2.03656 2.90338 2.17013 2.71973 2.25028 2.48362C2.3037 2.22127 2.27699 1.95892 2.14342 1.77528C2.00985 1.5654 1.82285 1.40799 1.58243 1.35552C1.31529 1.27682 1.07486 1.32929 0.861151 1.46046C0.64744 1.5654 0.51387 1.77528 0.433729 2.01139C0.380301 2.27374 0.433728 2.50986 0.540584 2.71973C0.674154 2.92961 0.861151 3.06079 1.12829 3.13949ZM1.10158 3.24443C0.807724 3.19196 0.567298 3.00832 0.433729 2.7722C0.300159 2.53609 0.246731 2.27374 0.300159 1.98516C0.380301 1.72281 0.567298 1.4867 0.807724 1.35552C1.04815 1.22435 1.31529 1.17188 1.60914 1.22435C1.87628 1.30305 2.11671 1.46046 2.25028 1.69658C2.38385 1.93269 2.43727 2.19504 2.38385 2.48362C2.3037 2.7722 2.11671 2.98208 1.903 3.13949C1.66257 3.27067 1.36872 3.32314 1.10158 3.24443ZM1.07486 1.67034C1.04815 1.69658 0.994721 1.67034 0.994721 1.64411C0.968007 1.61787 0.994721 1.59164 1.02144 1.5654C1.12829 1.51293 1.26186 1.4867 1.36872 1.4867C1.47557 1.4867 1.60914 1.51293 1.716 1.5654C1.74271 1.59164 1.76943 1.61787 1.74271 1.64411C1.74271 1.67034 1.68928 1.69658 1.66257 1.67034C1.55571 1.64411 1.47557 1.61787 1.36872 1.61787C1.26186 1.61787 1.18172 1.64411 1.07486 1.67034ZM1.02144 3.48055C1.155 3.58549 1.18172 3.74289 1.12829 3.9003L1.02144 4.21512C0.941293 4.425 0.727582 4.50371 0.51387 4.45124C0.300159 4.37253 0.220017 4.16265 0.273445 3.95277L0.380301 3.63796C0.433728 3.48055 0.594012 3.37561 0.754296 3.40184L0.807724 3.2969C0.300159 3.06079 0.0330194 2.50986 0.166589 1.95892C0.326873 1.32929 0.968007 0.961999 1.60914 1.11941C2.25028 1.27682 2.62427 1.90645 2.46399 2.53609C2.3037 3.16573 1.66257 3.53302 1.02144 3.37561V3.48055ZM3.31883 1.27682C3.37226 1.32929 3.39898 1.40799 3.39898 1.4867C3.39898 1.69658 3.26541 1.85398 3.05169 1.88022C2.97155 1.88022 2.89141 1.85398 2.83798 1.82775L3.31883 1.27682ZM2.65099 1.51293C2.65099 1.30305 2.78455 1.14564 2.99827 1.11941C3.07841 1.11941 3.15855 1.14564 3.21198 1.17188L2.73113 1.69658C2.70441 1.64411 2.6777 1.59164 2.65099 1.51293ZM2.03656 3.95277C1.95642 3.87407 1.92971 3.79536 1.92971 3.74289C1.92971 3.66419 1.95642 3.58549 2.00985 3.50678L2.41056 3.08702C2.46399 3.03455 2.54413 2.98208 2.62427 2.98208C2.70441 2.98208 2.78455 3.00832 2.8647 3.06079C2.91812 3.11326 2.97155 3.19196 2.97155 3.27067C2.97155 3.34937 2.94484 3.42808 2.89141 3.50678L2.4907 3.9003C2.43727 3.95277 2.35713 4.00524 2.27699 4.00524C2.17013 4.03148 2.08999 4.00524 2.03656 3.95277ZM2.33042 3.37561L2.62427 3.63796L2.81127 3.45431C2.83798 3.42808 2.8647 3.37561 2.8647 3.32314C2.8647 3.27067 2.83798 3.2182 2.81127 3.19196C2.73113 3.13949 2.6777 3.11326 2.62427 3.11326C2.59756 3.11326 2.54413 3.13949 2.4907 3.19196L2.33042 3.37561ZM0.407015 16.1258C0.380301 16.1782 0.433728 16.2307 0.51387 16.2832C0.64744 16.3356 0.941293 16.4143 1.42214 16.4668C1.47557 16.4668 1.529 16.4668 1.529 16.4143C1.529 16.3881 1.529 16.3619 1.44886 16.3356C1.342 16.3094 1.18172 16.3094 0.968007 16.2569C0.861151 16.2307 0.754296 16.2045 0.674154 16.152C0.51387 16.1258 0.433729 16.0733 0.407015 16.1258ZM2.3037 14.2106C2.73113 14.1844 3.39898 14.4205 2.81127 15.1288C3.87983 15.6535 4.65453 16.3619 4.22711 16.6504C3.98668 16.8079 1.02144 16.6767 0.567298 16.7292C0.113161 16.7816 0.166589 16.5717 0.139875 16.2045C0.113161 15.9683 0.0864473 15.7847 0.300159 15.8634C2.14342 16.5717 4.57439 16.3094 2.62427 15.4961C1.74271 15.2075 2.57084 14.8665 2.59756 14.7353C2.62427 14.5254 2.43727 14.5254 2.25028 14.5517C2.08999 14.5779 2.11671 14.5254 2.11671 14.4467V14.368C2.11671 14.2368 2.14342 14.2368 2.3037 14.2106ZM3.58597 15.0501C3.4524 14.8402 3.37226 14.6304 3.4524 14.4467C3.69283 13.8171 6.47108 13.2399 5.61623 16.5717C5.45595 17.2801 3.77297 15.3387 3.58597 15.0501ZM3.85311 14.3418C3.87983 14.2631 3.8264 14.2368 3.77297 14.2893C3.69283 14.368 3.58597 14.4467 3.58597 14.5779C3.58597 14.6566 3.58597 14.7353 3.66611 14.7353C3.74626 14.7091 3.69283 14.6304 3.71954 14.5517C3.74626 14.473 3.8264 14.4205 3.85311 14.3418ZM5.24224 15.6798C5.32238 15.4436 5.32238 14.8402 5.18881 14.6304C4.9751 14.3418 4.76139 14.3155 4.4141 14.3942C4.14697 14.473 3.77297 14.6566 3.98668 14.9714C4.09354 15.1288 4.17368 15.2075 4.33396 15.3649C4.57439 15.5748 5.08195 16.0995 5.24224 15.6798ZM5.29566 13.5547C5.21552 13.6072 5.13538 13.6334 5.02853 13.6334C4.7881 13.6334 4.6011 13.4498 4.6011 13.2137C4.6011 13.1087 4.62782 13.03 4.70796 12.9513L5.29566 13.5547ZM5.02853 12.7677C5.26895 12.7677 5.45595 12.9513 5.45595 13.1874C5.45595 13.2924 5.42923 13.3711 5.37581 13.4498L4.7881 12.8464C4.84153 12.7939 4.94838 12.7677 5.02853 12.7677ZM0.51387 14.5517C0.674154 14.368 0.807724 14.2106 0.994721 14.0532C1.12829 13.9483 1.529 13.5547 1.63586 13.476C1.68928 13.4498 1.55571 14.5517 0.51387 14.7091C0.353587 14.7353 0.433728 14.6828 0.51387 14.5517ZM0.754296 13.7384C0.754296 13.7646 0.727582 13.8171 0.727582 13.8433C0.700868 13.8958 0.620726 13.8958 0.594012 13.8958C0.246731 13.922 -0.0471224 14.6041 0.0063055 15.0764C0.246731 15.3649 1.23515 15.1288 1.60914 14.6566C1.92971 14.2631 2.11671 13.8171 1.92971 13.2137C1.76943 13.0563 0.887865 13.2662 0.754296 13.7384ZM1.68928 15.3912L1.529 15.8109L1.82285 15.9159C1.87628 15.9421 1.95642 15.9421 2.00985 15.9159C2.06328 15.8896 2.11671 15.8372 2.14342 15.7847C2.17013 15.7322 2.17013 15.6535 2.14342 15.6011C2.11671 15.5486 2.06328 15.4961 2.00985 15.4699L1.68928 15.3912ZM0.941293 15.3649C0.994721 15.26 1.04815 15.1813 1.12829 15.1551C1.20843 15.1288 1.31529 15.1026 1.39543 15.1551L2.00985 15.3912C2.08999 15.4174 2.17013 15.4961 2.22356 15.5748C2.25028 15.6535 2.27699 15.7585 2.22356 15.8372C2.19685 15.9159 2.14342 15.9946 2.03656 16.047C1.95642 16.0733 1.84957 16.0995 1.76943 16.047L1.155 15.8109C1.04815 15.7847 0.994721 15.706 0.941293 15.6273C0.914579 15.5486 0.914579 15.4436 0.941293 15.3649ZM1.26186 5.05464C1.26186 5.00217 1.31529 5.00217 1.342 5.0284C1.36872 5.05464 1.39543 5.08087 1.36872 5.10711C1.31529 5.21205 1.23515 5.29075 1.155 5.34322C1.07486 5.42193 0.968007 5.44816 0.861151 5.50063C0.834438 5.50063 0.78101 5.50063 0.78101 5.44816C0.78101 5.42193 0.78101 5.36946 0.834437 5.36946C0.914579 5.34322 0.994721 5.29075 1.07486 5.23828C1.155 5.18581 1.20843 5.13334 1.26186 5.05464ZM6.97864 3.06079C6.39094 2.37868 5.24224 2.48362 4.57439 2.92961C4.33396 3.08702 4.22711 3.34937 4.12025 3.53302C4.04011 3.69042 3.77297 3.76913 3.55926 3.58549C2.3037 2.48362 4.89496 -0.27104 7.78006 1.80151C8.12734 2.03763 8.26091 2.22127 8.02049 2.43115C7.67321 2.71973 7.13893 3.2182 6.97864 3.06079ZM3.37226 3.55925C3.53255 3.76913 3.90654 3.74289 3.69283 3.97901C3.66611 4.03148 3.61269 4.05771 3.58597 4.08395C3.47912 4.18889 3.4524 4.21512 3.31883 4.13642C3.23869 4.11018 3.18526 4.05771 3.13184 4.00524C3.02498 3.9003 3.02498 3.87407 3.07841 3.74289C3.07841 3.69042 3.10512 3.63796 3.15855 3.50678C3.26541 3.16573 3.21198 3.34937 3.37226 3.55925ZM4.9751 2.53609C4.89496 2.37868 4.62782 1.95892 4.46753 1.85398C4.25382 1.69658 5.61623 1.19811 6.33751 1.4867C6.41765 1.51293 6.57793 2.56233 6.47108 2.53609C5.82994 2.27374 5.00181 2.56233 4.9751 2.53609ZM4.0134 2.0901C4.04011 2.06386 4.09354 2.06386 4.09354 2.0901C4.12025 2.11633 4.12025 2.1688 4.09354 2.1688C4.0134 2.22127 3.95997 2.29998 3.90654 2.35245C3.85311 2.43115 3.79968 2.50986 3.77297 2.58856C3.74626 2.64103 3.69283 2.66727 3.66611 2.64103C3.6394 2.6148 3.61269 2.58856 3.6394 2.56233C3.69283 2.48362 3.74626 2.37868 3.79968 2.29998C3.85311 2.24751 3.93325 2.1688 4.0134 2.0901ZM8.18077 2.37868C7.99377 2.64103 7.69992 2.98208 7.35264 3.13949C7.16564 3.19196 7.0855 3.13949 7.21907 3.32314C7.24578 3.37561 7.24578 3.40184 7.32592 3.45431C7.51292 3.58549 7.51292 3.55925 7.72663 3.42808C8.07391 3.2182 8.2342 2.79844 8.50134 2.58856C8.68833 2.45739 8.60819 2.35245 8.4212 2.29998C8.26091 2.24751 8.2342 2.27374 8.18077 2.37868ZM2.54413 5.34322C2.25028 5.36946 1.95642 4.97593 1.716 5.0284C1.31529 5.13334 1.18172 5.89415 0.460442 5.6318C0.246731 5.5531 0.193303 5.34322 0.326873 5.15958C0.834438 4.45124 1.76943 4.08395 2.38385 4.39877C2.73113 4.55618 2.75784 4.05771 2.89141 4.08395C3.4524 4.24136 3.4524 5.23828 2.54413 5.34322ZM2.78455 5.89415C2.75784 5.89415 2.73113 5.86792 2.70441 5.84168C2.70441 5.81545 2.73113 5.78921 2.75784 5.76298C3.07841 5.73674 3.42569 5.78921 3.77297 5.86792C3.90654 5.89415 4.04011 5.92039 4.17368 5.97286C4.20039 5.97286 4.22711 5.99909 4.22711 6.05156C4.22711 6.0778 4.20039 6.10403 4.14697 6.10403C4.0134 6.0778 3.87983 6.02533 3.74626 5.99909C3.42569 5.92039 3.07841 5.86792 2.78455 5.89415ZM0.407015 6.49756C0.433729 6.49756 0.433729 6.49756 0.460442 6.49756C0.620726 6.47132 0.861152 6.41885 1.155 6.36638C1.55571 6.28768 1.92971 6.20897 1.95642 6.20897C2.00985 6.26144 2.00985 6.36638 2.00985 6.49756C2.00985 6.57626 2.03656 6.78614 1.98314 6.86484C1.98314 6.86484 1.87628 6.91731 1.76943 6.94355C1.66257 6.96978 1.55571 6.99602 1.50229 6.99602C1.50229 6.99602 1.50229 6.99602 1.47557 6.99602L1.39543 6.44509C1.39543 6.41885 1.36872 6.39262 1.31529 6.39262C1.28857 6.39262 1.26186 6.41885 1.26186 6.47132L1.342 6.99602C1.18172 7.02225 0.994721 7.10096 0.834437 7.17966L0.727582 6.70743C0.727582 6.6812 0.674154 6.65496 0.64744 6.65496C0.620726 6.65496 0.594012 6.70743 0.594012 6.73367L0.700868 7.23213L0.64744 7.25837C0.567298 7.2846 0.51387 7.31084 0.487156 7.33707C0.433728 7.2059 0.407015 7.04849 0.407015 6.91731C0.380301 6.70743 0.407015 6.57626 0.407015 6.49756ZM0.193303 6.20897C0.113161 6.23521 0.139875 6.41885 0.273445 6.47132C0.273445 6.57626 0.273445 6.73367 0.300159 6.89108C0.326873 6.99602 0.353587 7.2846 0.407015 7.38954C0.433729 7.44201 0.460442 7.44201 0.51387 7.41578C0.51387 7.41578 0.700868 7.31084 0.727582 7.31084C0.754296 7.2846 0.78101 7.2846 0.834437 7.25837C1.02144 7.15343 1.26186 7.04849 1.42214 7.04849C1.44886 7.04849 1.44886 7.04849 1.47557 7.04849C1.529 7.04849 1.66257 7.02225 1.79614 6.99602C1.84957 6.96978 2.06328 6.91731 2.08999 6.86484C2.14342 6.7599 2.14342 6.60249 2.11671 6.44509C2.11671 6.31391 2.11671 6.18274 2.03656 6.10403C2.27699 6.0778 2.54413 6.0778 2.81127 6.10403C4.0134 6.20897 3.90654 6.39262 4.30725 6.31391C4.46753 6.28768 4.52096 5.99909 4.4141 5.94662C2.94484 5.23828 0.567298 6.10403 0.193303 6.20897ZM11.333 3.37561C11.8406 3.55925 12.3481 3.74289 12.5886 4.13642C13.0427 4.87099 12.4016 5.4744 12.8023 5.65804C13.9777 6.13027 14.6723 4.87099 13.764 3.34937C13.5236 2.95585 13.3098 2.6148 12.8557 2.22127C12.6687 2.03763 12.6687 1.98516 12.4016 2.1688C12.0276 2.37868 11.4132 2.92961 11.2262 3.19196C11.0926 3.32314 11.1994 3.32314 11.333 3.37561ZM11.0926 3.08702C11.2796 2.82467 11.9741 2.22127 12.2947 2.06386C12.455 1.98516 12.4817 1.93269 12.4283 1.85398C12.4016 1.80151 12.3481 1.74904 12.2947 1.69658C12.1077 1.5654 12.0276 1.59164 11.8139 1.69658C11.4666 1.90645 11.0659 2.64103 10.772 2.85091C10.585 2.98208 10.6652 3.08702 10.8522 3.13949C11.0124 3.19196 11.0392 3.19196 11.0926 3.08702ZM12.9359 4.68735C12.9359 4.66111 12.9626 4.63488 12.9893 4.60864C13.016 4.60864 13.0427 4.63488 13.0694 4.66111C13.0961 4.84476 13.0961 4.9497 13.0694 5.05464C13.0694 5.15958 13.0427 5.23828 13.016 5.34322C13.016 5.36946 12.9626 5.39569 12.9359 5.39569C12.9091 5.39569 12.8824 5.34322 12.8824 5.31699C12.9091 5.21205 12.9359 5.13334 12.9359 5.05464C12.9626 4.97593 12.9626 4.87099 12.9359 4.68735ZM13.2831 4.32006C13.6838 4.24136 13.8174 4.26759 13.7106 3.8216C13.6304 3.45431 13.3366 3.06079 13.0427 2.74597C12.829 2.53609 12.829 2.53609 12.5886 2.6935C12.2146 2.92961 11.9474 3.13949 11.9207 3.27067C11.9207 3.34937 12.0543 3.37561 12.268 3.50678C12.5351 3.69042 12.6954 3.87407 12.8023 4.03148C13.0427 4.425 12.9893 4.39877 13.2831 4.32006ZM10.959 7.25837C10.959 7.2846 10.9323 7.31084 10.8789 7.31084C10.8522 7.31084 10.8255 7.2846 10.8255 7.23213C10.8522 7.12719 10.8789 7.02225 10.9056 6.91731C10.959 6.81237 11.0124 6.73367 11.0659 6.65496C11.0926 6.62873 11.1193 6.62873 11.146 6.65496C11.1727 6.6812 11.1727 6.70743 11.146 6.73367C11.0926 6.81237 11.0392 6.89108 11.0124 6.96978C10.9857 7.04849 10.959 7.15343 10.959 7.25837ZM11.2529 6.34015C11.5734 6.20897 11.7872 6.96978 12.1611 6.28768C12.3749 5.94662 12.642 6.41885 12.5084 6.89108C12.4283 7.23213 12.0276 7.02225 11.6536 7.07472C11.1193 7.15343 11.52 7.96671 10.7987 7.8093C10.4247 7.73059 10.7987 6.55002 11.2529 6.34015ZM13.2297 5.84168C13.0694 5.84168 12.9359 5.81545 12.7756 5.73674C12.5619 5.6318 12.642 5.52687 12.4283 5.89415C12.3481 6.02533 12.4283 6.0778 12.6153 6.18274C12.8557 6.28768 12.829 6.20897 13.0694 6.0778C13.2297 5.94662 13.3633 5.84168 13.2297 5.84168ZM16.8895 6.20897C16.8094 6.28768 16.7025 6.31391 16.5957 6.31391C16.3552 6.31391 16.1682 6.13027 16.1682 5.89415C16.1682 5.81545 16.195 5.73674 16.2217 5.68427L16.8895 6.20897ZM16.5957 5.44816C16.8361 5.44816 17.0231 5.6318 17.0231 5.86792C17.0231 5.94662 16.9964 6.02533 16.9697 6.0778L16.3018 5.5531C16.382 5.50063 16.4621 5.44816 16.5957 5.44816ZM28.1361 7.38954C28.1628 7.41578 28.1628 7.44201 28.1628 7.46825C28.1361 7.49448 28.1094 7.49448 28.0827 7.49448C28.0292 7.46825 28.0025 7.41578 27.9758 7.36331C27.9491 7.31084 27.9224 7.25837 27.9224 7.2059C27.9224 7.17966 27.9224 7.15343 27.9224 7.10096C27.9224 7.07472 27.9491 7.04849 27.9491 7.02225C27.9758 6.99602 28.0025 6.96978 28.0292 6.99602C28.0559 7.02225 28.0827 7.04849 28.0559 7.07472C28.0559 7.10096 28.0292 7.10096 28.0292 7.12719C28.0292 7.15343 28.0292 7.17966 28.0292 7.17966C28.0292 7.2059 28.0292 7.25837 28.0559 7.2846C28.0827 7.33707 28.1094 7.36331 28.1361 7.38954ZM29.4985 6.6812L28.7505 6.28768L28.6169 6.20897L28.7238 6.05156L28.8574 6.13027L28.9909 5.94662L28.8574 5.86792L28.9642 5.71051L29.0978 5.78921L29.2314 5.60557L29.0978 5.52687L29.2046 5.36946L29.3382 5.44816L29.4718 5.26452L29.3382 5.18581L29.4451 5.0284L29.5786 5.10711L29.6855 4.9497C29.7656 4.84476 29.8725 4.79229 30.0061 4.87099C30.1129 4.92346 30.1396 5.05464 30.0862 5.18581L30.0061 5.36946L30.1396 5.44816L30.0595 5.6318L29.9259 5.5531L29.8458 5.76298L29.9793 5.84168L29.8992 6.02533L29.7656 5.94662L29.6855 6.1565L29.8191 6.23521L29.7389 6.41885L29.6053 6.34015L29.5252 6.55002L29.6588 6.62873L29.5786 6.81237L29.4985 6.6812ZM28.6704 7.96671L28.4299 7.73059L28.1094 7.65189C27.8155 7.57318 27.6819 7.15343 27.8957 6.94355L28.5368 6.28768L29.7122 6.91731L29.4184 7.75683C29.3115 8.01918 28.8841 8.15035 28.6704 7.96671ZM16.8094 1.61787C16.8094 1.64411 16.7559 1.67034 16.7292 1.67034C16.7025 1.67034 16.6758 1.61787 16.6758 1.59164C16.6758 1.5654 16.7025 1.53917 16.7292 1.51293C16.7559 1.4867 16.7827 1.46046 16.8094 1.46046C16.8361 1.46046 16.8628 1.43423 16.8895 1.43423C16.9162 1.43423 16.9429 1.43423 16.9697 1.43423C16.9964 1.43423 17.0231 1.4867 16.9964 1.51293C16.9964 1.53917 16.9429 1.5654 16.9162 1.53917H16.8895H16.8628C16.8628 1.53917 16.8361 1.53917 16.8361 1.5654C16.8094 1.61787 16.8094 1.61787 16.8094 1.61787ZM16.6491 1.95892C16.6758 2.01139 16.6758 2.1688 16.7025 2.24751C16.7292 2.35245 16.7827 2.66726 16.9429 2.66726C17.0231 2.66726 17.0765 2.6148 17.0765 2.53609C17.0765 2.50986 17.0765 2.48362 17.0498 2.48362C17.0231 2.45739 16.9964 2.43115 16.9964 2.35245C16.9964 2.27374 17.0498 2.14257 17.1834 2.14257C17.3169 2.14257 17.3704 2.27374 17.3704 2.35245C17.3704 2.43115 17.3437 2.45739 17.3169 2.48362C17.3169 2.50986 17.2902 2.50986 17.2902 2.53609C17.2902 2.6148 17.3437 2.66726 17.4238 2.66726C17.5574 2.66726 17.6375 2.35245 17.6642 2.24751C17.6909 2.14257 17.6909 2.01139 17.7176 1.95892C17.7711 1.85398 17.8245 1.80151 17.8245 1.67034C17.8245 1.4867 17.6642 1.32929 17.4772 1.32929C17.3169 1.32929 17.3169 1.40799 17.1567 1.40799C16.9964 1.40799 16.9964 1.32929 16.8361 1.32929C16.6491 1.32929 16.4888 1.46046 16.4888 1.67034C16.5422 1.80151 16.6224 1.85398 16.6491 1.95892ZM18.5191 3.37561L18.0382 2.90338C18.0115 2.87714 18.0115 2.85091 18.0115 2.82467C18.0115 2.79844 18.0115 2.7722 18.0382 2.74597L18.2519 2.53609C18.2786 2.50986 18.3054 2.50986 18.3321 2.50986C18.3588 2.50986 18.3855 2.53609 18.4122 2.53609L18.8931 3.00832C18.9198 3.03455 18.9198 3.06079 18.9198 3.08702C18.9198 3.11326 18.9198 3.13949 18.8931 3.16573L18.6793 3.37561C18.6526 3.40184 18.6259 3.40184 18.5992 3.40184C18.5725 3.40184 18.5458 3.40184 18.5191 3.37561ZM16.2217 1.01447H18.1985C18.3588 1.01447 18.4656 1.14564 18.4656 1.30305V2.50986L18.4389 2.45739C18.4122 2.43115 18.3855 2.40492 18.3321 2.40492C18.3054 2.40492 18.2519 2.40492 18.2252 2.43115L17.9581 2.6935C17.9314 2.74597 17.9046 2.79844 17.9046 2.82467C17.9046 2.85091 17.9314 2.90338 17.9581 2.92961L18.0649 3.03455H16.2217C16.0614 3.03455 15.9545 2.90338 15.9545 2.74597V1.27682C15.9545 1.11941 16.0614 1.01447 16.2217 1.01447ZM19.9883 1.09317C19.9883 1.06694 20.015 1.0407 20.0418 1.0407C20.0685 1.0407 20.0952 1.06694 20.0952 1.09317C20.0952 1.22435 20.0952 1.27682 20.0952 1.32929C20.0952 1.40799 20.0952 1.46046 20.0952 1.59164C20.0952 1.61787 20.0685 1.64411 20.015 1.64411C19.9883 1.64411 19.9616 1.61787 19.9616 1.5654C19.9616 1.43423 19.9616 1.38176 19.9616 1.32929C19.9883 1.27682 19.9883 1.22435 19.9883 1.09317ZM20.0418 0.961999C20.202 0.961999 20.3623 0.961999 20.5226 0.961999C20.7096 0.961999 20.6829 0.935764 20.6829 1.11941C20.6829 1.27682 20.6829 1.40799 20.6829 1.5654C20.6829 1.80151 20.6295 1.77528 20.8699 1.77528C21.0302 1.77528 21.1905 1.77528 21.3507 1.77528C21.5912 1.77528 21.5645 1.72281 21.5645 1.98516C21.5645 2.14257 21.5645 2.27374 21.5645 2.43115C21.5645 2.64103 21.5645 2.58856 21.3507 2.58856C21.1905 2.58856 21.0035 2.58856 20.8165 2.58856C20.6562 2.58856 20.6829 2.56233 20.6829 2.71973C20.6829 2.85091 20.6829 2.85091 20.6829 2.98208C20.6829 3.2182 20.7363 3.19196 20.5226 3.24443C20.3623 3.27067 20.2288 3.32314 20.0685 3.32314C19.7746 3.34937 19.8815 2.98208 19.8815 2.6935C19.8815 2.53609 19.9082 2.56233 19.7479 2.56233C19.5609 2.56233 19.4006 2.56233 19.2136 2.56233C18.9732 2.56233 19.0266 2.58856 19.0266 2.35245C19.0266 2.24751 19.0266 2.14257 19.0266 2.03763C19.0266 1.77528 18.9732 1.77528 19.2136 1.77528C19.3739 1.77528 19.5342 1.77528 19.6945 1.77528C19.9082 1.77528 19.8548 1.74904 19.8548 1.4867C19.8548 1.38176 19.8548 1.25058 19.8548 1.14564C19.8548 0.909529 19.828 0.961999 20.0418 0.961999ZM30.2732 12.0593C30.3801 11.7708 30.6739 11.2461 30.8075 10.9837C30.941 10.7738 31.1548 10.3016 31.2883 10.1442C31.502 11.0362 30.9945 11.9544 30.2732 12.0593ZM30.5136 10.5377C30.5136 10.5902 30.4869 10.8001 30.4869 10.8263C30.4869 10.8788 30.2198 11.0362 30.1931 11.0624C29.9526 11.1674 30.0061 11.6134 29.8992 12.0593C29.8191 12.3479 29.8725 12.4529 30.1663 12.4529C30.754 12.4266 31.3685 12.0069 31.5822 11.4559C31.7692 10.9312 31.876 9.72444 31.5822 9.59327C31.5555 9.59327 31.5288 9.59327 31.4753 9.59327C31.2883 9.72444 30.7273 10.1967 30.5136 10.5377ZM27.5484 3.45431C27.8422 3.55925 28.2964 3.74289 28.5101 3.84783C28.6436 3.92654 29.1779 4.16265 29.3115 4.26759C29.4451 4.37253 28.0292 4.66111 27.5217 3.63796C27.4682 3.50678 27.3881 3.37561 27.5484 3.45431ZM28.7505 3.53302C28.7238 3.53302 28.6704 3.53302 28.6436 3.53302C28.5902 3.53302 28.5635 3.45431 28.5635 3.42808C28.4032 3.11326 27.6552 3.06079 27.2011 3.2969C26.9874 3.66419 27.3881 4.37253 28.0025 4.68735C28.5635 4.97593 29.3382 4.89723 29.7122 4.39877C29.7122 4.37253 29.7122 4.3463 29.7122 4.32006C29.5519 3.92654 29.2581 3.48055 28.7505 3.53302ZM24.5297 16.1258C24.503 16.1258 24.4496 16.0995 24.4496 16.0733C24.4496 16.047 24.4763 15.9946 24.503 15.9946C24.5564 15.9946 24.6098 15.9683 24.6633 15.9421C24.7167 15.9159 24.7434 15.8634 24.7701 15.8372C24.7968 15.8109 24.8236 15.8109 24.8503 15.8109C24.877 15.8372 24.877 15.8634 24.877 15.8896C24.8236 15.9421 24.7968 15.9946 24.7167 16.047C24.69 16.0995 24.6098 16.1258 24.5297 16.1258ZM25.3311 15.7585L25.3845 16.5193C25.3845 16.6767 25.1708 16.8079 25.0106 16.7554L24.1023 16.493C24.0488 16.4668 24.0221 16.4406 24.0221 16.3881C24.0489 16.3094 24.0488 16.2045 24.0756 16.0995C24.1023 15.9159 24.0756 15.9421 24.2358 15.9421C24.4228 15.9421 24.6098 15.9159 24.7167 15.6798C24.7701 15.5748 24.7701 15.5748 24.877 15.6011L25.2243 15.6798C25.3044 15.6535 25.3311 15.706 25.3311 15.7585ZM23.9153 16.1782C23.8619 16.4143 23.8886 16.3619 23.6481 16.3619C23.4077 16.3619 23.4611 16.4143 23.4879 16.1782C23.5146 15.9946 23.4879 16.0208 23.6749 16.0208C23.942 16.0208 23.9687 15.9421 23.9153 16.1782ZM20.7096 14.5254C20.7363 14.5517 20.7363 14.6041 20.7096 14.6041C20.6829 14.6304 20.6295 14.6304 20.6295 14.6041C20.6028 14.5517 20.5226 14.5517 20.4692 14.5779C20.389 14.6304 20.2822 14.7091 20.202 14.7878C20.1753 14.814 20.1486 14.814 20.1219 14.7878C20.0952 14.7615 20.0952 14.7353 20.1219 14.7091C20.2288 14.6041 20.3356 14.5254 20.4425 14.473C20.5226 14.4205 20.6295 14.4205 20.7096 14.5254ZM23.4077 15.8634L23.2741 16.598C23.2474 16.7292 23.0871 16.7816 22.9536 16.7816C21.7782 16.8341 18.7328 15.5486 19.4273 15.0501L20.1753 14.4992C20.576 14.2106 20.5493 14.2106 20.95 14.5517C21.324 14.8927 21.4843 15.2075 23.2207 15.5486C23.3543 15.5748 23.4344 15.7322 23.4077 15.8634ZM25.3044 14.5779C25.3044 14.7091 25.3044 14.8402 25.3044 14.9714C25.3044 15.1026 25.3044 15.26 25.3044 15.3912C25.3044 15.5748 25.2777 15.4961 25.0907 15.4699C24.877 15.4436 24.8503 15.4699 24.9304 15.3125C24.9838 15.1813 25.0373 15.0501 25.0907 14.9189L25.251 14.5517V14.5254C25.2243 14.5254 25.1975 14.473 25.1708 14.4467C25.1441 14.368 25.1708 14.3155 25.251 14.2893C25.3311 14.2631 25.3845 14.2893 25.4113 14.368C25.438 14.4467 25.4113 14.4992 25.3311 14.5254C25.3311 14.5779 25.3044 14.5779 25.3044 14.5779ZM19.7746 11.6658C19.9349 11.8757 20.1753 12.1643 20.3089 12.4004C20.389 12.5316 20.6829 13.0038 20.7363 13.1612C20.763 13.2137 19.5876 12.7939 19.7746 11.6658ZM20.6829 12.243C20.6562 12.2168 20.6028 12.2168 20.576 12.1905C20.5493 12.1643 20.5493 12.0856 20.576 12.0593C20.6295 11.7183 20.0418 11.2723 19.5342 11.2198C19.2136 11.3772 19.2136 12.3742 19.5876 12.8464C19.9082 13.2399 20.3089 13.5285 20.9233 13.476C21.1103 13.3711 21.1103 12.4791 20.6829 12.243ZM18.3855 11.9019C18.2252 11.797 17.8779 11.7445 17.7978 11.7445C17.6375 11.7183 17.4505 12.8202 17.7711 13.4498C17.9581 13.7908 18.0382 13.7121 18.4122 13.6334C18.5458 13.6072 18.6793 13.581 18.7862 13.5547C19.1068 13.476 18.9732 13.476 18.8663 13.2924C18.6526 12.9776 18.5992 12.5053 18.5725 12.2168C18.5458 11.9806 18.5725 12.0069 18.3855 11.9019ZM18.2786 10.8788C18.3054 10.8525 18.3588 10.8788 18.3588 10.905C18.3855 10.9312 18.3588 10.9837 18.3321 10.9837C18.2519 11.0362 18.1718 11.0887 18.1184 11.1411C18.0649 11.1936 17.9848 11.2723 17.9314 11.351C17.9046 11.3772 17.8779 11.3772 17.8512 11.3772C17.8245 11.351 17.8245 11.3248 17.8245 11.2985C17.8779 11.2198 17.9581 11.1411 18.0115 11.0624C18.1184 10.9837 18.1985 10.9312 18.2786 10.8788ZM19.5876 13.5285C19.1602 13.3711 18.8663 12.7677 18.8129 12.1643C18.7328 11.5871 19.2136 11.3248 18.9732 11.01C18.7328 10.6689 18.4122 10.6427 18.1451 10.8263C16.9697 11.5346 16.9162 13.3973 18.0382 14.2368C18.2519 14.3942 18.2519 14.3942 18.5458 14.2631C18.8663 14.1057 19.4006 13.8171 19.6945 13.6859C19.9349 13.581 19.7746 13.6072 19.5876 13.5285ZM19.2136 10.9312C19.2671 10.8788 19.2938 10.8263 19.3205 10.7738C19.3739 10.6689 19.3472 10.6689 19.2938 10.5902C19.2403 10.5115 19.1869 10.459 19.1335 10.4328C19.0533 10.3803 19.0266 10.3803 18.9198 10.4066C18.8129 10.4328 18.6526 10.5115 18.5191 10.6164C18.4924 10.6164 18.4924 10.6427 18.5191 10.6427C18.7328 10.6427 18.9465 10.7738 19.0533 10.9575C19.1335 10.9837 19.1335 11.01 19.2136 10.9312ZM21.0302 9.27845C21.0302 9.30469 21.0035 9.35716 20.9767 9.35716C20.95 9.35716 20.8966 9.33092 20.8966 9.30469C20.8966 9.22598 20.8966 9.14728 20.9233 9.09481C20.95 9.04234 21.0035 8.96363 21.0836 8.9374C21.1103 8.91116 21.1637 8.9374 21.1637 8.96363C21.1905 8.98987 21.1637 9.04234 21.137 9.04234C21.0836 9.06857 21.0569 9.09481 21.0302 9.14728C21.0302 9.17351 21.0302 9.22598 21.0302 9.27845ZM20.6829 9.67197C20.9233 9.48833 20.6562 8.9374 21.0836 8.83246C21.9652 8.62258 21.698 10.5115 20.3623 10.0917C19.9349 9.96056 19.2938 10.5377 19.2938 10.3541C19.2938 10.2754 19.5876 9.85562 20.0952 9.67197C20.3623 9.59327 20.576 9.75068 20.6829 9.67197ZM19.8548 13.7121C19.5876 13.8958 18.8663 14.2893 18.5191 14.4205C18.3588 14.4992 18.2786 14.4467 18.3855 14.6304C18.4122 14.6828 18.4656 14.7353 18.5191 14.7878C18.7061 14.9189 18.7061 14.8927 18.9198 14.7615C19.2671 14.5517 19.8815 14.1581 20.1753 13.9483C20.3623 13.8171 20.2822 13.7121 20.0952 13.6597C19.9616 13.6072 19.9349 13.6597 19.8548 13.7121ZM28.9108 2.19504C28.9108 2.22127 28.8841 2.24751 28.8574 2.27374C28.8306 2.27374 28.8039 2.24751 28.7772 2.22127C28.7772 2.11633 28.7772 2.01139 28.8306 1.90645C28.8574 1.80151 28.9375 1.72281 28.9909 1.64411C29.0176 1.61787 29.0444 1.61787 29.0711 1.64411C29.0978 1.67034 29.0978 1.69658 29.0711 1.72281C29.0176 1.80151 28.9642 1.85398 28.9375 1.95892C28.9108 2.01139 28.9108 2.0901 28.9108 2.19504ZM28.6436 2.03763C28.6169 2.24751 28.6971 2.45739 28.8574 2.64103C29.0176 2.82467 29.2314 2.90338 29.4451 2.92961C29.6588 2.95585 29.8725 2.87714 30.0595 2.71973C30.2465 2.56233 30.3266 2.35245 30.3533 2.14257C30.3801 1.93269 30.2999 1.72281 30.1396 1.53917C29.9793 1.35552 29.7656 1.27682 29.5519 1.25058C29.3382 1.22435 29.1245 1.30305 28.9375 1.46046C28.7505 1.61787 28.6704 1.82775 28.6436 2.03763ZM28.7505 2.71973C28.5635 2.50986 28.4834 2.27374 28.5101 2.01139C28.5368 1.77528 28.6436 1.53917 28.8306 1.35552C29.0444 1.17188 29.2848 1.09317 29.5519 1.11941C29.7923 1.14564 30.0328 1.25058 30.2198 1.43423C30.4068 1.64411 30.4869 1.88022 30.4602 2.14257C30.4335 2.37868 30.3266 2.6148 30.1396 2.79844C29.9259 2.98208 29.6855 3.06079 29.4184 3.03455C29.1779 3.03455 28.9375 2.92961 28.7505 2.71973ZM28.6436 2.82467C28.2429 2.37868 28.2697 1.67034 28.7505 1.27682C29.2046 0.883294 29.9259 0.909529 30.3266 1.38176C30.3801 1.46046 30.4335 1.53917 30.4869 1.61787L30.8609 1.46046C30.8609 1.32929 30.941 1.17188 31.1548 1.09317L31.4486 0.988234C31.6356 0.909529 31.8493 1.01447 31.9295 1.19811C32.0096 1.38176 31.9027 1.59164 31.7157 1.67034L31.4219 1.77528C31.2082 1.85398 31.0479 1.80151 30.941 1.69658L30.5671 1.85398C30.6739 2.24751 30.5671 2.66727 30.2198 2.95585C29.7656 3.32314 29.0711 3.27067 28.6436 2.82467ZM16.7025 3.63796C16.5689 3.50678 15.821 4.05771 16.0347 4.29383L16.7025 3.63796ZM20.6829 4.66111C20.7096 4.63488 20.7363 4.63488 20.763 4.63488C20.7897 4.66111 20.7898 4.68735 20.7898 4.71358C20.6829 4.87099 20.5493 5.00217 20.4158 5.10711C20.2822 5.21205 20.1486 5.29075 19.9883 5.34322L20.0418 5.4744C20.1486 5.73674 20.1753 5.76298 19.8548 5.81545C19.1068 5.97286 17.2101 6.10403 16.195 4.52994L16.1148 4.60864C16.0614 4.68735 15.9545 4.55618 15.9812 4.50371L16.7827 3.71666L16.8628 3.63796C16.8895 3.61172 17.0498 3.66419 16.9964 3.74289L16.8895 3.84783C17.0765 4.08395 17.2635 4.24136 17.4505 4.39877L17.1834 4.71358C17.1567 4.73982 17.1567 4.79229 17.1834 4.79229C17.2101 4.81852 17.2635 4.81852 17.2635 4.79229L17.5306 4.47747C17.6909 4.58241 17.8779 4.68735 18.0382 4.73982L17.9046 5.10711C17.9046 5.13334 17.9046 5.18581 17.9581 5.18581C17.9848 5.18581 18.0382 5.18581 18.0382 5.13334L18.1718 4.76605C18.3588 4.81852 18.5458 4.87099 18.7328 4.89723L18.7595 5.31699C18.7595 5.34322 18.7862 5.36946 18.8129 5.36946C18.8396 5.36946 18.8663 5.34322 18.8663 5.31699L18.8396 4.92346C19.0801 4.9497 19.2938 4.92346 19.4541 4.89723C19.7746 4.84476 19.7746 4.73982 19.8815 4.97593L19.9883 5.23828C20.1219 5.18581 20.2555 5.10711 20.3623 5.0284C20.4692 4.92346 20.576 4.79229 20.6829 4.66111ZM19.7212 7.49448C19.7212 7.52071 19.6945 7.54695 19.6411 7.54695C19.6143 7.54695 19.5876 7.52071 19.5876 7.46825C19.6143 7.36331 19.6411 7.23213 19.7212 7.15343C19.7746 7.04849 19.8815 6.96978 19.9616 6.91731C19.9883 6.89108 20.0418 6.91731 20.0418 6.94355C20.0685 6.96978 20.0418 7.02225 20.015 7.02225C19.9349 7.07472 19.8548 7.15343 19.8013 7.23213C19.7746 7.31084 19.7479 7.38954 19.7212 7.49448ZM20.3623 8.49141C20.6295 8.49141 20.8432 8.38647 21.0302 8.22906C21.1905 8.07165 21.2973 7.83553 21.2973 7.57318C21.2973 7.31084 21.1905 7.10096 21.0302 6.91731C20.8699 6.7599 20.6295 6.65496 20.3623 6.65496C20.0952 6.65496 19.8815 6.7599 19.6945 6.91731C19.5342 7.07472 19.4273 7.31084 19.4273 7.57318C19.4273 7.83553 19.5342 8.04541 19.6945 8.22906C19.8815 8.38647 20.0952 8.49141 20.3623 8.49141ZM20.3623 8.62258C20.0685 8.62258 19.8013 8.51764 19.6143 8.334C19.4273 8.15035 19.2938 7.888 19.2938 7.59942C19.2938 7.31084 19.4006 7.04849 19.5876 6.86484C19.7746 6.6812 20.0418 6.55002 20.3356 6.55002C20.6295 6.55002 20.8966 6.65496 21.0836 6.83861C21.2706 7.02225 21.4042 7.2846 21.4042 7.57318C21.4042 7.86177 21.2973 8.12412 21.1103 8.30776C20.9233 8.49141 20.6562 8.62258 20.3623 8.62258ZM20.3623 8.77999C19.6945 8.77999 19.1335 8.25529 19.1335 7.57318C19.1335 6.91731 19.6678 6.36638 20.3623 6.36638C20.4692 6.36638 20.576 6.36638 20.6562 6.39262L20.7898 5.99909C20.6829 5.89415 20.6295 5.73674 20.6829 5.57934L20.7898 5.26452C20.8699 5.05464 21.0836 4.9497 21.2973 5.0284C21.511 5.10711 21.6179 5.31699 21.5377 5.52687L21.4309 5.84168C21.3775 6.02533 21.1905 6.13027 21.0035 6.10403L20.8699 6.49756C21.2706 6.6812 21.5645 7.10096 21.5645 7.57318C21.5912 8.22906 21.0569 8.77999 20.3623 8.77999ZM26.2928 15.8634C26.3997 15.9683 26.56 16.047 26.7202 16.047C26.8805 16.047 27.0408 15.9683 27.1477 15.8634C27.2545 15.7585 27.3347 15.6011 27.3347 15.4436C27.3347 15.2862 27.2545 15.1288 27.1477 15.0239C27.0408 14.9189 26.8805 14.8402 26.7202 14.8402C26.56 14.8402 26.3997 14.9189 26.2928 15.0239C26.186 15.1288 26.1058 15.2862 26.1058 15.4436C26.1058 15.6011 26.186 15.7585 26.2928 15.8634ZM26.7202 16.1782C26.5065 16.1782 26.3195 16.0995 26.186 15.9683C26.0524 15.8372 25.9723 15.6535 25.9723 15.4436C25.9723 15.2338 26.0524 15.0501 26.186 14.9189C26.3195 14.7878 26.5065 14.7091 26.7202 14.7091C26.934 14.7091 27.121 14.7878 27.2545 14.9189C27.3881 15.0501 27.4682 15.2338 27.4682 15.4436C27.4682 15.6535 27.3881 15.8372 27.2545 15.9683C27.121 16.0995 26.934 16.1782 26.7202 16.1782ZM26.373 15.26C26.3462 15.2862 26.3195 15.3125 26.2928 15.2862C26.2661 15.26 26.2394 15.2338 26.2661 15.2075C26.2928 15.1551 26.3195 15.1026 26.373 15.0764C26.4264 15.0239 26.4798 14.9977 26.5332 14.9977C26.56 14.9977 26.6134 14.9977 26.6134 15.0239C26.6134 15.0501 26.6134 15.1026 26.5867 15.1026C26.56 15.1288 26.5065 15.1288 26.4798 15.1551C26.3997 15.2075 26.373 15.2338 26.373 15.26ZM26.7202 16.3094C26.2394 16.3094 25.8387 15.9159 25.8387 15.4436C25.8387 14.9714 26.2394 14.5779 26.7202 14.5779C27.0942 14.5779 27.4148 14.814 27.5484 15.1288C28.4299 14.9189 29.6321 14.6828 29.8992 13.0563C29.9259 12.8989 30.0595 12.689 30.2198 12.689C30.5136 12.6627 30.5136 13.0038 30.4869 13.135C30.1396 14.4205 28.8306 15.3649 27.6285 15.4436C27.6018 15.9159 27.2278 16.3094 26.7202 16.3094ZM19.8548 4.05771C20.4158 3.95277 20.95 3.76913 21.2439 3.69042C21.2706 3.71666 21.324 3.76913 21.3507 3.84783C21.4042 3.92654 21.511 4.3463 21.4309 4.3463C21.4309 4.3463 21.3775 4.3463 21.2973 4.37253L21.1103 3.84783C21.0836 3.8216 21.0569 3.79536 21.0302 3.8216C21.0035 3.84783 20.9767 3.87407 21.0035 3.9003L21.1905 4.3463C21.1637 4.3463 21.1103 4.3463 21.0836 4.3463C20.95 4.37253 20.8432 4.37253 20.7096 4.39877L20.576 4.05771C20.5493 4.03148 20.5226 4.00524 20.4959 4.03148C20.4692 4.05771 20.4425 4.08395 20.4692 4.11018L20.6028 4.45124C20.5493 4.45124 20.4959 4.47747 20.4692 4.47747C20.4158 4.50371 20.2822 4.52994 20.202 4.55618C20.1486 4.55618 20.1486 4.58241 20.1219 4.58241C20.0418 4.50371 19.9349 4.32006 19.9082 4.16265C19.8815 4.11018 19.8548 4.08395 19.8548 4.05771ZM18.4122 3.8216C18.4389 3.8216 18.4656 3.84783 18.4656 3.9003C18.4656 3.92654 18.4389 3.95277 18.3855 3.95277C18.2252 3.92654 18.0382 3.9003 17.9046 3.8216C17.7444 3.76913 17.6108 3.69042 17.4772 3.58549C17.4505 3.55925 17.4505 3.53302 17.4772 3.50678C17.5039 3.48055 17.5306 3.48055 17.5574 3.50678C17.6642 3.61172 17.7978 3.66419 17.9314 3.71666C18.0649 3.74289 18.2252 3.79536 18.4122 3.8216ZM21.4309 3.66419C21.5377 3.63796 21.4843 3.32314 21.2172 3.37561C20.5493 3.45431 19.4808 3.95277 18.5191 3.79536C17.3169 3.58549 17.6909 3.16573 17.2902 3.2182C17.1299 3.24443 17.0765 3.48055 17.1567 3.55925C17.7711 4.29383 18.8396 4.26759 19.7479 4.08395C19.7479 4.11018 19.7479 4.16265 19.7746 4.18889C19.828 4.37253 19.9349 4.55618 20.015 4.66111C20.0418 4.68735 20.1219 4.68735 20.202 4.68735C20.3089 4.66111 20.4425 4.63488 20.4959 4.60864C20.6562 4.55618 20.8966 4.52994 21.1103 4.50371C21.1637 4.50371 21.2439 4.47747 21.2973 4.47747C21.4309 4.45124 21.511 4.425 21.5645 4.39877C21.6713 4.24136 21.5912 3.92654 21.4843 3.76913C21.4843 3.71666 21.4576 3.69042 21.4309 3.66419ZM26.4264 4.71358C26.4264 4.68735 26.4531 4.66111 26.4798 4.66111C26.5065 4.66111 26.5332 4.68735 26.5332 4.71358C26.5332 4.89723 26.5332 5.15958 26.5065 5.36946C26.5065 5.65804 26.5065 5.89415 26.5065 5.99909C26.5065 6.02533 26.4798 6.05156 26.4531 6.05156C26.4264 6.05156 26.3997 6.02533 26.3997 5.99909C26.3997 5.89415 26.3997 5.6318 26.3997 5.36946C26.3997 5.13334 26.3997 4.89723 26.4264 4.71358ZM27.1477 1.4867C27.121 1.4867 27.0942 1.46046 27.0942 1.43423C27.0942 1.40799 27.121 1.38176 27.1477 1.38176H27.7087C27.7354 1.32929 27.7354 1.30305 27.7621 1.25058C27.7621 1.25058 27.7354 1.22435 27.7087 1.19811C27.6552 1.17188 27.6018 1.14564 27.5217 1.14564C27.2812 1.09317 26.934 1.11941 26.8004 1.17188C26.747 1.19811 26.747 1.22435 26.7202 1.25058C26.7202 1.27682 26.7202 1.27682 26.7202 1.30305V2.66726H26.747C26.8805 2.66726 27.0408 2.66726 27.1744 2.66726C27.2545 2.66726 27.308 2.66726 27.3614 2.66726C27.5217 2.66726 27.5751 2.66727 27.6018 2.64103C27.6018 2.64103 27.6018 2.6148 27.6018 2.56233C27.6018 2.53609 27.6018 2.48362 27.6018 2.43115H26.934C26.9072 2.43115 26.8805 2.40492 26.8805 2.37868C26.8805 2.35245 26.9072 2.32621 26.934 2.32621H27.6018C27.6018 2.29998 27.6018 2.24751 27.6018 2.22127C27.6018 2.03763 27.6018 1.80151 27.6819 1.53917H27.1477V1.4867ZM26.5065 1.0407C26.56 1.0407 26.6134 1.06694 26.6668 1.11941C26.6935 1.09317 26.7202 1.06694 26.7737 1.0407C26.9072 0.988234 27.2812 0.961999 27.5484 1.01447C27.6285 1.0407 27.7087 1.0407 27.7621 1.06694C27.8422 1.09317 27.8689 1.14564 27.8957 1.22435C27.8957 1.25058 27.8957 1.27682 27.8689 1.30305C27.6819 1.67034 27.6819 1.95892 27.7087 2.1688C27.7087 2.22127 27.7087 2.24751 27.7087 2.29998C27.7087 2.32621 27.7087 2.32621 27.7087 2.35245C27.7087 2.43115 27.7087 2.48362 27.7087 2.50986C27.7087 2.6148 27.7354 2.64103 27.6819 2.6935C27.6285 2.74597 27.5484 2.74597 27.3881 2.74597C27.3347 2.74597 27.2812 2.74597 27.2011 2.74597C27.0408 2.74597 26.8805 2.74597 26.7737 2.74597H26.747V6.13027C26.747 6.44509 26.3195 6.34015 26.3195 6.0778V1.19811C26.3195 1.11941 26.3997 1.0407 26.5065 1.0407ZM27.9224 5.13334C27.9758 5.21205 28.0025 5.29075 28.0025 5.36946C28.0025 5.60557 27.8155 5.78921 27.5751 5.78921C27.4682 5.78921 27.3614 5.76298 27.2812 5.68427L27.9224 5.13334ZM27.5751 4.9497C27.6819 4.9497 27.7888 4.97593 27.8689 5.05464L27.2278 5.6318C27.1744 5.5531 27.1477 5.4744 27.1477 5.39569C27.121 5.13334 27.3347 4.9497 27.5751 4.9497ZM28.1094 11.6396C28.1361 11.6396 28.1628 11.6658 28.1628 11.6921C28.1628 11.7183 28.1361 11.7445 28.1094 11.7445C27.9758 11.7445 27.8155 11.7708 27.6819 11.8232C27.5484 11.8757 27.4148 11.9544 27.3079 12.0331C27.2812 12.0593 27.2278 12.0593 27.2278 12.0331C27.2011 12.0069 27.2011 11.9544 27.2278 11.9544C27.3614 11.8495 27.4949 11.7708 27.6285 11.7183C27.7888 11.6658 27.9491 11.6396 28.1094 11.6396ZM26.5065 13.476C27.3079 14.9714 29.0711 14.5254 29.3382 13.6859C29.5252 13.1612 29.2314 13.3973 28.9375 13.5547C28.4032 13.8433 27.4949 14.2106 26.8805 13.03C26.7737 13.1874 26.6668 13.3449 26.5065 13.476ZM24.5831 12.1643C24.69 12.3479 24.7434 12.1905 24.8236 12.1118C25.251 11.7183 25.9723 12.2955 26.186 12.7152C26.2127 12.6627 26.2394 12.6365 26.2928 12.584C26.3462 12.4791 26.4264 12.3742 26.5332 12.2692C26.4798 12.1905 26.4264 12.1118 26.3462 12.0331C26.1325 11.797 25.7318 11.6396 25.3845 11.6134C24.9037 11.6134 24.503 12.0593 24.5831 12.1643ZM24.5831 12.9513C24.6366 12.8989 24.7434 12.8726 24.7434 12.8989C24.9037 13.1874 25.5715 13.8433 26.3195 12.689C27.7087 10.6164 29.7389 11.797 29.4451 12.1905C29.2848 12.4266 29.1779 11.6658 27.7888 12.0331C27.0408 12.2168 26.934 13.2399 26.1593 13.6334C25.8921 13.7646 25.3044 13.8433 24.9571 13.6334C24.7701 13.5285 24.4763 13.03 24.5831 12.9513ZM25.9723 11.0362C25.9455 11.0624 25.8921 11.0362 25.8921 11.01C25.8654 10.9837 25.8921 10.9312 25.9188 10.9312C25.9723 10.905 26.0257 10.8525 26.0791 10.8263C26.1325 10.7738 26.1593 10.7214 26.2127 10.6689C26.2394 10.6427 26.2661 10.6427 26.2928 10.6427C26.3195 10.6689 26.3195 10.6951 26.3195 10.7214C26.2661 10.7738 26.2394 10.8525 26.186 10.905C26.0791 10.9575 26.0257 11.01 25.9723 11.0362ZM25.8654 11.4035L26.5867 11.351C26.7202 11.351 26.7737 11.1674 26.7737 11.0362V10.1967C26.7737 10.1442 26.7202 10.118 26.6668 10.1442C26.6134 10.1704 26.5065 10.1704 26.3997 10.1967C26.186 10.2491 26.2661 10.2491 26.186 10.4066C26.1325 10.5377 25.9723 10.8001 25.7853 10.905C25.5983 11.01 25.5983 10.9312 25.6784 11.1149L25.7585 11.351C25.7853 11.4035 25.812 11.4035 25.8654 11.4035ZM26.5332 10.0655H26.56C26.6935 10.0655 26.6935 10.0917 26.7202 9.96056C26.7202 9.93432 26.7202 9.90809 26.747 9.88185C26.7737 9.72444 26.7737 9.75068 26.6134 9.69821C26.5065 9.67197 26.4798 9.64574 26.4531 9.82938C26.4531 9.88185 26.4264 9.93432 26.4264 9.96056C26.3997 10.0917 26.373 10.0655 26.5332 10.0655ZM26.5065 7.75683C26.5065 7.73059 26.5332 7.67812 26.56 7.67812C26.5867 7.67812 26.6401 7.70436 26.6401 7.73059C26.6668 7.94047 26.6935 8.15035 26.6935 8.38647C26.6935 8.59634 26.6668 8.83246 26.6401 9.06857C26.6401 9.09481 26.6134 9.12104 26.56 9.12104C26.5332 9.12104 26.5065 9.09481 26.5065 9.04234C26.5332 8.83246 26.56 8.59634 26.56 8.38647C26.56 8.17659 26.56 7.96671 26.5065 7.75683ZM26.8805 9.72444C27.0141 9.80315 27.2011 9.72444 27.2545 9.59327C27.4949 9.06857 27.8689 6.65496 27.0141 6.78614L26.6401 6.83861C26.3195 6.89108 26.3462 6.86484 26.3462 7.23213V8.83246C26.3462 8.96363 26.3462 9.06857 26.3195 9.19975C26.2661 9.51456 26.1593 9.48833 26.4531 9.59327C26.6134 9.59327 26.747 9.64574 26.8805 9.72444ZM24.877 11.351H25.1441C25.251 11.351 25.3311 11.351 25.438 11.351C25.625 11.351 25.5983 11.3772 25.5715 11.1674C25.5448 11.01 25.5715 10.9837 25.438 11.0362C25.3311 11.0887 25.2243 11.1149 25.1174 11.1674L24.877 11.2723C24.8503 11.2198 24.7701 11.1936 24.7167 11.2198C24.6366 11.2461 24.6098 11.3248 24.6366 11.3772C24.6633 11.4559 24.7434 11.4822 24.7968 11.4559C24.8503 11.4297 24.877 11.4035 24.877 11.351ZM22.9002 13.0038C22.8734 13.0038 22.8467 12.9776 22.8467 12.9251C22.8467 12.8989 22.8734 12.8726 22.9269 12.8726C22.9803 12.8726 23.0337 12.8989 23.0871 12.9251C23.1406 12.9513 23.1673 13.0038 23.194 13.0563C23.2207 13.0825 23.2207 13.1087 23.2207 13.135C23.2207 13.1612 23.2207 13.1874 23.2207 13.2137C23.2207 13.2399 23.194 13.2662 23.1406 13.2662C23.1139 13.2662 23.0871 13.2399 23.0871 13.1874C23.0871 13.1612 23.0871 13.1612 23.0871 13.135C23.0871 13.1087 23.0871 13.1087 23.0604 13.0825C23.0337 13.0563 23.0337 13.03 22.9803 13.0038C22.9803 13.03 22.9536 13.0038 22.9002 13.0038ZM23.3543 13.6597C23.8084 12.8989 22.7132 12.1381 21.698 13.2137C21.4309 13.5023 21.4042 13.7646 21.6446 14.0532C21.5912 14.2631 21.5912 14.6566 21.9919 14.8402C23.3276 15.4699 24.0756 14.473 23.4077 13.7908C23.8619 13.8433 24.129 13.5023 24.2626 13.3186C24.2893 13.2924 24.316 13.2662 24.316 13.2399C24.3427 13.2399 24.3427 13.2399 24.3694 13.2137C24.3961 13.1874 24.3961 13.1612 24.3694 13.135C24.3427 13.0825 24.2893 13.0825 24.2358 13.135C24.2091 13.1612 24.1824 13.1874 24.1557 13.2399C24.0221 13.4236 23.7817 13.7384 23.3543 13.6597ZM17.1032 8.62258C17.0498 8.59634 17.0231 8.64881 17.0231 8.67505C16.9429 8.80622 16.4888 9.22598 16.3552 9.27845C16.3285 9.30469 16.2751 9.30469 16.3018 9.35716C16.3285 9.40963 16.382 9.38339 16.4087 9.35716C16.6224 9.22598 17.2368 8.72752 17.1032 8.62258ZM16.1148 6.49756C16.5422 6.47132 17.3169 6.70743 16.7292 7.41578C18.5725 8.01918 17.0765 9.22598 16.2484 10.0917C16.1148 10.2229 16.0347 10.2229 16.008 10.013L15.9812 9.67197C15.9545 9.43586 15.9545 9.48833 16.1415 9.33092C16.7292 8.83246 17.6909 8.20282 16.6491 7.83553C15.7675 7.54695 16.4888 7.17966 16.5422 7.04849C16.5689 6.83861 16.3018 6.83861 16.1148 6.86484C15.9545 6.89108 15.9812 6.83861 15.9812 6.7599V6.6812C15.9278 6.49755 15.9545 6.49756 16.1148 6.49756ZM17.7176 8.01918C17.6108 7.8093 17.5039 7.59942 17.4238 7.44201C17.3169 7.2059 17.2368 6.99602 17.1834 6.78614C17.1299 6.55002 17.1567 6.34015 17.2635 6.20897C17.4238 6.02533 17.9046 6.05156 18.1184 6.0778C18.3054 6.10403 18.4924 6.13027 18.6526 6.23521C18.8129 6.34015 18.9465 6.47132 19.0266 6.6812C19.1335 7.12719 18.9732 7.94047 18.5725 8.30776C18.1451 8.72752 17.9314 8.4127 17.7176 8.01918ZM17.5841 6.20897C17.3971 6.20897 17.1834 6.49756 17.3169 6.49756C17.3971 6.49756 17.3704 6.41885 17.4505 6.34015C17.5039 6.31391 17.5841 6.28768 17.6108 6.28768C17.6375 6.26144 17.6375 6.20897 17.5841 6.20897ZM18.4122 7.96671C18.5725 7.78306 18.7595 7.07472 18.7061 6.83861C18.6793 6.73367 18.5992 6.65496 18.5191 6.60249C18.4122 6.55002 18.2786 6.49756 18.1451 6.49756C17.9046 6.47132 17.5039 6.44509 17.5574 6.78614C17.5841 6.96978 17.6375 7.12719 17.7444 7.33707C17.8512 7.59942 18.1451 8.28153 18.4122 7.96671ZM24.7167 14.1844C24.7968 14.2893 24.8236 14.4467 24.7701 14.5779C24.69 14.814 24.4496 14.9189 24.2091 14.8402C24.1557 14.814 24.129 14.814 24.1023 14.7878L24.7167 14.1844ZM23.942 14.3155C24.0221 14.0794 24.2626 13.9745 24.503 14.0532C24.5564 14.0794 24.5831 14.0794 24.6098 14.1057L23.9954 14.7091C23.9153 14.6041 23.8886 14.4467 23.942 14.3155ZM28.8306 12.3479C28.9108 12.4266 28.9375 12.5316 28.9108 12.6103C28.9108 12.7152 28.8574 12.7939 28.7772 12.8726L28.2429 13.3186C28.1628 13.3973 28.0559 13.4236 27.9758 13.3973C27.8689 13.3973 27.7888 13.3449 27.7087 13.2662C27.6285 13.1874 27.6018 13.0825 27.6285 13.0038C27.6285 12.8989 27.6819 12.8202 27.7621 12.7415L28.2964 12.2955C28.3765 12.2168 28.4834 12.1905 28.5635 12.2168C28.6436 12.243 28.7505 12.2692 28.8306 12.3479ZM28.0827 12.6627L27.8422 12.8726C27.7888 12.9251 27.7621 12.9776 27.7621 13.03C27.7621 13.0825 27.7888 13.1612 27.8155 13.2137C27.8689 13.2662 27.9224 13.2924 27.9758 13.2924C28.0292 13.2924 28.1094 13.2662 28.1628 13.2399L28.4032 13.03L28.0827 12.6627ZM16.8895 11.1149C16.9162 11.0887 16.9697 11.0887 16.9964 11.1149C16.9964 11.1149 17.0231 11.1411 17.0231 11.1674C16.9697 11.2198 16.9162 11.2461 16.8361 11.2461C16.7827 11.2723 16.7025 11.2723 16.6491 11.2461C16.6224 11.2461 16.5689 11.2198 16.5422 11.1936C16.5155 11.1674 16.4888 11.1411 16.4621 11.1149C16.4354 11.0887 16.4354 11.0362 16.4621 11.01C16.4888 10.9837 16.5422 10.9837 16.5689 11.01C16.5957 11.0362 16.5957 11.0362 16.6224 11.0624C16.6491 11.0624 16.6758 11.0887 16.7025 11.0887C16.7559 11.0887 16.7827 11.0887 16.8361 11.0887C16.8094 11.1674 16.8628 11.1411 16.8895 11.1149ZM17.0231 11.351C16.9162 11.4297 16.7827 11.4559 16.6491 11.4559C16.5155 11.4297 16.382 11.3772 16.3018 11.2723C16.2217 11.1674 16.195 11.0362 16.195 10.905C16.2217 10.7738 16.2751 10.6427 16.3819 10.564C17.1567 9.98679 17.9314 9.38339 18.7061 8.80622C18.6793 8.75375 18.6526 8.70128 18.6793 8.67505C18.6793 8.62258 18.7061 8.57011 18.7595 8.54387C18.8129 8.51764 18.8663 8.4914 18.8931 8.51764C18.9465 8.51764 18.9999 8.54387 19.0266 8.59634L19.6678 9.40963C19.6945 9.4621 19.7212 9.51457 19.6945 9.5408C19.6945 9.59327 19.6678 9.64574 19.6143 9.67197C19.5609 9.69821 19.5075 9.72444 19.4808 9.69821C19.4273 9.69821 19.3739 9.67197 19.3472 9.6195C18.5725 10.1967 17.7978 10.7738 17.0231 11.351ZM19.4006 9.4621L19.4541 9.5408L19.4808 9.56703H19.5075L19.5342 9.5408V9.51456L18.8931 8.70128L18.8663 8.67505H18.8396L18.8129 8.70128V8.72752L18.8663 8.80622C18.8931 8.83246 18.8931 8.88493 18.8396 8.91116L17.9581 9.56703L18.4122 10.1442L19.2938 9.4621C19.3472 9.40963 19.3739 9.43586 19.4006 9.4621ZM30.9945 8.88493C30.9945 8.83246 30.9678 8.80622 30.9143 8.80622C30.8876 8.80622 30.8876 8.80622 30.8609 8.83246C30.8609 8.91116 30.8609 8.96363 30.8876 9.04234C30.9143 9.09481 30.9678 9.14728 31.0212 9.19975C31.0479 9.22598 31.0746 9.25222 31.128 9.25222C31.1548 9.27845 31.2082 9.27845 31.2349 9.27845C31.2616 9.27845 31.315 9.25222 31.315 9.19975C31.315 9.14728 31.2883 9.12104 31.2616 9.12104C31.2349 9.12104 31.2082 9.12104 31.1815 9.09481C31.1548 9.09481 31.128 9.06857 31.128 9.06857C31.1013 9.04234 31.0746 9.0161 31.0479 8.96363C30.9945 8.96363 30.9945 8.91116 30.9945 8.88493ZM30.7273 8.9374C30.7273 9.09481 30.7808 9.22598 30.8876 9.30469C30.9945 9.40963 31.128 9.4621 31.2616 9.4621C31.3952 9.4621 31.5288 9.40963 31.6356 9.30469C31.7425 9.19975 31.7959 9.06857 31.7959 8.9374C31.7959 7.94047 31.7959 6.94355 31.7959 5.94662H31.8226C31.876 5.94662 31.9295 5.92039 31.9562 5.89415C31.9829 5.86792 32.0096 5.81545 32.0096 5.76298C32.0096 5.71051 31.9829 5.65804 31.9562 5.6318C31.9295 5.60557 31.876 5.57934 31.8226 5.57934H30.7273C30.6739 5.57934 30.6205 5.60557 30.5938 5.6318C30.5671 5.65804 30.5403 5.71051 30.5403 5.76298C30.5403 5.81545 30.5671 5.86792 30.5938 5.89415C30.6205 5.92039 30.6739 5.94662 30.7273 5.94662C30.7273 6.94355 30.7273 7.94047 30.7273 8.9374ZM30.7808 5.78921H30.7006C30.7006 5.78921 30.6739 5.78921 30.6739 5.76298L30.6472 5.73674C30.6472 5.73674 30.6472 5.71051 30.6739 5.71051L30.7006 5.68427H31.7959C31.7959 5.68427 31.8226 5.68427 31.8226 5.71051L31.8493 5.73674C31.8493 5.73674 31.8493 5.76298 31.8226 5.76298L31.7959 5.78921H31.7157C31.6623 5.78921 31.6356 5.81545 31.6356 5.86792V6.99602H30.8876V5.84168C30.8609 5.84168 30.8342 5.78921 30.7808 5.78921ZM28.6169 8.64881C28.5902 8.67505 28.5368 8.64881 28.5101 8.62258C28.4834 8.59634 28.5101 8.54387 28.5368 8.51764C28.5902 8.4914 28.6704 8.46517 28.7505 8.46517C28.8306 8.46517 28.8841 8.4914 28.9375 8.51764C28.9642 8.54387 29.0176 8.57011 29.0444 8.59634C29.0711 8.62258 29.0978 8.64881 29.1245 8.67505C29.1512 8.70128 29.1245 8.75375 29.0978 8.77999C29.0711 8.80622 29.0176 8.77999 28.9909 8.75375C28.9909 8.72752 28.9642 8.70128 28.9375 8.70128C28.9108 8.67505 28.9108 8.67505 28.8841 8.64881C28.8306 8.62258 28.8039 8.62258 28.7505 8.62258C28.6971 8.62258 28.6436 8.64881 28.6169 8.64881ZM29.5252 8.96363C29.3382 7.888 27.6819 8.07165 27.6819 9.82938C27.6819 10.3016 27.7888 10.3278 28.2964 10.6164C28.4299 10.8263 28.7505 11.1936 29.2581 11.0362C30.941 10.5377 30.8075 9.09481 29.7122 8.98987C30.1129 8.67505 30.0595 8.20282 30.0328 7.94047C30.0328 7.888 30.0328 7.86177 30.0328 7.83553C30.0595 7.83553 30.0595 7.8093 30.0595 7.78306C30.0595 7.73059 30.0328 7.70436 30.0061 7.70436C29.9259 7.70436 29.8992 7.73059 29.8992 7.78306C29.8992 7.8093 29.8992 7.888 29.8992 7.94047C29.8992 8.22906 29.9526 8.70128 29.5252 8.96363ZM27.7888 10.6164C27.8689 10.7214 27.8957 10.8525 27.8422 10.9837C27.7621 11.1936 27.5484 11.2985 27.3347 11.2198C27.308 11.1936 27.2545 11.1936 27.2278 11.1674L27.7888 10.6164ZM27.0942 10.7214C27.1744 10.5115 27.3881 10.4066 27.6018 10.4853C27.6285 10.4853 27.6819 10.5115 27.7087 10.5377L27.1477 11.0887C27.0675 10.9837 27.0408 10.8525 27.0942 10.7214ZM30.9945 2.35245V3.19196V3.2182C30.9945 3.2182 30.9945 3.2182 31.0212 3.2182H31.4219C31.4219 3.2182 31.4219 3.2182 31.4486 3.2182V3.19196V2.35245V2.32621C31.4486 2.32621 31.4486 2.32621 31.4219 2.32621H31.0212C31.0212 2.32621 31.0212 2.32621 30.9945 2.32621C30.9945 2.32621 30.9945 2.32621 30.9945 2.35245ZM30.9678 4.3463C30.9945 4.3463 31.0212 4.37253 31.0212 4.39877C31.0212 4.425 30.9945 4.45124 30.9678 4.45124C30.941 4.45124 30.9143 4.425 30.8876 4.425C30.8609 4.39877 30.8609 4.39877 30.8342 4.37253C30.8342 4.3463 30.8075 4.32006 30.8075 4.32006C30.8075 4.29383 30.8075 4.26759 30.8075 4.26759C30.8075 4.24136 30.8609 4.21512 30.8876 4.24136C30.9143 4.24136 30.941 4.29383 30.9143 4.32006V4.3463V4.37253C30.9143 4.37253 30.9143 4.39877 30.941 4.39877L30.9678 4.3463C30.9678 4.3463 30.941 4.3463 30.9678 4.3463ZM31.1815 4.45124C31.2349 4.425 31.315 4.425 31.3952 4.425C31.4753 4.39877 31.689 4.37253 31.689 4.26759C31.689 4.21512 31.6356 4.18889 31.6089 4.18889C31.5822 4.18889 31.5822 4.18889 31.5555 4.18889C31.5288 4.21512 31.5288 4.21512 31.4486 4.21512C31.3952 4.21512 31.2883 4.16265 31.2883 4.08395C31.2883 4.00524 31.3952 3.95277 31.4486 3.95277C31.502 3.95277 31.5288 3.95277 31.5555 3.97901C31.5555 3.97901 31.5822 3.97901 31.6089 3.97901C31.6623 3.97901 31.689 3.92654 31.689 3.9003C31.689 3.79536 31.4753 3.74289 31.3952 3.74289C31.315 3.71666 31.2349 3.71666 31.1815 3.71666C31.1013 3.69042 31.0746 3.63796 30.9678 3.63796C30.8342 3.63796 30.7273 3.74289 30.7273 3.87407C30.7273 3.97901 30.7808 4.00524 30.7808 4.08395C30.7808 4.18889 30.7273 4.18889 30.7273 4.29383C30.7273 4.425 30.8342 4.52994 30.9678 4.52994C31.0746 4.52994 31.1013 4.47747 31.1815 4.45124ZM30.4869 4.79229V3.32314C30.4869 3.2182 30.5671 3.11326 30.7006 3.11326H30.8876V3.19196C30.8876 3.2182 30.9143 3.27067 30.9143 3.2969C30.941 3.32314 30.9678 3.34937 31.0212 3.34937H31.4219C31.4486 3.34937 31.502 3.32314 31.5288 3.2969C31.5555 3.27067 31.5555 3.24443 31.5555 3.19196V3.13949H31.7425C31.8493 3.13949 31.9562 3.2182 31.9562 3.34937V4.79229C31.9562 4.89723 31.876 5.00217 31.7425 5.00217H30.7006C30.5938 4.97593 30.4869 4.89723 30.4869 4.79229ZM8.10063 4.03148C8.12734 4.00524 8.12734 3.97901 8.12734 3.95277L8.10063 3.92654C8.0472 3.95277 8.02049 3.97901 7.99377 4.00524C7.96706 4.03148 7.94035 4.08395 7.94035 4.13642C7.94035 4.16265 7.94035 4.18889 7.94035 4.21512C7.94035 4.24136 7.94034 4.26759 7.96706 4.29383C7.96706 4.32006 8.02049 4.32006 8.02049 4.32006C8.0472 4.32006 8.0472 4.26759 8.0472 4.24136C8.0472 4.21512 8.0472 4.21512 8.02049 4.18889C8.02049 4.16265 8.02049 4.16265 8.02049 4.13642C8.02049 4.11018 8.0472 4.08395 8.0472 4.05771C8.0472 4.08395 8.07391 4.05771 8.10063 4.03148ZM7.96706 3.9003C7.88692 3.95277 7.83349 4.03148 7.80678 4.11018C7.78006 4.18889 7.80678 4.29383 7.83349 4.37253C7.88692 4.45124 7.96706 4.50371 8.0472 4.52994C8.12734 4.55618 8.2342 4.52994 8.31434 4.50371C8.90205 4.16265 9.46304 3.8216 10.0507 3.48055C10.0775 3.50678 10.1042 3.53302 10.1309 3.53302C10.1576 3.53302 10.211 3.53302 10.2377 3.50678C10.2645 3.48055 10.2912 3.45431 10.2912 3.42808C10.2912 3.40184 10.2912 3.34937 10.2645 3.32314L9.89046 2.6935C9.86375 2.66726 9.83704 2.64103 9.81032 2.64103C9.78361 2.64103 9.73018 2.64103 9.70347 2.66726C9.67675 2.6935 9.65004 2.71973 9.65004 2.74597C9.65004 2.7722 9.65004 2.82467 9.67675 2.85091C9.11576 3.2182 8.55476 3.55925 7.96706 3.9003ZM9.81032 2.87714L9.78361 2.82467V2.79844C9.78361 2.79844 9.78361 2.7722 9.81032 2.7722H9.83704C9.83704 2.7722 9.86375 2.7722 9.86375 2.79844L10.2377 3.42808V3.45431C10.2377 3.45431 10.2377 3.48055 10.211 3.48055H10.1843C10.1843 3.48055 10.1576 3.48055 10.1576 3.45431L10.1309 3.40184C10.1042 3.37561 10.0775 3.37561 10.0507 3.37561L9.3829 3.76913L9.11576 3.34937L9.78361 2.95585C9.83703 2.92961 9.83704 2.90338 9.81032 2.87714ZM4.86824 3.19196L4.54767 3.87407V3.9003L4.86824 4.05771C4.86824 4.05771 4.86824 4.05771 4.89496 4.05771C4.89496 4.05771 4.92167 4.05771 4.92167 4.03148L5.24224 3.34937V3.32314L4.92167 3.16573C4.89496 3.16573 4.89496 3.16573 4.86824 3.19196C4.89496 3.19196 4.89496 3.19196 4.86824 3.19196ZM4.12025 4.76605C4.14697 4.79229 4.14697 4.81852 4.12025 4.84476C4.09354 4.87099 4.06682 4.87099 4.04011 4.84476C4.0134 4.81852 4.0134 4.81852 3.98668 4.79229C3.98668 4.76605 3.95997 4.73982 3.95997 4.73982C3.95997 4.71358 3.95997 4.71358 3.95997 4.68735C3.95997 4.66111 3.98668 4.66111 3.98668 4.63488C4.0134 4.60865 4.04011 4.60865 4.06682 4.63488C4.09354 4.66111 4.09354 4.68735 4.06682 4.71358C4.06682 4.71358 4.06682 4.71358 4.06682 4.73982C4.06682 4.73982 4.06682 4.73982 4.06682 4.76605C4.09354 4.73982 4.09354 4.73982 4.12025 4.76605C4.09354 4.76605 4.09354 4.76605 4.12025 4.76605ZM4.25382 4.9497C4.30725 4.9497 4.38739 4.97593 4.44082 5.00217C4.52096 5.0284 4.70796 5.05464 4.73467 4.97593C4.76139 4.92346 4.73467 4.89723 4.70796 4.87099H4.68124C4.65453 4.87099 4.62782 4.87099 4.6011 4.87099C4.54768 4.84476 4.49425 4.79229 4.52096 4.71358C4.54767 4.63488 4.65453 4.63488 4.70796 4.66111C4.76139 4.68735 4.76139 4.68735 4.76139 4.71358L4.7881 4.73982C4.84153 4.76605 4.86824 4.73982 4.89496 4.71358C4.92167 4.63488 4.76139 4.52994 4.70796 4.47747C4.65453 4.45124 4.57439 4.39877 4.54767 4.37253C4.49425 4.32006 4.49425 4.26759 4.4141 4.24136C4.30725 4.18889 4.17368 4.24136 4.14697 4.3463C4.09354 4.425 4.14697 4.45124 4.12025 4.55618C4.09354 4.63488 4.04011 4.60865 3.98668 4.71358C3.93325 4.81852 3.98668 4.9497 4.09354 5.00217C4.12025 4.97593 4.17368 4.92346 4.25382 4.9497ZM3.55926 4.9497L4.09354 3.79536C4.14697 3.71666 4.25382 3.66419 4.33396 3.71666L4.46753 3.79536L4.44082 3.84783C4.41411 3.87407 4.41411 3.9003 4.44082 3.95277C4.44082 3.97901 4.46753 4.00524 4.49425 4.03148L4.81481 4.18889C4.84153 4.21512 4.86824 4.18889 4.92167 4.18889C4.94838 4.18889 4.9751 4.16265 5.00181 4.11018L5.02853 4.05771L5.1621 4.13642C5.24224 4.18889 5.29567 4.29383 5.24224 4.37253L4.70796 5.52687C4.65453 5.60557 4.54768 5.65804 4.46753 5.60557L3.6394 5.23828C3.55926 5.15958 3.53255 5.05464 3.55926 4.9497ZM24.3961 11.7183C24.4228 11.6921 24.4496 11.7183 24.4763 11.7445C24.503 11.7708 24.4763 11.797 24.4496 11.8232C24.3427 11.9019 24.2091 11.9544 24.0756 11.9806C23.9687 12.0069 23.8619 12.0331 23.755 12.0331V12.1643C23.755 12.3742 23.8084 12.4004 23.5413 12.4266C22.9536 12.4529 21.4309 12.2692 20.8432 10.7738L20.8165 10.8001C20.7363 10.8263 20.6829 10.6951 20.7363 10.6689L21.7247 10.0917C21.7515 10.0655 21.885 10.1704 21.8049 10.2229L21.698 10.2754C21.8049 10.5115 21.9117 10.6951 22.0453 10.8525L21.8316 10.9837C21.8049 11.01 21.8049 11.0362 21.8049 11.0624C21.8316 11.0887 21.8583 11.0887 21.885 11.0887L22.1254 10.9575C22.2056 11.0624 22.3124 11.1411 22.3926 11.1936C22.3926 11.1936 22.3926 11.1936 22.3659 11.1936L22.2056 11.4035C22.1789 11.4297 22.1789 11.4559 22.2056 11.4822C22.2323 11.5084 22.259 11.5084 22.2857 11.4822L22.446 11.2723V11.2461C22.5796 11.3248 22.6864 11.3772 22.82 11.4297C22.82 11.4297 22.82 11.4297 22.82 11.4559L22.7399 11.7445C22.7399 11.7708 22.7399 11.797 22.7666 11.8232C22.7933 11.8232 22.82 11.8232 22.8467 11.797L22.9269 11.5084C22.9269 11.5084 22.9269 11.5084 22.9269 11.4822C23.1673 11.5346 23.381 11.5609 23.5146 11.5609C23.7283 11.5609 23.7283 11.5609 23.7283 11.7445V11.9282C23.8351 11.9282 23.9153 11.9019 24.0221 11.8757C24.1557 11.8495 24.2893 11.797 24.3961 11.7183ZM21.5912 10.1442C21.4843 9.98679 20.763 10.3803 20.8699 10.5377L21.5912 10.1442ZM0.353587 11.3248H2.03656C2.17013 11.3248 2.27699 11.4297 2.27699 11.5609V11.7708H2.19685C2.14342 11.7708 2.11671 11.797 2.08999 11.8232C2.06328 11.8495 2.03656 11.9019 2.03656 11.9282V12.3742C2.03656 12.4266 2.06328 12.4529 2.08999 12.4791C2.11671 12.5053 2.17013 12.5316 2.19685 12.5316H2.27699V12.7415C2.27699 12.8726 2.17013 12.9776 2.03656 12.9776H0.353587C0.220017 12.9776 0.113161 12.8726 0.113161 12.7415V11.5609C0.113161 11.4297 0.220017 11.3248 0.353587 11.3248Z" fill="#E81D25"/>
<path fill-rule="evenodd" clip-rule="evenodd" d="M103.295 4.68518C103.215 4.92129 103.108 5.23611 102.948 5.62963C102.788 6.02316 102.627 6.46915 102.414 6.99385C102.227 7.51855 101.986 8.06948 101.746 8.69911C101.505 9.32875 101.238 9.98462 100.998 10.6667H105.593C105.352 9.98462 105.112 9.32875 104.871 8.69911C104.631 8.06948 104.417 7.51855 104.203 6.99385C103.99 6.46915 103.829 6.02316 103.669 5.62963C103.536 5.20988 103.402 4.92129 103.295 4.68518ZM107.65 16.9106C107.463 16.3597 107.276 15.8088 107.062 15.2316C106.848 14.6544 106.661 14.0773 106.447 13.5001H100.17C99.9559 14.0773 99.769 14.6544 99.5552 15.2316C99.3415 15.8088 99.1545 16.3597 98.9942 16.9106H95.2276C95.842 15.2054 96.403 13.6313 96.9373 12.1884C97.4715 10.7454 98.0058 9.38122 98.5401 8.09571C99.0477 6.8102 99.582 5.6034 100.09 4.44907C100.597 3.29473 101.131 2.19287 101.666 1.091H105.085C105.619 2.19287 106.127 3.29473 106.661 4.44907C107.169 5.6034 107.703 6.8102 108.211 8.09571C108.745 9.38122 109.252 10.7454 109.813 12.1884C110.374 13.6313 110.935 15.2054 111.55 16.9106H107.65ZM96.4564 1.11724V4.16048H91.5945V16.9369H87.9614V4.13425H83.0995V1.11724H96.4564ZM77.7567 16.9106C76.7148 15.1004 75.5928 13.3165 74.3907 11.5587C73.1886 9.80098 71.9063 8.12195 70.5439 6.57409V16.9369H66.9642V1.11724H69.9028C70.4103 1.6157 70.9713 2.24534 71.5857 2.95368C72.2002 3.68826 72.8413 4.4753 73.4824 5.28858C74.1236 6.1281 74.7647 6.96761 75.4058 7.8596C76.047 8.75158 76.6347 9.5911 77.1957 10.4306V1.11724H80.8021V16.9106H77.7567ZM52.886 16.9106V1.11724H63.7586V4.10801H56.5191V7.20373H62.9571V10.1158H56.5191V13.9199H64.2928V16.9106H52.886ZM49.8673 8.9877C49.8673 10.3519 49.6536 11.5587 49.2262 12.5556C48.7988 13.5788 48.1843 14.4183 47.3829 15.0742C46.5815 15.7301 45.6198 16.2548 44.4711 16.5696C43.3224 16.9106 42.0401 17.068 40.6243 17.068C39.9832 17.068 39.2084 17.0418 38.3536 16.9893C37.4988 16.9369 36.6439 16.8319 35.7891 16.6483V1.32712C36.6172 1.16971 37.4988 1.06477 38.407 1.0123C39.3153 0.959829 40.09 0.933594 40.7311 0.933594C42.1203 0.933594 43.3491 1.091 44.4711 1.37959C45.5931 1.6944 46.5548 2.16663 47.3562 2.8225C48.1576 3.47838 48.772 4.31789 49.2262 5.34105C49.6536 6.33798 49.8673 7.57102 49.8673 8.9877ZM39.3954 14.0248C39.5557 14.051 39.7694 14.051 39.9832 14.051C40.1969 14.051 40.464 14.051 40.7846 14.051C42.6011 14.051 43.9368 13.605 44.8184 12.713C45.6999 11.8211 46.1274 10.588 46.1274 8.9877C46.1274 7.3349 45.6999 6.07563 44.8718 5.23611C44.0437 4.3966 42.708 3.9506 40.8914 3.9506C40.651 3.9506 40.3839 3.9506 40.1167 3.9506C39.8496 3.9506 39.6092 3.97684 39.3687 4.00307V14.0248H39.3954Z" fill="#3A3A3A"/>
</svg>
