<svg width="14" height="14" viewBox="0 0 14 14" fill="none" xmlns="http://www.w3.org/2000/svg">
<path fill-rule="evenodd" clip-rule="evenodd" d="M4.03114 2.95121e-07H9.96893C10.5324 -8.43304e-06 10.9975 -1.56108e-05 11.3763 0.0302411C11.7698 0.0616664 12.1314 0.129111 12.4712 0.298326C12.998 0.560739 13.4264 0.979461 13.6948 1.49448C13.8679 1.82658 13.9369 2.18014 13.9691 2.56477C14 2.93509 14 3.38969 14 3.9405V7.69213C14 8.24294 14 8.69754 13.9691 9.06786C13.9369 9.45249 13.8679 9.80605 13.6948 10.1382C13.4264 10.6532 12.998 11.0719 12.4712 11.3343C12.1314 11.5035 11.7698 11.571 11.3763 11.6024C10.9975 11.6326 10.5324 11.6326 9.96895 11.6326H8.17865C7.71378 11.6326 7.5784 11.6359 7.45521 11.6606C7.33164 11.6854 7.21207 11.7264 7.09974 11.7825C6.98775 11.8384 6.87998 11.9185 6.51697 12.2024L4.82779 13.5234C4.69921 13.624 4.56816 13.7265 4.45294 13.801C4.34273 13.8722 4.12907 13.9997 3.85118 14C3.53142 14.0003 3.22892 13.8582 3.02943 13.6139C2.85607 13.4016 2.82443 13.1589 2.81248 13.0303C2.79999 12.8958 2.80002 12.7317 2.80005 12.5707L2.80005 11.627C2.52579 11.6182 2.29059 11.5957 2.07536 11.5394C1.10911 11.2863 0.354381 10.5485 0.0954747 9.60395C-0.000492322 9.25384 -0.000268439 8.84967 3.30515e-05 8.30541C5.0158e-05 8.27449 6.75148e-05 8.24311 6.75148e-05 8.21127L6.7181e-05 3.94052C5.82523e-05 3.3897 5.09099e-05 2.9351 0.0310029 2.56477C0.0631504 2.18014 0.132145 1.82658 0.305248 1.49448C0.573692 0.979461 1.00204 0.560739 1.52889 0.298326C1.86862 0.129111 2.23031 0.0616664 2.62378 0.0302411C3.00261 -1.56108e-05 3.46766 -8.43304e-06 4.03114 2.95121e-07ZM2.73778 1.39424C2.43089 1.41875 2.27395 1.46318 2.16447 1.51771C1.90104 1.64891 1.68687 1.85828 1.55265 2.11578C1.49687 2.2228 1.45142 2.37622 1.42635 2.67622C1.40061 2.9842 1.40006 3.38265 1.40006 3.96878V8.21127C1.40006 8.89168 1.40607 9.09765 1.44776 9.24975C1.57722 9.72202 1.95458 10.0909 2.43771 10.2175C2.5933 10.2582 2.80401 10.2641 3.50005 10.2641C3.88665 10.2641 4.20005 10.5704 4.20005 10.9484V12.2617L5.6424 11.1338C5.65832 11.1213 5.67402 11.109 5.68952 11.0969C5.98497 10.8657 6.20831 10.6909 6.46281 10.5638C6.68747 10.4516 6.92662 10.3696 7.17375 10.32C7.45371 10.2638 7.73982 10.2639 8.11831 10.2641C8.13816 10.2641 8.15827 10.2641 8.17865 10.2641H9.94002C10.5396 10.2641 10.9472 10.2636 11.2623 10.2384C11.5692 10.2139 11.7261 10.1695 11.8356 10.1149C12.099 9.98372 12.3132 9.77436 12.4474 9.51685C12.5032 9.40983 12.5486 9.25641 12.5737 8.95642C12.5995 8.64843 12.6 8.24998 12.6 7.66385V3.96878C12.6 3.38265 12.5995 2.9842 12.5737 2.67622C12.5486 2.37622 12.5032 2.2228 12.4474 2.11578C12.3132 1.85828 12.099 1.64891 11.8356 1.51771C11.7261 1.46318 11.5692 1.41875 11.2623 1.39424C10.9472 1.36908 10.5396 1.36855 9.94002 1.36855H4.06005C3.46044 1.36855 3.05284 1.36908 2.73778 1.39424ZM2.80005 4.44777C2.80005 4.06986 3.11345 3.7635 3.50005 3.7635H7.00003C7.38663 3.7635 7.70003 4.06986 7.70003 4.44777C7.70003 4.82568 7.38663 5.13204 7.00003 5.13204H3.50005C3.11345 5.13204 2.80005 4.82568 2.80005 4.44777ZM2.80005 6.84272C2.80005 6.46481 3.11345 6.15845 3.50005 6.15845H9.10002C9.48662 6.15845 9.80002 6.46481 9.80002 6.84272C9.80002 7.22064 9.48662 7.527 9.10002 7.527H3.50005C3.11345 7.527 2.80005 7.22064 2.80005 6.84272Z" fill="#232323"/>
</svg>
