<svg width="10" height="10" viewBox="0 0 10 10" fill="none" xmlns="http://www.w3.org/2000/svg">
<path d="M3.5 0.875H1.25C1.04289 0.875 0.875 1.04289 0.875 1.25V3.5C0.875 3.70711 1.04289 3.875 1.25 3.875H3.5C3.70711 3.875 3.875 3.70711 3.875 3.5V1.25C3.875 1.04289 3.70711 0.875 3.5 0.875Z" fill="#202B39"/>
<path d="M3.5 6.125H1.25C1.04289 6.125 0.875 6.29289 0.875 6.5V8.75C0.875 8.95711 1.04289 9.125 1.25 9.125H3.5C3.70711 9.125 3.875 8.95711 3.875 8.75V6.5C3.875 6.29289 3.70711 6.125 3.5 6.125Z" fill="#202B39"/>
<path d="M8.75 0.875H6.5C6.29289 0.875 6.125 1.04289 6.125 1.25V3.5C6.125 3.70711 6.29289 3.875 6.5 3.875H8.75C8.95711 3.875 9.125 3.70711 9.125 3.5V1.25C9.125 1.04289 8.95711 0.875 8.75 0.875Z" fill="#202B39"/>
<path d="M8.75 6.125H6.5C6.29289 6.125 6.125 6.29289 6.125 6.5V8.75C6.125 8.95711 6.29289 9.125 6.5 9.125H8.75C8.95711 9.125 9.125 8.95711 9.125 8.75V6.5C9.125 6.29289 8.95711 6.125 8.75 6.125Z" fill="#202B39"/>
</svg>
