<svg width="10" height="10" viewBox="0 0 10 10" fill="none" xmlns="http://www.w3.org/2000/svg">
<path d="M9.49264 7.11917C9.24661 6.98652 8.03697 6.34545 7.81142 6.25693C7.58591 6.16851 7.42189 6.12433 7.25786 6.38956C7.09387 6.65485 6.62234 7.25187 6.47879 7.42874C6.33531 7.60556 6.19177 7.62777 5.94577 7.49507C5.69972 7.36242 4.90696 7.08259 3.9672 6.17964C3.23576 5.47689 2.74198 4.60904 2.59846 4.3437C2.45494 4.07841 2.58316 3.935 2.70633 3.80284C2.81702 3.68407 2.95238 3.49326 3.0754 3.33853C3.19842 3.1838 3.2394 3.07318 3.32143 2.89643C3.40344 2.71949 3.36244 2.56475 3.30091 2.43212C3.2394 2.29948 2.74736 0.994943 2.54234 0.464253C2.34261 -0.0524446 2.13978 0.0175286 1.98877 0.00931191C1.84542 0.0016417 1.68122 0 1.51721 0C1.35319 0 1.08664 0.0663186 0.861105 0.331611C0.635591 0.596958 0 1.23815 0 2.54254C0 3.84707 0.88161 5.10724 1.00463 5.28413C1.12764 5.46106 2.73954 8.1379 5.20766 9.28586C5.79467 9.55894 6.25299 9.722 6.61028 9.84412C7.19969 10.0459 7.73604 10.0174 8.15998 9.94913C8.63269 9.87309 9.61564 9.30807 9.8207 8.68904C10.0257 8.06987 10.0257 7.53924 9.96416 7.42874C9.90268 7.31818 9.73866 7.25187 9.49264 7.11917Z" fill="white"/>
</svg>
