<svg width="36" height="27" viewBox="0 0 36 27" fill="none" xmlns="http://www.w3.org/2000/svg">
<path d="M28.9241 27C26.3586 26.8341 24.5379 25.8802 23.4621 24.1382C22.3862 22.3963 21.8483 20.447 21.8483 18.2903C21.8483 15.553 22.3448 12.9816 23.3379 10.576C24.4138 8.08756 25.8207 5.93088 27.5586 4.106C29.2966 2.19816 31.2414 0.829497 33.3931 0L36 3.6083C34.9241 4.27189 33.8897 5.18433 32.8966 6.34562C31.9034 7.42396 30.9931 8.62673 30.1655 9.95392C29.4207 11.2811 28.9241 12.6912 28.6759 14.1843C29.9172 14.1843 31.0345 14.4332 32.0276 14.9309C33.1035 15.3456 33.931 16.0092 34.5103 16.9217C35.1724 17.8341 35.5034 19.0369 35.5034 20.53C35.5034 22.5207 34.8828 24.0968 33.6414 25.2581C32.4 26.4194 30.8276 27 28.9241 27ZM7.2 27C4.55172 26.9171 2.68966 26.0046 1.61379 24.2627C0.537931 22.4378 0 20.447 0 18.2903C0 15.553 0.496552 12.9816 1.48966 10.576C2.56552 8.08756 3.97241 5.93088 5.71034 4.106C7.44828 2.19816 9.3931 0.829497 11.5448 0L14.1517 3.6083C13.0759 4.27189 12.0414 5.18433 11.0483 6.34562C10.0552 7.42396 9.14483 8.62673 8.31724 9.95392C7.57241 11.2811 7.07586 12.6912 6.82759 14.1843C8.06896 14.1843 9.18621 14.4332 10.1793 14.9309C11.2552 15.3456 12.0828 16.0092 12.6621 16.9217C13.3241 17.8341 13.6552 19.0369 13.6552 20.53C13.6552 22.5207 12.9931 24.0968 11.669 25.2581C10.4276 26.4194 8.93793 27 7.2 27Z" fill="white"/>
</svg>
