<svg width="16" height="16" viewBox="0 0 16 16" fill="none" xmlns="http://www.w3.org/2000/svg">
<path fill-rule="evenodd" clip-rule="evenodd" d="M7.6 1.6C4.28629 1.6 1.6 4.28629 1.6 7.6C1.6 10.9137 4.28629 13.6 7.6 13.6C9.21048 13.6 10.6728 12.9655 11.7505 11.9328C11.7754 11.8983 11.8033 11.8654 11.8344 11.8343C11.8654 11.8033 11.8984 11.7753 11.9329 11.7504C12.9655 10.6727 13.6 9.21045 13.6 7.6C13.6 4.28629 10.9137 1.6 7.6 1.6ZM13.51 12.3786C14.5669 11.0731 15.2 9.4105 15.2 7.6C15.2 3.40264 11.7974 0 7.6 0C3.40264 0 0 3.40264 0 7.6C0 11.7974 3.40264 15.2 7.6 15.2C9.41053 15.2 11.0732 14.5669 12.3787 13.51L14.6343 15.7657C14.9467 16.0781 15.4533 16.0781 15.7657 15.7657C16.0781 15.4533 16.0781 14.9467 15.7657 14.6343L13.51 12.3786Z" fill="#202B39"/>
</svg>
