<svg width="12" height="10" viewBox="0 0 12 10" fill="none" xmlns="http://www.w3.org/2000/svg">
<path fill-rule="evenodd" clip-rule="evenodd" d="M0.824936 4.30494C4.04616 2.8937 6.19414 1.96333 7.26889 1.51383C10.3375 0.230388 10.9751 0.00744023 11.3907 7.84724e-05C11.4822 -0.00154043 11.6865 0.0212383 11.8189 0.12926C11.9307 0.220471 11.9615 0.343685 11.9762 0.430163C11.9909 0.516641 12.0092 0.713641 11.9947 0.867571C11.8284 2.6245 11.1088 6.8881 10.7428 8.8559C10.5879 9.68854 10.2829 9.96772 9.98764 9.99504C9.34596 10.0544 8.8587 9.56862 8.2372 9.15896C7.26468 8.51792 6.71527 8.11887 5.77127 7.49333C4.68032 6.77042 5.38754 6.37309 6.00927 5.72375C6.17198 5.55381 8.99923 2.96792 9.05395 2.73334C9.06079 2.704 9.06715 2.59465 9.00254 2.5369C8.93793 2.47915 8.84257 2.4989 8.77376 2.51461C8.67622 2.53687 7.1226 3.56945 4.11292 5.61236C3.67193 5.91686 3.2725 6.06522 2.91462 6.05745C2.52009 6.04888 1.76117 5.83313 1.19699 5.64872C0.504996 5.42253 -0.0449842 5.30295 0.00290717 4.91881C0.0278503 4.71872 0.30186 4.5141 0.824936 4.30494Z" fill="white"/>
</svg>
