<svg width="7" height="6" viewBox="0 0 7 6" fill="none" xmlns="http://www.w3.org/2000/svg">
<path fill-rule="evenodd" clip-rule="evenodd" d="M6.48468 0.172177C6.67994 0.367439 6.67994 0.684022 6.48468 0.879284L4.36336 3.0006L6.48468 5.12192C6.67994 5.31719 6.67994 5.63377 6.48468 5.82903C6.28942 6.02429 5.97283 6.02429 5.77757 5.82903L3.65625 3.70771L1.53493 5.82903C1.33967 6.02429 1.02308 6.02429 0.827823 5.82903C0.632561 5.63377 0.632561 5.31719 0.827823 5.12192L2.94914 3.0006L0.827823 0.879284C0.632561 0.684022 0.632561 0.367439 0.827823 0.172177C1.02309 -0.0230851 1.33967 -0.0230851 1.53493 0.172177L3.65625 2.2935L5.77757 0.172177C5.97283 -0.0230851 6.28941 -0.0230851 6.48468 0.172177Z" fill="white" fill-opacity="0.6"/>
</svg>
