<svg width="90" height="14" viewBox="0 0 90 14" fill="none" xmlns="http://www.w3.org/2000/svg">
<path fill-rule="evenodd" clip-rule="evenodd" d="M2.56422 9.54762H1.76852H1.74701C1.74701 9.54762 1.74701 9.54762 1.74701 9.56874V9.9489C1.74701 9.9489 1.74701 9.9489 1.74701 9.97002H1.76852H2.56422H2.58572C2.58572 9.97002 2.58572 9.97002 2.58572 9.9489V9.56874C2.58572 9.56874 2.58572 9.56874 2.58572 9.54762C2.58572 9.54762 2.58572 9.54762 2.56422 9.54762ZM0.693249 9.5265C0.693249 9.54762 0.650238 9.56874 0.628733 9.56874C0.607227 9.56874 0.585722 9.5265 0.585722 9.50538C0.585722 9.48426 0.607227 9.46314 0.628733 9.44202C0.650238 9.4209 0.671744 9.4209 0.693249 9.39978C0.714754 9.39978 0.73626 9.37866 0.757765 9.37866C0.77927 9.37866 0.800776 9.37866 0.822281 9.37866C0.843787 9.37866 0.865292 9.4209 0.843787 9.44202C0.843787 9.46314 0.800776 9.48426 0.77927 9.46314H0.757765H0.73626C0.73626 9.46314 0.714754 9.46314 0.714754 9.48426C0.693249 9.50538 0.693249 9.50538 0.693249 9.5265ZM0.607227 9.71658C0.628733 9.75882 0.628733 9.8433 0.650238 9.90666C0.671744 9.97002 0.714754 10.1812 0.800776 10.1812C0.822281 10.1812 0.865292 10.1601 0.865292 10.1179C0.865292 10.0967 0.865292 10.0967 0.865292 10.0756C0.843787 10.0545 0.843787 10.0334 0.843787 9.99114C0.843787 9.9489 0.886798 9.8433 0.972819 9.8433C1.05884 9.8433 1.10185 9.92778 1.10185 9.99114C1.10185 10.0334 1.08035 10.0545 1.08035 10.0756C1.08035 10.0967 1.08035 10.0967 1.08035 10.1179C1.08035 10.1601 1.12336 10.2023 1.16637 10.2023C1.25239 10.2023 1.2954 9.99114 1.31691 9.92778C1.2954 9.86442 1.2954 9.75882 1.31691 9.71658C1.33841 9.65322 1.40293 9.61098 1.40293 9.5265C1.40293 9.39978 1.2954 9.3153 1.16637 9.3153C1.05884 9.3153 1.05884 9.35754 0.951314 9.37866C0.865292 9.37866 0.865292 9.3153 0.757765 9.3153C0.628733 9.3153 0.521206 9.39978 0.521206 9.5265C0.521206 9.6321 0.564216 9.65322 0.607227 9.71658ZM4.30616 9.25195C4.24164 9.18859 4.15562 9.14635 4.0696 9.14635C3.98358 9.14635 3.89755 9.18859 3.83304 9.25195C3.76852 9.3153 3.72551 9.39978 3.72551 9.48426C3.72551 9.56874 3.76852 9.65322 3.83304 9.71658C3.89755 9.77994 3.98358 9.82218 4.0696 9.82218C4.15562 9.82218 4.24164 9.77994 4.30616 9.71658C4.37067 9.65322 4.41368 9.56874 4.41368 9.48426C4.41368 9.39978 4.37067 9.3153 4.30616 9.25195ZM4.0696 9.06187C4.19863 9.06187 4.30616 9.10411 4.39218 9.18859C4.4782 9.27307 4.52121 9.37866 4.52121 9.50538C4.52121 9.6321 4.4782 9.7377 4.39218 9.82218C4.30616 9.90666 4.19863 9.9489 4.0696 9.9489C3.94056 9.9489 3.83304 9.90666 3.74702 9.82218C3.66099 9.7377 3.61798 9.6321 3.61798 9.50538C3.61798 9.37866 3.66099 9.27307 3.74702 9.18859C3.83304 9.10411 3.96207 9.06187 4.0696 9.06187ZM4.11261 9.35754C4.0911 9.35754 4.04809 9.35754 4.04809 9.3153C4.04809 9.29418 4.04809 9.25195 4.0911 9.25195C4.11261 9.25195 4.15562 9.25195 4.17712 9.25195C4.19863 9.25195 4.24164 9.27307 4.26314 9.29418C4.28465 9.29418 4.28465 9.3153 4.30616 9.33642C4.30616 9.35754 4.32766 9.35754 4.32766 9.37866C4.32766 9.39978 4.32766 9.44202 4.30616 9.44202C4.28465 9.44202 4.24164 9.44202 4.24164 9.4209V9.39978C4.24164 9.39978 4.24164 9.37866 4.22013 9.37866C4.22013 9.37866 4.19863 9.35754 4.17712 9.35754C4.13411 9.35754 4.11261 9.35754 4.11261 9.35754ZM2.56422 10.667C2.58572 10.6458 2.60723 10.6247 2.62873 10.6458C2.65024 10.667 2.67175 10.6881 2.65024 10.7092C2.60723 10.7937 2.54271 11.0471 2.54271 11.1738C2.54271 11.195 2.52121 11.2161 2.4997 11.2161C2.4782 11.2161 2.45669 11.195 2.45669 11.1738C2.45669 11.0682 2.52121 10.7726 2.56422 10.667ZM4.0696 8.93515C4.37067 8.93515 4.62874 9.18859 4.62874 9.48426C4.62874 9.77994 4.37067 10.0334 4.0696 10.0334C3.87605 10.0334 3.6825 9.92778 3.59648 9.75882C3.16637 10.0545 2.92981 10.3291 2.75777 11.3639C2.73626 11.4695 2.67175 11.554 2.56422 11.554C2.45669 11.554 2.34916 11.4273 2.34916 11.3217C2.43519 10.5614 2.71476 9.90666 3.51046 9.61098C3.51046 9.56874 3.48895 9.5265 3.48895 9.48426C3.51046 9.18859 3.76852 8.93515 4.0696 8.93515ZM7.29541 4.16209C7.29541 4.14097 7.29541 4.09873 7.31691 4.09873C7.33842 4.09873 7.38143 4.09873 7.38143 4.11985C7.46745 4.35217 7.57498 4.7112 7.51046 4.96464C7.51046 4.98576 7.46745 5.00688 7.44594 5.00688C7.42444 5.00688 7.40293 4.96464 7.40293 4.94352C7.46745 4.7112 7.38143 4.37329 7.29541 4.16209ZM5.83304 6.84429C5.83304 6.86541 5.83304 6.88653 5.79003 6.88653C5.76852 6.88653 5.74702 6.88653 5.74702 6.84429V6.82318V6.80206C5.74702 6.78094 5.74702 6.75982 5.76852 6.7387C5.76852 6.71758 5.79003 6.69646 5.81153 6.67534C5.83304 6.65422 5.85454 6.65422 5.87605 6.67534C5.89756 6.69646 5.89756 6.71758 5.87605 6.7387C5.87605 6.7387 5.85455 6.75982 5.85455 6.78094C5.85455 6.80206 5.85455 6.80206 5.85455 6.82318C5.83304 6.82318 5.83304 6.84429 5.83304 6.84429ZM6.32766 6.59086C6.26315 6.5275 6.15562 6.48526 6.0696 6.48526C5.96207 6.48526 5.87605 6.5275 5.81153 6.59086C5.74702 6.65422 5.70401 6.75982 5.70401 6.84429C5.70401 6.94989 5.74702 7.03437 5.81153 7.09773C5.87605 7.16109 5.98358 7.20333 6.0696 7.20333C6.17713 7.20333 6.26315 7.16109 6.32766 7.09773C6.39218 7.03437 6.43519 6.92877 6.43519 6.84429C6.43519 6.75982 6.39218 6.67534 6.32766 6.59086ZM6.04809 6.40078C6.17713 6.40078 6.28465 6.44302 6.37067 6.5275C6.4567 6.61198 6.49971 6.71758 6.49971 6.84429C6.49971 6.97101 6.4567 7.07661 6.37067 7.16109C6.28465 7.24557 6.17713 7.28781 6.04809 7.28781C5.91906 7.28781 5.81153 7.24557 5.72551 7.16109C5.63949 7.09773 5.59648 6.99213 5.59648 6.86541C5.59648 6.7387 5.63949 6.6331 5.72551 6.54862C5.81153 6.46414 5.91906 6.40078 6.04809 6.40078ZM6.04809 6.3163C6.22014 6.3163 6.39218 6.40078 6.49971 6.5275C7.42444 5.87279 7.46745 4.62672 7.23089 4.20433C7.03734 3.86641 7.31691 3.6341 7.48896 3.78193C7.89756 4.18321 7.94057 6.08398 6.60723 6.78094C6.60723 6.80206 6.60723 6.82317 6.60723 6.84429C6.60723 7.13997 6.34917 7.39341 6.04809 7.39341C5.74702 7.39341 5.48895 7.13997 5.48895 6.84429C5.51046 6.54862 5.74702 6.3163 6.04809 6.3163ZM8.82229 13.2436C8.73627 13.3703 8.58573 13.4759 8.41369 13.4759C8.15562 13.4759 7.96207 13.2647 7.96207 13.0324C7.96207 12.9901 7.96207 12.9479 7.98358 12.9057L8.82229 13.2436ZM8.43519 12.5466C8.69326 12.5466 8.88681 12.7578 8.88681 12.9901C8.88681 13.0324 8.88681 13.0746 8.8653 13.1169L8.02659 12.7578C8.11261 12.6522 8.26315 12.5466 8.43519 12.5466ZM0.413679 6.7387C0.413679 6.75982 0.392173 6.78094 0.370668 6.80206C0.349163 6.80206 0.349162 6.80206 0.327657 6.80206C0.327657 6.75982 0.327657 6.71758 0.349163 6.67534C0.370668 6.56974 0.392173 6.5275 0.435184 6.50638C0.456689 6.48526 0.478195 6.48526 0.4997 6.46414C0.521206 6.46414 0.542711 6.44302 0.585722 6.44302C0.607227 6.44302 0.628733 6.46414 0.628733 6.48526C0.628733 6.50638 0.607227 6.54862 0.585722 6.54862C0.564216 6.54862 0.542711 6.54862 0.542711 6.56974C0.521206 6.56974 0.521206 6.59086 0.4997 6.59086C0.478195 6.61198 0.456689 6.6331 0.456689 6.65422C0.435184 6.67534 0.413679 6.71758 0.413679 6.7387ZM0.241636 6.69646C0.241636 6.59086 0.284646 6.50638 0.349163 6.44302C0.413679 6.40078 0.4997 6.35854 0.585722 6.35854C0.671744 6.35854 0.779271 6.40078 0.843787 6.46414C0.908303 6.5275 0.951314 6.61198 0.951314 6.71758C0.951314 7.37229 0.951314 8.027 0.951314 8.68171C0.994325 8.68171 1.01583 8.70283 1.03734 8.72395C1.08035 8.74507 1.08035 8.76619 1.08035 8.80843C1.08035 8.85067 1.08035 8.87179 1.03734 8.89291C1.01583 8.91403 0.972819 8.93515 0.951314 8.93515H0.22013C0.177119 8.93515 0.155614 8.91403 0.134108 8.89291C0.112603 8.87179 0.0910977 8.82955 0.0910977 8.80843C0.0910977 8.76619 0.112603 8.74507 0.134108 8.72395C0.155614 8.68171 0.198625 8.68171 0.22013 8.68171C0.241636 8.00588 0.241636 7.35117 0.241636 6.69646ZM0.284646 8.76619H0.22013H0.198625V8.78731V8.80843H0.22013H0.951314H0.972819V8.78731V8.76619H0.951314H0.886798C0.865292 8.76619 0.843787 8.74507 0.843787 8.72395V7.96364H0.349163V8.72395C0.349163 8.74507 0.327657 8.76619 0.284646 8.76619ZM12.1986 13.0324L11.704 12.1665C11.6825 12.1665 11.6825 12.1876 11.661 12.1876C11.5965 12.2298 11.489 12.2932 11.4029 12.3354C11.3599 12.3565 11.3384 12.3777 11.2954 12.3988C11.2094 12.4621 11.1879 12.4833 11.1879 12.4833C11.1879 12.4833 11.2094 12.5044 11.2309 12.5255C11.2524 12.5466 11.2524 12.5677 11.2739 12.5889L11.661 12.3565C11.6825 12.3354 11.704 12.3565 11.7255 12.3777C11.747 12.3988 11.7255 12.4199 11.7255 12.441L11.3384 12.6733C11.3599 12.6945 11.3599 12.7156 11.3814 12.7367C11.4459 12.8423 11.532 12.969 11.5965 13.1591L11.8976 12.969C11.9191 12.9479 11.9406 12.969 11.9621 12.9901C11.9836 13.0113 11.9621 13.0324 11.9621 13.0535L11.6395 13.2647C11.6395 13.2858 11.661 13.3281 11.661 13.3703C11.661 13.3703 11.6825 13.3703 11.704 13.3703C11.747 13.3703 11.79 13.3492 11.833 13.3281C11.9836 13.2647 12.1771 13.138 12.2416 13.0535C12.1986 13.0535 12.1986 13.0324 12.1986 13.0324ZM12.3922 13.3281L12.2632 13.1169C12.1986 13.2013 12.0051 13.3281 11.833 13.4125C11.7685 13.4337 11.7255 13.4548 11.6825 13.4548C11.618 13.4548 11.575 13.4548 11.5535 13.4125C11.532 13.3914 11.532 13.3703 11.532 13.3703C11.489 13.0957 11.3814 12.9268 11.2954 12.8001C11.2739 12.7789 11.2739 12.7578 11.2524 12.7367C11.2524 12.7156 11.2309 12.7156 11.2309 12.7156C11.2094 12.6733 11.1879 12.6522 11.1664 12.6311C11.1234 12.5889 11.1019 12.5466 11.1019 12.5044C11.1019 12.4621 11.1664 12.441 11.2524 12.3777C11.2739 12.3565 11.3169 12.3354 11.3599 12.3143C11.4459 12.2509 11.532 12.1876 11.618 12.1453C11.6395 12.1453 11.6395 12.1242 11.661 12.1242L10.2847 9.71658C10.1556 9.48426 10.4567 9.35754 10.5642 9.56874L12.6718 13.2436C12.8008 13.4125 12.4782 13.497 12.3922 13.3281ZM8.58573 10.8359L9.18788 11.3217L9.29541 11.4062L9.16638 11.5329L9.05885 11.4484L8.90831 11.5962L9.01584 11.6807L8.88681 11.8074L8.77928 11.723L8.62874 11.8708L8.73627 11.9553L8.60724 12.082L8.49971 11.9975L8.34917 12.1453L8.4567 12.2298L8.32767 12.3565L8.19863 12.2721L8.0696 12.3988C7.98358 12.4833 7.85455 12.5044 7.76853 12.4199C7.6825 12.3565 7.6825 12.2298 7.74702 12.1242L7.85455 11.9764L7.74702 11.8919L7.85455 11.7441L7.96207 11.8286L8.0696 11.6385L7.96207 11.554L8.0696 11.4062L8.17713 11.4906L8.28466 11.3006L8.15562 11.2161L8.26315 11.0682L8.37068 11.1527L8.4782 10.9626L8.37068 10.8782L8.4782 10.7303L8.58573 10.8359ZM9.12337 9.90666C9.10186 9.92778 9.05885 9.92778 9.05885 9.90666C9.03734 9.88554 9.03734 9.8433 9.05885 9.8433C9.10186 9.82218 9.14487 9.80106 9.18788 9.80106C9.23089 9.80106 9.2739 9.80106 9.31691 9.80106C9.33842 9.80106 9.35993 9.82218 9.38143 9.82218C9.40294 9.8433 9.42444 9.8433 9.44595 9.86442C9.46745 9.88554 9.46745 9.90666 9.44595 9.92778C9.42444 9.9489 9.40294 9.9489 9.38143 9.92778C9.38143 9.90666 9.35993 9.90666 9.33842 9.90666C9.31692 9.90666 9.31691 9.88554 9.29541 9.88554C9.2739 9.88554 9.23089 9.88554 9.20939 9.88554C9.16638 9.88554 9.14487 9.88554 9.12337 9.90666ZM9.55347 9.80106L9.74702 10.0545L10.0266 10.1812C10.2847 10.2868 10.3277 10.7092 10.0911 10.857L9.40294 11.3428L8.4782 10.6036L8.8438 9.86442C8.99433 9.6321 9.40294 9.58986 9.55347 9.80106ZM7.6825 8.36492C8.56423 8.4494 8.92982 8.55499 9.76853 8.85067C9.23089 9.10411 7.98358 8.85067 7.6825 8.36492ZM8.8438 8.04812C8.82229 8.06924 8.77928 8.06924 8.75777 8.09036C8.71476 8.11148 8.67175 8.04812 8.65025 8.027C8.4782 7.8158 7.76853 7.94252 7.38143 8.17484C7.29541 8.2382 7.23089 8.25932 7.2524 8.36492C7.2739 8.70283 7.79003 9.18859 8.41369 9.35754C9.16638 9.56874 10.0051 9.39978 10.2201 8.89291C10.2201 8.87179 10.2201 8.85067 10.1986 8.80843C9.94057 8.53387 9.2524 7.90028 8.8438 8.04812ZM4.4997 4.94352L4.54272 5.55599C4.54272 5.68271 4.39218 5.74607 4.24164 5.74607L3.70401 5.76719C3.66099 5.76719 3.63949 5.72495 3.63949 5.68271C3.63949 5.57711 3.59648 5.49263 3.59648 5.38703C3.59648 5.30255 3.59648 5.26031 3.66099 5.26031C3.83304 5.23919 3.94056 5.1336 4.04809 4.88016C4.0911 4.77456 4.0911 4.79568 4.19863 4.8168L4.45669 4.85904C4.4782 4.85904 4.4997 4.90128 4.4997 4.94352ZM4.60723 3.84529C4.62874 3.90865 4.60723 3.95089 4.54272 3.97201C4.52121 3.97201 4.52121 3.97201 4.4997 3.97201C4.4997 4.07761 4.4997 4.18321 4.4997 4.28881C4.4997 4.39441 4.4997 4.5 4.4997 4.6056C4.4997 4.7112 4.4997 4.7112 4.39218 4.69008C4.37067 4.69008 4.34917 4.69008 4.32766 4.66896C4.28465 4.66896 4.28465 4.64784 4.24164 4.64784C4.15562 4.62672 4.15562 4.62672 4.19863 4.52112C4.24164 4.43665 4.28465 4.33105 4.32766 4.24657L4.45669 3.95089C4.45669 3.95089 4.45669 3.95089 4.45669 3.92977C4.43519 3.90865 4.41368 3.90865 4.41368 3.86641C4.39218 3.80305 4.41368 3.76081 4.4782 3.73969C4.52121 3.76081 4.58573 3.78193 4.60723 3.84529ZM3.48895 5.45039C3.51046 5.53487 3.53196 5.64047 3.46745 5.68271C3.44594 5.68271 3.42443 5.70383 3.40293 5.70383C3.31691 5.74607 3.31691 5.74607 3.2739 5.66159C3.25239 5.64047 3.25239 5.61935 3.25239 5.59823C3.20938 5.49263 3.20938 5.51375 3.2954 5.45039C3.33841 5.42927 3.35992 5.40815 3.40293 5.38703C3.46745 5.34479 3.46745 5.36591 3.48895 5.45039ZM3.85454 5.32367C3.83304 5.34479 3.79003 5.32367 3.79003 5.30255C3.76852 5.28143 3.79003 5.2392 3.81153 5.2392C3.85454 5.21808 3.89755 5.17584 3.94056 5.15472C3.98357 5.11248 4.00508 5.07024 4.04809 5.028C4.0696 5.00688 4.0911 5.00688 4.11261 5.00688C4.13411 5.028 4.13411 5.04912 4.13411 5.07024C4.0911 5.11248 4.0696 5.17584 4.02659 5.21808C3.96207 5.26031 3.89755 5.30255 3.85454 5.32367ZM2.52121 5.74607C2.54271 5.72495 2.58572 5.74607 2.58572 5.76719C2.60723 5.78831 2.58572 5.83055 2.56422 5.83055L2.4782 5.87279C2.28465 5.99951 2.15562 6.08398 2.02658 6.12622C2.00508 6.12622 1.96207 6.12622 1.96207 6.1051C1.96207 6.08398 1.96207 6.04175 1.98357 6.04175C2.0911 5.99951 2.24164 5.91503 2.41368 5.78831L2.52121 5.74607ZM3.10185 5.45039L3.2739 6.02063C3.31691 6.12622 3.2739 6.25294 3.18788 6.29518C2.80078 6.48526 1.25239 7.73132 1.20938 7.11885L1.16637 6.48526C1.16637 6.37966 1.14486 6.23182 1.25239 6.2107C1.76852 6.06286 2.43519 5.78831 2.84379 5.36591C2.9083 5.28143 3.08035 5.34479 3.10185 5.45039ZM8.43519 3.44402C8.41369 3.46514 8.37068 3.46514 8.37068 3.44402C8.34917 3.4229 8.34917 3.38066 8.37068 3.38066C8.4567 3.3173 8.54272 3.27506 8.62874 3.25394C8.71476 3.23282 8.82229 3.23282 8.90831 3.23282C8.92982 3.23282 8.95132 3.25394 8.95132 3.29618C8.95132 3.33842 8.92982 3.33842 8.88681 3.33842C8.80079 3.3173 8.71476 3.33842 8.65025 3.33842C8.58573 3.35954 8.49971 3.40178 8.43519 3.44402ZM8.77928 4.56336C8.99433 4.56336 9.16638 4.47888 9.31691 4.35217C9.44595 4.22545 9.53197 4.03537 9.53197 3.82417C9.53197 3.61298 9.44595 3.44402 9.31691 3.29618C9.18788 3.16946 8.99433 3.08498 8.77928 3.08498C8.56423 3.08498 8.39218 3.16946 8.24164 3.29618C8.11261 3.4229 8.02659 3.61298 8.02659 3.82417C8.02659 4.03537 8.11261 4.20433 8.24164 4.35217C8.37068 4.5 8.56423 4.56336 8.77928 4.56336ZM8.77928 4.66896C8.54272 4.66896 8.32767 4.58448 8.17713 4.43665C8.02659 4.28881 7.91906 4.07761 7.91906 3.84529C7.91906 3.61298 8.00509 3.40178 8.15562 3.25394C8.30616 3.1061 8.52122 3.0005 8.75777 3.0005C8.99433 3.0005 9.20939 3.08498 9.35993 3.23282C9.51046 3.38066 9.61799 3.59186 9.61799 3.82417C9.61799 4.05649 9.53197 4.26769 9.38143 4.41553C9.23089 4.56336 9.01584 4.66896 8.77928 4.66896ZM8.41369 5.11248C8.52121 5.19696 8.56423 5.32367 8.49971 5.45039L8.41369 5.72495C8.34917 5.89391 8.17713 5.97839 8.00509 5.91503C7.83304 5.85167 7.74702 5.68271 7.81154 5.51375L7.89756 5.26031C7.94057 5.1336 8.0696 5.04912 8.19863 5.04912L8.32767 4.69008C8.00509 4.54224 7.79003 4.20433 7.79003 3.84529C7.79003 3.3173 8.22014 2.8949 8.75777 2.8949C9.29541 2.8949 9.72552 3.3173 9.72552 3.84529C9.72552 4.37329 9.29541 4.79568 8.75777 4.79568C8.67175 4.79568 8.60724 4.79568 8.54272 4.77456L8.41369 5.11248ZM7.35992 10.7937C7.57498 10.7937 7.74702 10.7092 7.89756 10.5825C8.02659 10.4558 8.11261 10.2657 8.11261 10.0545C8.11261 9.8433 8.02659 9.67434 7.89756 9.5265C7.76853 9.39978 7.57498 9.3153 7.35992 9.3153C7.14487 9.3153 6.97283 9.39978 6.82229 9.5265C6.69326 9.65322 6.60723 9.8433 6.60723 10.0545C6.60723 10.2657 6.69326 10.4347 6.82229 10.5825C6.95132 10.7092 7.14487 10.7937 7.35992 10.7937ZM7.35992 10.8993C7.12336 10.8993 6.90831 10.8148 6.75777 10.667C6.60723 10.5191 6.49971 10.3079 6.49971 10.0756C6.49971 9.8433 6.58573 9.6321 6.73627 9.48426C6.8868 9.33642 7.10186 9.23083 7.33842 9.23083C7.57498 9.23083 7.79003 9.3153 7.94057 9.46314C8.09111 9.61098 8.19863 9.82218 8.19863 10.0545C8.19863 10.2868 8.11261 10.498 7.96207 10.6458C7.81154 10.7937 7.59648 10.8993 7.35992 10.8993ZM7.76853 10.3291C7.79003 10.3079 7.81154 10.3079 7.83304 10.3079C7.85455 10.3291 7.85455 10.3502 7.85455 10.3713C7.79003 10.4558 7.72552 10.5191 7.63949 10.5614C7.55347 10.6036 7.46745 10.6458 7.38143 10.6458C7.35992 10.6458 7.31691 10.6247 7.31691 10.6036C7.31691 10.5825 7.33842 10.5402 7.35992 10.5402C7.44595 10.5402 7.51046 10.498 7.59648 10.4558C7.661 10.4558 7.72551 10.3924 7.76853 10.3291ZM6.22014 9.27306C6.11261 9.33642 5.96207 9.3153 5.85455 9.25195L5.63949 9.08299C5.51046 8.97739 5.48895 8.78731 5.59648 8.63947C5.70401 8.51275 5.89756 8.49163 6.04809 8.59723L6.26315 8.76619C6.37067 8.85067 6.41369 8.99851 6.34917 9.12523L6.67175 9.35754C6.92981 9.10411 7.31691 9.01963 7.661 9.14635C8.15562 9.3153 8.41369 9.86442 8.24164 10.3502C8.0696 10.8359 7.51046 11.0894 7.01584 10.9204C6.52121 10.7514 6.26315 10.2023 6.43519 9.71658C6.4567 9.65322 6.49971 9.56874 6.54272 9.50538L6.22014 9.27306ZM10.9513 4.8168C10.9513 4.79568 10.9728 4.75344 10.9943 4.75344C11.0158 4.75344 11.0589 4.77456 11.0589 4.79568C11.0804 4.9224 11.0804 5.028 11.0804 5.15472C11.0804 5.26031 11.0589 5.34479 11.0158 5.42927L11.1449 5.47151C11.3384 5.53487 11.3814 5.51375 11.2954 5.72495C11.1234 6.2107 10.4782 7.43565 8.99433 7.41453V7.45677C8.99433 7.54125 8.8653 7.52013 8.8653 7.47789L8.69326 6.46414C8.69326 6.4219 8.80079 6.35854 8.82229 6.44302V6.56974C9.05885 6.56974 9.2524 6.5275 9.44595 6.48526L9.48896 6.71758C9.48896 6.7387 9.51046 6.75982 9.55347 6.75982C9.57498 6.75982 9.59649 6.7387 9.59649 6.69646L9.55347 6.46414C9.661 6.4219 9.76853 6.37966 9.85455 6.3163C9.85455 6.3163 9.85455 6.3163 9.85455 6.33742L9.98358 6.54862C10.0051 6.56974 10.0266 6.56974 10.0481 6.56974C10.0696 6.54862 10.0696 6.5275 10.0696 6.50638L9.94057 6.29518C9.94057 6.29518 9.94057 6.27406 9.91907 6.27406C10.0266 6.18958 10.1126 6.1051 10.1986 6.02063C10.1986 6.02063 10.1986 6.02063 10.1986 6.04175L10.4137 6.2107C10.4352 6.23182 10.4782 6.23182 10.4782 6.2107C10.4997 6.18958 10.4997 6.14734 10.4782 6.14734L10.2632 5.97839C10.2632 5.97839 10.2632 5.97839 10.2416 5.97839C10.3707 5.80943 10.4567 5.64047 10.4997 5.51375C10.5642 5.32367 10.5642 5.34479 10.7363 5.40815L10.9083 5.47151C10.9298 5.38703 10.9513 5.30255 10.9728 5.21808C10.9728 5.028 10.9728 4.9224 10.9513 4.8168ZM8.67175 6.61198C8.52121 6.65422 8.60724 7.37229 8.77928 7.33005L8.67175 6.61198ZM7.08035 1.20533C7.38143 1.22645 7.76853 1.26869 7.98358 1.31092C8.11261 1.33204 8.39218 1.35316 8.54272 1.37428C8.69326 1.3954 8.69326 1.43764 8.54272 1.52212C8.00509 1.86004 7.33842 1.7122 6.95132 1.31092C6.82229 1.18421 6.90831 1.20533 7.08035 1.20533ZM7.98358 0.973009C7.96207 0.994129 7.91906 0.994129 7.89756 1.01525C7.85455 1.03637 7.81154 0.973009 7.79003 0.951889C7.57498 0.740692 6.90831 0.825171 6.49971 1.07861C6.39218 1.14197 6.37067 1.14197 6.41369 1.26869C6.82229 2.15571 8.32767 2.36691 8.99433 1.66996C9.20939 1.43764 9.20939 1.43764 8.97283 1.2898C8.69326 1.09973 8.22014 0.84629 7.98358 0.973009ZM4.73626 6.65422L4.32766 7.05549L4.58573 7.28781C4.65024 7.35117 4.71476 7.37229 4.80078 7.37229C4.8653 7.37229 4.95132 7.35117 4.99433 7.28781C5.05885 7.22445 5.08035 7.16109 5.08035 7.07661C5.08035 7.01325 5.05885 6.92877 4.99433 6.88653L4.73626 6.65422ZM3.96207 6.29518C4.02659 6.2107 4.13411 6.18958 4.24164 6.16846C4.34917 6.16846 4.43519 6.2107 4.52121 6.27406L5.05885 6.78094C5.14487 6.8443 5.16637 6.94989 5.18788 7.05549C5.18788 7.16109 5.14487 7.24557 5.08035 7.33005C5.01583 7.41453 4.90831 7.43565 4.80078 7.45677C4.69325 7.45677 4.60723 7.41453 4.52121 7.35117L3.98358 6.84429C3.89755 6.78094 3.87605 6.67534 3.85454 6.56974C3.85454 6.48526 3.89755 6.37966 3.96207 6.29518ZM4.4782 2.87379C4.4997 2.78931 4.56422 2.74707 4.62874 2.70483C4.69325 2.68371 4.77927 2.66259 4.8653 2.70483L5.40293 2.91602C5.48895 2.93714 5.53196 3.0005 5.57497 3.06386C5.59648 3.12722 5.61799 3.2117 5.57497 3.29618C5.55347 3.38066 5.48895 3.4229 5.42444 3.46514C5.35992 3.48626 5.2739 3.50738 5.18788 3.46514L4.65024 3.25394C4.56422 3.23282 4.52121 3.16946 4.4782 3.1061C4.45669 3.04274 4.45669 2.95826 4.4782 2.87379ZM5.14487 2.8949L4.99433 3.29618L5.23089 3.38066C5.2954 3.40178 5.33842 3.40178 5.40293 3.38066C5.44594 3.35954 5.48895 3.3173 5.51046 3.27506C5.53196 3.2117 5.53196 3.16946 5.51046 3.1061C5.48895 3.06386 5.44594 3.02162 5.40293 3.0005L5.14487 2.8949ZM2.58572 7.35117C2.56422 7.37229 2.52121 7.35117 2.52121 7.33005C2.4997 7.30893 2.52121 7.26669 2.54271 7.26669C2.58572 7.24557 2.62873 7.22445 2.67175 7.22445C2.71476 7.22445 2.75777 7.22445 2.80078 7.24557C2.82228 7.24557 2.84379 7.26669 2.86529 7.28781C2.8868 7.30893 2.90831 7.33005 2.92981 7.33005C2.95132 7.35117 2.95132 7.39341 2.92981 7.39341C2.90831 7.41453 2.86529 7.41453 2.86529 7.39341C2.86529 7.37229 2.84379 7.37229 2.82228 7.35117C2.80078 7.35117 2.80078 7.33005 2.77927 7.33005C2.75777 7.33005 2.71476 7.30893 2.69325 7.33005C2.65024 7.33005 2.60723 7.33005 2.58572 7.35117ZM3.2954 7.64684C3.2954 6.80206 2.00508 6.71758 1.74701 8.09036C1.6825 8.47052 1.74701 8.49163 2.11261 8.78731C2.17712 8.97739 2.39218 9.29418 2.77927 9.25195C4.17712 9.10411 4.26315 7.9214 3.35992 7.73132C3.79003 7.47789 3.76852 7.03437 3.74702 6.80206C3.74702 6.75982 3.74702 6.71758 3.74702 6.69646C3.76852 6.69646 3.76852 6.67534 3.76852 6.65422C3.76852 6.6331 3.74702 6.59086 3.72551 6.59086C3.6825 6.59086 3.66099 6.61198 3.63949 6.65422C3.63949 6.67534 3.63949 6.7387 3.63949 6.78094C3.66099 7.01325 3.6825 7.43565 3.2954 7.64684ZM9.6395 11.8919C9.61799 11.913 9.57498 11.913 9.57498 11.8919C9.55347 11.8708 9.55347 11.8286 9.57498 11.8286C9.61799 11.8074 9.661 11.7863 9.70401 11.7652C9.74702 11.7652 9.79003 11.7652 9.83305 11.7652C9.85455 11.7652 9.87606 11.7863 9.89756 11.8074C9.91907 11.8286 9.94057 11.8286 9.96208 11.8497C9.98358 11.8708 9.98358 11.8919 9.96208 11.913C9.94057 11.9342 9.91907 11.9342 9.89756 11.913C9.87606 11.8919 9.87605 11.8919 9.85455 11.8708C9.83304 11.8708 9.83304 11.8497 9.81154 11.8497C9.79003 11.8497 9.74702 11.8497 9.72552 11.8497C9.68251 11.8708 9.661 11.8708 9.6395 11.8919ZM10.2847 11.9975C10.0266 11.3006 8.95132 11.6385 9.18788 12.8001C9.2524 13.1169 9.31691 13.1169 9.70401 13.2436C9.81154 13.3703 10.0911 13.5604 10.3922 13.4125C11.4459 12.8634 11.1664 11.9342 10.4352 11.9975C10.6502 11.7441 10.5642 11.4273 10.5212 11.2583C10.5212 11.2372 10.4997 11.195 10.4997 11.195C10.4997 11.195 10.5212 11.1738 10.5212 11.1527C10.5212 11.1316 10.4997 11.1105 10.4782 11.1105C10.4352 11.1105 10.4137 11.1316 10.4137 11.1738C10.4137 11.195 10.4352 11.2372 10.4352 11.2794C10.4352 11.4484 10.5212 11.7441 10.2847 11.9975ZM4.4997 7.87916C4.4782 7.85804 4.4997 7.8158 4.52121 7.8158C4.54272 7.79468 4.58573 7.8158 4.58573 7.83692C4.62874 7.90028 4.75777 7.98476 4.8868 8.027C5.03734 8.09036 5.20938 8.1326 5.2954 8.11148C5.31691 8.11148 5.33842 8.1326 5.35992 8.15372C5.35992 8.17484 5.33842 8.19596 5.31691 8.21708C5.20938 8.2382 5.01583 8.19596 4.84379 8.11148C4.69325 8.04812 4.54272 7.96364 4.4997 7.87916ZM8.34917 6.78094C8.30616 6.78094 8.28466 6.80206 8.24164 6.84429C8.24164 6.84429 8.24164 6.84429 8.22014 6.84429C8.17713 6.78094 8.0696 6.65422 7.94057 6.56974C7.85455 6.50638 7.74702 6.44302 7.661 6.44302C7.61799 6.44302 7.59648 6.46414 7.55347 6.5275C7.53197 6.56974 7.46745 6.65422 7.38143 6.67534C7.33842 6.69646 7.2739 6.78094 7.20939 6.88653C7.16637 6.99213 7.10186 7.13997 7.10186 7.18221C7.12336 7.24557 7.18788 7.33005 7.2739 7.41453C7.35992 7.47789 7.44594 7.54125 7.53197 7.56237C6.58573 8.17484 5.14487 8.30156 4.4997 7.60461C4.37067 7.47789 4.26315 7.47789 4.17712 7.49901C4.0696 7.52013 4.00508 7.64685 4.02659 7.7102C4.24164 8.78731 7.31691 8.74507 8.34917 7.16109C8.39218 7.07661 8.58573 6.80206 8.34917 6.78094ZM7.6825 6.54862C7.6825 6.56974 7.661 6.59086 7.63949 6.59086L8.00509 6.90765C8.02659 6.92877 8.02659 6.94989 8.00509 6.97101C7.98358 6.99213 7.96207 6.99213 7.94057 6.97101L7.57498 6.65422C7.53197 6.67534 7.48896 6.71758 7.44594 6.71758C7.44594 6.71758 7.38143 6.80206 7.33842 6.88653L7.55347 7.05549C7.57498 7.07661 7.57498 7.09773 7.55347 7.11885C7.53197 7.13997 7.51046 7.13997 7.48896 7.11885L7.2739 6.99213C7.23089 7.07661 7.18788 7.13997 7.18788 7.13997C7.20939 7.18221 7.2524 7.26669 7.31691 7.30893C7.40293 7.37229 7.48896 7.43565 7.57498 7.45677C7.59648 7.45677 7.70401 7.35117 7.83304 7.24557C7.96207 7.09773 8.11261 6.92877 8.13412 6.86541C8.11261 6.8443 8.00508 6.71758 7.87605 6.61198C7.83304 6.56974 7.70401 6.48526 7.6825 6.54862ZM0.908303 2.51475C1.10185 2.55699 1.31691 2.51475 1.46744 2.43027C1.63949 2.32467 1.74701 2.17683 1.81153 1.98676C1.85454 1.77556 1.83304 1.56436 1.72551 1.41652C1.61798 1.24757 1.46744 1.12085 1.27389 1.07861C1.05884 1.01525 0.865292 1.05749 0.693249 1.16309C0.521206 1.24757 0.413679 1.41652 0.349163 1.6066C0.306152 1.8178 0.349162 2.00788 0.435184 2.17683C0.542711 2.34579 0.693249 2.45139 0.908303 2.51475ZM0.886798 2.59923C0.650238 2.55699 0.45669 2.40915 0.349163 2.21907C0.241636 2.029 0.198625 1.8178 0.241636 1.58548C0.306152 1.37428 0.456689 1.18421 0.650238 1.07861C0.843787 0.973009 1.05884 0.930769 1.2954 0.973009C1.51045 1.03637 1.704 1.16309 1.81153 1.35316C1.91906 1.54324 1.96207 1.75444 1.91906 1.98676C1.85454 2.21907 1.704 2.38803 1.53196 2.51475C1.33841 2.62035 1.10185 2.66259 0.886798 2.59923ZM0.865292 1.33204C0.843787 1.35316 0.800776 1.33204 0.800776 1.31092C0.77927 1.2898 0.800776 1.26869 0.822281 1.24757C0.908303 1.20533 1.01583 1.18421 1.10185 1.18421C1.18787 1.18421 1.2954 1.20533 1.38142 1.24757C1.40293 1.26869 1.42443 1.2898 1.40293 1.31092C1.40293 1.33204 1.35992 1.35316 1.33841 1.33204C1.25239 1.31092 1.18787 1.2898 1.10185 1.2898C1.01583 1.2898 0.951314 1.31092 0.865292 1.33204ZM0.822281 2.78931C0.929808 2.87379 0.951314 3.0005 0.908303 3.12722L0.822281 3.38066C0.757765 3.54962 0.585722 3.61298 0.413679 3.57074C0.241635 3.50738 0.177119 3.33842 0.22013 3.16946L0.306152 2.91602C0.349162 2.78931 0.478195 2.70483 0.607227 2.72595L0.650238 2.64147C0.241635 2.45139 0.0265815 2.00788 0.134108 1.56436C0.263141 1.05749 0.779271 0.761812 1.2954 0.88853C1.81153 1.01525 2.11261 1.52212 1.98357 2.029C1.85454 2.53587 1.33841 2.83155 0.822281 2.70483V2.78931ZM2.67175 1.01525C2.71476 1.05749 2.73626 1.12085 2.73626 1.18421C2.73626 1.35316 2.62873 1.47988 2.45669 1.501C2.39218 1.501 2.32766 1.47988 2.28465 1.45876L2.67175 1.01525ZM2.13411 1.20533C2.13411 1.03637 2.24164 0.90965 2.41368 0.88853C2.4782 0.88853 2.54271 0.90965 2.58572 0.930769L2.19863 1.35316C2.17712 1.31092 2.15562 1.26869 2.13411 1.20533ZM1.63949 3.16946C1.57497 3.1061 1.55346 3.04274 1.55346 3.0005C1.55346 2.93714 1.57497 2.87379 1.61798 2.81043L1.94056 2.47251C1.98357 2.43027 2.04809 2.38803 2.11261 2.38803C2.17712 2.38803 2.24164 2.40915 2.30615 2.45139C2.34916 2.49363 2.39218 2.55699 2.39218 2.62035C2.39218 2.68371 2.37067 2.74707 2.32766 2.81043L2.00508 3.12722C1.96207 3.16946 1.89755 3.2117 1.83304 3.2117C1.74701 3.23282 1.6825 3.2117 1.63949 3.16946ZM1.87605 2.70483L2.11261 2.91602L2.26314 2.76819C2.28465 2.74707 2.30615 2.70483 2.30615 2.66259C2.30615 2.62035 2.28465 2.57811 2.26314 2.55699C2.19863 2.51475 2.15562 2.49363 2.11261 2.49363C2.0911 2.49363 2.04809 2.51475 2.00508 2.55699L1.87605 2.70483ZM0.327657 12.969C0.306152 13.0113 0.349162 13.0535 0.413679 13.0957C0.521206 13.138 0.757765 13.2013 1.14486 13.2436C1.18787 13.2436 1.23088 13.2436 1.23088 13.2013C1.23088 13.1802 1.23088 13.1591 1.16637 13.138C1.08035 13.1169 0.951314 13.1169 0.77927 13.0746C0.693249 13.0535 0.607227 13.0324 0.542711 12.9901C0.413679 12.969 0.349162 12.9268 0.327657 12.969ZM1.85454 11.4273C2.19863 11.4062 2.73626 11.5962 2.26314 12.1665C3.12336 12.5889 3.74702 13.1591 3.40293 13.3914C3.20938 13.5181 0.822281 13.4125 0.456689 13.4548C0.0910976 13.497 0.134108 13.3281 0.112603 13.0324C0.0910977 12.8423 0.0695923 12.6945 0.241636 12.7578C1.72551 13.3281 3.6825 13.1169 2.11261 12.4621C1.40293 12.2298 2.06959 11.9553 2.0911 11.8497C2.11261 11.6807 1.96207 11.6807 1.81153 11.7018C1.6825 11.723 1.704 11.6807 1.704 11.6174V11.554C1.704 11.4484 1.72551 11.4484 1.85454 11.4273ZM2.8868 12.1031C2.77927 11.9342 2.71476 11.7652 2.77927 11.6174C2.97282 11.1105 5.20938 10.6458 4.52121 13.3281C4.39218 13.8983 3.03734 12.3354 2.8868 12.1031ZM3.10185 11.5329C3.12336 11.4695 3.08035 11.4484 3.03734 11.4906C2.97282 11.554 2.8868 11.6174 2.8868 11.723C2.8868 11.7863 2.8868 11.8497 2.95132 11.8497C3.01583 11.8286 2.97282 11.7652 2.99433 11.7018C3.01583 11.6385 3.08035 11.5962 3.10185 11.5329ZM4.22013 12.61C4.28465 12.4199 4.28465 11.9342 4.17712 11.7652C4.00508 11.5329 3.83304 11.5118 3.55347 11.5751C3.33841 11.6385 3.03734 11.7863 3.20938 12.0398C3.2954 12.1665 3.35992 12.2298 3.48895 12.3565C3.6825 12.5255 4.0911 12.9479 4.22013 12.61ZM4.26314 10.8993C4.19863 10.9415 4.13411 10.9626 4.04809 10.9626C3.85454 10.9626 3.70401 10.8148 3.70401 10.6247C3.70401 10.5402 3.72551 10.4769 3.79003 10.4135L4.26314 10.8993ZM4.04809 10.2657C4.24164 10.2657 4.39218 10.4135 4.39218 10.6036C4.39218 10.6881 4.37067 10.7514 4.32766 10.8148L3.85454 10.3291C3.89755 10.2868 3.98357 10.2657 4.04809 10.2657ZM0.413679 11.7018C0.542711 11.554 0.650238 11.4273 0.800776 11.3006C0.908303 11.2161 1.23088 10.8993 1.31691 10.8359C1.35992 10.8148 1.25239 11.7018 0.413679 11.8286C0.284646 11.8497 0.349162 11.8074 0.413679 11.7018ZM0.607227 11.0471C0.607227 11.0682 0.585722 11.1105 0.585722 11.1316C0.564216 11.1738 0.4997 11.1738 0.478195 11.1738C0.198625 11.195 -0.0379347 11.7441 0.00507609 12.1242C0.198625 12.3565 0.994325 12.1665 1.2954 11.7863C1.55347 11.4695 1.704 11.1105 1.55346 10.6247C1.42443 10.498 0.714754 10.667 0.607227 11.0471ZM1.35992 12.3777L1.23088 12.7156L1.46744 12.8001C1.51045 12.8212 1.57497 12.8212 1.61798 12.8001C1.66099 12.7789 1.704 12.7367 1.72551 12.6945C1.74701 12.6522 1.74701 12.5889 1.72551 12.5466C1.704 12.5044 1.66099 12.4621 1.61798 12.441L1.35992 12.3777ZM0.757765 12.3565C0.800776 12.2721 0.843787 12.2087 0.908303 12.1876C0.972819 12.1665 1.05884 12.1453 1.12336 12.1876L1.61798 12.3777C1.6825 12.3988 1.74701 12.4621 1.79002 12.5255C1.81153 12.5889 1.83304 12.6733 1.79002 12.7367C1.76852 12.8001 1.72551 12.8634 1.63949 12.9057C1.57497 12.9268 1.48895 12.9479 1.42443 12.9057L0.929808 12.7156C0.843787 12.6945 0.800776 12.6311 0.757765 12.5677C0.73626 12.5044 0.73626 12.4199 0.757765 12.3565ZM1.01583 4.05649C1.01583 4.01425 1.05884 4.01425 1.08035 4.03537C1.10185 4.05649 1.12336 4.07761 1.10185 4.09873C1.05884 4.18321 0.994325 4.24657 0.929808 4.28881C0.865292 4.35217 0.77927 4.37329 0.693249 4.41553C0.671744 4.41553 0.628733 4.41553 0.628733 4.37329C0.628733 4.35217 0.628733 4.30993 0.671743 4.30993C0.73626 4.28881 0.800776 4.24657 0.865292 4.20433C0.929808 4.16209 0.972819 4.11985 1.01583 4.05649ZM5.61799 2.45139C5.14487 1.90228 4.22013 1.98676 3.6825 2.34579C3.48895 2.47251 3.40293 2.68371 3.31691 2.83155C3.25239 2.95826 3.03734 3.02162 2.86529 2.87379C1.85454 1.98676 3.94056 -0.230816 6.26315 1.43764C6.54272 1.62772 6.65024 1.77556 6.4567 1.94452C6.17713 2.17683 5.74702 2.57811 5.61799 2.45139ZM2.71476 2.85267C2.84379 3.02162 3.14486 3.0005 2.97282 3.19058C2.95132 3.23282 2.9083 3.25394 2.8868 3.27506C2.80078 3.35954 2.77927 3.38066 2.67175 3.3173C2.60723 3.29618 2.56422 3.25394 2.52121 3.2117C2.43519 3.12722 2.43519 3.1061 2.4782 3.0005C2.4782 2.95826 2.4997 2.91602 2.54271 2.81043C2.62873 2.53587 2.58572 2.68371 2.71476 2.85267ZM4.00508 2.029C3.94056 1.90228 3.72551 1.56436 3.59648 1.47988C3.42443 1.35316 4.52121 0.951889 5.10186 1.18421C5.16637 1.20533 5.2954 2.05012 5.20938 2.029C4.69325 1.8178 4.02659 2.05012 4.00508 2.029ZM3.23089 1.66996C3.25239 1.64884 3.2954 1.64884 3.2954 1.66996C3.31691 1.69108 3.31691 1.73332 3.2954 1.73332C3.23089 1.77556 3.18788 1.83892 3.14486 1.88116C3.10185 1.94452 3.05884 2.00788 3.03734 2.07123C3.01583 2.11347 2.97282 2.13459 2.95132 2.11347C2.92981 2.09235 2.90831 2.07123 2.92981 2.05012C2.97282 1.98676 3.01583 1.90228 3.05884 1.83892C3.10185 1.79668 3.16637 1.73332 3.23089 1.66996ZM6.58573 1.90228C6.43519 2.11347 6.19863 2.38803 5.91906 2.51475C5.76852 2.55699 5.70401 2.51475 5.81153 2.66259C5.83304 2.70483 5.83304 2.72595 5.89756 2.76819C6.04809 2.87379 6.04809 2.85267 6.22014 2.74707C6.49971 2.57811 6.62874 2.24019 6.84379 2.07123C6.99433 1.96564 6.92981 1.88116 6.77928 1.83892C6.65024 1.79668 6.62874 1.8178 6.58573 1.90228ZM2.04809 4.28881C1.81153 4.30993 1.57497 3.99313 1.38142 4.03537C1.05884 4.11985 0.951314 4.73232 0.370668 4.52112C0.198625 4.45776 0.155614 4.28881 0.263141 4.14097C0.671744 3.57074 1.42443 3.27506 1.91906 3.5285C2.19863 3.65522 2.22013 3.25394 2.32766 3.27506C2.77927 3.40178 2.77927 4.20433 2.04809 4.28881ZM2.24164 4.73232C2.22013 4.73232 2.19863 4.7112 2.17712 4.69008C2.17712 4.66896 2.19863 4.64784 2.22013 4.62672C2.4782 4.6056 2.75777 4.64784 3.03734 4.7112C3.14486 4.73232 3.25239 4.75344 3.35992 4.79568C3.38142 4.79568 3.40293 4.8168 3.40293 4.85904C3.40293 4.88016 3.38142 4.90128 3.33841 4.90128C3.23089 4.88016 3.12336 4.83792 3.01583 4.8168C2.75777 4.75344 2.4782 4.7112 2.24164 4.73232ZM0.327657 5.21808C0.349162 5.21808 0.349163 5.21808 0.370668 5.21808C0.4997 5.19696 0.693249 5.15472 0.929808 5.11248C1.25239 5.04912 1.55347 4.98576 1.57497 4.98576C1.61798 5.028 1.61798 5.11248 1.61798 5.21808C1.61798 5.28143 1.63949 5.45039 1.59648 5.51375C1.59648 5.51375 1.51045 5.55599 1.42443 5.57711C1.33841 5.59823 1.25239 5.61935 1.20938 5.61935C1.20938 5.61935 1.20938 5.61935 1.18787 5.61935L1.12336 5.17584C1.12336 5.15472 1.10185 5.1336 1.05884 5.1336C1.03734 5.1336 1.01583 5.15472 1.01583 5.19696L1.08035 5.61935C0.951314 5.64047 0.800776 5.70383 0.671743 5.76719L0.585722 5.38703C0.585722 5.36591 0.542711 5.34479 0.521206 5.34479C0.4997 5.34479 0.478195 5.38703 0.478195 5.40815L0.564216 5.80943L0.521206 5.83055C0.45669 5.85167 0.413679 5.87279 0.392173 5.89391C0.349162 5.78831 0.327657 5.66159 0.327657 5.55599C0.306152 5.38703 0.327657 5.28143 0.327657 5.21808ZM0.155614 4.98576C0.0910977 5.00688 0.112603 5.15472 0.22013 5.19696C0.22013 5.28143 0.22013 5.40815 0.241636 5.53487C0.263141 5.61935 0.284646 5.85167 0.327657 5.93615C0.349162 5.97839 0.370668 5.97839 0.413679 5.95727C0.413679 5.95727 0.564216 5.87279 0.585722 5.87279C0.607227 5.85167 0.628733 5.85167 0.671743 5.83055C0.822281 5.74607 1.01583 5.66159 1.14486 5.66159C1.16637 5.66159 1.16637 5.66159 1.18787 5.66159C1.23088 5.66159 1.33841 5.64047 1.44594 5.61935C1.48895 5.59823 1.66099 5.55599 1.6825 5.51375C1.72551 5.42927 1.72551 5.30255 1.704 5.17584C1.704 5.07024 1.704 4.96464 1.63949 4.90128C1.83304 4.88016 2.04809 4.88016 2.26314 4.90128C3.23089 4.98576 3.14486 5.1336 3.46745 5.07024C3.59648 5.04912 3.63949 4.8168 3.55347 4.77456C2.37067 4.20433 0.45669 4.90128 0.155614 4.98576ZM9.12337 2.70483C9.53197 2.85267 9.94057 3.0005 10.1341 3.3173C10.4997 3.90865 9.98358 4.39441 10.3062 4.54224C11.2524 4.9224 11.8115 3.90865 11.0804 2.68371C10.8868 2.36691 10.7148 2.09235 10.3492 1.77556C10.1986 1.62772 10.1986 1.58548 9.98358 1.73332C9.68251 1.90228 9.18788 2.34579 9.03734 2.55699C8.92982 2.66259 9.01584 2.66259 9.12337 2.70483ZM8.92982 2.47251C9.08036 2.26131 9.6395 1.77556 9.89756 1.64884C10.0266 1.58548 10.0481 1.54324 10.0051 1.47988C9.98358 1.43764 9.94057 1.3954 9.89756 1.35316C9.74702 1.24757 9.68251 1.26869 9.51046 1.35316C9.23089 1.52212 8.90831 2.11347 8.67175 2.28243C8.52121 2.38803 8.58573 2.47251 8.73627 2.51475C8.8653 2.55699 8.88681 2.55699 8.92982 2.47251ZM10.4137 3.76081C10.4137 3.73969 10.4352 3.71857 10.4567 3.69745C10.4782 3.69745 10.4997 3.71857 10.5212 3.73969C10.5427 3.88753 10.5427 3.97201 10.5212 4.05649C10.5212 4.14097 10.4997 4.20433 10.4782 4.28881C10.4782 4.30993 10.4352 4.33105 10.4137 4.33105C10.3922 4.33105 10.3707 4.28881 10.3707 4.26769C10.3922 4.18321 10.4137 4.11985 10.4137 4.05649C10.4352 3.99313 10.4352 3.90865 10.4137 3.76081ZM10.6933 3.46514C11.0158 3.40178 11.1234 3.4229 11.0373 3.06386C10.9728 2.76819 10.7363 2.45139 10.4997 2.19795C10.3277 2.029 10.3277 2.029 10.1341 2.15571C9.83304 2.34579 9.61799 2.51475 9.59649 2.62035C9.59649 2.68371 9.70401 2.70483 9.87606 2.81043C10.0911 2.95826 10.2201 3.1061 10.3062 3.23282C10.4997 3.54962 10.4567 3.5285 10.6933 3.46514ZM8.82229 5.83055C8.82229 5.85167 8.80079 5.87279 8.75777 5.87279C8.73627 5.87279 8.71476 5.85167 8.71476 5.80943C8.73627 5.72495 8.75777 5.64047 8.77928 5.55599C8.82229 5.47151 8.8653 5.40815 8.90831 5.34479C8.92982 5.32367 8.95132 5.32367 8.97283 5.34479C8.99433 5.36591 8.99433 5.38703 8.97283 5.40815C8.92982 5.47151 8.88681 5.53487 8.8653 5.59823C8.8438 5.66159 8.82229 5.74607 8.82229 5.83055ZM9.05885 5.09136C9.31691 4.98576 9.48896 5.59823 9.79003 5.04912C9.96208 4.77456 10.1771 5.15472 10.0696 5.53487C10.0051 5.80943 9.68251 5.64047 9.38143 5.68271C8.95132 5.74607 9.2739 6.40078 8.69326 6.27406C8.39218 6.2107 8.69326 5.26031 9.05885 5.09136ZM10.6502 4.69008C10.5212 4.69008 10.4137 4.66896 10.2847 4.6056C10.1126 4.52112 10.1771 4.43665 10.0051 4.73232C9.94057 4.83792 10.0051 4.88016 10.1556 4.96464C10.3492 5.04912 10.3277 4.98576 10.5212 4.88016C10.6503 4.77456 10.7578 4.69008 10.6502 4.69008ZM13.5965 4.98576C13.532 5.04912 13.446 5.07024 13.3599 5.07024C13.1664 5.07024 13.0158 4.9224 13.0158 4.73232C13.0158 4.66896 13.0373 4.6056 13.0589 4.56336L13.5965 4.98576ZM13.3599 4.37329C13.5535 4.37329 13.704 4.52112 13.704 4.7112C13.704 4.77456 13.6825 4.83792 13.661 4.88016L13.1234 4.45776C13.1879 4.41553 13.2524 4.37329 13.3599 4.37329ZM22.6503 5.93615C22.6718 5.95727 22.6718 5.97839 22.6718 5.99951C22.6503 6.02063 22.6288 6.02063 22.6073 6.02063C22.5642 5.99951 22.5427 5.95727 22.5212 5.91503C22.4997 5.87279 22.4782 5.83055 22.4782 5.78831C22.4782 5.76719 22.4782 5.74607 22.4782 5.70383C22.4782 5.68271 22.4997 5.66159 22.4997 5.64047C22.5212 5.61935 22.5427 5.59823 22.5642 5.61935C22.5857 5.64047 22.6073 5.66159 22.5857 5.68271C22.5857 5.70383 22.5642 5.70383 22.5642 5.72495C22.5642 5.74607 22.5642 5.76719 22.5642 5.76719C22.5642 5.78831 22.5642 5.83055 22.5857 5.85167C22.6073 5.89391 22.6288 5.91503 22.6503 5.93615ZM23.747 5.36591L23.1449 5.04912L23.0374 4.98576L23.1234 4.85904L23.2309 4.9224L23.3384 4.77456L23.2309 4.7112L23.3169 4.58448L23.4245 4.64784L23.532 4.5L23.4245 4.43665L23.5105 4.30993L23.618 4.37329L23.7255 4.22545L23.618 4.16209L23.704 4.03537L23.8116 4.09873L23.8976 3.97201C23.9621 3.88753 24.0481 3.84529 24.1556 3.90865C24.2417 3.95089 24.2632 4.05649 24.2202 4.16209L24.1556 4.30993L24.2632 4.37329L24.1987 4.52112L24.0911 4.45776L24.0266 4.62672L24.1341 4.69008L24.0696 4.83792L23.9621 4.77456L23.8976 4.94352L24.0051 5.00688L23.9406 5.15472L23.8331 5.09136L23.7685 5.26031L23.8761 5.32367L23.8116 5.47151L23.747 5.36591ZM23.0804 6.40078L22.8868 6.2107L22.6288 6.14734C22.3922 6.08398 22.2847 5.74607 22.4567 5.57711L22.9728 5.04912L23.9191 5.55599L23.6825 6.23182C23.5965 6.44302 23.2524 6.54862 23.0804 6.40078ZM13.532 1.2898C13.532 1.31092 13.489 1.33204 13.4675 1.33204C13.446 1.33204 13.4244 1.2898 13.4244 1.26869C13.4244 1.24757 13.446 1.22645 13.4675 1.20533C13.489 1.18421 13.5105 1.16309 13.532 1.16309C13.5535 1.16309 13.575 1.14197 13.5965 1.14197C13.618 1.14197 13.6395 1.14197 13.661 1.14197C13.6825 1.14197 13.704 1.18421 13.6825 1.20533C13.6825 1.22645 13.6395 1.24757 13.618 1.22645H13.5965H13.575C13.575 1.22645 13.5535 1.22645 13.5535 1.24757C13.532 1.2898 13.532 1.2898 13.532 1.2898ZM13.4029 1.56436C13.4244 1.6066 13.4244 1.73332 13.446 1.79668C13.4675 1.88116 13.5105 2.13459 13.6395 2.13459C13.704 2.13459 13.747 2.09235 13.747 2.029C13.747 2.00788 13.747 1.98676 13.7255 1.98676C13.704 1.96564 13.6825 1.94452 13.6825 1.88116C13.6825 1.8178 13.7255 1.7122 13.833 1.7122C13.9406 1.7122 13.9836 1.8178 13.9836 1.88116C13.9836 1.94452 13.9621 1.96564 13.9406 1.98676C13.9406 2.00788 13.9191 2.00788 13.9191 2.029C13.9191 2.09235 13.9621 2.13459 14.0266 2.13459C14.1341 2.13459 14.1986 1.88116 14.2201 1.79668C14.2417 1.7122 14.2417 1.6066 14.2632 1.56436C14.3062 1.47988 14.3492 1.43764 14.3492 1.33204C14.3492 1.18421 14.2201 1.05749 14.0696 1.05749C13.9406 1.05749 13.9406 1.12085 13.8115 1.12085C13.6825 1.12085 13.6825 1.05749 13.5535 1.05749C13.4029 1.05749 13.2739 1.16309 13.2739 1.33204C13.3169 1.43764 13.3814 1.47988 13.4029 1.56436ZM14.9083 2.70483L14.5212 2.32467C14.4997 2.30355 14.4997 2.28243 14.4997 2.26131C14.4997 2.24019 14.4997 2.21907 14.5212 2.19795L14.6933 2.029C14.7148 2.00788 14.7363 2.00788 14.7578 2.00788C14.7793 2.00788 14.8008 2.029 14.8223 2.029L15.2094 2.40915C15.2309 2.43027 15.2309 2.45139 15.2309 2.47251C15.2309 2.49363 15.2309 2.51475 15.2094 2.53587L15.0374 2.70483C15.0158 2.72595 14.9943 2.72595 14.9728 2.72595C14.9513 2.72595 14.9298 2.72595 14.9083 2.70483ZM13.0589 0.804051H14.6503C14.7793 0.804051 14.8653 0.90965 14.8653 1.03637V2.00788L14.8438 1.96564C14.8223 1.94452 14.8008 1.9234 14.7578 1.9234C14.7363 1.9234 14.6933 1.9234 14.6718 1.94452L14.4567 2.15571C14.4352 2.19795 14.4137 2.24019 14.4137 2.26131C14.4137 2.28243 14.4352 2.32467 14.4567 2.34579L14.5427 2.43027H13.0589C12.9298 2.43027 12.8438 2.32467 12.8438 2.19795V1.01525C12.8438 0.88853 12.9298 0.804051 13.0589 0.804051ZM16.0911 0.86741C16.0911 0.84629 16.1126 0.825171 16.1341 0.825171C16.1556 0.825171 16.1771 0.84629 16.1771 0.86741C16.1771 0.973009 16.1771 1.01525 16.1771 1.05749C16.1771 1.12085 16.1771 1.16309 16.1771 1.26869C16.1771 1.2898 16.1556 1.31092 16.1126 1.31092C16.0911 1.31092 16.0696 1.2898 16.0696 1.24757C16.0696 1.14197 16.0696 1.09973 16.0696 1.05749C16.0911 1.01525 16.0911 0.973009 16.0911 0.86741ZM16.1341 0.761811C16.2632 0.761811 16.3922 0.761811 16.5212 0.761811C16.6718 0.761811 16.6503 0.740692 16.6503 0.88853C16.6503 1.01525 16.6503 1.12085 16.6503 1.24757C16.6503 1.43764 16.6072 1.41652 16.8008 1.41652C16.9298 1.41652 17.0589 1.41652 17.1879 1.41652C17.3814 1.41652 17.3599 1.37428 17.3599 1.58548C17.3599 1.7122 17.3599 1.8178 17.3599 1.94452C17.3599 2.11347 17.3599 2.07123 17.1879 2.07123C17.0589 2.07123 16.9083 2.07123 16.7578 2.07123C16.6288 2.07123 16.6503 2.05012 16.6503 2.17683C16.6503 2.28243 16.6503 2.28243 16.6503 2.38803C16.6503 2.57811 16.6933 2.55699 16.5212 2.59923C16.3922 2.62035 16.2847 2.66259 16.1556 2.66259C15.9191 2.68371 16.0051 2.38803 16.0051 2.15571C16.0051 2.029 16.0266 2.05012 15.8976 2.05012C15.747 2.05012 15.618 2.05012 15.4675 2.05012C15.2739 2.05012 15.3169 2.07124 15.3169 1.88116C15.3169 1.79668 15.3169 1.7122 15.3169 1.62772C15.3169 1.41652 15.2739 1.41652 15.4675 1.41652C15.5965 1.41652 15.7255 1.41652 15.8546 1.41652C16.0266 1.41652 15.9836 1.3954 15.9836 1.18421C15.9836 1.09973 15.9836 0.994129 15.9836 0.90965C15.9836 0.719572 15.9621 0.761811 16.1341 0.761811ZM24.3707 9.69546C24.4567 9.46314 24.6933 9.04075 24.8008 8.82955C24.9083 8.66059 25.0804 8.28044 25.1879 8.15372C25.3599 8.87179 24.9513 9.61098 24.3707 9.69546ZM24.5642 8.47051C24.5642 8.51275 24.5427 8.68171 24.5427 8.70283C24.5427 8.74507 24.3277 8.87179 24.3062 8.89291C24.1126 8.97739 24.1556 9.33642 24.0696 9.69546C24.0051 9.92778 24.0481 10.0123 24.2847 10.0123C24.7578 9.99114 25.2524 9.65322 25.4245 9.20971C25.575 8.78731 25.661 7.8158 25.4245 7.7102C25.403 7.7102 25.3815 7.7102 25.3384 7.7102C25.1879 7.8158 24.7363 8.19596 24.5642 8.47051ZM22.1771 2.76819C22.4137 2.85267 22.7793 3.0005 22.9513 3.08498C23.0589 3.14834 23.489 3.33842 23.5965 3.4229C23.704 3.50738 22.5642 3.73969 22.1556 2.91602C22.1126 2.81043 22.0481 2.70483 22.1771 2.76819ZM23.1449 2.83155C23.1234 2.83155 23.0804 2.83155 23.0589 2.83155C23.0159 2.83155 22.9944 2.76819 22.9944 2.74707C22.8653 2.49363 22.2632 2.45139 21.8976 2.64147C21.7255 2.93714 22.0481 3.50738 22.5427 3.76081C22.9944 3.99313 23.618 3.92977 23.9191 3.5285C23.9191 3.50738 23.9191 3.48626 23.9191 3.46514C23.79 3.14834 23.5535 2.78931 23.1449 2.83155ZM19.747 12.969C19.7255 12.969 19.6825 12.9479 19.6825 12.9268C19.6825 12.9057 19.704 12.8634 19.7255 12.8634C19.7685 12.8634 19.8116 12.8423 19.8546 12.8212C19.8976 12.8001 19.9191 12.7578 19.9406 12.7367C19.9621 12.7156 19.9836 12.7156 20.0051 12.7156C20.0266 12.7367 20.0266 12.7578 20.0266 12.7789C19.9836 12.8212 19.9621 12.8634 19.8976 12.9057C19.8761 12.9479 19.8116 12.969 19.747 12.969ZM20.3922 12.6733L20.4352 13.2858C20.4352 13.4125 20.2632 13.5181 20.1341 13.4759L19.4029 13.2647C19.3599 13.2436 19.3384 13.2225 19.3384 13.1802C19.3599 13.1169 19.3599 13.0324 19.3814 12.9479C19.4029 12.8001 19.3814 12.8212 19.5105 12.8212C19.661 12.8212 19.8116 12.8001 19.8976 12.61C19.9406 12.5255 19.9406 12.5255 20.0266 12.5466L20.3062 12.61C20.3707 12.5889 20.3922 12.6311 20.3922 12.6733ZM19.2524 13.0113C19.2094 13.2013 19.2309 13.1591 19.0374 13.1591C18.8438 13.1591 18.8868 13.2013 18.9083 13.0113C18.9298 12.8634 18.9083 12.8845 19.0589 12.8845C19.2739 12.8845 19.2954 12.8212 19.2524 13.0113ZM16.6718 11.6807C16.6933 11.7018 16.6933 11.7441 16.6718 11.7441C16.6503 11.7652 16.6072 11.7652 16.6072 11.7441C16.5857 11.7018 16.5212 11.7018 16.4782 11.723C16.4137 11.7652 16.3277 11.8286 16.2632 11.8919C16.2417 11.913 16.2201 11.913 16.1986 11.8919C16.1771 11.8708 16.1771 11.8497 16.1986 11.8286C16.2847 11.7441 16.3707 11.6807 16.4567 11.6385C16.5212 11.5962 16.6072 11.5962 16.6718 11.6807ZM18.8438 12.7578L18.7363 13.3492C18.7148 13.4548 18.5857 13.497 18.4782 13.497C17.532 13.5393 15.0804 12.5044 15.6395 12.1031L16.2417 11.6596C16.5642 11.4273 16.5427 11.4273 16.8653 11.7018C17.1664 11.9764 17.2954 12.2298 18.6933 12.5044C18.8008 12.5255 18.8653 12.6522 18.8438 12.7578ZM20.3707 11.723C20.3707 11.8286 20.3707 11.9342 20.3707 12.0398C20.3707 12.1453 20.3707 12.2721 20.3707 12.3777C20.3707 12.5255 20.3492 12.4621 20.1986 12.441C20.0266 12.4199 20.0051 12.441 20.0696 12.3143C20.1126 12.2087 20.1556 12.1031 20.1986 11.9975L20.3277 11.7018V11.6807C20.3062 11.6807 20.2847 11.6385 20.2632 11.6174C20.2417 11.554 20.2632 11.5118 20.3277 11.4906C20.3922 11.4695 20.4352 11.4906 20.4567 11.554C20.4782 11.6174 20.4567 11.6596 20.3922 11.6807C20.3922 11.723 20.3707 11.723 20.3707 11.723ZM15.9191 9.37866C16.0481 9.54762 16.2417 9.77994 16.3492 9.97002C16.4137 10.0756 16.6503 10.4558 16.6933 10.5825C16.7148 10.6247 15.7685 10.2868 15.9191 9.37866ZM16.6503 9.8433C16.6288 9.82218 16.5857 9.82218 16.5642 9.80106C16.5427 9.77994 16.5427 9.71658 16.5642 9.69546C16.6072 9.4209 16.1341 9.06187 15.7255 9.01963C15.4675 9.14635 15.4675 9.9489 15.7685 10.3291C16.0266 10.6458 16.3492 10.8782 16.8438 10.8359C16.9943 10.7514 16.9943 10.0334 16.6503 9.8433ZM14.8008 9.56874C14.6718 9.48426 14.3922 9.44202 14.3277 9.44202C14.1986 9.4209 14.0481 10.3079 14.3062 10.8148C14.4567 11.0894 14.5212 11.026 14.8223 10.9626C14.9298 10.9415 15.0374 10.9204 15.1234 10.8993C15.3814 10.8359 15.2739 10.8359 15.1879 10.6881C15.0158 10.4347 14.9728 10.0545 14.9513 9.82218C14.9298 9.6321 14.9513 9.65322 14.8008 9.56874ZM14.7148 8.74507C14.7363 8.72395 14.7793 8.74507 14.7793 8.76619C14.8008 8.78731 14.7793 8.82955 14.7578 8.82955C14.6933 8.87179 14.6287 8.91403 14.5857 8.95627C14.5427 8.99851 14.4782 9.06187 14.4352 9.12523C14.4137 9.14635 14.3922 9.14635 14.3707 9.14635C14.3492 9.12523 14.3492 9.10411 14.3492 9.08299C14.3922 9.01963 14.4567 8.95627 14.4997 8.89291C14.5857 8.82955 14.6503 8.78731 14.7148 8.74507ZM15.7685 10.8782C15.4244 10.7514 15.1879 10.2657 15.1449 9.77994C15.0804 9.3153 15.4675 9.10411 15.2739 8.85067C15.0804 8.57611 14.8223 8.55499 14.6072 8.70283C13.661 9.27306 13.618 10.7726 14.5212 11.4484C14.6933 11.5751 14.6933 11.5751 14.9298 11.4695C15.1879 11.3428 15.618 11.1105 15.8546 11.0049C16.0481 10.9204 15.9191 10.9415 15.7685 10.8782ZM15.4675 8.78731C15.5105 8.74507 15.532 8.70283 15.5535 8.66059C15.5965 8.57611 15.575 8.57611 15.532 8.51275C15.489 8.4494 15.446 8.40716 15.4029 8.38604C15.3384 8.3438 15.3169 8.3438 15.2309 8.36492C15.1449 8.38604 15.0158 8.4494 14.9083 8.53387C14.8868 8.53387 14.8868 8.55499 14.9083 8.55499C15.0804 8.55499 15.2524 8.66059 15.3384 8.80843C15.4029 8.82955 15.4029 8.85067 15.4675 8.78731ZM16.9298 7.45677C16.9298 7.47789 16.9083 7.52013 16.8868 7.52013C16.8653 7.52013 16.8223 7.49901 16.8223 7.47789C16.8223 7.41453 16.8223 7.35117 16.8438 7.30893C16.8653 7.26669 16.9083 7.20333 16.9728 7.18221C16.9943 7.16109 17.0374 7.18221 17.0374 7.20333C17.0589 7.22445 17.0374 7.26669 17.0158 7.26669C16.9728 7.28781 16.9513 7.30893 16.9298 7.35117C16.9298 7.37229 16.9298 7.41453 16.9298 7.45677ZM16.6503 7.77356C16.8438 7.62573 16.6288 7.18221 16.9728 7.09773C17.6825 6.92877 17.4675 8.4494 16.3922 8.11148C16.0481 8.00588 15.532 8.47051 15.532 8.32268C15.532 8.25932 15.7685 7.9214 16.1771 7.77356C16.3922 7.7102 16.5642 7.83692 16.6503 7.77356ZM15.9836 11.026C15.7685 11.1738 15.1879 11.4906 14.9083 11.5962C14.7793 11.6596 14.7148 11.6174 14.8008 11.7652C14.8223 11.8074 14.8653 11.8497 14.9083 11.8919C15.0589 11.9975 15.0589 11.9764 15.2309 11.8708C15.5105 11.7018 16.0051 11.385 16.2417 11.2161C16.3922 11.1105 16.3277 11.026 16.1771 10.9838C16.0696 10.9415 16.0481 10.9838 15.9836 11.026ZM23.2739 1.75444C23.2739 1.77556 23.2524 1.79668 23.2309 1.8178C23.2094 1.8178 23.1879 1.79668 23.1664 1.77556C23.1664 1.69108 23.1664 1.6066 23.2094 1.52212C23.2309 1.43764 23.2954 1.37428 23.3384 1.31092C23.3599 1.2898 23.3814 1.2898 23.403 1.31092C23.4245 1.33204 23.4245 1.35316 23.403 1.37428C23.3599 1.43764 23.3169 1.47988 23.2954 1.56436C23.2739 1.6066 23.2739 1.66996 23.2739 1.75444ZM23.0589 1.62772C23.0374 1.79668 23.1019 1.96564 23.2309 2.11347C23.3599 2.26131 23.532 2.32467 23.704 2.34579C23.8761 2.36691 24.0481 2.30355 24.1987 2.17683C24.3492 2.05012 24.4137 1.88116 24.4352 1.7122C24.4567 1.54324 24.3922 1.37428 24.2632 1.22645C24.1341 1.07861 23.9621 1.01525 23.79 0.994129C23.618 0.973009 23.446 1.03637 23.2954 1.16309C23.1449 1.2898 23.0804 1.45876 23.0589 1.62772ZM23.1449 2.17683C22.9943 2.00788 22.9298 1.8178 22.9513 1.6066C22.9728 1.41652 23.0589 1.22645 23.2094 1.07861C23.3814 0.930769 23.575 0.86741 23.79 0.88853C23.9836 0.90965 24.1771 0.994129 24.3277 1.14197C24.4782 1.31092 24.5427 1.501 24.5212 1.7122C24.4997 1.90228 24.4137 2.09235 24.2632 2.24019C24.0911 2.38803 23.8976 2.45139 23.6825 2.43027C23.489 2.43027 23.2954 2.34579 23.1449 2.17683ZM23.0589 2.26131C22.7363 1.90228 22.7578 1.33204 23.1449 1.01525C23.5105 0.698452 24.0911 0.719572 24.4137 1.09973C24.4567 1.16309 24.4997 1.22645 24.5427 1.2898L24.8438 1.16309C24.8438 1.05749 24.9083 0.930769 25.0804 0.86741L25.3169 0.782931C25.4675 0.719572 25.6395 0.804051 25.704 0.951889C25.7685 1.09973 25.6825 1.26869 25.532 1.33204L25.2954 1.41652C25.1234 1.47988 24.9944 1.43764 24.9083 1.35316L24.6073 1.47988C24.6933 1.79668 24.6073 2.13459 24.3277 2.36691C23.9621 2.66259 23.403 2.62035 23.0589 2.26131ZM13.446 2.91602C13.3384 2.81043 12.7363 3.25394 12.9083 3.44402L13.446 2.91602ZM16.6503 3.73969C16.6718 3.71857 16.6933 3.71857 16.7148 3.71857C16.7363 3.73969 16.7363 3.76081 16.7363 3.78193C16.6503 3.90865 16.5427 4.01425 16.4352 4.09873C16.3277 4.18321 16.2201 4.24657 16.0911 4.28881L16.1341 4.39441C16.2201 4.6056 16.2417 4.62672 15.9836 4.66896C15.3814 4.79568 13.8546 4.90128 13.0373 3.6341L12.9728 3.69745C12.9298 3.76081 12.8438 3.65522 12.8653 3.61298L13.5105 2.97938L13.575 2.91602C13.5965 2.8949 13.7255 2.93714 13.6825 3.0005L13.5965 3.08498C13.747 3.27506 13.8976 3.40178 14.0481 3.5285L13.833 3.78193C13.8115 3.80305 13.8115 3.84529 13.833 3.84529C13.8546 3.86641 13.8976 3.86641 13.8976 3.84529L14.1126 3.59186C14.2417 3.67633 14.3922 3.76081 14.5212 3.80305L14.4137 4.09873C14.4137 4.11985 14.4137 4.16209 14.4567 4.16209C14.4782 4.16209 14.5212 4.16209 14.5212 4.11985L14.6287 3.82417C14.7793 3.86641 14.9298 3.90865 15.0804 3.92977L15.1019 4.26769C15.1019 4.28881 15.1234 4.30993 15.1449 4.30993C15.1664 4.30993 15.1879 4.28881 15.1879 4.26769L15.1664 3.95089C15.3599 3.97201 15.532 3.95089 15.661 3.92977C15.9191 3.88753 15.9191 3.80305 16.0051 3.99313L16.0911 4.20433C16.1986 4.16209 16.3062 4.09873 16.3922 4.03537C16.4782 3.95089 16.5642 3.84529 16.6503 3.73969ZM15.8761 6.02063C15.8761 6.04174 15.8546 6.06286 15.8115 6.06286C15.79 6.06286 15.7685 6.04174 15.7685 5.99951C15.79 5.91503 15.8115 5.80943 15.8761 5.74607C15.9191 5.66159 16.0051 5.59823 16.0696 5.55599C16.0911 5.53487 16.1341 5.55599 16.1341 5.57711C16.1556 5.59823 16.1341 5.64047 16.1126 5.64047C16.0481 5.68271 15.9836 5.74607 15.9406 5.80943C15.9191 5.87279 15.8976 5.93615 15.8761 6.02063ZM16.3922 6.82318C16.6072 6.82318 16.7793 6.7387 16.9298 6.61198C17.0589 6.48526 17.1449 6.29518 17.1449 6.08398C17.1449 5.87279 17.0589 5.70383 16.9298 5.55599C16.8008 5.42927 16.6072 5.34479 16.3922 5.34479C16.1771 5.34479 16.0051 5.42927 15.8546 5.55599C15.7255 5.68271 15.6395 5.87279 15.6395 6.08398C15.6395 6.29518 15.7255 6.46414 15.8546 6.61198C16.0051 6.7387 16.1771 6.82318 16.3922 6.82318ZM16.3922 6.92877C16.1556 6.92877 15.9406 6.8443 15.79 6.69646C15.6395 6.54862 15.532 6.33742 15.532 6.1051C15.532 5.87279 15.618 5.66159 15.7685 5.51375C15.9191 5.36591 16.1341 5.26031 16.3707 5.26031C16.6072 5.26031 16.8223 5.34479 16.9728 5.49263C17.1234 5.64047 17.2309 5.85167 17.2309 6.08398C17.2309 6.3163 17.1449 6.5275 16.9943 6.67534C16.8438 6.82318 16.6287 6.92877 16.3922 6.92877ZM16.3922 7.05549C15.8546 7.05549 15.4029 6.6331 15.4029 6.08398C15.4029 5.55599 15.8331 5.11248 16.3922 5.11248C16.4782 5.11248 16.5642 5.11248 16.6288 5.1336L16.7363 4.8168C16.6503 4.73232 16.6072 4.6056 16.6503 4.47888L16.7363 4.22545C16.8008 4.05649 16.9728 3.97201 17.1449 4.03537C17.3169 4.09873 17.4029 4.26769 17.3384 4.43665L17.2524 4.69008C17.2094 4.83792 17.0589 4.9224 16.9083 4.90128L16.8008 5.21808C17.1234 5.36591 17.3599 5.70383 17.3599 6.08398C17.3814 6.61198 16.9513 7.05549 16.3922 7.05549ZM21.1664 12.7578C21.2524 12.8423 21.3814 12.9057 21.5105 12.9057C21.6395 12.9057 21.7685 12.8423 21.8546 12.7578C21.9406 12.6733 22.0051 12.5466 22.0051 12.4199C22.0051 12.2932 21.9406 12.1665 21.8546 12.082C21.7685 11.9975 21.6395 11.9342 21.5105 11.9342C21.3814 11.9342 21.2524 11.9975 21.1664 12.082C21.0804 12.1665 21.0159 12.2932 21.0159 12.4199C21.0159 12.5466 21.0804 12.6733 21.1664 12.7578ZM21.5105 13.0113C21.3384 13.0113 21.1879 12.9479 21.0804 12.8423C20.9728 12.7367 20.9083 12.5889 20.9083 12.4199C20.9083 12.2509 20.9728 12.1031 21.0804 11.9975C21.1879 11.8919 21.3384 11.8286 21.5105 11.8286C21.6825 11.8286 21.8331 11.8919 21.9406 11.9975C22.0481 12.1031 22.1126 12.2509 22.1126 12.4199C22.1126 12.5889 22.0481 12.7367 21.9406 12.8423C21.8331 12.9479 21.6825 13.0113 21.5105 13.0113ZM21.2309 12.2721C21.2094 12.2932 21.1879 12.3143 21.1664 12.2932C21.1449 12.2721 21.1234 12.2509 21.1449 12.2298C21.1664 12.1876 21.1879 12.1453 21.2309 12.1242C21.2739 12.082 21.3169 12.0609 21.3599 12.0609C21.3814 12.0609 21.4245 12.0609 21.4245 12.082C21.4245 12.1031 21.4245 12.1453 21.403 12.1453C21.3814 12.1665 21.3384 12.1665 21.3169 12.1876C21.2524 12.2298 21.2309 12.2509 21.2309 12.2721ZM21.5105 13.1169C21.1234 13.1169 20.8008 12.8001 20.8008 12.4199C20.8008 12.0398 21.1234 11.723 21.5105 11.723C21.8116 11.723 22.0696 11.913 22.1771 12.1665C22.8868 11.9975 23.8546 11.8074 24.0696 10.498C24.0911 10.3713 24.1987 10.2023 24.3277 10.2023C24.5642 10.1812 24.5642 10.4558 24.5427 10.5614C24.2632 11.5962 23.2094 12.3565 22.2417 12.4199C22.2202 12.8001 21.9191 13.1169 21.5105 13.1169ZM15.9836 3.25394C16.4352 3.16946 16.8653 3.02162 17.1019 2.95826C17.1234 2.97938 17.1664 3.02162 17.1879 3.08498C17.2309 3.14834 17.3169 3.48626 17.2524 3.48626C17.2524 3.48626 17.2094 3.48626 17.1449 3.50738L16.9943 3.08498C16.9728 3.06386 16.9513 3.04274 16.9298 3.06386C16.9083 3.08498 16.8868 3.1061 16.9083 3.12722L17.0589 3.48626C17.0374 3.48626 16.9943 3.48626 16.9728 3.48626C16.8653 3.50738 16.7793 3.50738 16.6718 3.5285L16.5642 3.25394C16.5427 3.23282 16.5212 3.2117 16.4997 3.23282C16.4782 3.25394 16.4567 3.27506 16.4782 3.29618L16.5857 3.57074C16.5427 3.57074 16.4997 3.59186 16.4782 3.59186C16.4352 3.61298 16.3277 3.6341 16.2632 3.65522C16.2201 3.65522 16.2201 3.67634 16.1986 3.67634C16.1341 3.61298 16.0481 3.46514 16.0266 3.33842C16.0051 3.29618 15.9836 3.27506 15.9836 3.25394ZM14.8223 3.06386C14.8438 3.06386 14.8653 3.08498 14.8653 3.12722C14.8653 3.14834 14.8438 3.16946 14.8008 3.16946C14.6718 3.14834 14.5212 3.12722 14.4137 3.06386C14.2847 3.02162 14.1771 2.95826 14.0696 2.87379C14.0481 2.85267 14.0481 2.83155 14.0696 2.81043C14.0911 2.78931 14.1126 2.78931 14.1341 2.81043C14.2201 2.8949 14.3277 2.93714 14.4352 2.97938C14.5427 3.0005 14.6718 3.04274 14.8223 3.06386ZM17.2524 2.93714C17.3384 2.91602 17.2954 2.66259 17.0804 2.70483C16.5427 2.76819 15.6825 3.16946 14.9083 3.04274C13.9406 2.87379 14.2417 2.53587 13.9191 2.57811C13.79 2.59923 13.747 2.78931 13.8115 2.85267C14.3062 3.44402 15.1664 3.4229 15.8976 3.27506C15.8976 3.29618 15.8976 3.33842 15.9191 3.35954C15.9621 3.50738 16.0481 3.65522 16.1126 3.73969C16.1341 3.76081 16.1986 3.76081 16.2632 3.76081C16.3492 3.73969 16.4567 3.71857 16.4997 3.69745C16.6287 3.65522 16.8223 3.6341 16.9943 3.61298C17.0374 3.61298 17.1019 3.59186 17.1449 3.59186C17.2524 3.57074 17.3169 3.54962 17.3599 3.5285C17.446 3.40178 17.3814 3.14834 17.2954 3.02162C17.2954 2.97938 17.2739 2.95826 17.2524 2.93714ZM21.2739 3.78193C21.2739 3.76081 21.2954 3.73969 21.3169 3.73969C21.3384 3.73969 21.3599 3.76081 21.3599 3.78193C21.3599 3.92977 21.3599 4.14097 21.3384 4.30993C21.3384 4.54224 21.3384 4.73232 21.3384 4.8168C21.3384 4.83792 21.3169 4.85904 21.2954 4.85904C21.2739 4.85904 21.2524 4.83792 21.2524 4.8168C21.2524 4.73232 21.2524 4.52112 21.2524 4.30993C21.2524 4.11985 21.2524 3.92977 21.2739 3.78193ZM21.8546 1.18421C21.8331 1.18421 21.8116 1.16309 21.8116 1.14197C21.8116 1.12085 21.8331 1.09973 21.8546 1.09973H22.3062C22.3277 1.05749 22.3277 1.03637 22.3492 0.994129C22.3492 0.994129 22.3277 0.973009 22.3062 0.951889C22.2632 0.930769 22.2202 0.90965 22.1556 0.90965C21.9621 0.86741 21.6825 0.88853 21.575 0.930769C21.532 0.951889 21.532 0.973009 21.5105 0.994129C21.5105 1.01525 21.5105 1.01525 21.5105 1.03637V2.13459H21.532C21.6395 2.13459 21.7685 2.13459 21.8761 2.13459C21.9406 2.13459 21.9836 2.13459 22.0266 2.13459C22.1556 2.13459 22.1987 2.13459 22.2202 2.11347C22.2202 2.11347 22.2202 2.09235 22.2202 2.05012C22.2202 2.029 22.2202 1.98676 22.2202 1.94452H21.6825C21.661 1.94452 21.6395 1.9234 21.6395 1.90228C21.6395 1.88116 21.661 1.86004 21.6825 1.86004H22.2202C22.2202 1.83892 22.2202 1.79668 22.2202 1.77556C22.2202 1.62772 22.2202 1.43764 22.2847 1.22645H21.8546V1.18421ZM21.3384 0.825171C21.3814 0.825171 21.4245 0.84629 21.4675 0.88853C21.489 0.86741 21.5105 0.84629 21.5535 0.825171C21.661 0.782931 21.9621 0.761811 22.1771 0.804051C22.2417 0.825171 22.3062 0.825171 22.3492 0.84629C22.4137 0.86741 22.4352 0.90965 22.4567 0.973009C22.4567 0.994129 22.4567 1.01525 22.4352 1.03637C22.2847 1.33204 22.2847 1.56436 22.3062 1.73332C22.3062 1.77556 22.3062 1.79668 22.3062 1.83892C22.3062 1.86004 22.3062 1.86004 22.3062 1.88116C22.3062 1.94452 22.3062 1.98676 22.3062 2.00788C22.3062 2.09235 22.3277 2.11347 22.2847 2.15571C22.2417 2.19795 22.1771 2.19795 22.0481 2.19795C22.0051 2.19795 21.9621 2.19795 21.8976 2.19795C21.7685 2.19795 21.6395 2.19795 21.5535 2.19795H21.532V4.9224C21.532 5.17584 21.1879 5.09136 21.1879 4.88016V0.951889C21.1879 0.88853 21.2524 0.825171 21.3384 0.825171ZM22.4782 4.11985C22.5212 4.18321 22.5427 4.24657 22.5427 4.30993C22.5427 4.5 22.3922 4.64784 22.1986 4.64784C22.1126 4.64784 22.0266 4.62672 21.9621 4.56336L22.4782 4.11985ZM22.1986 3.97201C22.2847 3.97201 22.3707 3.99313 22.4352 4.05649L21.9191 4.52112C21.8761 4.45776 21.8546 4.39441 21.8546 4.33105C21.8331 4.11985 22.0051 3.97201 22.1986 3.97201ZM22.6288 9.35754C22.6503 9.35754 22.6718 9.37866 22.6718 9.39978C22.6718 9.4209 22.6503 9.44202 22.6288 9.44202C22.5212 9.44202 22.3922 9.46314 22.2847 9.50538C22.1771 9.54762 22.0696 9.61098 21.9836 9.67434C21.9621 9.69546 21.9191 9.69546 21.9191 9.67434C21.8976 9.65322 21.8976 9.61098 21.9191 9.61098C22.0266 9.5265 22.1341 9.46314 22.2417 9.4209C22.3707 9.37866 22.4997 9.35754 22.6288 9.35754ZM21.3384 10.8359C21.9836 12.0398 23.403 11.6807 23.618 11.0049C23.7685 10.5825 23.532 10.7726 23.2954 10.8993C22.8653 11.1316 22.1341 11.4273 21.6395 10.4769C21.5535 10.6036 21.4675 10.7303 21.3384 10.8359ZM19.79 9.77994C19.8761 9.92778 19.9191 9.80106 19.9836 9.7377C20.3277 9.4209 20.9083 9.88554 21.0804 10.2235C21.1019 10.1812 21.1234 10.1601 21.1664 10.1179C21.2094 10.0334 21.2739 9.9489 21.3599 9.86442C21.3169 9.80106 21.2739 9.7377 21.2094 9.67434C21.0374 9.48426 20.7148 9.35754 20.4352 9.33642C20.0481 9.33642 19.7255 9.69546 19.79 9.77994ZM19.79 10.4135C19.8331 10.3713 19.9191 10.3502 19.9191 10.3713C20.0481 10.6036 20.5857 11.1316 21.1879 10.2023C22.3062 8.53387 23.9406 9.48426 23.704 9.80106C23.575 9.99114 23.489 9.37866 22.3707 9.67434C21.7685 9.82218 21.6825 10.6458 21.0589 10.9626C20.8438 11.0682 20.3707 11.1316 20.0911 10.9626C19.9406 10.8782 19.704 10.4769 19.79 10.4135ZM20.9083 8.87179C20.8868 8.89291 20.8438 8.87179 20.8438 8.85067C20.8223 8.82955 20.8438 8.78731 20.8653 8.78731C20.9083 8.76619 20.9513 8.72395 20.9943 8.70283C21.0374 8.66059 21.0589 8.61835 21.1019 8.57611C21.1234 8.55499 21.1449 8.55499 21.1664 8.55499C21.1879 8.57611 21.1879 8.59723 21.1879 8.61835C21.1449 8.66059 21.1234 8.72395 21.0804 8.76619C20.9943 8.80843 20.9513 8.85067 20.9083 8.87179ZM20.8223 9.16747L21.403 9.12523C21.5105 9.12523 21.5535 8.97739 21.5535 8.87179V8.19596C21.5535 8.15372 21.5105 8.1326 21.4675 8.15372C21.4245 8.17484 21.3384 8.17484 21.2524 8.19596C21.0804 8.2382 21.1449 8.2382 21.0804 8.36492C21.0374 8.47051 20.9083 8.68171 20.7578 8.76619C20.6073 8.85067 20.6073 8.78731 20.6718 8.93515L20.7363 9.12523C20.7578 9.16747 20.7793 9.16747 20.8223 9.16747ZM21.3599 8.09036H21.3814C21.489 8.09036 21.489 8.11148 21.5105 8.00588C21.5105 7.98476 21.5105 7.96364 21.532 7.94252C21.5535 7.8158 21.5535 7.83692 21.4245 7.79468C21.3384 7.77356 21.3169 7.75244 21.2954 7.90028C21.2954 7.94252 21.2739 7.98476 21.2739 8.00588C21.2524 8.11148 21.2309 8.09036 21.3599 8.09036ZM21.3384 6.23182C21.3384 6.2107 21.3599 6.16846 21.3814 6.16846C21.403 6.16846 21.446 6.18958 21.446 6.2107C21.4675 6.37966 21.489 6.54862 21.489 6.7387C21.489 6.90765 21.4675 7.09773 21.446 7.28781C21.446 7.30893 21.4245 7.33005 21.3814 7.33005C21.3599 7.33005 21.3384 7.30893 21.3384 7.26669C21.3599 7.09773 21.3814 6.90765 21.3814 6.7387C21.3814 6.56974 21.3814 6.40078 21.3384 6.23182ZM21.6395 7.8158C21.747 7.87916 21.8976 7.8158 21.9406 7.7102C22.1341 7.28781 22.4352 5.34479 21.747 5.45039L21.446 5.49263C21.1879 5.53487 21.2094 5.51375 21.2094 5.80943V7.09773C21.2094 7.20333 21.2094 7.28781 21.1879 7.39341C21.1449 7.64684 21.0589 7.62573 21.2954 7.7102C21.4245 7.7102 21.532 7.75244 21.6395 7.8158ZM20.0266 9.12523H20.2417C20.3277 9.12523 20.3922 9.12523 20.4782 9.12523C20.6288 9.12523 20.6073 9.14635 20.5857 8.97739C20.5642 8.85067 20.5857 8.82955 20.4782 8.87179C20.3922 8.91403 20.3062 8.93515 20.2202 8.97739L20.0266 9.06187C20.0051 9.01963 19.9406 8.99851 19.8976 9.01963C19.8331 9.04075 19.8116 9.10411 19.8331 9.14635C19.8546 9.20971 19.9191 9.23083 19.9621 9.20971C20.0051 9.18859 20.0266 9.16747 20.0266 9.12523ZM18.4352 10.4558C18.4137 10.4558 18.3922 10.4346 18.3922 10.3924C18.3922 10.3713 18.4137 10.3502 18.4567 10.3502C18.4997 10.3502 18.5427 10.3713 18.5857 10.3924C18.6288 10.4135 18.6503 10.4558 18.6718 10.498C18.6933 10.5191 18.6933 10.5402 18.6933 10.5614C18.6933 10.5825 18.6933 10.6036 18.6933 10.6247C18.6933 10.6458 18.6718 10.667 18.6288 10.667C18.6072 10.667 18.5857 10.6458 18.5857 10.6036C18.5857 10.5825 18.5857 10.5825 18.5857 10.5614C18.5857 10.5402 18.5857 10.5402 18.5642 10.5191C18.5427 10.498 18.5427 10.4769 18.4997 10.4558C18.4997 10.4769 18.4782 10.4558 18.4352 10.4558ZM18.8008 10.9838C19.1664 10.3713 18.2847 9.75882 17.4675 10.6247C17.2524 10.857 17.2309 11.0682 17.4244 11.3006C17.3814 11.4695 17.3814 11.7863 17.704 11.9342C18.7793 12.441 19.3814 11.6385 18.8438 11.0894C19.2094 11.1316 19.4245 10.857 19.532 10.7092C19.5535 10.6881 19.575 10.667 19.575 10.6458C19.5965 10.6458 19.5965 10.6458 19.618 10.6247C19.6395 10.6036 19.6395 10.5825 19.618 10.5614C19.5965 10.5191 19.5535 10.5191 19.5105 10.5614C19.489 10.5825 19.4675 10.6036 19.446 10.6458C19.3384 10.7937 19.1449 11.0471 18.8008 10.9838ZM13.7685 6.92877C13.7255 6.90765 13.704 6.94989 13.704 6.97101C13.6395 7.07661 13.2739 7.41453 13.1664 7.45677C13.1449 7.47789 13.1019 7.47789 13.1234 7.52013C13.1449 7.56237 13.1879 7.54125 13.2094 7.52013C13.3814 7.41453 13.8761 7.01325 13.7685 6.92877ZM12.9728 5.21808C13.3169 5.19696 13.9406 5.38703 13.4675 5.95727C14.9513 6.44302 13.747 7.41453 13.0804 8.11148C12.9728 8.21708 12.9083 8.21708 12.8868 8.04812L12.8653 7.77356C12.8438 7.58349 12.8438 7.62573 12.9943 7.49901C13.4675 7.09773 14.2417 6.59086 13.4029 6.29518C12.6933 6.06286 13.2739 5.76719 13.3169 5.66159C13.3384 5.49263 13.1234 5.49263 12.9728 5.51375C12.8438 5.53487 12.8653 5.49263 12.8653 5.42927V5.36591C12.8223 5.21808 12.8438 5.21808 12.9728 5.21808ZM14.2632 6.44302C14.1771 6.27406 14.0911 6.1051 14.0266 5.97839C13.9406 5.78831 13.8761 5.61935 13.833 5.45039C13.79 5.26031 13.8115 5.09136 13.8976 4.98576C14.0266 4.83792 14.4137 4.85904 14.5857 4.88016C14.7363 4.90128 14.8868 4.9224 15.0158 5.00688C15.1449 5.09136 15.2524 5.19696 15.3169 5.36591C15.4029 5.72495 15.2739 6.37966 14.9513 6.67534C14.6072 7.01325 14.4352 6.75982 14.2632 6.44302ZM14.1556 4.98576C14.0051 4.98576 13.833 5.21808 13.9406 5.21808C14.0051 5.21808 13.9836 5.15472 14.0481 5.09136C14.0911 5.07024 14.1556 5.04912 14.1771 5.04912C14.1986 5.028 14.1986 4.98576 14.1556 4.98576ZM14.8223 6.40078C14.9513 6.25294 15.1019 5.68271 15.0589 5.49263C15.0374 5.40815 14.9728 5.34479 14.9083 5.30255C14.8223 5.26031 14.7148 5.21808 14.6072 5.21808C14.4137 5.19696 14.0911 5.17584 14.1341 5.45039C14.1556 5.59823 14.1986 5.72495 14.2847 5.89391C14.3707 6.1051 14.6072 6.65422 14.8223 6.40078ZM19.8976 11.4062C19.9621 11.4906 19.9836 11.6174 19.9406 11.723C19.8761 11.913 19.6825 11.9975 19.489 11.9342C19.446 11.913 19.4245 11.913 19.4029 11.8919L19.8976 11.4062ZM19.2739 11.5118C19.3384 11.3217 19.532 11.2372 19.7255 11.3006C19.7685 11.3217 19.79 11.3217 19.8116 11.3428L19.3169 11.8286C19.2524 11.7441 19.2309 11.6174 19.2739 11.5118ZM23.2094 9.92778C23.2739 9.99114 23.2954 10.0756 23.2739 10.139C23.2739 10.2235 23.2309 10.2868 23.1664 10.3502L22.7363 10.7092C22.6718 10.7726 22.5857 10.7937 22.5212 10.7726C22.4352 10.7726 22.3707 10.7303 22.3062 10.667C22.2417 10.6036 22.2202 10.5191 22.2417 10.4558C22.2417 10.3713 22.2847 10.3079 22.3492 10.2446L22.7793 9.88554C22.8438 9.82218 22.9298 9.80106 22.9944 9.82218C23.0589 9.8433 23.1449 9.86442 23.2094 9.92778ZM22.6073 10.1812L22.4137 10.3502C22.3707 10.3924 22.3492 10.4347 22.3492 10.4769C22.3492 10.5191 22.3707 10.5825 22.3922 10.6247C22.4352 10.667 22.4782 10.6881 22.5212 10.6881C22.5642 10.6881 22.6288 10.667 22.6718 10.6458L22.8653 10.4769L22.6073 10.1812ZM13.5965 8.93515C13.618 8.91403 13.661 8.91403 13.6825 8.93515C13.6825 8.93515 13.704 8.95627 13.704 8.97739C13.661 9.01963 13.618 9.04075 13.5535 9.04075C13.5105 9.06187 13.446 9.06187 13.4029 9.04075C13.3814 9.04075 13.3384 9.01963 13.3169 8.99851C13.2954 8.97739 13.2739 8.95627 13.2524 8.93515C13.2309 8.91403 13.2309 8.87179 13.2524 8.85067C13.2739 8.82955 13.3169 8.82955 13.3384 8.85067C13.3599 8.87179 13.3599 8.87179 13.3814 8.89291C13.4029 8.89291 13.4244 8.91403 13.446 8.91403C13.489 8.91403 13.5105 8.91403 13.5535 8.91403C13.532 8.97739 13.575 8.95627 13.5965 8.93515ZM13.704 9.12523C13.618 9.18859 13.5105 9.20971 13.4029 9.20971C13.2954 9.18859 13.1879 9.14635 13.1234 9.06187C13.0589 8.97739 13.0373 8.87179 13.0373 8.76619C13.0589 8.66059 13.1019 8.55499 13.1879 8.49163C13.8115 8.027 14.4352 7.54125 15.0589 7.07661C15.0374 7.03437 15.0158 6.99213 15.0374 6.97101C15.0374 6.92877 15.0589 6.88653 15.1019 6.86541C15.1449 6.8443 15.1879 6.82317 15.2094 6.84429C15.2524 6.84429 15.2954 6.86541 15.3169 6.90765L15.8331 7.56237C15.8546 7.60461 15.8761 7.64685 15.8546 7.66796C15.8546 7.7102 15.8331 7.75244 15.79 7.77356C15.747 7.79468 15.704 7.8158 15.6825 7.79468C15.6395 7.79468 15.5965 7.77356 15.575 7.73132C14.9513 8.19596 14.3277 8.66059 13.704 9.12523ZM15.618 7.60461L15.661 7.66796L15.6825 7.68908H15.704L15.7255 7.66796V7.64684L15.2094 6.99213L15.1879 6.97101H15.1664L15.1449 6.99213V7.01325L15.1879 7.07661C15.2094 7.09773 15.2094 7.13997 15.1664 7.16109L14.4567 7.68908L14.8223 8.15372L15.532 7.60461C15.575 7.56237 15.5965 7.58349 15.618 7.60461ZM24.9513 7.13997C24.9513 7.09773 24.9298 7.07661 24.8868 7.07661C24.8653 7.07661 24.8653 7.07661 24.8438 7.09773C24.8438 7.16109 24.8438 7.20333 24.8653 7.26669C24.8868 7.30893 24.9298 7.35117 24.9728 7.39341C24.9944 7.41453 25.0159 7.43565 25.0589 7.43565C25.0804 7.45677 25.1234 7.45677 25.1449 7.45677C25.1664 7.45677 25.2094 7.43565 25.2094 7.39341C25.2094 7.35117 25.1879 7.33005 25.1664 7.33005C25.1449 7.33005 25.1234 7.33005 25.1019 7.30893C25.0804 7.30893 25.0589 7.28781 25.0589 7.28781C25.0374 7.26669 25.0159 7.24557 24.9944 7.20333C24.9513 7.20333 24.9513 7.16109 24.9513 7.13997ZM24.7363 7.18221C24.7363 7.30893 24.7793 7.41453 24.8653 7.47789C24.9513 7.56237 25.0589 7.60461 25.1664 7.60461C25.2739 7.60461 25.3814 7.56237 25.4675 7.47789C25.5535 7.39341 25.5965 7.28781 25.5965 7.18221C25.5965 6.37966 25.5965 5.57711 25.5965 4.77456H25.618C25.661 4.77456 25.704 4.75344 25.7255 4.73232C25.747 4.7112 25.7685 4.66896 25.7685 4.62672C25.7685 4.58448 25.747 4.54224 25.7255 4.52112C25.704 4.5 25.661 4.47888 25.618 4.47888H24.7363C24.6933 4.47888 24.6503 4.5 24.6288 4.52112C24.6073 4.54224 24.5858 4.58448 24.5858 4.62672C24.5858 4.66896 24.6073 4.7112 24.6288 4.73232C24.6503 4.75344 24.6933 4.77456 24.7363 4.77456C24.7363 5.57711 24.7363 6.37966 24.7363 7.18221ZM24.7793 4.64784H24.7148C24.7148 4.64784 24.6933 4.64784 24.6933 4.62672L24.6718 4.6056C24.6718 4.6056 24.6718 4.58448 24.6933 4.58448L24.7148 4.56336H25.5965C25.5965 4.56336 25.618 4.56336 25.618 4.58448L25.6395 4.6056C25.6395 4.6056 25.6395 4.62672 25.618 4.62672L25.5965 4.64784H25.532C25.489 4.64784 25.4675 4.66896 25.4675 4.7112V5.61935H24.8653V4.69008C24.8438 4.69008 24.8223 4.64784 24.7793 4.64784ZM23.0374 6.94989C23.0159 6.97101 22.9728 6.94989 22.9513 6.92877C22.9298 6.90765 22.9513 6.86541 22.9728 6.84429C23.0159 6.82317 23.0804 6.80206 23.1449 6.80206C23.2094 6.80206 23.2524 6.82317 23.2954 6.84429C23.3169 6.86541 23.3599 6.88653 23.3814 6.90765C23.403 6.92877 23.4245 6.94989 23.446 6.97101C23.4675 6.99213 23.446 7.03437 23.4245 7.05549C23.403 7.07661 23.3599 7.05549 23.3384 7.03437C23.3384 7.01325 23.3169 6.99213 23.2954 6.99213C23.2739 6.97101 23.2739 6.97101 23.2524 6.94989C23.2094 6.92877 23.1879 6.92877 23.1449 6.92877C23.1019 6.92877 23.0589 6.94989 23.0374 6.94989ZM23.7685 7.20333C23.618 6.33742 22.2847 6.48526 22.2847 7.90028C22.2847 8.28044 22.3707 8.30156 22.7793 8.53387C22.8868 8.70283 23.1449 8.99851 23.5535 8.87179C24.9083 8.47052 24.8008 7.30893 23.9191 7.22445C24.2417 6.97101 24.1987 6.59086 24.1771 6.37966C24.1771 6.33742 24.1771 6.3163 24.1771 6.29518C24.1987 6.29518 24.1987 6.27406 24.1987 6.25294C24.1987 6.2107 24.1771 6.18958 24.1556 6.18958C24.0911 6.18958 24.0696 6.2107 24.0696 6.25294C24.0696 6.27406 24.0696 6.33742 24.0696 6.37966C24.0696 6.61198 24.1126 6.99213 23.7685 7.20333ZM22.3707 8.53387C22.4352 8.61835 22.4567 8.72395 22.4137 8.82955C22.3492 8.99851 22.1771 9.08299 22.0051 9.01963C21.9836 8.99851 21.9406 8.99851 21.9191 8.97739L22.3707 8.53387ZM21.8116 8.61835C21.8761 8.4494 22.0481 8.36492 22.2202 8.42828C22.2417 8.42828 22.2847 8.4494 22.3062 8.47051L21.8546 8.91403C21.79 8.82955 21.7685 8.72395 21.8116 8.61835ZM24.9513 1.88116V2.55699V2.57811C24.9513 2.57811 24.9513 2.57811 24.9728 2.57811H25.2954C25.2954 2.57811 25.2954 2.57811 25.3169 2.57811V2.55699V1.88116V1.86004C25.3169 1.86004 25.3169 1.86004 25.2954 1.86004H24.9728C24.9728 1.86004 24.9728 1.86004 24.9513 1.86004C24.9513 1.86004 24.9513 1.86004 24.9513 1.88116ZM24.9298 3.48626C24.9513 3.48626 24.9728 3.50738 24.9728 3.5285C24.9728 3.54962 24.9513 3.57074 24.9298 3.57074C24.9083 3.57074 24.8868 3.54962 24.8653 3.54962C24.8438 3.5285 24.8438 3.5285 24.8223 3.50738C24.8223 3.48626 24.8008 3.46514 24.8008 3.46514C24.8008 3.44402 24.8008 3.4229 24.8008 3.4229C24.8008 3.40178 24.8438 3.38066 24.8653 3.40178C24.8868 3.40178 24.9083 3.44402 24.8868 3.46514V3.48626V3.50738C24.8868 3.50738 24.8868 3.5285 24.9083 3.5285L24.9298 3.48626C24.9298 3.48626 24.9083 3.48626 24.9298 3.48626ZM25.1019 3.57074C25.1449 3.54962 25.2094 3.54962 25.2739 3.54962C25.3384 3.5285 25.5105 3.50738 25.5105 3.4229C25.5105 3.38066 25.4675 3.35954 25.446 3.35954C25.4245 3.35954 25.4245 3.35954 25.403 3.35954C25.3814 3.38066 25.3814 3.38066 25.3169 3.38066C25.2739 3.38066 25.1879 3.33842 25.1879 3.27506C25.1879 3.2117 25.2739 3.16946 25.3169 3.16946C25.3599 3.16946 25.3814 3.16946 25.403 3.19058C25.403 3.19058 25.4245 3.19058 25.446 3.19058C25.489 3.19058 25.5105 3.14834 25.5105 3.12722C25.5105 3.04274 25.3384 3.0005 25.2739 3.0005C25.2094 2.97938 25.1449 2.97938 25.1019 2.97938C25.0374 2.95826 25.0159 2.91602 24.9298 2.91602C24.8223 2.91602 24.7363 3.0005 24.7363 3.1061C24.7363 3.19058 24.7793 3.2117 24.7793 3.27506C24.7793 3.35954 24.7363 3.35954 24.7363 3.44402C24.7363 3.54962 24.8223 3.6341 24.9298 3.6341C25.0159 3.6341 25.0374 3.59186 25.1019 3.57074ZM24.5427 3.84529V2.66259C24.5427 2.57811 24.6073 2.49363 24.7148 2.49363H24.8653V2.55699C24.8653 2.57811 24.8868 2.62035 24.8868 2.64147C24.9083 2.66259 24.9298 2.68371 24.9728 2.68371H25.2954C25.3169 2.68371 25.3599 2.66259 25.3814 2.64147C25.403 2.62035 25.403 2.59923 25.403 2.55699V2.51475H25.5535C25.6395 2.51475 25.7255 2.57811 25.7255 2.68371V3.84529C25.7255 3.92977 25.661 4.01425 25.5535 4.01425H24.7148C24.6288 3.99313 24.5427 3.92977 24.5427 3.84529ZM6.52121 3.23282C6.54272 3.2117 6.54272 3.19058 6.54272 3.16946L6.52121 3.14834C6.4782 3.16946 6.4567 3.19058 6.43519 3.2117C6.41369 3.23282 6.39218 3.27506 6.39218 3.3173C6.39218 3.33842 6.39218 3.35954 6.39218 3.38066C6.39218 3.40178 6.39218 3.4229 6.41369 3.44402C6.41369 3.46514 6.4567 3.46514 6.4567 3.46514C6.4782 3.46514 6.4782 3.4229 6.4782 3.40178C6.4782 3.38066 6.4782 3.38066 6.4567 3.35954C6.4567 3.33842 6.4567 3.33842 6.4567 3.3173C6.4567 3.29618 6.4782 3.27506 6.4782 3.25394C6.4782 3.27506 6.49971 3.25394 6.52121 3.23282ZM6.41369 3.12722C6.34917 3.16946 6.30616 3.23282 6.28465 3.29618C6.26315 3.35954 6.28465 3.44402 6.30616 3.50738C6.34917 3.57074 6.41369 3.61298 6.4782 3.6341C6.54272 3.65522 6.62874 3.6341 6.69326 3.61298C7.16637 3.33842 7.61799 3.06386 8.09111 2.78931C8.11261 2.81043 8.13412 2.83155 8.15562 2.83155C8.17713 2.83155 8.22014 2.83155 8.24164 2.81043C8.26315 2.78931 8.28466 2.76819 8.28466 2.74707C8.28466 2.72595 8.28466 2.68371 8.26315 2.66259L7.96207 2.15571C7.94057 2.13459 7.91906 2.11347 7.89756 2.11347C7.87605 2.11347 7.83304 2.11347 7.81154 2.13459C7.79003 2.15571 7.76853 2.17683 7.76853 2.19795C7.76853 2.21907 7.76853 2.26131 7.79003 2.28243C7.33842 2.57811 6.8868 2.85267 6.41369 3.12722ZM7.89756 2.30355L7.87605 2.26131V2.24019C7.87605 2.24019 7.87605 2.21907 7.89756 2.21907H7.91906C7.91906 2.21907 7.94057 2.21907 7.94057 2.24019L8.24164 2.74707V2.76819C8.24164 2.76819 8.24164 2.78931 8.22014 2.78931H8.19863C8.19863 2.78931 8.17713 2.78931 8.17713 2.76819L8.15562 2.72595C8.13412 2.70483 8.11261 2.70483 8.09111 2.70483L7.55347 3.02162L7.33842 2.68371L7.87605 2.36691C7.91906 2.34579 7.91906 2.32467 7.89756 2.30355ZM3.91906 2.55699L3.66099 3.1061V3.12722L3.91906 3.25394C3.91906 3.25394 3.91906 3.25394 3.94056 3.25394C3.94056 3.25394 3.96207 3.25394 3.96207 3.23282L4.22013 2.68371V2.66259L3.96207 2.53587C3.94056 2.53587 3.94056 2.53587 3.91906 2.55699C3.94056 2.55699 3.94056 2.55699 3.91906 2.55699ZM3.31691 3.82417C3.33841 3.84529 3.33841 3.86641 3.31691 3.88753C3.2954 3.90865 3.2739 3.90865 3.25239 3.88753C3.23089 3.86641 3.23089 3.86641 3.20938 3.84529C3.20938 3.82417 3.18788 3.80305 3.18788 3.80305C3.18788 3.78193 3.18788 3.78193 3.18788 3.76081C3.18788 3.73969 3.20938 3.73969 3.20938 3.71857C3.23089 3.69745 3.25239 3.69745 3.2739 3.71857C3.2954 3.73969 3.2954 3.76081 3.2739 3.78193C3.2739 3.78193 3.2739 3.78193 3.2739 3.80305C3.2739 3.80305 3.2739 3.80305 3.2739 3.82417C3.2954 3.80305 3.2954 3.80305 3.31691 3.82417C3.2954 3.82417 3.2954 3.82417 3.31691 3.82417ZM3.42443 3.97201C3.46745 3.97201 3.53196 3.99313 3.57497 4.01425C3.63949 4.03537 3.79003 4.05649 3.81153 3.99313C3.83304 3.95089 3.81153 3.92977 3.79003 3.90865H3.76852C3.74702 3.90865 3.72551 3.90865 3.70401 3.90865C3.66099 3.88753 3.61798 3.84529 3.63949 3.78193C3.66099 3.71857 3.74702 3.71857 3.79003 3.73969C3.83304 3.76081 3.83304 3.76081 3.83304 3.78193L3.85454 3.80305C3.89755 3.82417 3.91906 3.80305 3.94056 3.78193C3.96207 3.71857 3.83304 3.6341 3.79003 3.59186C3.74702 3.57074 3.6825 3.5285 3.66099 3.50738C3.61798 3.46514 3.61798 3.4229 3.55347 3.40178C3.46745 3.35954 3.35992 3.40178 3.33841 3.48626C3.2954 3.54962 3.33841 3.57074 3.31691 3.65522C3.2954 3.71857 3.25239 3.69745 3.20938 3.78193C3.16637 3.86641 3.20938 3.97201 3.2954 4.01425C3.31691 3.99313 3.35992 3.95089 3.42443 3.97201ZM2.86529 3.97201L3.2954 3.04274C3.33841 2.97938 3.42443 2.93714 3.48895 2.97938L3.59648 3.04274L3.57497 3.08498C3.55347 3.1061 3.55347 3.12722 3.57497 3.16946C3.57497 3.19058 3.59648 3.2117 3.61798 3.23282L3.87605 3.35954C3.89755 3.38066 3.91906 3.35954 3.96207 3.35954C3.98358 3.35954 4.00508 3.33842 4.02659 3.29618L4.04809 3.25394L4.15562 3.3173C4.22013 3.35954 4.26315 3.44402 4.22013 3.50738L3.79003 4.43665C3.74702 4.5 3.66099 4.54224 3.59648 4.5L2.92981 4.20433C2.86529 4.14097 2.84379 4.05649 2.86529 3.97201ZM19.6395 9.4209C19.661 9.39978 19.6825 9.4209 19.704 9.44202C19.7255 9.46314 19.704 9.48426 19.6825 9.50538C19.5965 9.56874 19.489 9.61098 19.3814 9.6321C19.2954 9.65322 19.2094 9.67434 19.1234 9.67434V9.77994C19.1234 9.9489 19.1664 9.97002 18.9513 9.99114C18.4782 10.0123 17.2524 9.86442 16.7793 8.66059L16.7578 8.68171C16.6933 8.70283 16.6503 8.59723 16.6933 8.57611L17.489 8.11148C17.5105 8.09036 17.618 8.17484 17.5535 8.21708L17.4675 8.25932C17.5535 8.4494 17.6395 8.59723 17.747 8.72395L17.575 8.82955C17.5535 8.85067 17.5535 8.87179 17.5535 8.89291C17.575 8.91403 17.5965 8.91403 17.618 8.91403L17.8115 8.80843C17.8761 8.89291 17.9621 8.95627 18.0266 8.99851C18.0266 8.99851 18.0266 8.99851 18.0051 8.99851L17.8761 9.16747C17.8546 9.18859 17.8546 9.20971 17.8761 9.23083C17.8976 9.25194 17.9191 9.25194 17.9406 9.23083L18.0696 9.06187V9.04075C18.1771 9.10411 18.2632 9.14635 18.3707 9.18859C18.3707 9.18859 18.3707 9.18859 18.3707 9.20971L18.3062 9.44202C18.3062 9.46314 18.3062 9.48426 18.3277 9.50538C18.3492 9.50538 18.3707 9.50538 18.3922 9.48426L18.4567 9.25195C18.4567 9.25195 18.4567 9.25194 18.4567 9.23083C18.6503 9.27306 18.8223 9.29418 18.9298 9.29418C19.1019 9.29418 19.1019 9.29418 19.1019 9.44202V9.58986C19.1879 9.58986 19.2524 9.56874 19.3384 9.54762C19.446 9.5265 19.5535 9.48426 19.6395 9.4209ZM17.3814 8.15372C17.2954 8.027 16.7148 8.3438 16.8008 8.47051L17.3814 8.15372ZM0.284646 9.10411H1.63949C1.74701 9.10411 1.83304 9.18859 1.83304 9.29418V9.46314H1.76852C1.72551 9.46314 1.704 9.48426 1.6825 9.50538C1.66099 9.5265 1.63949 9.56874 1.63949 9.58986V9.9489C1.63949 9.99114 1.66099 10.0123 1.6825 10.0334C1.704 10.0545 1.74701 10.0756 1.76852 10.0756H1.83304V10.2446C1.83304 10.3502 1.74701 10.4347 1.63949 10.4347H0.284646C0.177119 10.4347 0.0910977 10.3502 0.0910977 10.2446V9.29418C0.0910977 9.18859 0.177119 9.10411 0.284646 9.10411Z" fill="white"/>
<path fill-rule="evenodd" clip-rule="evenodd" d="M83.3598 3.76231C83.2953 3.95239 83.2092 4.20582 83.0802 4.52262C82.9512 4.83942 82.8222 5.19845 82.6501 5.62085C82.4996 6.04324 82.306 6.48676 82.1125 6.99363C81.9189 7.5005 81.7039 8.0285 81.5103 8.57761H85.2093C85.0157 8.0285 84.8222 7.5005 84.6286 6.99363C84.4351 6.48676 84.263 6.04324 84.091 5.62085C83.9189 5.19845 83.7899 4.83942 83.6609 4.52262C83.5533 4.1847 83.4458 3.95239 83.3598 3.76231ZM86.8652 13.6041C86.7146 13.1606 86.5641 12.7171 86.392 12.2524C86.22 11.7878 86.0695 11.3232 85.8974 10.8585H80.8437C80.6716 11.3232 80.5211 11.7878 80.349 12.2524C80.177 12.7171 80.0265 13.1606 79.8974 13.6041H76.8652C77.3598 12.2313 77.8114 10.9641 78.2415 9.80255C78.6716 8.64097 79.1017 7.54274 79.5318 6.50788C79.9404 5.47301 80.3705 4.5015 80.7791 3.57223C81.1877 2.64296 81.6179 1.75593 82.048 0.868906H84.8006C85.2308 1.75593 85.6394 2.64296 86.0695 3.57223C86.4781 4.5015 86.9082 5.47301 87.3168 6.50788C87.7469 7.54274 88.1555 8.64097 88.6071 9.80255C89.0587 10.9641 89.5103 12.2313 90.005 13.6041H86.8652ZM77.8544 0.890026V3.33992H73.9404V13.6252H71.0157V3.3188H67.1017V0.890026H77.8544ZM62.8006 13.6041C61.9619 12.1468 61.0587 10.7107 60.0909 9.29568C59.1232 7.88066 58.0909 6.529 56.9942 5.28293V13.6252H54.1124V0.890026H56.478C56.8866 1.2913 57.3382 1.79817 57.8329 2.36841C58.3275 2.95976 58.8436 3.59335 59.3598 4.24806C59.8759 4.9239 60.392 5.59973 60.9081 6.3178C61.4243 7.03587 61.8974 7.7117 62.349 8.38753V0.890026H65.2522V13.6041H62.8006ZM42.7791 13.6041V0.890026H51.5318V3.29768H45.7038V5.7898H50.8866V8.1341H45.7038V11.1965H51.9619V13.6041H42.7791ZM40.349 7.22595C40.349 8.32417 40.1769 9.29568 39.8328 10.0982C39.4888 10.9219 38.9941 11.5977 38.349 12.1257C37.7038 12.6537 36.9296 13.0761 36.0049 13.3295C35.0801 13.6041 34.0479 13.7308 32.9081 13.7308C32.392 13.7308 31.7683 13.7097 31.0801 13.6675C30.392 13.6252 29.7038 13.5407 29.0156 13.3929V1.05898C29.6823 0.932265 30.392 0.847786 31.1232 0.805547C31.8543 0.763307 32.478 0.742188 32.9941 0.742188C34.1124 0.742188 35.1017 0.868906 36.0049 1.10122C36.9081 1.35466 37.6823 1.73482 38.3275 2.26281C38.9726 2.7908 39.4673 3.46663 39.8328 4.2903C40.1769 5.09285 40.349 6.08548 40.349 7.22595ZM31.9189 11.2809C32.0479 11.3021 32.2199 11.3021 32.392 11.3021C32.564 11.3021 32.7791 11.3021 33.0371 11.3021C34.4995 11.3021 35.5748 10.943 36.2845 10.2249C36.9941 9.50688 37.3382 8.51425 37.3382 7.22595C37.3382 5.8954 36.9941 4.88166 36.3275 4.20582C35.6608 3.52999 34.5855 3.17096 33.1232 3.17096C32.9296 3.17096 32.7146 3.17096 32.4995 3.17096C32.2844 3.17096 32.0909 3.19208 31.8973 3.2132V11.2809H31.9189Z" fill="white"/>
</svg>
