<svg width="16" height="16" viewBox="0 0 16 16" fill="none" xmlns="http://www.w3.org/2000/svg">
<path d="M7.9662 15.9971H8.02999C11.2068 15.9971 13.0507 15.6773 14.3569 14.4092C15.6887 13.0641 15.9962 11.2077 15.9962 8.04331V7.95383C15.9962 4.79038 15.6887 2.94639 14.3569 1.58791C13.0517 0.319867 11.1944 0 8.03094 0H7.96716C4.79039 0 2.94544 0.319867 1.63932 1.58791C0.307491 2.93306 0 4.79038 0 7.95383V8.04331C0 11.2068 0.307491 13.0508 1.63932 14.4092C2.93307 15.6773 4.79039 15.9971 7.9662 15.9971Z" fill="#292824"/>
<path d="M14.0939 7.87525C14.0939 7.81433 14.0443 7.76388 13.9834 7.76102C11.797 7.67821 10.4663 7.39932 9.53542 6.4684C8.60256 5.53558 8.32462 4.20393 8.24181 2.01276C8.2399 1.95184 8.18945 1.90234 8.12758 1.90234H7.87249C7.81157 1.90234 7.76111 1.95184 7.75827 2.01276C7.67545 4.20298 7.3975 5.53558 6.46469 6.4684C5.53282 7.40027 4.20307 7.67821 2.01666 7.76102C1.95574 7.76293 1.90625 7.81337 1.90625 7.87525V8.13035C1.90625 8.19127 1.95574 8.24171 2.01666 8.24457C4.20307 8.32738 5.53377 8.60627 6.46469 9.53719C7.3956 10.4681 7.67354 11.796 7.75732 13.9785C7.75921 14.0395 7.80966 14.089 7.87153 14.089H8.12758C8.1885 14.089 8.23895 14.0395 8.24181 13.9785C8.32557 11.796 8.60351 10.4681 9.53446 9.53719C10.4663 8.60532 11.796 8.32738 13.9825 8.24457C14.0434 8.24266 14.0929 8.19222 14.0929 8.13035V7.87525H14.0939Z" fill="white"/>
</svg>
