<svg width="16" height="16" viewBox="0 0 16 16" fill="none" xmlns="http://www.w3.org/2000/svg">
<g clip-path="url(#clip0_4898_6026)">
<mask id="mask0_4898_6026" style="mask-type:luminance" maskUnits="userSpaceOnUse" x="0" y="0" width="16" height="16">
<path d="M12.1212 0H3.87879C1.73659 0 0 1.73659 0 3.87879V12.1212C0 14.2634 1.73659 16 3.87879 16H12.1212C14.2634 16 16 14.2634 16 12.1212V3.87879C16 1.73659 14.2634 0 12.1212 0Z" fill="white"/>
</mask>
<g mask="url(#mask0_4898_6026)">
<path d="M9.88009 7.63473H5.15312V5.76421H9.88009C10.1562 5.76421 10.3482 5.81234 10.4445 5.89638C10.5409 5.98042 10.6006 6.1363 10.6006 6.36401V7.03565C10.6006 7.27556 10.5409 7.43144 10.4445 7.51549C10.3482 7.59953 10.1562 7.63545 9.88009 7.63545V7.63473ZM10.2044 4.00072H3.14844V12H5.15312V9.3975H8.84755L10.6006 12H12.8454L10.9126 9.3853C11.6252 9.2797 11.9452 9.06132 12.209 8.70144C12.4729 8.34156 12.6053 7.76618 12.6053 6.99829V6.3985C12.6053 5.94307 12.557 5.58319 12.4729 5.30736C12.3888 5.03152 12.245 4.7916 12.0408 4.5761C11.8251 4.3721 11.5849 4.22842 11.2966 4.13217C11.0083 4.04813 10.648 4 10.2044 4V4.00072Z" fill="#292824"/>
<path d="M24 3.8147e-06C24 4.41828 20.4183 8.00001 16 8.00001C15.1017 8.00001 14.2381 7.85195 13.432 7.57892C13.4492 7.38881 13.4568 7.19444 13.4568 6.99829V6.3985C13.4568 5.88921 13.4036 5.44029 13.2876 5.05983C13.1624 4.64955 12.9479 4.29646 12.6598 3.99249L12.6438 3.97561L12.6269 3.95964C12.32 3.66935 11.972 3.46212 11.5684 3.32735L11.5528 3.32217L11.5371 3.31759C11.1528 3.20558 10.7092 3.15152 10.2075 3.15152H9.35897V3.15223H8.64498C8.22987 2.18493 8 1.11931 8 3.8147e-06C8 -4.41828 11.5817 -8 16 -8C20.4183 -8 24 -4.41828 24 3.8147e-06Z" fill="#292824"/>
</g>
<path fill-rule="evenodd" clip-rule="evenodd" d="M3.87879 0.242424C1.87048 0.242424 0.242424 1.87048 0.242424 3.87879V12.1212C0.242424 14.1295 1.87048 15.7576 3.87879 15.7576H12.1212C14.1295 15.7576 15.7576 14.1295 15.7576 12.1212V3.87879C15.7576 1.87048 14.1295 0.242424 12.1212 0.242424H3.87879ZM0 3.87879C0 1.73659 1.73659 0 3.87879 0H12.1212C14.2634 0 16 1.73659 16 3.87879V12.1212C16 14.2634 14.2634 16 12.1212 16H3.87879C1.73659 16 0 14.2634 0 12.1212V3.87879Z" fill="#292824"/>
</g>
<defs>
<clipPath id="clip0_4898_6026">
<rect width="16" height="16" fill="white"/>
</clipPath>
</defs>
</svg>
