<svg width="16" height="16" viewBox="0 0 16 16" fill="none" xmlns="http://www.w3.org/2000/svg">
<path fill-rule="evenodd" clip-rule="evenodd" d="M1.09991 6.8879C5.39487 4.62993 8.25885 3.14133 9.69185 2.42212C13.7834 0.36862 14.6335 0.0119044 15.1877 0.000125556C15.3095 -0.00246469 15.5821 0.0339812 15.7586 0.206816C15.9076 0.352753 15.9486 0.549895 15.9683 0.68826C15.9879 0.826626 16.0123 1.14182 15.9929 1.38811C15.7712 4.1992 14.8118 11.021 14.3237 14.1694C14.1172 15.5017 13.7105 15.9484 13.3169 15.9921C12.4613 16.0871 11.8116 15.3098 10.9829 14.6543C9.68624 13.6287 8.9537 12.9902 7.69503 11.9893C6.24042 10.8327 7.18339 10.1969 8.01236 9.15799C8.22931 8.8861 11.999 4.74868 12.0719 4.37335C12.0811 4.32641 12.0895 4.15143 12.0034 4.05904C11.9172 3.96665 11.7901 3.99824 11.6983 4.02337C11.5683 4.05899 9.49681 5.71112 5.48389 8.97978C4.89591 9.46697 4.36333 9.70435 3.88616 9.69191C3.36012 9.6782 2.34822 9.33301 1.59598 9.03795C0.673328 8.67605 -0.059979 8.48471 0.00387622 7.87009C0.0371337 7.54996 0.40248 7.22256 1.09991 6.8879Z" fill="#292824"/>
</svg>
