<svg width="16" height="16" viewBox="0 0 16 16" fill="none" xmlns="http://www.w3.org/2000/svg">
<path d="M11.8402 9.19299C11.8091 9.17803 10.6426 8.60364 10.4353 8.52904C10.3507 8.49865 10.2601 8.46899 10.1637 8.46899C10.0061 8.46899 9.87384 8.54748 9.77077 8.70166C9.65425 8.87486 9.30153 9.28717 9.19254 9.41034C9.1783 9.4266 9.15887 9.44603 9.14724 9.44603C9.1368 9.44603 8.95628 9.37169 8.90163 9.34795C7.65035 8.80442 6.70058 7.49735 6.57035 7.27693C6.55175 7.24524 6.55097 7.23085 6.55082 7.23085C6.55539 7.21408 6.59747 7.17189 6.61918 7.15013C6.68271 7.08727 6.75155 7.00441 6.81814 6.92426C6.84968 6.88628 6.88126 6.84826 6.91227 6.81241C7.0089 6.7 7.05191 6.61272 7.10178 6.51163L7.12791 6.45911C7.24968 6.21719 7.14568 6.01303 7.11207 5.94711C7.08448 5.89194 6.59196 4.70327 6.5396 4.57838C6.41367 4.27703 6.24729 4.13672 6.01606 4.13672C5.99461 4.13672 6.01606 4.13672 5.92609 4.14051C5.81653 4.14513 5.21991 4.22368 4.95611 4.38997C4.67637 4.56633 4.20312 5.12851 4.20312 6.11719C4.20312 7.00701 4.7678 7.84717 5.01024 8.1667C5.01627 8.17475 5.02733 8.19112 5.04339 8.2146C5.97186 9.57055 7.12931 10.5754 8.30267 11.0442C9.43228 11.4954 9.96719 11.5475 10.2713 11.5475H10.2713C10.3991 11.5475 10.5014 11.5375 10.5917 11.5286L10.6489 11.5232C11.0391 11.4886 11.8967 11.0442 12.0918 10.5021C12.2454 10.0752 12.2859 9.60868 12.1837 9.43938C12.1137 9.32426 11.993 9.26634 11.8402 9.19299Z" fill="#292824"/>
<path d="M8.14203 0C3.80872 0 0.283313 3.49892 0.283313 7.79965C0.283313 9.19067 0.655574 10.5523 1.36077 11.744L0.0110009 15.7255C-0.014142 15.7998 0.00455937 15.8819 0.0594686 15.9377C0.099105 15.9782 0.152871 16 0.207781 16C0.22882 16 0.250014 15.9969 0.27069 15.9903L4.42239 14.671C5.55849 15.278 6.84255 15.5984 8.14208 15.5984C12.475 15.5985 16 12.0999 16 7.79965C16 3.49892 12.475 0 8.14203 0ZM8.14203 13.9737C6.91922 13.9737 5.73486 13.6207 4.71678 12.9526C4.68254 12.9301 4.6428 12.9186 4.6028 12.9186C4.58166 12.9186 4.56046 12.9218 4.53984 12.9283L2.4601 13.5894L3.13147 11.6087C3.15319 11.5446 3.14233 11.4739 3.10233 11.4192C2.32706 10.3599 1.91724 9.10833 1.91724 7.79965C1.91724 4.39481 4.70966 1.62473 8.14198 1.62473C11.5739 1.62473 14.366 4.39481 14.366 7.79965C14.366 11.2041 11.574 13.9737 8.14203 13.9737Z" fill="#292824"/>
</svg>
