<svg width="140" height="30" viewBox="0 0 140 30" fill="none" xmlns="http://www.w3.org/2000/svg">
<g clip-path="url(#clip0_3569_5357)">
<path d="M15.4284 29.0769C23.4616 29.0769 29.9739 22.5678 29.9739 14.5385C29.9739 6.50909 23.4616 0 15.4284 0C7.39507 0 0.882812 6.50909 0.882812 14.5385C0.882812 22.5678 7.39507 29.0769 15.4284 29.0769Z" fill="#CE2457"/>
<path fill-rule="evenodd" clip-rule="evenodd" d="M14.7105 5.79505C10.201 6.16364 6.65625 9.93852 6.65625 14.5409C6.65625 19.3874 10.5871 23.3163 15.4359 23.3163C20.2847 23.3163 24.2155 19.3874 24.2155 14.5409C24.2155 9.93797 20.67 6.16281 16.1597 5.79492L15.9232 11.5588C17.3608 11.7917 18.4584 13.0382 18.4584 14.5409C18.4584 16.2094 17.1051 17.562 15.4359 17.562C13.7665 17.562 12.4132 16.2094 12.4132 14.5409C12.4132 13.0387 13.5102 11.7926 14.9471 11.5591L14.7105 5.79505Z" fill="white"/>
<path d="M15.4263 5.17889C16.4729 5.17889 17.3214 4.33086 17.3214 3.28476C17.3214 2.23866 16.4729 1.39062 15.4263 1.39062C14.3797 1.39062 13.5312 2.23866 13.5312 3.28476C13.5312 4.33086 14.3797 5.17889 15.4263 5.17889Z" fill="white"/>
<path d="M49.7796 14.5361C49.7796 16.5385 49.0467 18.1559 47.6625 19.4652C46.2783 20.7745 44.5684 21.3906 42.5327 21.3906C40.4971 21.3906 38.8686 20.7745 37.4029 19.4652C36.1001 18.1559 35.3672 16.5385 35.3672 14.5361C35.3672 12.5337 36.1001 10.9163 37.4843 9.60706C38.8686 8.29778 40.5785 7.68164 42.5327 7.68164C44.4869 7.68164 46.2783 8.29778 47.6625 9.60706C49.0467 10.9163 49.7796 12.5337 49.7796 14.5361ZM47.0926 14.5361C47.0926 13.3809 46.6854 12.3796 45.7897 11.6095C44.9755 10.8393 43.8356 10.4542 42.5327 10.4542C41.2299 10.4542 40.1714 10.8393 39.2756 11.6095C38.38 12.3796 37.9728 13.3809 37.9728 14.5361C37.9728 15.6914 38.38 16.6926 39.2756 17.4627C40.0899 18.2329 41.2299 18.618 42.5327 18.618C43.8356 18.618 44.9755 18.2329 45.7897 17.4627C46.6854 16.6926 47.0926 15.6914 47.0926 14.5361Z" fill="black"/>
<path d="M58.3806 20.7755H55.3678V10.6863H50.7266V8.29883H62.9404V10.6863H58.3806V20.7755Z" fill="black"/>
<path d="M69.6877 21.087C67.5707 21.087 65.8607 20.7789 64.4766 20.1628V17.6982C66.0237 18.3913 67.6521 18.6995 69.2807 18.6995C70.502 18.6995 71.3977 18.5454 72.1306 18.2373C72.7819 17.9293 73.1891 17.4671 73.1891 16.928C73.1891 15.8498 72.212 15.3877 70.1764 15.3877H67.6521V13.1542H70.1764C71.8863 13.1542 72.7006 12.6922 72.7006 11.768C72.7006 10.7667 71.5606 10.3046 69.3621 10.3046C67.8964 10.3046 66.4307 10.6127 64.8837 11.2289V8.84132C66.2679 8.3022 67.9778 7.99414 70.0135 7.99414C71.642 7.99414 73.0263 8.3022 74.1662 8.91833C75.2247 9.53451 75.7947 10.3816 75.7947 11.3058C75.7947 12.6922 75.0619 13.6164 73.6777 14.0784C75.3876 14.6175 76.2833 15.6188 76.2833 17.1591C76.2833 18.3144 75.7133 19.3155 74.4919 20.0087C73.2706 20.7789 71.642 21.087 69.6877 21.087Z" fill="black"/>
<path d="M92.7123 14.5361C92.7123 16.5385 91.9796 18.1559 90.5955 19.4652C89.2112 20.7745 87.5013 21.3906 85.4656 21.3906C83.4299 21.3906 81.8015 20.7745 80.3357 19.4652C78.9516 18.1559 78.2188 16.5385 78.2188 14.5361C78.2188 12.5337 78.9516 10.9163 80.3357 9.60706C81.8015 8.29778 83.5114 7.68164 85.547 7.68164C87.5827 7.68164 89.2927 8.29778 90.6768 9.60706C91.9796 10.9163 92.7123 12.5337 92.7123 14.5361ZM90.1068 14.5361C90.1068 13.3809 89.6997 12.3796 88.804 11.6095C87.9898 10.8393 86.8498 10.4542 85.547 10.4542C84.2442 10.4542 83.1857 10.8393 82.29 11.6095C81.3943 12.3796 80.9872 13.3809 80.9872 14.5361C80.9872 15.6914 81.3943 16.6926 82.29 17.4627C83.1043 18.2329 84.2442 18.618 85.547 18.618C86.8498 18.618 87.9898 18.2329 88.804 17.4627C89.6183 16.6926 90.1068 15.6914 90.1068 14.5361Z" fill="black"/>
<path d="M103.297 20.7755H95.3984V8.29883H102.889C104.192 8.29883 105.25 8.6069 106.065 9.14605C106.879 9.68515 107.205 10.5323 107.205 11.4565C107.205 12.0726 107.042 12.6117 106.716 13.0739C106.39 13.5359 105.983 13.921 105.413 14.1521C107.205 14.6141 108.1 15.6924 108.1 17.3868C108.1 18.465 107.693 19.3122 106.798 19.9283C105.983 20.4674 104.843 20.7755 103.297 20.7755ZM98.4112 10.5323V13.3049H102.157C102.808 13.3049 103.297 13.1508 103.703 12.9199C104.029 12.6888 104.273 12.3037 104.273 11.9186C104.273 10.9944 103.622 10.5323 102.238 10.5323H98.4112ZM98.4112 15.4614V18.5421H102.727C103.459 18.5421 103.948 18.388 104.355 18.157C104.762 17.8489 104.925 17.5408 104.925 17.0017C104.925 16.5396 104.762 16.1545 104.355 15.8465C103.948 15.5384 103.378 15.4614 102.727 15.4614H98.4112Z" fill="black"/>
<path d="M113.717 20.7677H110.867V8.29102H113.88V16.7628L121.29 8.29102H124.14V20.7677H121.127V12.2959L113.717 20.7677Z" fill="black"/>
<path d="M130.286 20.7677H127.273V8.29102H130.286V20.7677Z" fill="black"/>
<path d="M133.467 14.2994L139.502 20.6918H135.606L129.875 14.4535L135.224 8.36914H138.968L133.467 14.2994Z" fill="black"/>
</g>
<defs>
<clipPath id="clip0_3569_5357">
<rect width="140" height="29.0769" fill="white"/>
</clipPath>
</defs>
</svg>
