<svg width="139" height="20" viewBox="0 0 139 20" fill="none" xmlns="http://www.w3.org/2000/svg">
<path fill-rule="evenodd" clip-rule="evenodd" d="M3.9484 13.5581H2.72318H2.69006C2.69006 13.5581 2.69006 13.5581 2.69006 13.5906V14.1759C2.69006 14.1759 2.69006 14.1759 2.69006 14.2085H2.72318H3.9484H3.98152C3.98152 14.2085 3.98152 14.2085 3.98152 14.1759V13.5906C3.98152 13.5906 3.98152 13.5906 3.98152 13.5581C3.98152 13.5581 3.98152 13.5581 3.9484 13.5581ZM1.06747 13.5255C1.06747 13.5581 1.00124 13.5906 0.968127 13.5906C0.935013 13.5906 0.901899 13.5255 0.901899 13.493C0.901899 13.4605 0.935013 13.428 0.968127 13.3954C1.00124 13.3629 1.03436 13.3629 1.06747 13.3304C1.10058 13.3304 1.1337 13.2979 1.16681 13.2979C1.19993 13.2979 1.23304 13.2979 1.26615 13.2979C1.29927 13.2979 1.33238 13.3629 1.29927 13.3954C1.29927 13.428 1.23304 13.4605 1.19993 13.428H1.16681H1.1337C1.1337 13.428 1.10058 13.428 1.10058 13.4605C1.06747 13.493 1.06747 13.493 1.06747 13.5255ZM0.935013 13.8182C0.968127 13.8833 0.968127 14.0133 1.00124 14.1109C1.03436 14.2085 1.10058 14.5337 1.23304 14.5337C1.26615 14.5337 1.33238 14.5011 1.33238 14.4361C1.33238 14.4036 1.33238 14.4036 1.33238 14.3711C1.29927 14.3385 1.29927 14.306 1.29927 14.241C1.29927 14.1759 1.3655 14.0133 1.49795 14.0133C1.63041 14.0133 1.69664 14.1434 1.69664 14.241C1.69664 14.306 1.66353 14.3385 1.66353 14.3711C1.66353 14.4036 1.66353 14.4036 1.66353 14.4361C1.66353 14.5011 1.72975 14.5662 1.79598 14.5662C1.92844 14.5662 1.99467 14.241 2.02778 14.1434C1.99467 14.0459 1.99467 13.8833 2.02778 13.8182C2.0609 13.7207 2.16024 13.6556 2.16024 13.5255C2.16024 13.3304 1.99467 13.2003 1.79598 13.2003C1.63041 13.2003 1.63041 13.2654 1.46484 13.2979C1.33238 13.2979 1.33238 13.2003 1.16681 13.2003C0.968127 13.2003 0.802556 13.3304 0.802556 13.5255C0.802556 13.6881 0.868785 13.7207 0.935013 13.8182ZM6.63065 13.1028C6.53131 13.0052 6.39885 12.9402 6.2664 12.9402C6.13394 12.9402 6.00148 13.0052 5.90214 13.1028C5.8028 13.2003 5.73657 13.3304 5.73657 13.4605C5.73657 13.5906 5.8028 13.7207 5.90214 13.8182C6.00148 13.9158 6.13394 13.9808 6.2664 13.9808C6.39885 13.9808 6.53131 13.9158 6.63065 13.8182C6.72999 13.7207 6.79622 13.5906 6.79622 13.4605C6.79622 13.3304 6.72999 13.2003 6.63065 13.1028ZM6.2664 12.8101C6.46508 12.8101 6.63065 12.8751 6.76311 13.0052C6.89556 13.1353 6.96179 13.2979 6.96179 13.493C6.96179 13.6881 6.89556 13.8507 6.76311 13.9808C6.63065 14.1109 6.46508 14.1759 6.2664 14.1759C6.06771 14.1759 5.90214 14.1109 5.76968 13.9808C5.63723 13.8507 5.571 13.6881 5.571 13.493C5.571 13.2979 5.63723 13.1353 5.76968 13.0052C5.90214 12.8751 6.10082 12.8101 6.2664 12.8101ZM6.33262 13.2654C6.29951 13.2654 6.23328 13.2654 6.23328 13.2003C6.23328 13.1678 6.23328 13.1028 6.29951 13.1028C6.33262 13.1028 6.39885 13.1028 6.43197 13.1028C6.46508 13.1028 6.53131 13.1353 6.56442 13.1678C6.59754 13.1678 6.59754 13.2003 6.63065 13.2328C6.63065 13.2654 6.66377 13.2654 6.66377 13.2979C6.66377 13.3304 6.66377 13.3954 6.63065 13.3954C6.59754 13.3954 6.53131 13.3954 6.53131 13.3629V13.3304C6.53131 13.3304 6.53131 13.2979 6.49819 13.2979C6.49819 13.2979 6.46508 13.2654 6.43197 13.2654C6.36574 13.2654 6.33262 13.2654 6.33262 13.2654ZM3.9484 15.2816C3.98152 15.2491 4.01463 15.2166 4.04775 15.2491C4.08086 15.2816 4.11397 15.3141 4.08086 15.3467C4.01463 15.4767 3.91529 15.867 3.91529 16.0621C3.91529 16.0946 3.88217 16.1272 3.84906 16.1272C3.81595 16.1272 3.78283 16.0946 3.78283 16.0621C3.78283 15.8995 3.88217 15.4442 3.9484 15.2816ZM6.2664 12.615C6.72999 12.615 7.12736 13.0052 7.12736 13.4605C7.12736 13.9158 6.72999 14.306 6.2664 14.306C5.96837 14.306 5.67034 14.1434 5.53788 13.8833C4.8756 14.3385 4.51134 14.7613 4.24643 16.3548C4.21332 16.5174 4.11397 16.6475 3.9484 16.6475C3.78283 16.6475 3.61726 16.4524 3.61726 16.2898C3.74972 15.119 4.1802 14.1109 5.40543 13.6556C5.40543 13.5906 5.37231 13.5255 5.37231 13.4605C5.40543 13.0052 5.8028 12.615 6.2664 12.615ZM11.2335 5.26537C11.2335 5.23285 11.2335 5.16781 11.2666 5.16781C11.2998 5.16781 11.366 5.16781 11.366 5.20033C11.4984 5.55805 11.664 6.1109 11.5647 6.50114C11.5647 6.53366 11.4984 6.56618 11.4653 6.56618C11.4322 6.56618 11.3991 6.50114 11.3991 6.46862C11.4984 6.1109 11.366 5.59057 11.2335 5.26537ZM8.98176 9.39545C8.98176 9.42797 8.98176 9.46049 8.91553 9.46049C8.88242 9.46049 8.8493 9.46049 8.8493 9.39545V9.36293V9.33041C8.8493 9.29789 8.8493 9.26537 8.88241 9.23285C8.88241 9.20033 8.91553 9.16781 8.94864 9.13529C8.98176 9.10277 9.01487 9.10277 9.04799 9.13529C9.0811 9.16781 9.0811 9.20033 9.04799 9.23285C9.04799 9.23285 9.01487 9.26537 9.01487 9.29789C9.01487 9.33041 9.01487 9.33041 9.01487 9.36293C8.98176 9.36293 8.98176 9.39545 8.98176 9.39545ZM9.74338 9.0052C9.64404 8.90764 9.47847 8.8426 9.34601 8.8426C9.18044 8.8426 9.04799 8.90764 8.94864 9.0052C8.8493 9.10277 8.78307 9.26537 8.78307 9.39545C8.78307 9.55805 8.8493 9.68813 8.94864 9.78569C9.04799 9.88325 9.21356 9.94829 9.34601 9.94829C9.51159 9.94829 9.64404 9.88325 9.74338 9.78569C9.84273 9.68813 9.90895 9.52553 9.90895 9.39545C9.90895 9.26537 9.84273 9.13529 9.74338 9.0052ZM9.3129 8.71252C9.51159 8.71252 9.67716 8.77756 9.80961 8.90764C9.94207 9.03772 10.0083 9.20033 10.0083 9.39545C10.0083 9.59057 9.94207 9.75317 9.80961 9.88325C9.67716 10.0133 9.51159 10.0784 9.3129 10.0784C9.11421 10.0784 8.94864 10.0133 8.81619 9.88325C8.68373 9.78569 8.6175 9.62309 8.6175 9.42797C8.6175 9.23285 8.68373 9.07024 8.81619 8.94016C8.94864 8.81008 9.11421 8.71252 9.3129 8.71252ZM9.3129 8.58244C9.57781 8.58244 9.84273 8.71252 10.0083 8.90764C11.4322 7.89951 11.4984 5.98081 11.1342 5.33041C10.8362 4.81008 11.2666 4.45236 11.5316 4.68C12.1607 5.29789 12.2269 8.22472 10.1739 9.29789C10.1739 9.33041 10.1739 9.36293 10.1739 9.39545C10.1739 9.85073 9.7765 10.241 9.3129 10.241C8.8493 10.241 8.45193 9.85073 8.45193 9.39545C8.48505 8.94016 8.8493 8.58244 9.3129 8.58244ZM13.5846 19.2491C13.4522 19.4442 13.2204 19.6068 12.9555 19.6068C12.5581 19.6068 12.2601 19.2816 12.2601 18.9239C12.2601 18.8589 12.2601 18.7938 12.2932 18.7288L13.5846 19.2491ZM12.9886 18.1759C13.3859 18.1759 13.684 18.5011 13.684 18.8589C13.684 18.9239 13.684 18.9889 13.6509 19.054L12.3594 18.5011C12.4919 18.3385 12.7237 18.1759 12.9886 18.1759ZM0.636986 9.23285C0.636986 9.26537 0.603871 9.29789 0.570757 9.33041C0.537643 9.33041 0.537643 9.33041 0.504529 9.33041C0.504529 9.26537 0.504529 9.20033 0.537643 9.13529C0.570757 8.97268 0.603871 8.90764 0.6701 8.87512C0.703214 8.8426 0.736328 8.8426 0.769442 8.81008C0.802556 8.81008 0.835671 8.77756 0.901899 8.77756C0.935013 8.77756 0.968127 8.81008 0.968127 8.8426C0.968127 8.87512 0.935013 8.94016 0.901899 8.94016C0.868785 8.94016 0.835671 8.94016 0.835671 8.97268C0.802556 8.97268 0.802556 9.0052 0.769442 9.0052C0.736328 9.03772 0.703214 9.07024 0.703214 9.10277C0.6701 9.13529 0.636986 9.20033 0.636986 9.23285ZM0.372072 9.16781C0.372072 9.0052 0.438301 8.87512 0.537643 8.77756C0.636986 8.71252 0.769442 8.64748 0.901899 8.64748C1.03436 8.64748 1.19993 8.71252 1.29927 8.81008C1.39861 8.90764 1.46484 9.03773 1.46484 9.20033C1.46484 10.2085 1.46484 11.2166 1.46484 12.2247C1.53107 12.2247 1.56418 12.2572 1.5973 12.2898C1.66353 12.3223 1.66353 12.3548 1.66353 12.4198C1.66353 12.4849 1.66353 12.5174 1.5973 12.5499C1.56418 12.5824 1.49795 12.615 1.46484 12.615H0.338958C0.27273 12.615 0.239615 12.5824 0.206501 12.5499C0.173387 12.5174 0.140273 12.4524 0.140273 12.4198C0.140273 12.3548 0.173387 12.3223 0.206501 12.2898C0.239615 12.2247 0.305844 12.2247 0.338958 12.2247C0.372072 11.1841 0.372072 10.1759 0.372072 9.16781ZM0.4383 12.3548H0.338958H0.305844V12.3873V12.4198H0.338958H1.46484H1.49795V12.3873V12.3548H1.46484H1.3655C1.33238 12.3548 1.29927 12.3223 1.29927 12.2898V11.119H0.537643V12.2898C0.537643 12.3223 0.504529 12.3548 0.4383 12.3548ZM18.7836 18.9239L18.0219 17.5906C17.9888 17.5906 17.9888 17.6231 17.9557 17.6231C17.8564 17.6881 17.6908 17.7857 17.5583 17.8507C17.4921 17.8833 17.459 17.9158 17.3928 17.9483C17.2603 18.0459 17.2272 18.0784 17.2272 18.0784C17.2272 18.0784 17.2603 18.1109 17.2934 18.1434C17.3265 18.1759 17.3265 18.2085 17.3596 18.241L17.9557 17.8833C17.9888 17.8507 18.0219 17.8833 18.055 17.9158C18.0882 17.9483 18.055 17.9808 18.055 18.0133L17.459 18.3711C17.4921 18.4036 17.4921 18.4361 17.5252 18.4686C17.6246 18.6312 17.757 18.8263 17.8564 19.119L18.32 18.8263C18.3531 18.7938 18.3862 18.8263 18.4193 18.8589C18.4524 18.8914 18.4193 18.9239 18.4193 18.9564L17.9226 19.2816C17.9226 19.3141 17.9557 19.3792 17.9557 19.4442C17.9557 19.4442 17.9888 19.4442 18.0219 19.4442C18.0882 19.4442 18.1544 19.4117 18.2206 19.3792C18.4524 19.2816 18.7504 19.0865 18.8498 18.9564C18.7836 18.9564 18.7836 18.9239 18.7836 18.9239ZM19.0816 19.3792L18.8829 19.054C18.7836 19.1841 18.4855 19.3792 18.2206 19.5093C18.1213 19.5418 18.055 19.5743 17.9888 19.5743C17.8895 19.5743 17.8232 19.5743 17.7901 19.5093C17.757 19.4767 17.757 19.4442 17.757 19.4442C17.6908 19.0215 17.5252 18.7613 17.3928 18.5662C17.3596 18.5337 17.3596 18.5011 17.3265 18.4686C17.3265 18.4361 17.2934 18.4361 17.2934 18.4361C17.2603 18.3711 17.2272 18.3385 17.1941 18.306C17.1278 18.241 17.0947 18.1759 17.0947 18.1109C17.0947 18.0459 17.1941 18.0133 17.3265 17.9158C17.3596 17.8833 17.4259 17.8507 17.4921 17.8182C17.6246 17.7207 17.757 17.6231 17.8895 17.5581C17.9226 17.5581 17.9226 17.5255 17.9557 17.5255L15.8364 13.8182C15.6377 13.4605 16.1013 13.2654 16.2669 13.5906L19.5121 19.2491C19.7108 19.5093 19.214 19.6394 19.0816 19.3792ZM13.2204 15.5418L14.1476 16.2898L14.3131 16.4198L14.1145 16.615L13.9489 16.4849L13.7171 16.7125L13.8827 16.8426L13.684 17.0377L13.5184 16.9076L13.2866 17.1353L13.4522 17.2654L13.2535 17.4605L13.0879 17.3304L12.8561 17.5581L13.0217 17.6881L12.823 17.8833L12.6243 17.7532L12.4256 17.9483C12.2932 18.0784 12.0945 18.1109 11.962 17.9808C11.8296 17.8833 11.8296 17.6881 11.9289 17.5255L12.0945 17.2979L11.9289 17.1678L12.0945 16.9402L12.2601 17.0702L12.4256 16.7776L12.2601 16.6475L12.4256 16.4198L12.5912 16.5499L12.7568 16.2572L12.5581 16.1272L12.7237 15.8995L12.8892 16.0296L13.0548 15.7369L12.8892 15.6068L13.0548 15.3792L13.2204 15.5418ZM14.0482 14.1109C14.0151 14.1434 13.9489 14.1434 13.9489 14.1109C13.9158 14.0784 13.9158 14.0133 13.9489 14.0133C14.0151 13.9808 14.0813 13.9483 14.1476 13.9483C14.2138 13.9483 14.28 13.9483 14.3463 13.9483C14.3794 13.9483 14.4125 13.9808 14.4456 13.9808C14.4787 14.0133 14.5118 14.0133 14.5449 14.0459C14.5781 14.0784 14.5781 14.1109 14.5449 14.1434C14.5118 14.1759 14.4787 14.1759 14.4456 14.1434C14.4456 14.1109 14.4125 14.1109 14.3794 14.1109C14.3463 14.1109 14.3463 14.0784 14.3131 14.0784C14.28 14.0784 14.2138 14.0784 14.1807 14.0784C14.1145 14.0784 14.0813 14.0784 14.0482 14.1109ZM14.7105 13.9483L15.0085 14.3385L15.439 14.5337C15.8364 14.6963 15.9026 15.3467 15.5384 15.5743L14.4787 16.3223L13.0548 15.1841L13.6177 14.0459C13.8495 13.6881 14.4787 13.6231 14.7105 13.9483ZM11.8296 11.7369C13.1873 11.867 13.7502 12.0296 15.0417 12.4849C14.2138 12.8751 12.2932 12.4849 11.8296 11.7369ZM13.6177 11.2491C13.5846 11.2816 13.5184 11.2816 13.4853 11.3141C13.4191 11.3467 13.3528 11.2491 13.3197 11.2166C13.0548 10.8914 11.962 11.0865 11.366 11.4442C11.2335 11.5418 11.1342 11.5743 11.1673 11.7369C11.2004 12.2572 11.9951 13.0052 12.9555 13.2654C14.1145 13.5906 15.4059 13.3304 15.7371 12.5499C15.7371 12.5174 15.7371 12.4849 15.7039 12.4198C15.3066 11.9971 14.2469 11.0215 13.6177 11.2491ZM6.92868 6.46862L6.99491 7.41171C6.99491 7.60683 6.76311 7.70439 6.53131 7.70439L5.70345 7.73691C5.63723 7.73691 5.60411 7.67187 5.60411 7.60683C5.60411 7.44423 5.53788 7.31415 5.53788 7.15155C5.53788 7.02146 5.53788 6.95642 5.63723 6.95642C5.90214 6.9239 6.06771 6.7613 6.23328 6.37106C6.29951 6.20846 6.29951 6.24098 6.46508 6.2735L6.86245 6.33854C6.89557 6.33854 6.92868 6.40358 6.92868 6.46862ZM7.09425 4.77756C7.12736 4.87512 7.09425 4.94016 6.99491 4.97268C6.96179 4.97268 6.96179 4.97268 6.92868 4.97268C6.92868 5.13529 6.92868 5.29789 6.92868 5.46049C6.92868 5.62309 6.92868 5.78569 6.92868 5.94829C6.92868 6.1109 6.92868 6.1109 6.76311 6.07838C6.72999 6.07838 6.69688 6.07838 6.66377 6.04586C6.59754 6.04586 6.59754 6.01333 6.53131 6.01333C6.39885 5.98081 6.39885 5.98081 6.46508 5.81821C6.53131 5.68813 6.59754 5.52553 6.66377 5.39545L6.86245 4.94016C6.86245 4.94016 6.86245 4.94016 6.86245 4.90764C6.82934 4.87512 6.79622 4.87512 6.79622 4.81008C6.76311 4.71252 6.79622 4.64748 6.89556 4.61496C6.96179 4.64748 7.06114 4.68 7.09425 4.77756ZM5.37231 7.24911C5.40543 7.37919 5.43854 7.54179 5.3392 7.60683C5.30608 7.60683 5.27297 7.63935 5.23986 7.63935C5.1074 7.70439 5.1074 7.70439 5.04117 7.57431C5.00806 7.54179 5.00806 7.50927 5.00806 7.47675C4.94183 7.31415 4.94183 7.34667 5.07429 7.24911C5.14051 7.21659 5.17363 7.18407 5.23986 7.15155C5.3392 7.0865 5.3392 7.11903 5.37231 7.24911ZM5.93525 7.05399C5.90214 7.08651 5.83591 7.05399 5.83591 7.02146C5.8028 6.98894 5.83591 6.9239 5.86903 6.9239C5.93525 6.89138 6.00148 6.82634 6.06771 6.79382C6.13394 6.72878 6.16705 6.66374 6.23328 6.5987C6.2664 6.56618 6.29951 6.56618 6.33262 6.56618C6.36574 6.5987 6.36574 6.63122 6.36574 6.66374C6.29951 6.72878 6.2664 6.82634 6.20017 6.89138C6.10082 6.95642 6.00148 7.02146 5.93525 7.05399ZM3.88217 7.70439C3.91529 7.67187 3.98152 7.70439 3.98152 7.73691C4.01463 7.76943 3.98152 7.83447 3.9484 7.83447L3.81595 7.89951C3.51792 8.09464 3.31923 8.22472 3.12055 8.28976C3.08743 8.28976 3.02121 8.28976 3.02121 8.25724C3.02121 8.22472 3.02121 8.15968 3.05432 8.15968C3.21989 8.09464 3.45169 7.96455 3.7166 7.76943L3.88217 7.70439ZM4.77626 7.24911L5.04117 8.12716C5.1074 8.28976 5.04117 8.48488 4.90871 8.54992C4.31266 8.8426 1.92844 10.7613 1.86221 9.81821L1.79598 8.8426C1.79598 8.68 1.76287 8.45236 1.92844 8.41984C2.72318 8.1922 3.74972 7.76943 4.37889 7.11903C4.47823 6.98894 4.74314 7.08651 4.77626 7.24911ZM12.9886 4.15968C12.9555 4.1922 12.8892 4.1922 12.8892 4.15968C12.8561 4.12716 12.8561 4.06212 12.8892 4.06212C13.0217 3.96455 13.1541 3.89951 13.2866 3.86699C13.4191 3.83447 13.5846 3.83447 13.7171 3.83447C13.7502 3.83447 13.7833 3.86699 13.7833 3.93203C13.7833 3.99707 13.7502 3.99707 13.684 3.99707C13.5515 3.96455 13.4191 3.99707 13.3197 3.99707C13.2204 4.02959 13.0879 4.09464 12.9886 4.15968ZM13.5184 5.88325C13.8495 5.88325 14.1145 5.75317 14.3463 5.55805C14.5449 5.36293 14.6774 5.07025 14.6774 4.74504C14.6774 4.41984 14.5449 4.15968 14.3463 3.93203C14.1476 3.73691 13.8495 3.60683 13.5184 3.60683C13.1873 3.60683 12.9223 3.73691 12.6905 3.93203C12.4919 4.12716 12.3594 4.41984 12.3594 4.74504C12.3594 5.07025 12.4919 5.33041 12.6905 5.55805C12.8892 5.78569 13.1873 5.88325 13.5184 5.88325ZM13.5184 6.04586C13.1541 6.04586 12.823 5.91577 12.5912 5.68813C12.3594 5.46049 12.1938 5.13529 12.1938 4.77756C12.1938 4.41984 12.3263 4.09464 12.5581 3.86699C12.7899 3.63935 13.121 3.47675 13.4853 3.47675C13.8495 3.47675 14.1807 3.60683 14.4125 3.83447C14.6443 4.06212 14.8099 4.38732 14.8099 4.74504C14.8099 5.10277 14.6774 5.42797 14.4456 5.65561C14.2138 5.88325 13.8827 6.04586 13.5184 6.04586ZM12.9555 6.72878C13.121 6.85886 13.1873 7.05399 13.0879 7.24911L12.9555 7.67187C12.8561 7.93203 12.5912 8.06211 12.3263 7.96455C12.0614 7.86699 11.9289 7.60683 12.0283 7.34667L12.1607 6.95642C12.2269 6.7613 12.4256 6.63122 12.6243 6.63122L12.823 6.07838C12.3263 5.85073 11.9951 5.33041 11.9951 4.77756C11.9951 3.96455 12.6574 3.31415 13.4853 3.31415C14.3131 3.31415 14.9754 3.96455 14.9754 4.77756C14.9754 5.59057 14.3131 6.24098 13.4853 6.24098C13.3528 6.24098 13.2535 6.24098 13.1541 6.20846L12.9555 6.72878ZM11.3329 15.4767C11.664 15.4767 11.9289 15.3467 12.1607 15.1515C12.3594 14.9564 12.4919 14.6637 12.4919 14.3385C12.4919 14.0133 12.3594 13.7532 12.1607 13.5255C11.962 13.3304 11.664 13.2003 11.3329 13.2003C11.0017 13.2003 10.7368 13.3304 10.505 13.5255C10.3063 13.7207 10.1739 14.0133 10.1739 14.3385C10.1739 14.6637 10.3063 14.9239 10.505 15.1515C10.7037 15.3467 11.0017 15.4767 11.3329 15.4767ZM11.3329 15.6394C10.9686 15.6394 10.6375 15.5093 10.4057 15.2816C10.1739 15.054 10.0083 14.7288 10.0083 14.3711C10.0083 14.0133 10.1408 13.6881 10.3726 13.4605C10.6044 13.2328 10.9355 13.0702 11.2998 13.0702C11.664 13.0702 11.9951 13.2003 12.2269 13.428C12.4587 13.6556 12.6243 13.9808 12.6243 14.3385C12.6243 14.6963 12.4919 15.0215 12.2601 15.2491C12.0283 15.4767 11.6971 15.6394 11.3329 15.6394ZM11.962 14.7613C11.9951 14.7288 12.0283 14.7288 12.0614 14.7288C12.0945 14.7613 12.0945 14.7938 12.0945 14.8263C11.9951 14.9564 11.8958 15.054 11.7633 15.119C11.6309 15.1841 11.4984 15.2491 11.366 15.2491C11.3329 15.2491 11.2666 15.2166 11.2666 15.1841C11.2666 15.1515 11.2998 15.0865 11.3329 15.0865C11.4653 15.0865 11.5647 15.0215 11.6971 14.9564C11.7965 14.9564 11.8958 14.8589 11.962 14.7613ZM9.57781 13.1353C9.41224 13.2328 9.18044 13.2003 9.01487 13.1028L8.68373 12.8426C8.48505 12.68 8.45193 12.3873 8.6175 12.1597C8.78307 11.9646 9.0811 11.932 9.3129 12.0946L9.64404 12.3548C9.80961 12.4849 9.87584 12.7125 9.7765 12.9076L10.2732 13.2654C10.6706 12.8751 11.2666 12.745 11.7965 12.9402C12.5581 13.2003 12.9555 14.0459 12.6905 14.7938C12.4256 15.5418 11.5647 15.932 10.803 15.6719C10.0414 15.4117 9.64404 14.5662 9.90895 13.8182C9.94207 13.7207 10.0083 13.5906 10.0745 13.493L9.57781 13.1353ZM16.8629 6.2735C16.8629 6.24098 16.896 6.17594 16.9292 6.17594C16.9623 6.17594 17.0285 6.20846 17.0285 6.24098C17.0616 6.4361 17.0616 6.5987 17.0616 6.79382C17.0616 6.95642 17.0285 7.08651 16.9623 7.21659L17.161 7.28163C17.459 7.37919 17.5252 7.34667 17.3928 7.67187C17.1278 8.41984 16.1344 10.306 13.8495 10.2735V10.3385C13.8495 10.4686 13.6509 10.4361 13.6509 10.3711L13.3859 8.81008C13.3859 8.74504 13.5515 8.64748 13.5846 8.77756V8.97268C13.9489 8.97268 14.2469 8.90764 14.5449 8.8426L14.6112 9.20033C14.6112 9.23285 14.6443 9.26537 14.7105 9.26537C14.7436 9.26537 14.7767 9.23285 14.7767 9.16781L14.7105 8.81008C14.8761 8.74504 15.0417 8.68 15.1741 8.58244C15.1741 8.58244 15.1741 8.58244 15.1741 8.61496L15.3728 8.94016C15.4059 8.97268 15.439 8.97268 15.4721 8.97268C15.5053 8.94016 15.5053 8.90764 15.5053 8.87512L15.3066 8.54992C15.3066 8.54992 15.3066 8.5174 15.2735 8.5174C15.439 8.38732 15.5715 8.25724 15.7039 8.12716C15.7039 8.12716 15.7039 8.12716 15.7039 8.15968L16.0351 8.41984C16.0682 8.45236 16.1344 8.45236 16.1344 8.41984C16.1675 8.38732 16.1675 8.32228 16.1344 8.32228L15.8033 8.06212C15.8033 8.06212 15.8033 8.06212 15.7702 8.06212C15.9688 7.80195 16.1013 7.54179 16.1675 7.34667C16.2669 7.05399 16.2669 7.08651 16.5318 7.18407L16.7967 7.28163C16.8298 7.15155 16.8629 7.02146 16.896 6.89138C16.896 6.5987 16.896 6.4361 16.8629 6.2735ZM13.3528 9.03773C13.121 9.10277 13.2535 10.2085 13.5184 10.1434L13.3528 9.03773ZM10.9024 0.712522C11.366 0.745042 11.962 0.810083 12.2932 0.875124C12.4919 0.907644 12.9223 0.940164 13.1541 0.972685C13.3859 1.0052 13.3859 1.07025 13.1541 1.20033C12.3263 1.72065 11.2998 1.49301 10.7037 0.875124C10.505 0.680002 10.6375 0.712522 10.9024 0.712522ZM12.2932 0.354798C12.2601 0.387319 12.1938 0.387319 12.1607 0.419839C12.0945 0.452359 12.0283 0.354798 11.9951 0.322278C11.664 -0.00292514 10.6375 0.127156 10.0083 0.5174C9.84273 0.614961 9.80961 0.614961 9.87584 0.810083C10.505 2.17594 12.823 2.50114 13.8495 1.42797C14.1807 1.07025 14.1807 1.07025 13.8164 0.842603C13.3859 0.54992 12.6574 0.159676 12.2932 0.354798ZM7.29293 9.10277L6.66377 9.72065L7.06114 10.0784C7.16048 10.1759 7.25982 10.2085 7.39228 10.2085C7.49162 10.2085 7.62408 10.1759 7.69031 10.0784C7.78965 9.98081 7.82276 9.88325 7.82276 9.75317C7.82276 9.65561 7.78965 9.52553 7.69031 9.46049L7.29293 9.10277ZM6.10082 8.54992C6.20017 8.41984 6.36574 8.38732 6.53131 8.3548C6.69688 8.3548 6.82934 8.41984 6.96179 8.5174L7.78965 9.29789C7.9221 9.39545 7.95522 9.55805 7.98833 9.72065C7.98833 9.88325 7.9221 10.0133 7.82276 10.1434C7.72342 10.2735 7.55785 10.306 7.39228 10.3385C7.22671 10.3385 7.09425 10.2735 6.96179 10.1759L6.13394 9.39545C6.00148 9.29789 5.96837 9.13529 5.93525 8.97268C5.93525 8.8426 6.00148 8.68 6.10082 8.54992ZM6.89556 3.28163C6.92868 3.15155 7.02802 3.08651 7.12736 3.02147C7.22671 2.98894 7.35916 2.95642 7.49162 3.02147L8.31947 3.34667C8.45193 3.37919 8.51816 3.47675 8.58439 3.57431C8.6175 3.67187 8.65062 3.80195 8.58439 3.93203C8.55127 4.06212 8.45193 4.12716 8.35259 4.1922C8.25325 4.22472 8.12079 4.25724 7.98833 4.1922L7.16048 3.86699C7.02802 3.83447 6.96179 3.73691 6.89556 3.63935C6.86245 3.54179 6.86245 3.41171 6.89556 3.28163ZM7.9221 3.31415L7.69031 3.93203L8.05456 4.06212C8.1539 4.09464 8.22013 4.09464 8.31947 4.06212C8.3857 4.02959 8.45193 3.96455 8.48505 3.89951C8.51816 3.80195 8.51816 3.73691 8.48505 3.63935C8.45193 3.57431 8.3857 3.50927 8.31947 3.47675L7.9221 3.31415ZM3.98152 10.1759C3.9484 10.2085 3.88217 10.1759 3.88217 10.1434C3.84906 10.1109 3.88217 10.0459 3.91529 10.0459C3.98152 10.0133 4.04775 9.98081 4.11397 9.98081C4.1802 9.98081 4.24643 9.98081 4.31266 10.0133C4.34577 10.0133 4.37889 10.0459 4.412 10.0784C4.44512 10.1109 4.47823 10.1434 4.51134 10.1434C4.54446 10.1759 4.54446 10.241 4.51134 10.241C4.47823 10.2735 4.412 10.2735 4.412 10.241C4.412 10.2085 4.37889 10.2085 4.34577 10.1759C4.31266 10.1759 4.31266 10.1434 4.27954 10.1434C4.24643 10.1434 4.1802 10.1109 4.14709 10.1434C4.08086 10.1434 4.01463 10.1434 3.98152 10.1759ZM5.07429 10.6312C5.07429 9.33041 3.08743 9.20033 2.69006 11.3141C2.59072 11.8995 2.69006 11.932 3.25301 12.3873C3.35235 12.68 3.68349 13.1678 4.27954 13.1028C6.43197 12.8751 6.56442 11.054 5.17363 10.7613C5.83591 10.3711 5.8028 9.68813 5.76968 9.33041C5.76968 9.26537 5.76968 9.20033 5.76968 9.16781C5.8028 9.16781 5.8028 9.13529 5.8028 9.10277C5.8028 9.07024 5.76968 9.0052 5.73657 9.0052C5.67034 9.0052 5.63723 9.03772 5.60411 9.10277C5.60411 9.13529 5.60411 9.23285 5.60411 9.29789C5.63723 9.65561 5.67034 10.306 5.07429 10.6312ZM14.843 17.1678C14.8099 17.2003 14.7436 17.2003 14.7436 17.1678C14.7105 17.1353 14.7105 17.0702 14.7436 17.0702C14.8099 17.0377 14.8761 17.0052 14.9423 16.9727C15.0085 16.9727 15.0748 16.9727 15.141 16.9727C15.1741 16.9727 15.2072 17.0052 15.2403 17.0377C15.2735 17.0702 15.3066 17.0702 15.3397 17.1028C15.3728 17.1353 15.3728 17.1678 15.3397 17.2003C15.3066 17.2328 15.2735 17.2328 15.2403 17.2003C15.2072 17.1678 15.2072 17.1678 15.1741 17.1353C15.141 17.1353 15.141 17.1028 15.1079 17.1028C15.0748 17.1028 15.0085 17.1028 14.9754 17.1028C14.9092 17.1353 14.8761 17.1353 14.843 17.1678ZM15.8364 17.3304C15.439 16.2572 13.7833 16.7776 14.1476 18.5662C14.2469 19.054 14.3463 19.054 14.9423 19.2491C15.1079 19.4442 15.5384 19.7369 16.002 19.5093C17.6246 18.6637 17.1941 17.2328 16.0682 17.3304C16.3993 16.9402 16.2669 16.4524 16.2006 16.1922C16.2006 16.1597 16.1675 16.0946 16.1675 16.0946C16.1675 16.0946 16.2006 16.0621 16.2006 16.0296C16.2006 15.9971 16.1675 15.9646 16.1344 15.9646C16.0682 15.9646 16.0351 15.9971 16.0351 16.0621C16.0351 16.0946 16.0682 16.1597 16.0682 16.2247C16.0682 16.4849 16.2006 16.9402 15.8364 17.3304ZM6.92868 10.9889C6.89556 10.9564 6.92868 10.8914 6.96179 10.8914C6.99491 10.8589 7.06114 10.8914 7.06114 10.9239C7.12736 11.0215 7.32605 11.1515 7.52473 11.2166C7.75653 11.3141 8.02145 11.3792 8.1539 11.3467C8.18702 11.3467 8.22013 11.3792 8.25325 11.4117C8.25325 11.4442 8.22013 11.4767 8.18702 11.5093C8.02145 11.5418 7.72342 11.4767 7.45851 11.3467C7.22671 11.2491 6.99491 11.119 6.92868 10.9889ZM12.8561 9.29789C12.7899 9.29789 12.7568 9.33041 12.6905 9.39545C12.6905 9.39545 12.6905 9.39545 12.6574 9.39545C12.5912 9.29789 12.4256 9.10277 12.2269 8.97268C12.0945 8.87512 11.9289 8.77756 11.7965 8.77756C11.7302 8.77756 11.6971 8.81008 11.6309 8.90764C11.5978 8.97268 11.4984 9.10277 11.366 9.13529C11.2998 9.16781 11.2004 9.29789 11.1011 9.46049C11.0348 9.62309 10.9355 9.85073 10.9355 9.91577C10.9686 10.0133 11.068 10.1434 11.2004 10.2735C11.3329 10.3711 11.4653 10.4686 11.5978 10.5011C10.1408 11.4442 7.9221 11.6394 6.92868 10.5662C6.72999 10.3711 6.56442 10.3711 6.43197 10.4036C6.2664 10.4361 6.16705 10.6312 6.20017 10.7288C6.53131 12.3873 11.2666 12.3223 12.8561 9.88325C12.9223 9.75317 13.2204 9.33041 12.8561 9.29789ZM11.8296 8.94016C11.8296 8.97268 11.7965 9.0052 11.7633 9.0052L12.3263 9.49301C12.3594 9.52553 12.3594 9.55805 12.3263 9.59057C12.2932 9.62309 12.2601 9.62309 12.2269 9.59057L11.664 9.10277C11.5978 9.13529 11.5315 9.20033 11.4653 9.20033C11.4653 9.20033 11.366 9.33041 11.2998 9.46049L11.6309 9.72065C11.664 9.75317 11.664 9.78569 11.6309 9.81821C11.5978 9.85073 11.5647 9.85073 11.5316 9.81821L11.2004 9.62309C11.1342 9.75317 11.068 9.85073 11.068 9.85073C11.1011 9.91577 11.1673 10.0459 11.2666 10.1109C11.3991 10.2085 11.5316 10.306 11.664 10.3385C11.6971 10.3385 11.8627 10.1759 12.0614 10.0133C12.2601 9.78569 12.4919 9.52553 12.525 9.42797C12.4919 9.39545 12.3263 9.20033 12.1276 9.03773C12.0614 8.97268 11.8627 8.8426 11.8296 8.94016ZM1.39861 2.72878C1.69664 2.79382 2.02778 2.72878 2.25958 2.5987C2.52449 2.4361 2.69006 2.20846 2.78941 1.91577C2.85564 1.59057 2.82252 1.26537 2.65695 1.03773C2.49138 0.777563 2.25958 0.582441 1.96155 0.5174C1.63041 0.419839 1.33238 0.48488 1.06747 0.647481C0.802556 0.777563 0.636986 1.03773 0.537643 1.33041C0.471415 1.65561 0.537643 1.94829 0.6701 2.20846C0.835671 2.46862 1.06747 2.63122 1.39861 2.72878ZM1.3655 2.85886C1.00124 2.79382 0.703214 2.56618 0.537643 2.2735C0.372072 1.98081 0.305844 1.65561 0.372072 1.29789C0.471415 0.972685 0.703214 0.680002 1.00124 0.5174C1.29927 0.354798 1.63041 0.289758 1.99467 0.354798C2.32581 0.452359 2.62384 0.647481 2.78941 0.940164C2.95498 1.23285 3.02121 1.55805 2.95498 1.91577C2.85564 2.2735 2.62384 2.53366 2.35892 2.72878C2.0609 2.89138 1.69664 2.95642 1.3655 2.85886ZM1.33238 0.907644C1.29927 0.940164 1.23304 0.907644 1.23304 0.875124C1.19993 0.842603 1.23304 0.810083 1.26615 0.777563C1.39861 0.712522 1.56418 0.680002 1.69664 0.680002C1.8291 0.680002 1.99467 0.712522 2.12712 0.777563C2.16024 0.810083 2.19335 0.842603 2.16024 0.875124C2.16024 0.907644 2.09401 0.940164 2.0609 0.907644C1.92844 0.875124 1.8291 0.842603 1.69664 0.842603C1.56418 0.842603 1.46484 0.875124 1.33238 0.907644ZM1.26615 3.15155C1.43173 3.28163 1.46484 3.47675 1.39861 3.67187L1.26615 4.06212C1.16681 4.32228 0.901899 4.41984 0.636986 4.3548C0.372072 4.25724 0.27273 3.99707 0.338958 3.73691L0.471415 3.34667C0.537643 3.15155 0.736328 3.02147 0.935013 3.05399L1.00124 2.9239C0.372072 2.63122 0.0409304 1.94829 0.206501 1.26537C0.405186 0.48488 1.19993 0.0295952 1.99467 0.224717C2.78941 0.419839 3.25301 1.20033 3.05432 1.98081C2.85564 2.7613 2.0609 3.21659 1.26615 3.02147V3.15155ZM4.11397 0.419839C4.1802 0.48488 4.21332 0.582441 4.21332 0.680002C4.21332 0.940164 4.04775 1.13529 3.78283 1.16781C3.68349 1.16781 3.58415 1.13529 3.51792 1.10277L4.11397 0.419839ZM3.28612 0.712522C3.28612 0.452359 3.45169 0.257237 3.7166 0.224717C3.81595 0.224717 3.91529 0.257237 3.98152 0.289758L3.38546 0.940164C3.35235 0.875124 3.31923 0.810083 3.28612 0.712522ZM2.52449 3.73691C2.42515 3.63935 2.39204 3.54179 2.39204 3.47675C2.39204 3.37919 2.42515 3.28163 2.49138 3.18407L2.98809 2.66374C3.05432 2.5987 3.15366 2.53366 3.25301 2.53366C3.35235 2.53366 3.45169 2.56618 3.55103 2.63122C3.61726 2.69626 3.68349 2.79382 3.68349 2.89138C3.68349 2.98894 3.65038 3.08651 3.58415 3.18407L3.08743 3.67187C3.02121 3.73691 2.92186 3.80195 2.82252 3.80195C2.69006 3.83447 2.59072 3.80195 2.52449 3.73691ZM2.88875 3.02147L3.25301 3.34667L3.4848 3.11903C3.51792 3.08651 3.55103 3.02147 3.55103 2.95642C3.55103 2.89138 3.51792 2.82634 3.4848 2.79382C3.38546 2.72878 3.31923 2.69626 3.25301 2.69626C3.21989 2.69626 3.15366 2.72878 3.08743 2.79382L2.88875 3.02147ZM0.504529 18.8263C0.471415 18.8914 0.537643 18.9564 0.636986 19.0215C0.802556 19.0865 1.16681 19.1841 1.76287 19.2491C1.8291 19.2491 1.89532 19.2491 1.89532 19.1841C1.89532 19.1515 1.89532 19.119 1.79598 19.0865C1.66353 19.054 1.46484 19.054 1.19993 18.9889C1.06747 18.9564 0.935013 18.9239 0.835671 18.8589C0.636986 18.8263 0.537643 18.7613 0.504529 18.8263ZM2.85564 16.4524C3.38546 16.4198 4.21332 16.7125 3.4848 17.5906C4.80937 18.241 5.76968 19.119 5.23986 19.4767C4.94183 19.6719 1.26615 19.5093 0.703214 19.5743C0.140273 19.6394 0.206501 19.3792 0.173387 18.9239C0.140273 18.6312 0.107159 18.4036 0.372072 18.5011C2.65695 19.3792 5.67034 19.054 3.25301 18.0459C2.16024 17.6881 3.18678 17.2654 3.21989 17.1028C3.25301 16.8426 3.02121 16.8426 2.78941 16.8751C2.59072 16.9076 2.62384 16.8426 2.62384 16.745V16.6475C2.62384 16.4849 2.65695 16.4849 2.85564 16.4524ZM4.44512 17.493C4.27954 17.2328 4.1802 16.9727 4.27954 16.745C4.57757 15.9646 8.02145 15.2491 6.96179 19.3792C6.76311 20.2572 4.67691 17.8507 4.44512 17.493ZM4.77626 16.615C4.80937 16.5174 4.74314 16.4849 4.67692 16.5499C4.57757 16.6475 4.44512 16.745 4.44512 16.9076C4.44512 17.0052 4.44512 17.1028 4.54446 17.1028C4.6438 17.0702 4.57757 16.9727 4.61069 16.8751C4.6438 16.7776 4.74314 16.7125 4.77626 16.615ZM6.49819 18.2735C6.59754 17.9808 6.59754 17.2328 6.43197 16.9727C6.16705 16.615 5.90214 16.5824 5.47166 16.68C5.14051 16.7776 4.67691 17.0052 4.94183 17.3954C5.07429 17.5906 5.17363 17.6881 5.37231 17.8833C5.67034 18.1434 6.29951 18.7938 6.49819 18.2735ZM6.56442 15.6394C6.46508 15.7044 6.36574 15.7369 6.23328 15.7369C5.93525 15.7369 5.70345 15.5093 5.70345 15.2166C5.70345 15.0865 5.73657 14.9889 5.83591 14.8914L6.56442 15.6394ZM6.23328 14.6637C6.53131 14.6637 6.76311 14.8914 6.76311 15.1841C6.76311 15.3141 6.72999 15.4117 6.66377 15.5093L5.93525 14.7613C6.00148 14.6963 6.13394 14.6637 6.23328 14.6637ZM0.636986 16.8751C0.835671 16.6475 1.00124 16.4524 1.23304 16.2572C1.39861 16.1272 1.89532 15.6394 2.02778 15.5418C2.09401 15.5093 1.92844 16.8751 0.636986 17.0702C0.4383 17.1028 0.537643 17.0377 0.636986 16.8751ZM0.935013 15.867C0.935013 15.8995 0.901899 15.9646 0.901899 15.9971C0.868785 16.0621 0.769442 16.0621 0.736328 16.0621C0.305844 16.0946 -0.0584122 16.9402 0.00781619 17.5255C0.305844 17.8833 1.53107 17.5906 1.99467 17.0052C2.39204 16.5174 2.62384 15.9646 2.39204 15.2166C2.19335 15.0215 1.10058 15.2816 0.935013 15.867ZM2.09401 17.9158L1.89532 18.4361L2.25958 18.5662C2.32581 18.5987 2.42515 18.5987 2.49138 18.5662C2.55761 18.5337 2.62384 18.4686 2.65695 18.4036C2.69006 18.3385 2.69006 18.241 2.65695 18.1759C2.62384 18.1109 2.55761 18.0459 2.49138 18.0133L2.09401 17.9158ZM1.16681 17.8833C1.23304 17.7532 1.29927 17.6556 1.39861 17.6231C1.49795 17.5906 1.63041 17.5581 1.72975 17.6231L2.49138 17.9158C2.59072 17.9483 2.69006 18.0459 2.75629 18.1434C2.78941 18.241 2.82252 18.3711 2.75629 18.4686C2.72318 18.5662 2.65695 18.6637 2.52449 18.7288C2.42515 18.7613 2.29269 18.7938 2.19335 18.7288L1.43173 18.4361C1.29927 18.4036 1.23304 18.306 1.16681 18.2085C1.1337 18.1109 1.1337 17.9808 1.16681 17.8833ZM1.56418 5.10277C1.56418 5.03773 1.63041 5.03772 1.66353 5.07025C1.69664 5.10277 1.72975 5.13529 1.69664 5.16781C1.63041 5.29789 1.53107 5.39545 1.43173 5.46049C1.33238 5.55805 1.19993 5.59057 1.06747 5.65561C1.03436 5.65561 0.968127 5.65561 0.968127 5.59057C0.968127 5.55805 0.968127 5.49301 1.03436 5.49301C1.1337 5.46049 1.23304 5.39545 1.33238 5.33041C1.43173 5.26537 1.49795 5.20033 1.56418 5.10277ZM8.65062 2.63122C7.9221 1.78569 6.49819 1.91577 5.67034 2.46862C5.37231 2.66374 5.23986 2.98894 5.1074 3.21659C5.00806 3.41171 4.67692 3.50927 4.412 3.28163C2.85564 1.91577 6.06771 -1.49886 9.64404 1.07025C10.0745 1.36293 10.2401 1.59057 9.94207 1.85073C9.51159 2.20846 8.8493 2.82634 8.65062 2.63122ZM4.1802 3.24911C4.37889 3.50927 4.84249 3.47675 4.57757 3.76943C4.54446 3.83447 4.47823 3.86699 4.44512 3.89951C4.31266 4.02959 4.27954 4.06212 4.11397 3.96455C4.01463 3.93203 3.9484 3.86699 3.88217 3.80195C3.74972 3.67187 3.74972 3.63935 3.81595 3.47675C3.81595 3.41171 3.84906 3.34667 3.91529 3.18407C4.04775 2.7613 3.98152 2.98894 4.1802 3.24911ZM6.16705 1.98081C6.06771 1.78569 5.73657 1.26537 5.53788 1.13529C5.27297 0.940164 6.96179 0.322278 7.85588 0.680002C7.95522 0.712522 8.1539 2.01333 8.02145 1.98081C7.22671 1.65561 6.20017 2.01333 6.16705 1.98081ZM4.97494 1.42797C5.00806 1.39545 5.07429 1.39545 5.07429 1.42797C5.1074 1.46049 5.1074 1.52553 5.07429 1.52553C4.97494 1.59057 4.90871 1.68813 4.84249 1.75317C4.77626 1.85073 4.71003 1.94829 4.67692 2.04586C4.6438 2.1109 4.57757 2.14342 4.54446 2.1109C4.51134 2.07838 4.47823 2.04586 4.51134 2.01333C4.57757 1.91577 4.6438 1.78569 4.71003 1.68813C4.77626 1.62309 4.8756 1.52553 4.97494 1.42797ZM10.1408 1.78569C9.90896 2.1109 9.5447 2.53366 9.11421 2.72878C8.88242 2.79382 8.78307 2.72878 8.94864 2.95642C8.98176 3.02147 8.98176 3.05399 9.0811 3.11903C9.3129 3.28163 9.3129 3.24911 9.57781 3.08651C10.0083 2.82634 10.207 2.30602 10.5381 2.04586C10.7699 1.88325 10.6706 1.75317 10.4388 1.68813C10.2401 1.62309 10.207 1.65561 10.1408 1.78569ZM3.15366 5.46049C2.78941 5.49301 2.42515 5.0052 2.12712 5.07025C1.63041 5.20033 1.46484 6.14342 0.570757 5.81821C0.305844 5.72065 0.239615 5.46049 0.405186 5.23285C1.03436 4.3548 2.19335 3.89951 2.95498 4.28976C3.38546 4.48488 3.41858 3.86699 3.58415 3.89951C4.27954 4.09464 4.27954 5.33041 3.15366 5.46049ZM3.45169 6.14342C3.41858 6.14342 3.38546 6.1109 3.35235 6.07838C3.35235 6.04586 3.38546 6.01333 3.41858 5.98081C3.81595 5.94829 4.24643 6.01333 4.67692 6.1109C4.84249 6.14342 5.00806 6.17594 5.17363 6.24098C5.20674 6.24098 5.23986 6.2735 5.23986 6.33854C5.23986 6.37106 5.20674 6.40358 5.14051 6.40358C4.97494 6.37106 4.80937 6.30602 4.6438 6.2735C4.24643 6.17594 3.81595 6.1109 3.45169 6.14342ZM0.504529 6.89138C0.537643 6.89138 0.537643 6.89138 0.570757 6.89138C0.769442 6.85886 1.06747 6.79382 1.43173 6.72878C1.92844 6.63122 2.39204 6.53366 2.42515 6.53366C2.49138 6.5987 2.49138 6.72878 2.49138 6.89138C2.49138 6.98894 2.52449 7.24911 2.45827 7.34667C2.45827 7.34667 2.32581 7.41171 2.19335 7.44423C2.0609 7.47675 1.92844 7.50927 1.86221 7.50927C1.86221 7.50927 1.86221 7.50927 1.8291 7.50927L1.72975 6.82634C1.72975 6.79382 1.69664 6.7613 1.63041 6.7613C1.5973 6.7613 1.56418 6.79382 1.56418 6.85886L1.66353 7.50927C1.46484 7.54179 1.23304 7.63935 1.03436 7.73691L0.901899 7.15155C0.901899 7.11903 0.835671 7.08651 0.802556 7.08651C0.769442 7.08651 0.736328 7.15155 0.736328 7.18407L0.868785 7.80195L0.802556 7.83447C0.703214 7.86699 0.636986 7.89951 0.603871 7.93203C0.537643 7.76943 0.504529 7.57431 0.504529 7.41171C0.471415 7.15155 0.504529 6.98894 0.504529 6.89138ZM0.239615 6.53366C0.140273 6.56618 0.173387 6.79382 0.338958 6.85886C0.338958 6.98894 0.338958 7.18407 0.372072 7.37919C0.405186 7.50927 0.4383 7.86699 0.504529 7.99707C0.537643 8.06211 0.570757 8.06211 0.636986 8.02959C0.636986 8.02959 0.868785 7.89951 0.901899 7.89951C0.935013 7.86699 0.968127 7.86699 1.03436 7.83447C1.26615 7.70439 1.56418 7.57431 1.76287 7.57431C1.79598 7.57431 1.79598 7.57431 1.8291 7.57431C1.89532 7.57431 2.0609 7.54179 2.22647 7.50927C2.29269 7.47675 2.55761 7.41171 2.59072 7.34667C2.65695 7.21659 2.65695 7.02146 2.62384 6.82634C2.62384 6.66374 2.62384 6.50114 2.52449 6.40358C2.82252 6.37106 3.15366 6.37106 3.4848 6.40358C4.97494 6.53366 4.84249 6.7613 5.3392 6.66374C5.53788 6.63122 5.60411 6.2735 5.47166 6.20846C3.65038 5.33041 0.703214 6.40358 0.239615 6.53366ZM14.0482 3.02147C14.6774 3.24911 15.3066 3.47675 15.6046 3.96455C16.1675 4.87512 15.3728 5.62309 15.8695 5.85073C17.3265 6.4361 18.1875 4.87512 17.0616 2.98895C16.7636 2.50114 16.4987 2.07838 15.9357 1.59057C15.7039 1.36293 15.7039 1.29789 15.3728 1.52553C14.9092 1.78569 14.1476 2.46862 13.9158 2.79382C13.7502 2.95642 13.8827 2.95642 14.0482 3.02147ZM13.7502 2.66374C13.982 2.33854 14.843 1.59057 15.2403 1.39545C15.439 1.29789 15.4721 1.23285 15.4059 1.13529C15.3728 1.07025 15.3066 1.0052 15.2403 0.940164C15.0085 0.777563 14.9092 0.810083 14.6443 0.940164C14.2138 1.20033 13.7171 2.1109 13.3528 2.37106C13.121 2.53366 13.2204 2.66374 13.4522 2.72878C13.6509 2.79382 13.684 2.79382 13.7502 2.66374ZM16.0351 4.64748C16.0351 4.61496 16.0682 4.58244 16.1013 4.54992C16.1344 4.54992 16.1675 4.58244 16.2006 4.61496C16.2338 4.8426 16.2338 4.97268 16.2006 5.10277C16.2006 5.23285 16.1675 5.33041 16.1344 5.46049C16.1344 5.49301 16.0682 5.52553 16.0351 5.52553C16.002 5.52553 15.9689 5.46049 15.9689 5.42797C16.002 5.29789 16.0351 5.20033 16.0351 5.10277C16.0682 5.00521 16.0682 4.87512 16.0351 4.64748ZM16.4656 4.1922C16.9623 4.09464 17.1278 4.12716 16.9954 3.57431C16.896 3.11903 16.5318 2.63122 16.1675 2.24098C15.9026 1.98081 15.9026 1.98081 15.6046 2.17594C15.141 2.46862 14.8099 2.72878 14.7767 2.89138C14.7767 2.98894 14.9423 3.02147 15.2072 3.18407C15.5384 3.41171 15.7371 3.63935 15.8695 3.83447C16.1675 4.32228 16.1013 4.28976 16.4656 4.1922ZM13.5846 7.83447C13.5846 7.86699 13.5515 7.89951 13.4853 7.89951C13.4522 7.89951 13.4191 7.86699 13.4191 7.80195C13.4522 7.67187 13.4853 7.54179 13.5184 7.41171C13.5846 7.28163 13.6509 7.18407 13.7171 7.08651C13.7502 7.05399 13.7833 7.05399 13.8164 7.08651C13.8495 7.11903 13.8495 7.15155 13.8164 7.18407C13.7502 7.28163 13.684 7.37919 13.6509 7.47675C13.6177 7.57431 13.5846 7.70439 13.5846 7.83447ZM13.9489 6.69626C14.3463 6.53366 14.6112 7.47675 15.0748 6.63122C15.3397 6.20846 15.6708 6.79382 15.5053 7.37919C15.4059 7.80195 14.9092 7.54179 14.4456 7.60683C13.7833 7.70439 14.28 8.71252 13.3859 8.5174C12.9223 8.41984 13.3859 6.95642 13.9489 6.69626ZM16.3993 6.07838C16.2006 6.07838 16.0351 6.04586 15.8364 5.94829C15.5715 5.81821 15.6708 5.68813 15.4059 6.14342C15.3066 6.30602 15.4059 6.37106 15.6377 6.50114C15.9357 6.63122 15.9026 6.53366 16.2006 6.37106C16.3993 6.20846 16.5649 6.07838 16.3993 6.07838ZM20.936 6.53366C20.8366 6.63122 20.7042 6.66374 20.5717 6.66374C20.2737 6.66374 20.0419 6.4361 20.0419 6.14342C20.0419 6.04585 20.075 5.94829 20.1081 5.88325L20.936 6.53366ZM20.5717 5.59057C20.8697 5.59057 21.1015 5.81821 21.1015 6.1109C21.1015 6.20846 21.0684 6.30602 21.0353 6.37106L20.2075 5.72065C20.3068 5.65561 20.4061 5.59057 20.5717 5.59057ZM34.877 7.99707C34.9102 8.02959 34.9102 8.06211 34.9102 8.09464C34.877 8.12716 34.8439 8.12716 34.8108 8.12716C34.7446 8.09464 34.7115 8.02959 34.6784 7.96455C34.6452 7.89951 34.6121 7.83447 34.6121 7.76943C34.6121 7.73691 34.6121 7.70439 34.6121 7.63935C34.6121 7.60683 34.6452 7.57431 34.6452 7.54179C34.6784 7.50927 34.7115 7.47675 34.7446 7.50927C34.7777 7.54179 34.8108 7.57431 34.7777 7.60683C34.7777 7.63935 34.7446 7.63935 34.7446 7.67187C34.7446 7.70439 34.7446 7.73691 34.7446 7.73691C34.7446 7.76943 34.7446 7.83447 34.7777 7.86699C34.8108 7.93203 34.8439 7.96455 34.877 7.99707ZM36.5659 7.11903L35.6387 6.63122L35.4731 6.53366L35.6056 6.33854L35.7711 6.4361L35.9367 6.20846L35.7711 6.1109L35.9036 5.91577L36.0692 6.01333L36.2347 5.78569L36.0692 5.68813L36.2016 5.49301L36.3672 5.59057L36.5328 5.36293L36.3672 5.26537L36.4996 5.07025L36.6652 5.16781L36.7977 4.97268C36.897 4.8426 37.0295 4.77756 37.195 4.87512C37.3275 4.94016 37.3606 5.10277 37.2944 5.26537L37.195 5.49301L37.3606 5.59057L37.2613 5.81821L37.0957 5.72065L36.9964 5.98081L37.1619 6.07838L37.0626 6.30602L36.897 6.20846L36.7977 6.46862L36.9632 6.56618L36.8639 6.79382L36.6983 6.69626L36.599 6.95642L36.7646 7.05399L36.6652 7.28163L36.5659 7.11903ZM35.5393 8.71252L35.2413 8.41984L34.8439 8.32228C34.4797 8.22472 34.3141 7.70439 34.579 7.44423L35.3738 6.63122L36.8308 7.41171L36.4665 8.45236C36.3341 8.77756 35.8042 8.94016 35.5393 8.71252ZM20.8366 0.842603C20.8366 0.875124 20.7704 0.907644 20.7373 0.907644C20.7042 0.907644 20.6711 0.842603 20.6711 0.810083C20.6711 0.777563 20.7042 0.745042 20.7373 0.712522C20.7704 0.680002 20.8035 0.647481 20.8366 0.647481C20.8697 0.647481 20.9029 0.614961 20.936 0.614961C20.9691 0.614961 21.0022 0.614961 21.0353 0.614961C21.0684 0.614961 21.1015 0.680002 21.0684 0.712522C21.0684 0.745042 21.0022 0.777563 20.9691 0.745042H20.936H20.9029C20.9029 0.745042 20.8697 0.745042 20.8697 0.777563C20.8366 0.842603 20.8366 0.842603 20.8366 0.842603ZM20.6379 1.26537C20.6711 1.33041 20.6711 1.52553 20.7042 1.62309C20.7373 1.75317 20.8035 2.14342 21.0022 2.14342C21.1015 2.14342 21.1678 2.07838 21.1678 1.98081C21.1678 1.94829 21.1678 1.91577 21.1347 1.91577C21.1015 1.88325 21.0684 1.85073 21.0684 1.75317C21.0684 1.65561 21.1347 1.49301 21.3002 1.49301C21.4658 1.49301 21.532 1.65561 21.532 1.75317C21.532 1.85073 21.4989 1.88325 21.4658 1.91577C21.4658 1.94829 21.4327 1.94829 21.4327 1.98081C21.4327 2.07838 21.4989 2.14342 21.5983 2.14342C21.7638 2.14342 21.8632 1.75317 21.8963 1.62309C21.9294 1.49301 21.9294 1.33041 21.9625 1.26537C22.0287 1.13529 22.095 1.07025 22.095 0.907644C22.095 0.680002 21.8963 0.48488 21.6645 0.48488C21.4658 0.48488 21.4658 0.582441 21.2671 0.582441C21.0684 0.582441 21.0684 0.48488 20.8697 0.48488C20.6379 0.48488 20.4393 0.647481 20.4393 0.907644C20.5055 1.07025 20.6048 1.13529 20.6379 1.26537ZM22.9559 3.02147L22.3599 2.4361C22.3268 2.40358 22.3268 2.37106 22.3268 2.33854C22.3268 2.30602 22.3268 2.2735 22.3599 2.24098L22.6248 1.98081C22.6579 1.94829 22.691 1.94829 22.7241 1.94829C22.7573 1.94829 22.7904 1.98081 22.8235 1.98081L23.4195 2.56618C23.4527 2.5987 23.4527 2.63122 23.4527 2.66374C23.4527 2.69626 23.4527 2.72878 23.4195 2.7613L23.1546 3.02147C23.1215 3.05399 23.0884 3.05399 23.0553 3.05399C23.0222 3.05399 22.9891 3.05399 22.9559 3.02147ZM20.1081 0.0946358H22.5586C22.7573 0.0946358 22.8897 0.257237 22.8897 0.452359V1.94829L22.8566 1.88325C22.8235 1.85073 22.7904 1.81821 22.7241 1.81821C22.691 1.81821 22.6248 1.81821 22.5917 1.85073L22.2605 2.17594C22.2274 2.24098 22.1943 2.30602 22.1943 2.33854C22.1943 2.37106 22.2274 2.4361 22.2605 2.46862L22.393 2.5987H20.1081C19.9094 2.5987 19.777 2.4361 19.777 2.24098V0.419839C19.777 0.224717 19.9094 0.0946358 20.1081 0.0946358ZM24.7772 0.192197C24.7772 0.159676 24.8103 0.127156 24.8434 0.127156C24.8766 0.127156 24.9097 0.159676 24.9097 0.192197C24.9097 0.354798 24.9097 0.419839 24.9097 0.48488C24.9097 0.582441 24.9097 0.647481 24.9097 0.810083C24.9097 0.842603 24.8766 0.875124 24.8103 0.875124C24.7772 0.875124 24.7441 0.842603 24.7441 0.777563C24.7441 0.614961 24.7441 0.54992 24.7441 0.48488C24.7772 0.419839 24.7772 0.354798 24.7772 0.192197ZM24.8434 0.0295952C25.0421 0.0295952 25.2408 0.0295952 25.4395 0.0295952C25.6713 0.0295952 25.6382 -0.00292512 25.6382 0.224717C25.6382 0.419839 25.6382 0.582441 25.6382 0.777563C25.6382 1.07025 25.572 1.03773 25.87 1.03773C26.0687 1.03773 26.2674 1.03773 26.466 1.03773C26.7641 1.03773 26.731 0.972685 26.731 1.29789C26.731 1.49301 26.731 1.65561 26.731 1.85073C26.731 2.1109 26.731 2.04586 26.466 2.04586C26.2674 2.04586 26.0356 2.04586 25.8038 2.04586C25.6051 2.04586 25.6382 2.01333 25.6382 2.20846C25.6382 2.37106 25.6382 2.37106 25.6382 2.53366C25.6382 2.82634 25.7044 2.79382 25.4395 2.85886C25.2408 2.89138 25.0752 2.95642 24.8766 2.95642C24.5123 2.98894 24.6448 2.53366 24.6448 2.17594C24.6448 1.98081 24.6779 2.01333 24.4792 2.01333C24.2474 2.01333 24.0487 2.01333 23.8169 2.01333C23.5189 2.01333 23.5851 2.04586 23.5851 1.75317C23.5851 1.62309 23.5851 1.49301 23.5851 1.36293C23.5851 1.03773 23.5189 1.03773 23.8169 1.03773C24.0156 1.03773 24.2143 1.03773 24.413 1.03773C24.6779 1.03773 24.6117 1.0052 24.6117 0.680002C24.6117 0.54992 24.6117 0.387319 24.6117 0.257237C24.6117 -0.0354454 24.5785 0.0295952 24.8434 0.0295952ZM37.5262 13.7857C37.6586 13.428 38.0229 12.7776 38.1885 12.4524C38.354 12.1922 38.6189 11.6068 38.7845 11.4117C39.0494 12.5174 38.4203 13.6556 37.5262 13.7857ZM37.8242 11.8995C37.8242 11.9646 37.7911 12.2247 37.7911 12.2572C37.7911 12.3223 37.4599 12.5174 37.4268 12.5499C37.1288 12.68 37.195 13.2328 37.0626 13.7857C36.9632 14.1434 37.0295 14.2735 37.3937 14.2735C38.1222 14.241 38.8839 13.7207 39.1488 13.0377C39.3806 12.3873 39.513 10.8914 39.1488 10.7288C39.1157 10.7288 39.0825 10.7288 39.0163 10.7288C38.7845 10.8914 38.0891 11.4767 37.8242 11.8995ZM34.1485 3.11903C34.5128 3.24911 35.0757 3.47675 35.3406 3.60683C35.5062 3.70439 36.1685 3.99707 36.3341 4.12716C36.4996 4.25724 34.7446 4.61496 34.1154 3.34667C34.0492 3.18407 33.9498 3.02147 34.1485 3.11903ZM35.6387 3.21659C35.6056 3.21659 35.5393 3.21659 35.5062 3.21659C35.44 3.21659 35.4069 3.11903 35.4069 3.08651C35.2082 2.69626 34.281 2.63122 33.718 2.9239C33.4531 3.37919 33.9498 4.25724 34.7115 4.64748C35.4069 5.0052 36.3672 4.90764 36.8308 4.28976C36.8308 4.25724 36.8308 4.22472 36.8308 4.1922C36.6321 3.70439 36.2678 3.15155 35.6387 3.21659ZM30.4066 18.8263C30.3735 18.8263 30.3073 18.7938 30.3073 18.7613C30.3073 18.7288 30.3404 18.6637 30.3735 18.6637C30.4397 18.6637 30.506 18.6312 30.5722 18.5987C30.6384 18.5662 30.6715 18.5011 30.7047 18.4686C30.7378 18.4361 30.7709 18.4361 30.804 18.4361C30.8371 18.4686 30.8371 18.5011 30.8371 18.5337C30.7709 18.5987 30.7378 18.6637 30.6384 18.7288C30.6053 18.7938 30.506 18.8263 30.4066 18.8263ZM31.4001 18.3711L31.4663 19.3141C31.4663 19.5093 31.2014 19.6719 31.0027 19.6068L29.8768 19.2816C29.8106 19.2491 29.7775 19.2166 29.7775 19.1515C29.8106 19.054 29.8106 18.9239 29.8437 18.7938C29.8768 18.5662 29.8437 18.5987 30.0424 18.5987C30.2742 18.5987 30.506 18.5662 30.6384 18.2735C30.7047 18.1434 30.7047 18.1434 30.8371 18.1759L31.2676 18.2735C31.3669 18.241 31.4001 18.306 31.4001 18.3711ZM29.645 18.8914C29.5788 19.1841 29.6119 19.119 29.3139 19.119C29.0158 19.119 29.0821 19.1841 29.1152 18.8914C29.1483 18.6637 29.1152 18.6963 29.347 18.6963C29.6781 18.6963 29.7112 18.5987 29.645 18.8914ZM25.6713 16.8426C25.7044 16.8751 25.7044 16.9402 25.6713 16.9402C25.6382 16.9727 25.572 16.9727 25.572 16.9402C25.5388 16.8751 25.4395 16.8751 25.3733 16.9076C25.2739 16.9727 25.1415 17.0702 25.0421 17.1678C25.009 17.2003 24.9759 17.2003 24.9428 17.1678C24.9097 17.1353 24.9097 17.1028 24.9428 17.0702C25.0753 16.9402 25.2077 16.8426 25.3402 16.7776C25.4395 16.7125 25.572 16.7125 25.6713 16.8426ZM29.0158 18.5011L28.8503 19.4117C28.8172 19.5743 28.6185 19.6394 28.4529 19.6394C26.9959 19.7044 23.2209 18.1109 24.0818 17.493L25.009 16.8101C25.5057 16.4524 25.4726 16.4524 25.9693 16.8751C26.4329 17.2979 26.6316 17.6881 28.784 18.1109C28.9496 18.1434 29.049 18.3385 29.0158 18.5011ZM31.3669 16.9076C31.3669 17.0702 31.3669 17.2328 31.3669 17.3954C31.3669 17.5581 31.3669 17.7532 31.3669 17.9158C31.3669 18.1434 31.3338 18.0459 31.102 18.0133C30.8371 17.9808 30.804 18.0133 30.9033 17.8182C30.9696 17.6556 31.0358 17.493 31.102 17.3304L31.3007 16.8751V16.8426C31.2676 16.8426 31.2345 16.7776 31.2014 16.745C31.1683 16.6475 31.2014 16.5824 31.3007 16.5499C31.4001 16.5174 31.4663 16.5499 31.4994 16.6475C31.5325 16.745 31.4994 16.8101 31.4001 16.8426C31.4001 16.9076 31.3669 16.9076 31.3669 16.9076ZM24.5123 13.2979C24.711 13.5581 25.009 13.9158 25.1746 14.2085C25.2739 14.3711 25.6382 14.9564 25.7044 15.1515C25.7375 15.2166 24.2805 14.6963 24.5123 13.2979ZM25.6382 14.0133C25.6051 13.9808 25.5388 13.9808 25.5057 13.9483C25.4726 13.9158 25.4726 13.8182 25.5057 13.7857C25.572 13.3629 24.8434 12.8101 24.2143 12.745C23.8169 12.9402 23.8169 14.1759 24.2805 14.7613C24.6779 15.2491 25.1746 15.6068 25.9362 15.5418C26.168 15.4117 26.168 14.306 25.6382 14.0133ZM22.7904 13.5906C22.5917 13.4605 22.1612 13.3954 22.0619 13.3954C21.8632 13.3629 21.6314 14.7288 22.0287 15.5093C22.2605 15.932 22.3599 15.8345 22.8235 15.7369C22.9891 15.7044 23.1546 15.6719 23.2871 15.6394C23.6845 15.5418 23.5189 15.5418 23.3864 15.3141C23.1215 14.9239 23.0553 14.3385 23.0222 13.9808C22.9891 13.6881 23.0222 13.7207 22.7904 13.5906ZM22.6579 12.3223C22.691 12.2898 22.7573 12.3223 22.7573 12.3548C22.7904 12.3873 22.7573 12.4524 22.7241 12.4524C22.6248 12.5174 22.5255 12.5824 22.4592 12.6475C22.393 12.7125 22.2937 12.8101 22.2274 12.9076C22.1943 12.9402 22.1612 12.9402 22.1281 12.9402C22.095 12.9076 22.095 12.8751 22.095 12.8426C22.1612 12.745 22.2605 12.6475 22.3268 12.5499C22.4592 12.4524 22.5586 12.3873 22.6579 12.3223ZM24.2805 15.6068C23.7507 15.4117 23.3864 14.6637 23.3202 13.9158C23.2209 13.2003 23.8169 12.8751 23.5189 12.4849C23.2209 12.0621 22.8235 12.0296 22.4923 12.2572C21.0353 13.1353 20.9691 15.4442 22.3599 16.4849C22.6248 16.68 22.6248 16.68 22.9891 16.5174C23.3864 16.3223 24.0487 15.9646 24.413 15.802C24.711 15.6719 24.5123 15.7044 24.2805 15.6068ZM23.8169 12.3873C23.8831 12.3223 23.9163 12.2572 23.9494 12.1922C24.0156 12.0621 23.9825 12.0621 23.9163 11.9646C23.85 11.867 23.7838 11.802 23.7176 11.7694C23.6182 11.7044 23.5851 11.7044 23.4527 11.7369C23.3202 11.7694 23.1215 11.867 22.9559 11.9971C22.9228 11.9971 22.9228 12.0296 22.9559 12.0296C23.2209 12.0296 23.4858 12.1922 23.6182 12.4198C23.7176 12.4524 23.7176 12.4849 23.8169 12.3873ZM26.0687 10.3385C26.0687 10.3711 26.0356 10.4361 26.0024 10.4361C25.9693 10.4361 25.9031 10.4036 25.9031 10.3711C25.9031 10.2735 25.9031 10.1759 25.9362 10.1109C25.9693 10.0459 26.0356 9.94829 26.1349 9.91577C26.168 9.88325 26.2342 9.91577 26.2342 9.94829C26.2674 9.98081 26.2342 10.0459 26.2011 10.0459C26.1349 10.0784 26.1018 10.1109 26.0687 10.1759C26.0687 10.2085 26.0687 10.2735 26.0687 10.3385ZM25.6382 10.8263C25.9362 10.5987 25.6051 9.91577 26.1349 9.78569C27.2277 9.52553 26.8965 11.867 25.2408 11.3467C24.711 11.1841 23.9163 11.8995 23.9163 11.6719C23.9163 11.5743 24.2805 11.054 24.9097 10.8263C25.2408 10.7288 25.5057 10.9239 25.6382 10.8263ZM24.6117 15.8345C24.2805 16.0621 23.3864 16.5499 22.9559 16.7125C22.7573 16.8101 22.6579 16.745 22.7904 16.9727C22.8235 17.0377 22.8897 17.1028 22.9559 17.1678C23.1877 17.3304 23.1877 17.2979 23.4527 17.1353C23.8831 16.8751 24.6448 16.3873 25.009 16.1272C25.2408 15.9646 25.1415 15.8345 24.9097 15.7694C24.7441 15.7044 24.711 15.7694 24.6117 15.8345ZM35.8374 1.55805C35.8374 1.59057 35.8042 1.62309 35.7711 1.65561C35.738 1.65561 35.7049 1.62309 35.6718 1.59057C35.6718 1.46049 35.6718 1.33041 35.738 1.20033C35.7711 1.07025 35.8705 0.972685 35.9367 0.875124C35.9698 0.842603 36.0029 0.842603 36.036 0.875124C36.0692 0.907644 36.0692 0.940164 36.036 0.972685C35.9698 1.07025 35.9036 1.13529 35.8705 1.26537C35.8374 1.33041 35.8374 1.42797 35.8374 1.55805ZM35.5062 1.36293C35.4731 1.62309 35.5724 1.88325 35.7711 2.1109C35.9698 2.33854 36.2347 2.4361 36.4996 2.46862C36.7646 2.50114 37.0295 2.40358 37.2613 2.20846C37.4931 2.01333 37.5924 1.75317 37.6255 1.49301C37.6586 1.23285 37.5593 0.972685 37.3606 0.745042C37.1619 0.5174 36.897 0.419839 36.6321 0.387319C36.3672 0.354798 36.1023 0.452359 35.8705 0.647481C35.6387 0.842603 35.5393 1.10277 35.5062 1.36293ZM35.6387 2.20846C35.4069 1.94829 35.3075 1.65561 35.3406 1.33041C35.3738 1.03773 35.5062 0.745042 35.738 0.5174C36.0029 0.289758 36.301 0.192197 36.6321 0.224717C36.9301 0.257237 37.2281 0.387319 37.4599 0.614961C37.6917 0.875124 37.7911 1.16781 37.758 1.49301C37.7249 1.78569 37.5924 2.07838 37.3606 2.30602C37.0957 2.53366 36.7977 2.63122 36.4665 2.5987C36.1685 2.5987 35.8705 2.46862 35.6387 2.20846ZM35.5062 2.33854C35.0095 1.78569 35.0426 0.907644 35.6387 0.419839C36.2016 -0.0679658 37.0957 -0.0354455 37.5924 0.54992C37.6586 0.647481 37.7249 0.745042 37.7911 0.842603L38.2547 0.647481C38.2547 0.48488 38.354 0.289758 38.6189 0.192197L38.9832 0.0621155C39.215 -0.0354455 39.4799 0.0946358 39.5793 0.322278C39.6786 0.54992 39.5461 0.810083 39.3143 0.907644L38.9501 1.03773C38.6852 1.13529 38.4865 1.07025 38.354 0.940164L37.8904 1.13529C38.0229 1.62309 37.8904 2.14342 37.4599 2.50114C36.897 2.95642 36.036 2.89138 35.5062 2.33854ZM20.7042 3.34667C20.5386 3.18407 19.6114 3.86699 19.8763 4.15968L20.7042 3.34667ZM25.6382 4.61496C25.6713 4.58244 25.7044 4.58244 25.7375 4.58244C25.7706 4.61496 25.7706 4.64748 25.7706 4.68C25.6382 4.87512 25.4726 5.03772 25.307 5.16781C25.1415 5.29789 24.9759 5.39545 24.7772 5.46049L24.8434 5.62309C24.9759 5.94829 25.009 5.98081 24.6117 6.04586C23.6845 6.24098 21.3333 6.40358 20.075 4.45236L19.9757 4.54992C19.9094 4.64748 19.777 4.48488 19.8101 4.41984L20.8035 3.44423L20.9029 3.34667C20.936 3.31415 21.1347 3.37919 21.0684 3.47675L20.936 3.60683C21.1678 3.89951 21.3996 4.09464 21.6314 4.28976L21.3002 4.68C21.2671 4.71252 21.2671 4.77756 21.3002 4.77756C21.3333 4.81008 21.3996 4.81008 21.3996 4.77756L21.7307 4.38732C21.9294 4.5174 22.1612 4.64748 22.3599 4.71252L22.1943 5.16781C22.1943 5.20033 22.1943 5.26537 22.2605 5.26537C22.2937 5.26537 22.3599 5.26537 22.3599 5.20033L22.5255 4.74504C22.7573 4.81008 22.9891 4.87512 23.2209 4.90764L23.254 5.42797C23.254 5.46049 23.2871 5.49301 23.3202 5.49301C23.3533 5.49301 23.3864 5.46049 23.3864 5.42797L23.3533 4.94016C23.6513 4.97268 23.9163 4.94016 24.1149 4.90764C24.5123 4.8426 24.5123 4.71252 24.6448 5.00521L24.7772 5.33041C24.9428 5.26537 25.1084 5.16781 25.2408 5.07025C25.3733 4.94016 25.5057 4.77756 25.6382 4.61496ZM24.4461 8.12716C24.4461 8.15968 24.413 8.1922 24.3467 8.1922C24.3136 8.1922 24.2805 8.15968 24.2805 8.09464C24.3136 7.96455 24.3467 7.80195 24.4461 7.70439C24.5123 7.57431 24.6448 7.47675 24.7441 7.41171C24.7772 7.37919 24.8434 7.41171 24.8434 7.44423C24.8766 7.47675 24.8435 7.54179 24.8103 7.54179C24.711 7.60683 24.6117 7.70439 24.5454 7.80195C24.5123 7.89951 24.4792 7.99707 24.4461 8.12716ZM25.2408 9.36293C25.572 9.36293 25.8369 9.23285 26.0687 9.03773C26.2674 8.8426 26.3998 8.54992 26.3998 8.22472C26.3998 7.89951 26.2674 7.63935 26.0687 7.41171C25.87 7.21659 25.572 7.08651 25.2408 7.08651C24.9097 7.08651 24.6448 7.21659 24.413 7.41171C24.2143 7.60683 24.0818 7.89951 24.0818 8.22472C24.0818 8.54992 24.2143 8.81008 24.413 9.03773C24.6448 9.23285 24.9097 9.36293 25.2408 9.36293ZM25.2408 9.52553C24.8766 9.52553 24.5454 9.39545 24.3136 9.16781C24.0818 8.94016 23.9163 8.61496 23.9163 8.25724C23.9163 7.89951 24.0487 7.57431 24.2805 7.34667C24.5123 7.11903 24.8434 6.95642 25.2077 6.95642C25.572 6.95642 25.9031 7.0865 26.1349 7.31415C26.3667 7.54179 26.5323 7.86699 26.5323 8.22472C26.5323 8.58244 26.3998 8.90764 26.168 9.13529C25.9362 9.36293 25.6051 9.52553 25.2408 9.52553ZM25.2408 9.72065C24.413 9.72065 23.7176 9.07025 23.7176 8.22472C23.7176 7.41171 24.3799 6.72878 25.2408 6.72878C25.3733 6.72878 25.5057 6.72878 25.6051 6.7613L25.7706 6.2735C25.6382 6.14342 25.572 5.94829 25.6382 5.75317L25.7706 5.36293C25.87 5.10277 26.1349 4.97268 26.3998 5.07025C26.6647 5.16781 26.7972 5.42797 26.6978 5.68813L26.5654 6.07838C26.4992 6.30602 26.2674 6.4361 26.0356 6.40358L25.87 6.89138C26.3667 7.11903 26.731 7.63935 26.731 8.22472C26.7641 9.03773 26.1018 9.72065 25.2408 9.72065ZM32.5922 18.5011C32.7246 18.6312 32.9233 18.7288 33.122 18.7288C33.3207 18.7288 33.5194 18.6312 33.6518 18.5011C33.7843 18.3711 33.8836 18.1759 33.8836 17.9808C33.8836 17.7857 33.7843 17.5906 33.6518 17.4605C33.5194 17.3304 33.3207 17.2328 33.122 17.2328C32.9233 17.2328 32.7246 17.3304 32.5922 17.4605C32.4597 17.5906 32.3604 17.7857 32.3604 17.9808C32.3604 18.1759 32.4597 18.3711 32.5922 18.5011ZM33.122 18.8914C32.8571 18.8914 32.6253 18.7938 32.4597 18.6312C32.2941 18.4686 32.1948 18.241 32.1948 17.9808C32.1948 17.7207 32.2941 17.493 32.4597 17.3304C32.6253 17.1678 32.8571 17.0702 33.122 17.0702C33.3869 17.0702 33.6187 17.1678 33.7843 17.3304C33.9498 17.493 34.0492 17.7207 34.0492 17.9808C34.0492 18.241 33.9498 18.4686 33.7843 18.6312C33.6187 18.7938 33.3869 18.8914 33.122 18.8914ZM32.6915 17.7532C32.6584 17.7857 32.6253 17.8182 32.5922 17.7857C32.5591 17.7532 32.5259 17.7207 32.5591 17.6881C32.5922 17.6231 32.6253 17.5581 32.6915 17.5255C32.7577 17.4605 32.824 17.428 32.8902 17.428C32.9233 17.428 32.9895 17.428 32.9895 17.4605C32.9895 17.493 32.9895 17.5581 32.9564 17.5581C32.9233 17.5906 32.8571 17.5906 32.824 17.6231C32.7246 17.6881 32.6915 17.7207 32.6915 17.7532ZM33.122 19.054C32.5259 19.054 32.0292 18.5662 32.0292 17.9808C32.0292 17.3954 32.5259 16.9076 33.122 16.9076C33.5856 16.9076 33.983 17.2003 34.1485 17.5906C35.2413 17.3304 36.7314 17.0377 37.0626 15.0215C37.0957 14.8263 37.2613 14.5662 37.4599 14.5662C37.8242 14.5337 37.8242 14.9564 37.7911 15.119C37.3606 16.7125 35.738 17.8833 34.2479 17.9808C34.2148 18.5662 33.7512 19.054 33.122 19.054ZM24.6117 3.86699C25.307 3.73691 25.9693 3.50927 26.3336 3.41171C26.3667 3.44423 26.4329 3.50927 26.466 3.60683C26.5323 3.70439 26.6647 4.22472 26.5654 4.22472C26.5654 4.22472 26.4992 4.22472 26.3998 4.25724L26.168 3.60683C26.1349 3.57431 26.1018 3.54179 26.0687 3.57431C26.0356 3.60683 26.0024 3.63935 26.0356 3.67187L26.2674 4.22472C26.2342 4.22472 26.168 4.22472 26.1349 4.22472C25.9693 4.25724 25.8369 4.25724 25.6713 4.28976L25.5057 3.86699C25.4726 3.83447 25.4395 3.80195 25.4064 3.83447C25.3733 3.86699 25.3402 3.89951 25.3733 3.93203L25.5388 4.3548C25.4726 4.3548 25.4064 4.38732 25.3733 4.38732C25.307 4.41984 25.1415 4.45236 25.0421 4.48488C24.9759 4.48488 24.9759 4.5174 24.9428 4.5174C24.8435 4.41984 24.711 4.1922 24.6779 3.99707C24.6448 3.93203 24.6117 3.89951 24.6117 3.86699ZM22.8235 3.57431C22.8566 3.57431 22.8897 3.60683 22.8897 3.67187C22.8897 3.70439 22.8566 3.73691 22.7904 3.73691C22.5917 3.70439 22.3599 3.67187 22.1943 3.57431C21.9956 3.50927 21.8301 3.41171 21.6645 3.28163C21.6314 3.24911 21.6314 3.21659 21.6645 3.18407C21.6976 3.15155 21.7307 3.15155 21.7638 3.18407C21.8963 3.31415 22.0619 3.37919 22.2274 3.44423C22.393 3.47675 22.5917 3.54179 22.8235 3.57431ZM26.5654 3.37919C26.6978 3.34667 26.6316 2.95642 26.3005 3.02147C25.4726 3.11903 24.1481 3.73691 22.9559 3.54179C21.4658 3.28163 21.9294 2.7613 21.4327 2.82634C21.234 2.85886 21.1678 3.15155 21.2671 3.24911C22.0287 4.15968 23.3533 4.12716 24.4792 3.89951C24.4792 3.93203 24.4792 3.99707 24.5123 4.0296C24.5785 4.25724 24.711 4.48488 24.8103 4.61496C24.8435 4.64748 24.9428 4.64748 25.0421 4.64748C25.1746 4.61496 25.3402 4.58244 25.4064 4.54992C25.6051 4.48488 25.9031 4.45236 26.168 4.41984C26.2342 4.41984 26.3336 4.38732 26.3998 4.38732C26.5654 4.3548 26.6647 4.32228 26.731 4.28976C26.8634 4.09464 26.7641 3.70439 26.6316 3.50927C26.6316 3.44423 26.5985 3.41171 26.5654 3.37919ZM32.7577 4.68C32.7577 4.64748 32.7909 4.61496 32.824 4.61496C32.8571 4.61496 32.8902 4.64748 32.8902 4.68C32.8902 4.90764 32.8902 5.23285 32.8571 5.49301C32.8571 5.85073 32.8571 6.14342 32.8571 6.2735C32.8571 6.30602 32.824 6.33854 32.7909 6.33854C32.7577 6.33854 32.7246 6.30602 32.7246 6.2735C32.7246 6.14342 32.7246 5.81821 32.7246 5.49301C32.7246 5.20033 32.7246 4.90764 32.7577 4.68ZM33.6518 0.680002C33.6187 0.680002 33.5856 0.647481 33.5856 0.614961C33.5856 0.582441 33.6187 0.54992 33.6518 0.54992H34.3472C34.3803 0.48488 34.3803 0.452359 34.4134 0.387319C34.4134 0.387319 34.3803 0.354798 34.3472 0.322278C34.281 0.289758 34.2148 0.257237 34.1154 0.257237C33.8174 0.192197 33.3869 0.224717 33.2213 0.289758C33.1551 0.322278 33.1551 0.354798 33.122 0.387319C33.122 0.419839 33.122 0.419839 33.122 0.452359V2.14342H33.1551C33.3207 2.14342 33.5194 2.14342 33.6849 2.14342C33.7843 2.14342 33.8505 2.14342 33.9167 2.14342C34.1154 2.14342 34.1816 2.14342 34.2148 2.1109C34.2148 2.1109 34.2148 2.07838 34.2148 2.01333C34.2148 1.98081 34.2148 1.91577 34.2148 1.85073H33.3869C33.3538 1.85073 33.3207 1.81821 33.3207 1.78569C33.3207 1.75317 33.3538 1.72065 33.3869 1.72065H34.2148C34.2148 1.68813 34.2148 1.62309 34.2148 1.59057C34.2148 1.36293 34.2148 1.07025 34.3141 0.745042H33.6518V0.680002ZM32.8571 0.127156C32.9233 0.127156 32.9895 0.159676 33.0558 0.224717C33.0889 0.192197 33.122 0.159676 33.1882 0.127156C33.3538 0.0621155 33.8174 0.0295952 34.1485 0.0946358C34.2479 0.127156 34.3472 0.127156 34.4134 0.159676C34.5128 0.192197 34.5459 0.257237 34.579 0.354798C34.579 0.387319 34.579 0.419839 34.5459 0.452359C34.3141 0.907644 34.3141 1.26537 34.3472 1.52553C34.3472 1.59057 34.3472 1.62309 34.3472 1.68813C34.3472 1.72065 34.3472 1.72065 34.3472 1.75317C34.3472 1.85073 34.3472 1.91577 34.3472 1.94829C34.3472 2.07838 34.3803 2.1109 34.3141 2.17594C34.2479 2.24098 34.1485 2.24098 33.9498 2.24098C33.8836 2.24098 33.8174 2.24098 33.718 2.24098C33.5194 2.24098 33.3207 2.24098 33.1882 2.24098H33.1551V6.4361C33.1551 6.82634 32.6253 6.69626 32.6253 6.37106V0.322278C32.6253 0.224717 32.7246 0.127156 32.8571 0.127156ZM34.6121 5.20033C34.6784 5.29789 34.7115 5.39545 34.7115 5.49301C34.7115 5.78569 34.4797 6.01333 34.1816 6.01333C34.0492 6.01333 33.9167 5.98081 33.8174 5.88325L34.6121 5.20033ZM34.1816 4.97268C34.3141 4.97268 34.4466 5.00521 34.5459 5.10277L33.7512 5.81821C33.6849 5.72065 33.6518 5.62309 33.6518 5.52553C33.6187 5.20033 33.8836 4.97268 34.1816 4.97268ZM34.8439 13.2654C34.877 13.2654 34.9102 13.2979 34.9102 13.3304C34.9102 13.3629 34.877 13.3954 34.8439 13.3954C34.6784 13.3954 34.4797 13.428 34.3141 13.493C34.1485 13.5581 33.983 13.6556 33.8505 13.7532C33.8174 13.7857 33.7512 13.7857 33.7512 13.7532C33.718 13.7207 33.718 13.6556 33.7512 13.6556C33.9167 13.5255 34.0823 13.428 34.2479 13.3629C34.4466 13.2979 34.6452 13.2654 34.8439 13.2654ZM32.8571 15.5418C33.8505 17.3954 36.036 16.8426 36.3672 15.802C36.599 15.1515 36.2347 15.4442 35.8705 15.6394C35.2082 15.9971 34.0823 16.4524 33.3207 14.9889C33.1882 15.1841 33.0558 15.3792 32.8571 15.5418ZM30.4729 13.9158C30.6053 14.1434 30.6715 13.9483 30.7709 13.8507C31.3007 13.3629 32.1948 14.0784 32.4597 14.5987C32.4928 14.5337 32.5259 14.5011 32.5922 14.4361C32.6584 14.306 32.7577 14.1759 32.8902 14.0459C32.824 13.9483 32.7577 13.8507 32.6584 13.7532C32.3935 13.4605 31.8968 13.2654 31.4663 13.2328C30.8702 13.2328 30.3735 13.7857 30.4729 13.9158ZM30.4729 14.8914C30.5391 14.8263 30.6715 14.7938 30.6715 14.8263C30.8702 15.1841 31.6981 15.9971 32.6253 14.5662C34.3472 11.9971 36.8639 13.4605 36.4996 13.9483C36.301 14.241 36.1685 13.2979 34.4466 13.7532C33.5194 13.9808 33.3869 15.2491 32.4266 15.7369C32.0955 15.8995 31.3669 15.9971 30.9365 15.7369C30.7047 15.6068 30.3404 14.9889 30.4729 14.8914ZM32.1948 12.5174C32.1617 12.5499 32.0955 12.5174 32.0955 12.4849C32.0623 12.4524 32.0955 12.3873 32.1286 12.3873C32.1948 12.3548 32.261 12.2898 32.3273 12.2572C32.3935 12.1922 32.4266 12.1272 32.4928 12.0621C32.5259 12.0296 32.5591 12.0296 32.5922 12.0296C32.6253 12.0621 32.6253 12.0946 32.6253 12.1272C32.5591 12.1922 32.5259 12.2898 32.4597 12.3548C32.3273 12.4198 32.261 12.4849 32.1948 12.5174ZM32.0623 12.9727L32.9564 12.9076C33.122 12.9076 33.1882 12.68 33.1882 12.5174V11.4767C33.1882 11.4117 33.122 11.3792 33.0558 11.4117C32.9895 11.4442 32.8571 11.4442 32.7246 11.4767C32.4597 11.5418 32.5591 11.5418 32.4597 11.7369C32.3935 11.8995 32.1948 12.2247 31.963 12.3548C31.7312 12.4849 31.7312 12.3873 31.8305 12.615L31.9299 12.9076C31.963 12.9727 31.9961 12.9727 32.0623 12.9727ZM32.8902 11.3141H32.9233C33.0889 11.3141 33.0889 11.3467 33.122 11.1841C33.122 11.1515 33.122 11.119 33.1551 11.0865C33.1882 10.8914 33.1882 10.9239 32.9895 10.8589C32.8571 10.8263 32.824 10.7938 32.7909 11.0215C32.7909 11.0865 32.7577 11.1515 32.7577 11.1841C32.7246 11.3467 32.6915 11.3141 32.8902 11.3141ZM32.8571 8.45236C32.8571 8.41984 32.8902 8.3548 32.9233 8.3548C32.9564 8.3548 33.0227 8.38732 33.0227 8.41984C33.0558 8.68 33.0889 8.94016 33.0889 9.23285C33.0889 9.49301 33.0558 9.78569 33.0227 10.0784C33.0227 10.1109 32.9895 10.1434 32.9233 10.1434C32.8902 10.1434 32.8571 10.1109 32.8571 10.0459C32.8902 9.78569 32.9233 9.49301 32.9233 9.23285C32.9233 8.97268 32.9233 8.71252 32.8571 8.45236ZM33.3207 10.8914C33.4862 10.9889 33.718 10.8914 33.7843 10.7288C34.0823 10.0784 34.5459 7.08651 33.4862 7.24911L33.0227 7.31415C32.6253 7.37919 32.6584 7.34667 32.6584 7.80195V9.78569C32.6584 9.94829 32.6584 10.0784 32.6253 10.241C32.5591 10.6312 32.4266 10.5987 32.7909 10.7288C32.9895 10.7288 33.1551 10.7938 33.3207 10.8914ZM30.8371 12.9076H31.1683C31.3007 12.9076 31.4001 12.9076 31.5325 12.9076C31.7643 12.9076 31.7312 12.9402 31.6981 12.68C31.665 12.4849 31.6981 12.4524 31.5325 12.5174C31.4001 12.5824 31.2676 12.615 31.1351 12.68L30.8371 12.8101C30.804 12.745 30.7047 12.7125 30.6384 12.745C30.5391 12.7776 30.506 12.8751 30.5391 12.9402C30.5722 13.0377 30.6715 13.0702 30.7378 13.0377C30.804 13.0052 30.8371 12.9727 30.8371 12.9076ZM28.3867 14.9564C28.3536 14.9564 28.3204 14.9239 28.3204 14.8589C28.3204 14.8263 28.3536 14.7938 28.4198 14.7938C28.486 14.7938 28.5522 14.8263 28.6185 14.8589C28.6847 14.8914 28.7178 14.9564 28.7509 15.0215C28.784 15.054 28.784 15.0865 28.784 15.119C28.784 15.1515 28.784 15.1841 28.784 15.2166C28.784 15.2491 28.7509 15.2816 28.6847 15.2816C28.6516 15.2816 28.6185 15.2491 28.6185 15.1841C28.6185 15.1515 28.6185 15.1515 28.6185 15.119C28.6185 15.0865 28.6185 15.0865 28.5854 15.054C28.5522 15.0215 28.5522 14.9889 28.486 14.9564C28.486 14.9889 28.4529 14.9564 28.3867 14.9564ZM28.9496 15.7694C29.5125 14.8263 28.1549 13.8833 26.8965 15.2166C26.5654 15.5743 26.5323 15.8995 26.8303 16.2572C26.7641 16.5174 26.7641 17.0052 27.2608 17.2328C28.9165 18.0133 29.8437 16.7776 29.0158 15.932C29.5788 15.9971 29.9099 15.5743 30.0755 15.3467C30.1086 15.3141 30.1417 15.2816 30.1417 15.2491C30.1748 15.2491 30.1748 15.2491 30.2079 15.2166C30.2411 15.1841 30.2411 15.1515 30.2079 15.119C30.1748 15.054 30.1086 15.054 30.0424 15.119C30.0093 15.1515 29.9761 15.1841 29.943 15.2491C29.7775 15.4767 29.4794 15.867 28.9496 15.7694ZM21.2009 9.52553C21.1347 9.49301 21.1015 9.55805 21.1015 9.59057C21.0022 9.75317 20.4393 10.2735 20.2737 10.3385C20.2406 10.3711 20.1744 10.3711 20.2075 10.4361C20.2406 10.5011 20.3068 10.4686 20.3399 10.4361C20.6048 10.2735 21.3665 9.65561 21.2009 9.52553ZM19.9757 6.89138C20.5055 6.85886 21.4658 7.15155 20.7373 8.02959C23.0222 8.77756 21.1678 10.2735 20.1412 11.3467C19.9757 11.5093 19.8763 11.5093 19.8432 11.2491L19.8101 10.8263C19.777 10.5337 19.777 10.5987 20.0088 10.4036C20.7373 9.78569 21.9294 9.0052 20.6379 8.54992C19.5452 8.1922 20.4393 7.73691 20.5055 7.57431C20.5386 7.31415 20.2075 7.31415 19.9757 7.34667C19.777 7.37919 19.8101 7.31415 19.8101 7.21659V7.11903C19.7439 6.89138 19.777 6.89138 19.9757 6.89138ZM21.9625 8.77756C21.8301 8.5174 21.6976 8.25724 21.5983 8.06212C21.4658 7.76943 21.3665 7.50927 21.3002 7.24911C21.234 6.95642 21.2671 6.69626 21.3996 6.53366C21.5983 6.30602 22.1943 6.33854 22.4592 6.37106C22.691 6.40358 22.9228 6.4361 23.1215 6.56618C23.3202 6.69626 23.4858 6.85886 23.5851 7.11903C23.7176 7.67187 23.5189 8.68 23.0222 9.13529C22.4923 9.65561 22.2274 9.26537 21.9625 8.77756ZM21.7969 6.53366C21.5651 6.53366 21.3002 6.89138 21.4658 6.89138C21.5651 6.89138 21.532 6.79382 21.6314 6.69626C21.6976 6.66374 21.7969 6.63122 21.8301 6.63122C21.8632 6.5987 21.8632 6.53366 21.7969 6.53366ZM22.8235 8.71252C23.0222 8.48488 23.254 7.60683 23.1877 7.31415C23.1546 7.18407 23.0553 7.08651 22.9559 7.02146C22.8235 6.95642 22.6579 6.89138 22.4923 6.89138C22.1943 6.85886 21.6976 6.82634 21.7638 7.24911C21.7969 7.47675 21.8632 7.67187 21.9956 7.93203C22.1281 8.25724 22.4923 9.10277 22.8235 8.71252ZM30.6384 16.4198C30.7378 16.5499 30.7709 16.745 30.7047 16.9076C30.6053 17.2003 30.3073 17.3304 30.0093 17.2328C29.943 17.2003 29.9099 17.2003 29.8768 17.1678L30.6384 16.4198ZM29.6781 16.5824C29.7775 16.2898 30.0755 16.1597 30.3735 16.2572C30.4397 16.2898 30.4729 16.2898 30.506 16.3223L29.7443 17.0702C29.645 16.9402 29.6119 16.745 29.6781 16.5824ZM35.738 14.1434C35.8374 14.241 35.8705 14.3711 35.8374 14.4686C35.8374 14.5987 35.7711 14.6963 35.6718 14.7938L35.0095 15.3467C34.9102 15.4442 34.7777 15.4768 34.6784 15.4442C34.5459 15.4442 34.4466 15.3792 34.3472 15.2816C34.2479 15.1841 34.2148 15.054 34.2479 14.9564C34.2479 14.8263 34.3141 14.7288 34.4134 14.6312L35.0757 14.0784C35.1751 13.9808 35.3075 13.9483 35.4069 13.9808C35.5062 14.0133 35.6387 14.0459 35.738 14.1434ZM34.8108 14.5337L34.5128 14.7938C34.4466 14.8589 34.4134 14.9239 34.4134 14.9889C34.4134 15.054 34.4466 15.1515 34.4797 15.2166C34.5459 15.2816 34.6121 15.3141 34.6784 15.3141C34.7446 15.3141 34.8439 15.2816 34.9102 15.2491L35.2082 14.9889L34.8108 14.5337ZM20.936 12.615C20.9691 12.5824 21.0353 12.5824 21.0684 12.615C21.0684 12.615 21.1015 12.6475 21.1015 12.68C21.0353 12.745 20.9691 12.7776 20.8697 12.7776C20.8035 12.8101 20.7042 12.8101 20.6379 12.7776C20.6048 12.7776 20.5386 12.745 20.5055 12.7125C20.4724 12.68 20.4393 12.6475 20.4061 12.615C20.373 12.5824 20.373 12.5174 20.4061 12.4849C20.4393 12.4524 20.5055 12.4524 20.5386 12.4849C20.5717 12.5174 20.5717 12.5174 20.6048 12.5499C20.6379 12.5499 20.6711 12.5824 20.7042 12.5824C20.7704 12.5824 20.8035 12.5824 20.8697 12.5824C20.8366 12.68 20.9029 12.6475 20.936 12.615ZM21.1015 12.9076C20.9691 13.0052 20.8035 13.0377 20.6379 13.0377C20.4724 13.0052 20.3068 12.9402 20.2075 12.8101C20.1081 12.68 20.075 12.5174 20.075 12.3548C20.1081 12.1922 20.1744 12.0296 20.3068 11.932C21.2671 11.2166 22.2274 10.4686 23.1877 9.75317C23.1546 9.68813 23.1215 9.62309 23.1546 9.59057C23.1546 9.52553 23.1877 9.46049 23.254 9.42797C23.3202 9.39545 23.3864 9.36293 23.4195 9.39545C23.4858 9.39545 23.552 9.42797 23.5851 9.49301L24.3799 10.5011C24.413 10.5662 24.4461 10.6312 24.413 10.6637C24.413 10.7288 24.3799 10.7938 24.3136 10.8263C24.2474 10.8589 24.1812 10.8914 24.1481 10.8589C24.0818 10.8589 24.0156 10.8263 23.9825 10.7613C23.0222 11.4767 22.0619 12.1922 21.1015 12.9076ZM24.0487 10.5662L24.1149 10.6637L24.1481 10.6963H24.1812L24.2143 10.6637V10.6312L23.4195 9.62309L23.3864 9.59057H23.3533L23.3202 9.62309V9.65561L23.3864 9.75317C23.4195 9.78569 23.4195 9.85073 23.3533 9.88325L22.2605 10.6963L22.8235 11.4117L23.9163 10.5662C23.9825 10.5011 24.0156 10.5337 24.0487 10.5662ZM38.4203 9.85073C38.4203 9.78569 38.3871 9.75317 38.3209 9.75317C38.2878 9.75317 38.2878 9.75317 38.2547 9.78569C38.2547 9.88325 38.2547 9.94829 38.2878 10.0459C38.3209 10.1109 38.3871 10.1759 38.4534 10.241C38.4865 10.2735 38.5196 10.306 38.5858 10.306C38.6189 10.3385 38.6852 10.3385 38.7183 10.3385C38.7514 10.3385 38.8176 10.306 38.8176 10.241C38.8176 10.1759 38.7845 10.1434 38.7514 10.1434C38.7183 10.1434 38.6852 10.1434 38.6521 10.1109C38.6189 10.1109 38.5858 10.0784 38.5858 10.0784C38.5527 10.0459 38.5196 10.0133 38.4865 9.94829C38.4203 9.94829 38.4203 9.88325 38.4203 9.85073ZM38.0891 9.91577C38.0891 10.1109 38.1553 10.2735 38.2878 10.3711C38.4203 10.5011 38.5858 10.5662 38.7514 10.5662C38.917 10.5662 39.0825 10.5011 39.215 10.3711C39.3475 10.241 39.4137 10.0784 39.4137 9.91577C39.4137 8.68 39.4137 7.44423 39.4137 6.20846H39.4468C39.513 6.20846 39.5793 6.17594 39.6124 6.14342C39.6455 6.1109 39.6786 6.04585 39.6786 5.98081C39.6786 5.91577 39.6455 5.85073 39.6124 5.81821C39.5793 5.78569 39.513 5.75317 39.4468 5.75317H38.0891C38.0229 5.75317 37.9567 5.78569 37.9235 5.81821C37.8904 5.85073 37.8573 5.91577 37.8573 5.98081C37.8573 6.04585 37.8904 6.1109 37.9235 6.14342C37.9567 6.17594 38.0229 6.20846 38.0891 6.20846C38.0891 7.44423 38.0891 8.68 38.0891 9.91577ZM38.1553 6.01333H38.056C38.056 6.01333 38.0229 6.01333 38.0229 5.98081L37.9898 5.94829C37.9898 5.94829 37.9898 5.91577 38.0229 5.91577L38.056 5.88325H39.4137C39.4137 5.88325 39.4468 5.88325 39.4468 5.91577L39.4799 5.94829C39.4799 5.94829 39.4799 5.98081 39.4468 5.98081L39.4137 6.01333H39.3143C39.2481 6.01333 39.215 6.04586 39.215 6.1109V7.50927H38.2878V6.07838C38.2547 6.07838 38.2216 6.01333 38.1553 6.01333ZM35.4731 9.55805C35.44 9.59057 35.3738 9.55805 35.3406 9.52553C35.3075 9.49301 35.3406 9.42797 35.3738 9.39545C35.44 9.36293 35.5393 9.33041 35.6387 9.33041C35.738 9.33041 35.8042 9.36293 35.8705 9.39545C35.9036 9.42797 35.9698 9.46049 36.0029 9.49301C36.036 9.52553 36.0692 9.55805 36.1023 9.59057C36.1354 9.62309 36.1023 9.68813 36.0692 9.72065C36.036 9.75317 35.9698 9.72065 35.9367 9.68813C35.9367 9.65561 35.9036 9.62309 35.8705 9.62309C35.8374 9.59057 35.8374 9.59057 35.8042 9.55805C35.738 9.52553 35.7049 9.52553 35.6387 9.52553C35.5724 9.52553 35.5062 9.55805 35.4731 9.55805ZM36.599 9.94829C36.3672 8.61496 34.3141 8.8426 34.3141 11.0215C34.3141 11.6068 34.4466 11.6394 35.0757 11.9971C35.2413 12.2572 35.6387 12.7125 36.2678 12.5174C38.354 11.8995 38.1885 10.1109 36.8308 9.98081C37.3275 9.59057 37.2613 9.0052 37.2282 8.68C37.2282 8.61496 37.2282 8.58244 37.2282 8.54992C37.2613 8.54992 37.2613 8.5174 37.2613 8.48488C37.2613 8.41984 37.2282 8.38732 37.195 8.38732C37.0957 8.38732 37.0626 8.41984 37.0626 8.48488C37.0626 8.5174 37.0626 8.61496 37.0626 8.68C37.0626 9.03772 37.1288 9.62309 36.599 9.94829ZM34.4466 11.9971C34.5459 12.1272 34.579 12.2898 34.5128 12.4524C34.4134 12.7125 34.1485 12.8426 33.8836 12.745C33.8505 12.7125 33.7843 12.7125 33.7512 12.68L34.4466 11.9971ZM33.5856 12.1272C33.6849 11.867 33.9498 11.7369 34.2148 11.8345C34.2479 11.8345 34.3141 11.867 34.3472 11.8995L33.6518 12.5824C33.5525 12.4524 33.5194 12.2898 33.5856 12.1272ZM38.4203 1.75317V2.79382V2.82634C38.4203 2.82634 38.4203 2.82634 38.4534 2.82634H38.9501C38.9501 2.82634 38.9501 2.82634 38.9832 2.82634V2.79382V1.75317V1.72065C38.9832 1.72065 38.9832 1.72065 38.9501 1.72065H38.4534C38.4534 1.72065 38.4534 1.72065 38.4203 1.72065C38.4203 1.72065 38.4203 1.72065 38.4203 1.75317ZM38.3871 4.22472C38.4203 4.22472 38.4534 4.25724 38.4534 4.28976C38.4534 4.32228 38.4203 4.3548 38.3871 4.3548C38.354 4.3548 38.3209 4.32228 38.2878 4.32228C38.2547 4.28976 38.2547 4.28976 38.2216 4.25724C38.2216 4.22472 38.1885 4.1922 38.1885 4.1922C38.1885 4.15968 38.1885 4.12716 38.1885 4.12716C38.1885 4.09464 38.2547 4.06212 38.2878 4.09464C38.3209 4.09464 38.354 4.15968 38.3209 4.1922V4.22472V4.25724C38.3209 4.25724 38.3209 4.28976 38.354 4.28976L38.3871 4.22472C38.3871 4.22472 38.354 4.22472 38.3871 4.22472ZM38.6521 4.3548C38.7183 4.32228 38.8176 4.32228 38.917 4.32228C39.0163 4.28976 39.2812 4.25724 39.2812 4.12716C39.2812 4.06212 39.215 4.0296 39.1819 4.0296C39.1488 4.0296 39.1488 4.0296 39.1157 4.0296C39.0825 4.06212 39.0825 4.06212 38.9832 4.06212C38.917 4.06212 38.7845 3.99707 38.7845 3.89951C38.7845 3.80195 38.917 3.73691 38.9832 3.73691C39.0494 3.73691 39.0825 3.73691 39.1157 3.76943C39.1157 3.76943 39.1488 3.76943 39.1819 3.76943C39.2481 3.76943 39.2812 3.70439 39.2812 3.67187C39.2812 3.54179 39.0163 3.47675 38.917 3.47675C38.8176 3.44423 38.7183 3.44423 38.6521 3.44423C38.5527 3.41171 38.5196 3.34667 38.3871 3.34667C38.2216 3.34667 38.0891 3.47675 38.0891 3.63935C38.0891 3.76943 38.1553 3.80195 38.1553 3.89951C38.1553 4.02959 38.0891 4.02959 38.0891 4.15968C38.0891 4.32228 38.2216 4.45236 38.3871 4.45236C38.5196 4.45236 38.5527 4.38732 38.6521 4.3548ZM37.7911 4.77756V2.95642C37.7911 2.82634 37.8904 2.69626 38.056 2.69626H38.2878V2.79382C38.2878 2.82634 38.3209 2.89138 38.3209 2.9239C38.354 2.95642 38.3871 2.98895 38.4534 2.98895H38.9501C38.9832 2.98895 39.0494 2.95642 39.0825 2.9239C39.1157 2.89138 39.1157 2.85886 39.1157 2.79382V2.72878H39.3475C39.4799 2.72878 39.6124 2.82634 39.6124 2.98895V4.77756C39.6124 4.90764 39.513 5.03772 39.3475 5.03772H38.056C37.9235 5.0052 37.7911 4.90764 37.7911 4.77756ZM10.0414 3.83447C10.0745 3.80195 10.0745 3.76943 10.0745 3.73691L10.0414 3.70439C9.97518 3.73691 9.94207 3.76943 9.90895 3.80195C9.87584 3.83447 9.84273 3.89951 9.84273 3.96455C9.84273 3.99707 9.84273 4.02959 9.84273 4.06212C9.84273 4.09464 9.84273 4.12716 9.87584 4.15968C9.87584 4.1922 9.94207 4.1922 9.94207 4.1922C9.97518 4.1922 9.97518 4.12716 9.97518 4.09464C9.97518 4.06212 9.97518 4.06212 9.94207 4.0296C9.94207 3.99707 9.94207 3.99707 9.94207 3.96455C9.94207 3.93203 9.97518 3.89951 9.97518 3.86699C9.97518 3.89951 10.0083 3.86699 10.0414 3.83447ZM9.87584 3.67187C9.7765 3.73691 9.71027 3.83447 9.67716 3.93203C9.64404 4.0296 9.67716 4.15968 9.71027 4.25724C9.7765 4.3548 9.87584 4.41984 9.97518 4.45236C10.0745 4.48488 10.207 4.45236 10.3063 4.41984C11.0348 3.99707 11.7302 3.57431 12.4587 3.15155C12.4919 3.18407 12.525 3.21659 12.5581 3.21659C12.5912 3.21659 12.6574 3.21659 12.6905 3.18407C12.7237 3.15155 12.7568 3.11903 12.7568 3.08651C12.7568 3.05399 12.7568 2.98894 12.7237 2.95642L12.2601 2.17594C12.2269 2.14342 12.1938 2.1109 12.1607 2.1109C12.1276 2.1109 12.0614 2.1109 12.0283 2.14342C11.9951 2.17594 11.962 2.20846 11.962 2.24098C11.962 2.2735 11.962 2.33854 11.9951 2.37106C11.2998 2.82634 10.6044 3.24911 9.87584 3.67187ZM12.1607 2.40358L12.1276 2.33854V2.30602C12.1276 2.30602 12.1276 2.2735 12.1607 2.2735H12.1938C12.1938 2.2735 12.2269 2.2735 12.2269 2.30602L12.6905 3.08651V3.11903C12.6905 3.11903 12.6905 3.15155 12.6574 3.15155H12.6243C12.6243 3.15155 12.5912 3.15155 12.5912 3.11903L12.5581 3.05399C12.525 3.02147 12.4919 3.02147 12.4587 3.02147L11.6309 3.50927L11.2998 2.98895L12.1276 2.50114C12.1938 2.46862 12.1938 2.4361 12.1607 2.40358ZM6.0346 2.79382L5.63723 3.63935V3.67187L6.0346 3.86699C6.0346 3.86699 6.0346 3.86699 6.06771 3.86699C6.06771 3.86699 6.10082 3.86699 6.10082 3.83447L6.49819 2.98895V2.95642L6.10082 2.7613C6.06771 2.7613 6.06771 2.7613 6.0346 2.79382C6.06771 2.79382 6.06771 2.79382 6.0346 2.79382ZM5.1074 4.74504C5.14051 4.77756 5.14051 4.81008 5.1074 4.8426C5.07429 4.87512 5.04117 4.87512 5.00806 4.8426C4.97494 4.81008 4.97494 4.81008 4.94183 4.77756C4.94183 4.74504 4.90871 4.71252 4.90871 4.71252C4.90871 4.68 4.90871 4.68 4.90871 4.64748C4.90871 4.61496 4.94183 4.61496 4.94183 4.58244C4.97494 4.54992 5.00806 4.54992 5.04117 4.58244C5.07429 4.61496 5.07429 4.64748 5.04117 4.68C5.04117 4.68 5.04117 4.68 5.04117 4.71252C5.04117 4.71252 5.04117 4.71252 5.04117 4.74504C5.07429 4.71252 5.07429 4.71252 5.1074 4.74504C5.07429 4.74504 5.07429 4.74504 5.1074 4.74504ZM5.27297 4.97268C5.3392 4.97268 5.43854 5.0052 5.50477 5.03772C5.60411 5.07025 5.83591 5.10277 5.86903 5.00521C5.90214 4.94016 5.86903 4.90764 5.83591 4.87512H5.8028C5.76968 4.87512 5.73657 4.87512 5.70345 4.87512C5.63723 4.8426 5.571 4.77756 5.60411 4.68C5.63723 4.58244 5.76968 4.58244 5.83591 4.61496C5.90214 4.64748 5.90214 4.64748 5.90214 4.68L5.93525 4.71252C6.00148 4.74504 6.0346 4.71252 6.06771 4.68C6.10082 4.58244 5.90214 4.45236 5.83591 4.38732C5.76968 4.3548 5.67034 4.28976 5.63723 4.25724C5.571 4.1922 5.571 4.12716 5.47166 4.09464C5.3392 4.0296 5.17363 4.09464 5.14051 4.22472C5.07429 4.32228 5.14051 4.3548 5.1074 4.48488C5.07429 4.58244 5.00806 4.54992 4.94183 4.68C4.8756 4.81008 4.94183 4.97268 5.07429 5.03772C5.1074 5.0052 5.17363 4.94016 5.27297 4.97268ZM4.412 4.97268L5.07429 3.54179C5.14051 3.44423 5.27297 3.37919 5.37231 3.44423L5.53788 3.54179L5.50477 3.60683C5.47166 3.63935 5.47166 3.67187 5.50477 3.73691C5.50477 3.76943 5.53788 3.80195 5.571 3.83447L5.96837 4.0296C6.00148 4.06212 6.0346 4.0296 6.10082 4.0296C6.13394 4.0296 6.16705 3.99707 6.20017 3.93203L6.23328 3.86699L6.39885 3.96455C6.49819 4.0296 6.56442 4.15968 6.49819 4.25724L5.83591 5.68813C5.76968 5.78569 5.63723 5.85073 5.53788 5.78569L4.51134 5.33041C4.412 5.23285 4.37889 5.10277 4.412 4.97268ZM30.2411 13.3629C30.2742 13.3304 30.3073 13.3629 30.3404 13.3954C30.3735 13.428 30.3404 13.4605 30.3073 13.493C30.1748 13.5906 30.0093 13.6556 29.8437 13.6881C29.7112 13.7207 29.5788 13.7532 29.4463 13.7532V13.9158C29.4463 14.1759 29.5125 14.2085 29.1814 14.241C28.4529 14.2735 26.5654 14.0459 25.8369 12.1922L25.8038 12.2247C25.7044 12.2572 25.6382 12.0946 25.7044 12.0621L26.9296 11.3467C26.9628 11.3141 27.1283 11.4442 27.029 11.5093L26.8965 11.5743C27.029 11.867 27.1614 12.0946 27.327 12.2898L27.0621 12.4524C27.029 12.4849 27.029 12.5174 27.029 12.5499C27.0621 12.5824 27.0952 12.5824 27.1283 12.5824L27.4264 12.4198C27.5257 12.5499 27.6582 12.6475 27.7575 12.7125C27.7575 12.7125 27.7575 12.7125 27.7244 12.7125L27.5257 12.9727C27.4926 13.0052 27.4926 13.0377 27.5257 13.0702C27.5588 13.1028 27.5919 13.1028 27.625 13.0702L27.8237 12.8101V12.7776C27.9893 12.8751 28.1218 12.9402 28.2873 13.0052C28.2873 13.0052 28.2873 13.0052 28.2873 13.0377L28.188 13.3954C28.188 13.428 28.188 13.4605 28.2211 13.493C28.2542 13.493 28.2873 13.493 28.3204 13.4605L28.4198 13.1028C28.4198 13.1028 28.4198 13.1028 28.4198 13.0702C28.7178 13.1353 28.9827 13.1678 29.1483 13.1678C29.4132 13.1678 29.4132 13.1678 29.4132 13.3954V13.6231C29.5457 13.6231 29.645 13.5906 29.7775 13.5581C29.943 13.5255 30.1086 13.4605 30.2411 13.3629ZM26.7641 11.4117C26.6316 11.2166 25.7375 11.7044 25.87 11.8995L26.7641 11.4117ZM0.4383 12.8751H2.52449C2.69006 12.8751 2.82252 13.0052 2.82252 13.1678V13.428H2.72318C2.65695 13.428 2.62384 13.4605 2.59072 13.493C2.55761 13.5255 2.52449 13.5906 2.52449 13.6231V14.1759C2.52449 14.241 2.55761 14.2735 2.59072 14.306C2.62384 14.3385 2.69006 14.3711 2.72318 14.3711H2.82252V14.6312C2.82252 14.7938 2.69006 14.9239 2.52449 14.9239H0.4383C0.27273 14.9239 0.140273 14.7938 0.140273 14.6312V13.1678C0.140273 13.0052 0.27273 12.8751 0.4383 12.8751Z" fill="white"/>
<path fill-rule="evenodd" clip-rule="evenodd" d="M128.359 4.65041C128.26 4.94309 128.127 5.33333 127.929 5.82114C127.73 6.30894 127.531 6.86179 127.266 7.5122C127.035 8.1626 126.737 8.84553 126.439 9.62602C126.141 10.4065 125.809 11.2195 125.511 12.065H131.207C130.909 11.2195 130.611 10.4065 130.313 9.62602C130.015 8.84553 129.75 8.1626 129.485 7.5122C129.22 6.86179 129.022 6.30894 128.823 5.82114C128.657 5.30081 128.492 4.94309 128.359 4.65041ZM133.757 19.8049C133.525 19.122 133.293 18.439 133.028 17.7236C132.763 17.0081 132.532 16.2927 132.267 15.5772H124.485C124.22 16.2927 123.988 17.0081 123.723 17.7236C123.458 18.439 123.227 19.122 123.028 19.8049H118.359C119.12 17.6911 119.816 15.7398 120.478 13.9512C121.14 12.1626 121.803 10.4715 122.465 8.87805C123.094 7.28455 123.756 5.78862 124.386 4.35772C125.015 2.92683 125.677 1.56098 126.339 0.195122H130.578C131.24 1.56098 131.869 2.92683 132.532 4.35772C133.161 5.78862 133.823 7.28455 134.452 8.87805C135.115 10.4715 135.744 12.1626 136.439 13.9512C137.134 15.7398 137.83 17.6911 138.592 19.8049H133.757ZM119.882 0.227642V4H113.855V19.8374H109.352V3.96748H103.325V0.227642H119.882ZM96.7021 19.8049C95.4106 17.561 94.0198 15.3496 92.5297 13.1707C91.0395 10.9919 89.4501 8.91057 87.7612 6.99187V19.8374H83.3239V0.227642H86.9665C87.5957 0.845528 88.2911 1.62602 89.0527 2.50407C89.8143 3.41463 90.6091 4.39024 91.4038 5.39837C92.1985 6.43902 92.9933 7.47967 93.788 8.58537C94.5828 9.69106 95.3113 10.7317 96.0067 11.7724V0.227642H100.477V19.8049H96.7021ZM65.8728 19.8049V0.227642H79.3502V3.93496H70.3763V7.77236H78.3568V11.3821H70.3763V16.0976H80.0125V19.8049H65.8728ZM62.1309 9.98374C62.1309 11.6748 61.8659 13.1707 61.3361 14.4065C60.8063 15.6748 60.0447 16.7154 59.0512 17.5285C58.0578 18.3415 56.8657 18.9919 55.4418 19.3821C54.0179 19.8049 52.4284 20 50.6734 20C49.8786 20 48.9183 19.9675 47.8587 19.9024C46.799 19.8374 45.7393 19.7073 44.6797 19.4797V0.487805C45.7062 0.292683 46.799 0.162602 47.9249 0.097561C49.0508 0.0325203 50.0111 0 50.8058 0C52.5277 0 54.051 0.195122 55.4418 0.552845C56.8326 0.943089 58.0247 1.52846 59.0181 2.34146C60.0116 3.15447 60.7732 4.19512 61.3361 5.46341C61.8659 6.69919 62.1309 8.22764 62.1309 9.98374ZM49.1501 16.2276C49.3488 16.2602 49.6137 16.2602 49.8786 16.2602C50.1435 16.2602 50.4747 16.2602 50.872 16.2602C53.1238 16.2602 54.7795 15.7073 55.8723 14.6016C56.9651 13.4959 57.4949 11.9675 57.4949 9.98374C57.4949 7.93496 56.965 6.37398 55.9385 5.33333C54.912 4.29268 53.2563 3.73984 51.0045 3.73984C50.7065 3.73984 50.3753 3.73984 50.0442 3.73984C49.713 3.73984 49.415 3.77236 49.117 3.80488V16.2276H49.1501Z" fill="white"/>
</svg>
