<svg width="140" height="22" viewBox="0 0 140 22" fill="none" xmlns="http://www.w3.org/2000/svg">
<path d="M7.84013 6.85705H2.49659V15.8338H0V4.55859H10.3367V15.8338H7.84013V6.85705Z" fill="#FF4A37"/>
<path d="M12.7656 4.55902H15.2622V5.79496C15.7732 5.31794 16.3207 4.94933 16.9047 4.68912C17.4887 4.42893 18.1457 4.29883 18.8757 4.29883C19.6933 4.29883 20.4452 4.45061 21.1314 4.75417C21.8322 5.04328 22.4308 5.45526 22.9272 5.99012C23.4236 6.51051 23.8105 7.13213 24.0879 7.85484C24.3653 8.5632 24.504 9.33656 24.504 10.1749C24.504 11.0423 24.3507 11.8373 24.0441 12.5601C23.7521 13.2684 23.3506 13.8828 22.8396 14.4032C22.3286 14.9091 21.7154 15.3067 21 15.5958C20.2992 15.8849 19.5473 16.0294 18.7443 16.0294C18.0289 16.0294 17.3865 15.921 16.8171 15.7042C16.2477 15.4873 15.7294 15.1838 15.2622 14.7935V20.1709H12.7656V4.55902ZM18.372 13.731C18.8684 13.731 19.3283 13.6515 19.7517 13.4925C20.1897 13.3335 20.5693 13.1022 20.8905 12.7987C21.2117 12.4806 21.4599 12.1048 21.6351 11.6711C21.8249 11.223 21.9198 10.717 21.9198 10.1533C21.9198 9.63291 21.8395 9.15589 21.6789 8.72218C21.5183 8.27406 21.2847 7.89822 20.9781 7.59467C20.6861 7.27663 20.3357 7.03088 19.9269 6.85748C19.5181 6.68401 19.0655 6.59725 18.5691 6.59725C17.8099 6.59725 17.1383 6.77792 16.5543 7.13934C15.9849 7.50069 15.5542 7.9344 15.2622 8.44032V11.8662C15.5542 12.4734 15.9703 12.936 16.5105 13.254C17.0507 13.572 17.6712 13.731 18.372 13.731Z" fill="#FF4A37"/>
<path d="M25.8047 10.1749C25.8047 9.32208 25.9507 8.5415 26.2427 7.83321C26.5347 7.11044 26.9508 6.48883 27.491 5.96843C28.0312 5.44803 28.6736 5.04328 29.4182 4.75417C30.1628 4.45061 30.9877 4.29883 31.8929 4.29883C32.7835 4.29883 33.6011 4.45061 34.3457 4.75417C35.1049 5.04328 35.7546 5.44803 36.2948 5.96843C36.835 6.48883 37.2511 7.11044 37.5431 7.83321C37.8497 8.5415 38.003 9.32208 38.003 10.1749C38.003 11.0279 37.8497 11.8157 37.5431 12.5384C37.2511 13.2468 36.835 13.8611 36.2948 14.3815C35.7546 14.9019 35.1049 15.3067 34.3457 15.5958C33.6011 15.8849 32.7835 16.0294 31.8929 16.0294C31.0023 16.0294 30.1847 15.8849 29.4401 15.5958C28.6955 15.3067 28.0531 14.9019 27.5129 14.3815C26.9727 13.8611 26.5493 13.2468 26.2427 12.5384C25.9507 11.8157 25.8047 11.0279 25.8047 10.1749ZM28.3889 10.1749C28.3889 10.6809 28.4692 11.1507 28.6298 11.5844C28.805 12.018 29.0459 12.3939 29.3525 12.7119C29.6591 13.0299 30.0241 13.2829 30.4475 13.4708C30.8855 13.6442 31.3673 13.731 31.8929 13.731C32.4185 13.731 32.893 13.6515 33.3164 13.4925C33.7544 13.319 34.1267 13.0805 34.4333 12.777C34.7399 12.4589 34.9808 12.0831 35.156 11.6495C35.3312 11.2158 35.4188 10.7242 35.4188 10.1749C35.4188 9.62563 35.3239 9.13419 35.1341 8.70049C34.9589 8.25237 34.7107 7.87653 34.3895 7.57298C34.0683 7.25494 33.696 7.01646 33.2726 6.85748C32.8492 6.68401 32.3893 6.59725 31.8929 6.59725C31.3965 6.59725 30.9293 6.68401 30.4913 6.85748C30.0679 7.01646 29.6956 7.25494 29.3744 7.57298C29.0678 7.87653 28.8269 8.25237 28.6517 8.70049C28.4765 9.13419 28.3889 9.62563 28.3889 10.1749Z" fill="#FF4A37"/>
<path d="M38.6641 13.5354H39.9825C40.4952 12.8849 40.8395 12.1405 41.0153 11.3021C41.1911 10.4636 41.2789 9.51681 41.2789 8.46158V4.55859H50.4639V13.5354H52.068V18.4142H49.7388V15.8338H40.9933V18.4142H38.6641V13.5354ZM47.9589 13.5354V6.85705H43.6521V9.74087C43.6521 10.4347 43.5569 11.1286 43.3664 11.8224C43.176 12.5019 42.9123 13.0729 42.5754 13.5354H47.9589Z" fill="#3981F1"/>
<path d="M52.5781 10.1749C52.5781 9.32208 52.7246 8.5415 53.0176 7.83321C53.3105 7.11044 53.7281 6.48883 54.2701 5.96843C54.8121 5.44803 55.4567 5.04328 56.2037 4.75417C56.9509 4.45061 57.7785 4.29883 58.6868 4.29883C59.5803 4.29883 60.4007 4.45061 61.1478 4.75417C61.9096 5.04328 62.5615 5.44803 63.1035 5.96843C63.6455 6.48883 64.063 7.11044 64.3559 7.83321C64.6636 8.5415 64.8174 9.32208 64.8174 10.1749C64.8174 11.0279 64.6636 11.8157 64.3559 12.5384C64.063 13.2468 63.6455 13.8611 63.1035 14.3815C62.5615 14.9019 61.9096 15.3067 61.1478 15.5958C60.4007 15.8849 59.5803 16.0294 58.6868 16.0294C57.7932 16.0294 56.9728 15.8849 56.2257 15.5958C55.4786 15.3067 54.8341 14.9019 54.2921 14.3815C53.75 13.8611 53.3252 13.2468 53.0176 12.5384C52.7246 11.8157 52.5781 11.0279 52.5781 10.1749ZM55.171 10.1749C55.171 10.6809 55.2515 11.1507 55.4127 11.5844C55.5885 12.018 55.8302 12.3939 56.1378 12.7119C56.4455 13.0299 56.8117 13.2829 57.2365 13.4708C57.676 13.6442 58.1594 13.731 58.6868 13.731C59.2141 13.731 59.6902 13.6515 60.1151 13.4925C60.5545 13.319 60.9281 13.0805 61.2357 12.777C61.5433 12.4589 61.7851 12.0831 61.9609 11.6495C62.1366 11.2158 62.2245 10.7242 62.2245 10.1749C62.2245 9.62563 62.1293 9.13419 61.9389 8.70049C61.7631 8.25237 61.5141 7.87653 61.1917 7.57298C60.8695 7.25494 60.4959 7.01646 60.0711 6.85748C59.6463 6.68401 59.1849 6.59725 58.6868 6.59725C58.1887 6.59725 57.7199 6.68401 57.2805 6.85748C56.8557 7.01646 56.4821 7.25494 56.1598 7.57298C55.8522 7.87653 55.6105 8.25237 55.4347 8.70049C55.2589 9.13419 55.171 9.62563 55.171 10.1749Z" fill="#3981F1"/>
<path d="M66.3672 4.55859H68.8721V9.13376L73.8161 4.55859H77.0901L71.5308 9.65417L77.2881 15.8338H74.0801L69.7075 11.1936L68.8721 11.9959V15.8338H66.3672V4.55859Z" fill="#3981F1"/>
<path d="M78.0781 4.55859H88.8455V6.85705H84.7141V15.8338H82.2095V6.85705H78.0781V4.55859Z" fill="#3981F1"/>
<path d="M89.3984 10.1749C89.3984 9.32208 89.5451 8.5415 89.8384 7.83321C90.1311 7.11044 90.5484 6.48883 91.0904 5.96843C91.6324 5.44803 92.2771 5.04328 93.0244 4.75417C93.7711 4.45061 94.5991 4.29883 95.5071 4.29883C96.4011 4.29883 97.2211 4.45061 97.9684 4.75417C98.7304 5.04328 99.3818 5.44803 99.9238 5.96843C100.466 6.48883 100.884 7.11044 101.176 7.83321C101.484 8.5415 101.638 9.32208 101.638 10.1749C101.638 11.0279 101.484 11.8157 101.176 12.5384C100.884 13.2468 100.466 13.8611 99.9238 14.3815C99.3818 14.9019 98.7304 15.3067 97.9684 15.5958C97.2211 15.8849 96.4011 16.0294 95.5071 16.0294C94.6138 16.0294 93.7931 15.8849 93.0464 15.5958C92.2991 15.3067 91.6544 14.9019 91.1124 14.3815C90.5704 13.8611 90.1458 13.2468 89.8384 12.5384C89.5451 11.8157 89.3984 11.0279 89.3984 10.1749ZM91.9918 10.1749C91.9918 10.6809 92.0724 11.1507 92.2331 11.5844C92.4091 12.018 92.6504 12.3939 92.9584 12.7119C93.2658 13.0299 93.6324 13.2829 94.0571 13.4708C94.4964 13.6442 94.9798 13.731 95.5071 13.731C96.0344 13.731 96.5111 13.6515 96.9358 13.4925C97.3751 13.319 97.7484 13.0805 98.0564 12.777C98.3638 12.4589 98.6058 12.0831 98.7811 11.6495C98.9571 11.2158 99.0451 10.7242 99.0451 10.1749C99.0451 9.62563 98.9498 9.13419 98.7591 8.70049C98.5838 8.25237 98.3344 7.87653 98.0124 7.57298C97.6898 7.25494 97.3164 7.01646 96.8918 6.85748C96.4671 6.68401 96.0051 6.59725 95.5071 6.59725C95.0091 6.59725 94.5404 6.68401 94.1011 6.85748C93.6764 7.01646 93.3024 7.25494 92.9804 7.57298C92.6724 7.87653 92.4311 8.25237 92.2551 8.70049C92.0798 9.13419 91.9918 9.62563 91.9918 10.1749Z" fill="#3981F1"/>
<path d="M103.164 4.55902H105.669V5.79496C106.181 5.31794 106.731 4.94933 107.317 4.68912C107.903 4.42893 108.562 4.29883 109.295 4.29883C110.115 4.29883 110.869 4.45061 111.558 4.75417C112.261 5.04328 112.861 5.45526 113.359 5.99012C113.857 6.51051 114.246 7.13213 114.524 7.85484C114.803 8.5632 114.941 9.33656 114.941 10.1749C114.941 11.0423 114.788 11.8373 114.48 12.5601C114.187 13.2684 113.785 13.8828 113.271 14.4032C112.759 14.9091 112.143 15.3067 111.426 15.5958C110.723 15.8849 109.968 16.0294 109.163 16.0294C108.445 16.0294 107.8 15.921 107.229 15.7042C106.657 15.4873 106.137 15.1838 105.669 14.7935V20.1709H103.164V4.55902ZM108.789 13.731C109.287 13.731 109.749 13.6515 110.173 13.4925C110.613 13.3335 110.994 13.1022 111.316 12.7987C111.638 12.4806 111.887 12.1048 112.063 11.6711C112.253 11.223 112.349 10.717 112.349 10.1533C112.349 9.63291 112.268 9.15589 112.107 8.72218C111.946 8.27406 111.711 7.89822 111.404 7.59467C111.111 7.27663 110.759 7.03088 110.349 6.85748C109.939 6.68401 109.485 6.59725 108.987 6.59725C108.225 6.59725 107.551 6.77792 106.965 7.13934C106.394 7.50069 105.962 7.9344 105.669 8.44032V11.8662C105.962 12.4734 106.379 12.936 106.921 13.254C107.463 13.572 108.086 13.731 108.789 13.731Z" fill="#3981F1"/>
<path d="M116.188 10.1749C116.188 9.32208 116.334 8.5415 116.627 7.83321C116.92 7.11044 117.338 6.48883 117.88 5.96843C118.422 5.44803 119.066 5.04328 119.813 4.75417C120.56 4.45061 121.388 4.29883 122.296 4.29883C123.19 4.29883 124.01 4.45061 124.758 4.75417C125.519 5.04328 126.171 5.44803 126.713 5.96843C127.255 6.48883 127.672 7.11044 127.966 7.83321C128.273 8.5415 128.427 9.32208 128.427 10.1749C128.427 11.0279 128.273 11.8157 127.966 12.5384C127.672 13.2468 127.255 13.8611 126.713 14.3815C126.171 14.9019 125.519 15.3067 124.758 15.5958C124.01 15.8849 123.19 16.0294 122.296 16.0294C121.403 16.0294 120.582 15.8849 119.835 15.5958C119.088 15.3067 118.444 14.9019 117.902 14.3815C117.36 13.8611 116.935 13.2468 116.627 12.5384C116.334 11.8157 116.188 11.0279 116.188 10.1749ZM118.78 10.1749C118.78 10.6809 118.861 11.1507 119.022 11.5844C119.198 12.018 119.44 12.3939 119.748 12.7119C120.055 13.0299 120.421 13.2829 120.846 13.4708C121.286 13.6442 121.769 13.731 122.296 13.731C122.824 13.731 123.3 13.6515 123.724 13.4925C124.164 13.319 124.538 13.0805 124.845 12.777C125.153 12.4589 125.394 12.0831 125.57 11.6495C125.746 11.2158 125.834 10.7242 125.834 10.1749C125.834 9.62563 125.739 9.13419 125.548 8.70049C125.372 8.25237 125.124 7.87653 124.801 7.57298C124.479 7.25494 124.106 7.01646 123.68 6.85748C123.256 6.68401 122.794 6.59725 122.296 6.59725C121.798 6.59725 121.33 6.68401 120.89 6.85748C120.465 7.01646 120.092 7.25494 119.77 7.57298C119.462 7.87653 119.22 8.25237 119.044 8.70049C118.868 9.13419 118.78 9.62563 118.78 10.1749Z" fill="#3981F1"/>
<path d="M129.977 4.55859H134.855C136.451 4.55859 137.653 4.78266 138.459 5.23078C139.264 5.67889 139.667 6.45226 139.667 7.55085C139.667 8.07126 139.55 8.51217 139.315 8.87353C139.081 9.23495 138.773 9.56019 138.393 9.84927C138.935 10.0517 139.337 10.3914 139.601 10.8684C139.865 11.331 139.997 11.8658 139.997 12.473C139.997 13.6005 139.594 14.4462 138.788 15.0099C137.983 15.5592 136.847 15.8338 135.382 15.8338H129.977V4.55859ZM132.482 11.1719V13.6005H135.141C135.887 13.6005 136.451 13.5065 136.833 13.3186C137.213 13.1307 137.404 12.8271 137.404 12.4079C137.404 11.9598 137.221 11.6418 136.855 11.4539C136.503 11.2659 135.953 11.1719 135.207 11.1719H132.482ZM132.482 6.79197V9.02531H135.426C135.939 9.02531 136.342 8.9314 136.635 8.74344C136.928 8.55556 137.074 8.26642 137.074 7.8761C137.074 7.41356 136.877 7.11722 136.481 6.98713C136.1 6.85705 135.536 6.79197 134.789 6.79197H132.482Z" fill="#3981F1"/>
</svg>
