<svg width="125" height="18" viewBox="0 0 125 18" fill="none" xmlns="http://www.w3.org/2000/svg">
<path fill-rule="evenodd" clip-rule="evenodd" d="M3.55356 12.2085H2.45086H2.42106C2.42106 12.2085 2.42106 12.2085 2.42106 12.2378V12.7646C2.42106 12.7646 2.42106 12.7646 2.42106 12.7939H2.45086H3.55356H3.58337C3.58337 12.7939 3.58337 12.7939 3.58337 12.7646V12.2378C3.58337 12.2378 3.58337 12.2378 3.58337 12.2085C3.58337 12.2085 3.58337 12.2085 3.55356 12.2085ZM0.960723 12.1792C0.960723 12.2085 0.901117 12.2378 0.871315 12.2378C0.841512 12.2378 0.811709 12.1792 0.811709 12.15C0.811709 12.1207 0.841512 12.0914 0.871315 12.0622C0.901117 12.0329 0.93092 12.0329 0.960723 12.0036C0.990526 12.0036 1.02033 11.9743 1.05013 11.9743C1.07993 11.9743 1.10974 11.9743 1.13954 11.9743C1.16934 11.9743 1.19914 12.0329 1.16934 12.0622C1.16934 12.0914 1.10974 12.1207 1.07993 12.0914H1.05013H1.02033C1.02033 12.0914 0.990526 12.0914 0.990526 12.1207C0.960723 12.15 0.960723 12.15 0.960723 12.1792ZM0.841512 12.4426C0.871315 12.5012 0.871315 12.6183 0.901117 12.7061C0.93092 12.7939 0.990526 13.0865 1.10974 13.0865C1.13954 13.0865 1.19915 13.0573 1.19915 12.9987C1.19915 12.9695 1.19915 12.9695 1.19915 12.9402C1.16934 12.9109 1.16934 12.8817 1.16934 12.8231C1.16934 12.7646 1.22895 12.6183 1.34816 12.6183C1.46737 12.6183 1.52698 12.7353 1.52698 12.8231C1.52698 12.8817 1.49717 12.9109 1.49717 12.9402C1.49717 12.9695 1.49717 12.9695 1.49717 12.9987C1.49717 13.0573 1.55678 13.1158 1.61638 13.1158C1.73559 13.1158 1.7952 12.8231 1.825 12.7353C1.7952 12.6475 1.7952 12.5012 1.825 12.4426C1.85481 12.3548 1.94421 12.2963 1.94421 12.1792C1.94421 12.0036 1.7952 11.8865 1.61638 11.8865C1.46737 11.8865 1.46737 11.9451 1.31836 11.9743C1.19915 11.9743 1.19914 11.8865 1.05013 11.8865C0.871315 11.8865 0.722301 12.0036 0.722301 12.1792C0.722301 12.3256 0.781906 12.3548 0.841512 12.4426ZM5.96759 11.7987C5.87818 11.7109 5.75897 11.6524 5.63976 11.6524C5.52055 11.6524 5.40133 11.7109 5.31193 11.7987C5.22252 11.8865 5.16291 12.0036 5.16291 12.1207C5.16291 12.2378 5.22252 12.3548 5.31193 12.4426C5.40133 12.5304 5.52055 12.589 5.63976 12.589C5.75897 12.589 5.87818 12.5304 5.96759 12.4426C6.05699 12.3548 6.1166 12.2378 6.1166 12.1207C6.1166 12.0036 6.05699 11.8865 5.96759 11.7987ZM5.63976 11.5353C5.81857 11.5353 5.96759 11.5939 6.0868 11.7109C6.20601 11.828 6.26561 11.9743 6.26561 12.15C6.26561 12.3256 6.20601 12.4719 6.0868 12.589C5.96759 12.7061 5.81857 12.7646 5.63976 12.7646C5.46094 12.7646 5.31193 12.7061 5.19271 12.589C5.0735 12.4719 5.0139 12.3256 5.0139 12.15C5.0139 11.9743 5.0735 11.828 5.19271 11.7109C5.31193 11.5939 5.49074 11.5353 5.63976 11.5353ZM5.69936 11.9451C5.66956 11.9451 5.60995 11.9451 5.60995 11.8865C5.60995 11.8573 5.60995 11.7987 5.66956 11.7987C5.69936 11.7987 5.75897 11.7987 5.78877 11.7987C5.81857 11.7987 5.87818 11.828 5.90798 11.8573C5.93778 11.8573 5.93778 11.8865 5.96759 11.9158C5.96759 11.9451 5.99739 11.9451 5.99739 11.9743C5.99739 12.0036 5.99739 12.0622 5.96759 12.0622C5.93778 12.0622 5.87818 12.0622 5.87818 12.0329V12.0036C5.87818 12.0036 5.87818 11.9743 5.84838 11.9743C5.84838 11.9743 5.81857 11.9451 5.78877 11.9451C5.72916 11.9451 5.69936 11.9451 5.69936 11.9451ZM3.55356 13.7597C3.58337 13.7304 3.61317 13.7012 3.64297 13.7304C3.67277 13.7597 3.70258 13.789 3.67277 13.8183C3.61317 13.9353 3.52376 14.2865 3.52376 14.4622C3.52376 14.4914 3.49396 14.5207 3.46415 14.5207C3.43435 14.5207 3.40455 14.4914 3.40455 14.4622C3.40455 14.3158 3.49396 13.9061 3.55356 13.7597ZM5.63976 11.3597C6.05699 11.3597 6.41463 11.7109 6.41463 12.1207C6.41463 12.5304 6.05699 12.8817 5.63976 12.8817C5.37153 12.8817 5.10331 12.7353 4.9841 12.5012C4.38804 12.9109 4.06021 13.2914 3.82179 14.7256C3.79199 14.8719 3.70258 14.989 3.55356 14.989C3.40455 14.989 3.25554 14.8134 3.25554 14.667C3.37475 13.6134 3.76218 12.7061 4.86488 12.2963C4.86488 12.2378 4.83508 12.1792 4.83508 12.1207C4.86488 11.7109 5.22252 11.3597 5.63976 11.3597ZM10.1102 4.74508C10.1102 4.71581 10.1102 4.65728 10.14 4.65728C10.1698 4.65728 10.2294 4.65728 10.2294 4.68654C10.3486 5.0085 10.4976 5.50606 10.4082 5.85728C10.4082 5.88654 10.3486 5.91581 10.3188 5.91581C10.289 5.91581 10.2592 5.85728 10.2592 5.82801C10.3486 5.50606 10.2294 5.03776 10.1102 4.74508ZM8.08358 8.46215C8.08358 8.49142 8.08358 8.52069 8.02398 8.52069C7.99417 8.52069 7.96437 8.52069 7.96437 8.46215V8.43289V8.40362C7.96437 8.37435 7.96437 8.34508 7.99417 8.31581C7.99417 8.28654 8.02398 8.25728 8.05378 8.22801C8.08358 8.19874 8.11339 8.19874 8.14319 8.22801C8.17299 8.25728 8.17299 8.28654 8.14319 8.31581C8.14319 8.31581 8.11339 8.34508 8.11339 8.37435C8.11339 8.40362 8.11339 8.40362 8.11339 8.43289C8.08358 8.43289 8.08358 8.46215 8.08358 8.46215ZM8.76905 8.11093C8.67964 8.02313 8.53062 7.96459 8.41141 7.96459C8.2624 7.96459 8.14319 8.02313 8.05378 8.11093C7.96437 8.19874 7.90477 8.34508 7.90477 8.46215C7.90477 8.60849 7.96437 8.72557 8.05378 8.81337C8.14319 8.90118 8.2922 8.95971 8.41141 8.95971C8.56043 8.95971 8.67964 8.90118 8.76905 8.81337C8.85845 8.72557 8.91806 8.57923 8.91806 8.46215C8.91806 8.34508 8.85845 8.22801 8.76905 8.11093ZM8.38161 7.84752C8.56043 7.84752 8.70944 7.90606 8.82865 8.02313C8.94786 8.1402 9.00747 8.28654 9.00747 8.46215C9.00747 8.63776 8.94786 8.7841 8.82865 8.90118C8.70944 9.01825 8.56043 9.07679 8.38161 9.07679C8.20279 9.07679 8.05378 9.01825 7.93457 8.90118C7.81536 8.81337 7.75575 8.66703 7.75575 8.49142C7.75575 8.31581 7.81536 8.16947 7.93457 8.0524C8.05378 7.93532 8.20279 7.84752 8.38161 7.84752ZM8.38161 7.73045C8.62003 7.73045 8.85845 7.84752 9.00747 8.02313C10.289 7.11581 10.3486 5.38898 10.0208 4.80362C9.75254 4.33532 10.14 4.01337 10.3784 4.21825C10.9446 4.77435 11.0043 7.40849 9.15648 8.37435C9.15648 8.40362 9.15648 8.43289 9.15648 8.46215C9.15648 8.87191 8.79885 9.22313 8.38161 9.22313C7.96437 9.22313 7.60674 8.87191 7.60674 8.46215C7.63654 8.0524 7.96437 7.73045 8.38161 7.73045ZM12.2262 17.3304C12.107 17.5061 11.8983 17.6524 11.6599 17.6524C11.3023 17.6524 11.0341 17.3597 11.0341 17.0378C11.0341 16.9792 11.0341 16.9207 11.0639 16.8622L12.2262 17.3304ZM11.6897 16.3646C12.0474 16.3646 12.3156 16.6573 12.3156 16.9792C12.3156 17.0378 12.3156 17.0963 12.2858 17.1548L11.1235 16.6573C11.2427 16.5109 11.4513 16.3646 11.6897 16.3646ZM0.573287 8.31581C0.573287 8.34508 0.543484 8.37435 0.513682 8.40362C0.483879 8.40362 0.483879 8.40362 0.454076 8.40362C0.454076 8.34508 0.454076 8.28654 0.483879 8.22801C0.513682 8.08167 0.543484 8.02313 0.60309 7.99386C0.632892 7.96459 0.662695 7.96459 0.692498 7.93532C0.722301 7.93532 0.752104 7.90606 0.811709 7.90606C0.841512 7.90606 0.871315 7.93532 0.871315 7.96459C0.871315 7.99386 0.841512 8.0524 0.811709 8.0524C0.781906 8.0524 0.752104 8.0524 0.752104 8.08167C0.722301 8.08167 0.722301 8.11093 0.692498 8.11093C0.662695 8.1402 0.632892 8.16947 0.632892 8.19874C0.60309 8.22801 0.573287 8.28654 0.573287 8.31581ZM0.334865 8.25728C0.334865 8.11093 0.39447 7.99386 0.483879 7.90606C0.573287 7.84752 0.692498 7.78898 0.811709 7.78898C0.93092 7.78898 1.07993 7.84752 1.16934 7.93532C1.25875 8.02313 1.31836 8.1402 1.31836 8.28654C1.31836 9.19386 1.31836 10.1012 1.31836 11.0085C1.37796 11.0085 1.40776 11.0378 1.43757 11.067C1.49717 11.0963 1.49717 11.1256 1.49717 11.1841C1.49717 11.2426 1.49717 11.2719 1.43757 11.3012C1.40776 11.3304 1.34816 11.3597 1.31836 11.3597H0.305062C0.245457 11.3597 0.215654 11.3304 0.185851 11.3012C0.156048 11.2719 0.126246 11.2134 0.126246 11.1841C0.126246 11.1256 0.156048 11.0963 0.185851 11.067C0.215654 11.0085 0.275259 11.0085 0.305062 11.0085C0.334865 10.0719 0.334865 9.16459 0.334865 8.25728ZM0.39447 11.1256H0.305062H0.275259V11.1548V11.1841H0.305062H1.31836H1.34816V11.1548V11.1256H1.31836H1.22895C1.19914 11.1256 1.16934 11.0963 1.16934 11.067V10.0134H0.483879V11.067C0.483879 11.0963 0.454076 11.1256 0.39447 11.1256ZM16.9052 17.0378L16.2197 15.8378C16.1899 15.8378 16.1899 15.867 16.1601 15.867C16.0707 15.9256 15.9217 16.0134 15.8025 16.0719C15.7429 16.1012 15.7131 16.1304 15.6535 16.1597C15.5343 16.2475 15.5045 16.2768 15.5045 16.2768C15.5045 16.2768 15.5343 16.3061 15.5641 16.3353C15.5939 16.3646 15.5939 16.3939 15.6237 16.4231L16.1601 16.1012C16.1899 16.0719 16.2197 16.1012 16.2495 16.1304C16.2793 16.1597 16.2495 16.189 16.2495 16.2183L15.7131 16.5402C15.7429 16.5695 15.7429 16.5987 15.7727 16.628C15.8621 16.7743 15.9813 16.95 16.0707 17.2134L16.488 16.95C16.5178 16.9207 16.5476 16.95 16.5774 16.9792C16.6072 17.0085 16.5774 17.0378 16.5774 17.067L16.1303 17.3597C16.1303 17.389 16.1601 17.4475 16.1601 17.5061C16.1601 17.5061 16.1899 17.5061 16.2197 17.5061C16.2793 17.5061 16.3389 17.4768 16.3986 17.4475C16.6072 17.3597 16.8754 17.1841 16.9648 17.067C16.9052 17.067 16.9052 17.0378 16.9052 17.0378ZM17.1734 17.4475L16.9946 17.1548C16.9052 17.2719 16.637 17.4475 16.3986 17.5646C16.3091 17.5939 16.2495 17.6231 16.1899 17.6231C16.1005 17.6231 16.0409 17.6231 16.0111 17.5646C15.9813 17.5353 15.9813 17.5061 15.9813 17.5061C15.9217 17.1256 15.7727 16.8914 15.6535 16.7158C15.6237 16.6865 15.6237 16.6573 15.5939 16.628C15.5939 16.5987 15.5641 16.5987 15.5641 16.5987C15.5343 16.5402 15.5045 16.5109 15.4747 16.4817C15.4151 16.4231 15.3853 16.3646 15.3853 16.3061C15.3853 16.2475 15.4747 16.2183 15.5939 16.1304C15.6237 16.1012 15.6833 16.0719 15.7429 16.0426C15.8621 15.9548 15.9813 15.867 16.1005 15.8085C16.1303 15.8085 16.1303 15.7792 16.1601 15.7792L14.2528 12.4426C14.0739 12.1207 14.4912 11.9451 14.6402 12.2378L17.5609 17.3304C17.7397 17.5646 17.2926 17.6817 17.1734 17.4475ZM11.8983 13.9939L12.7328 14.667L12.8818 14.7841L12.703 14.9597L12.554 14.8426L12.3454 15.0475L12.4944 15.1646L12.3156 15.3402L12.1666 15.2231L11.9579 15.428L12.107 15.5451L11.9281 15.7207L11.7791 15.6036L11.5705 15.8085L11.7195 15.9256L11.5407 16.1012L11.3619 15.9841L11.1831 16.1597C11.0639 16.2768 10.885 16.3061 10.7658 16.189C10.6466 16.1012 10.6466 15.9256 10.736 15.7792L10.885 15.5743L10.736 15.4573L10.885 15.2524L11.0341 15.3695L11.1831 15.1061L11.0341 14.989L11.1831 14.7841L11.3321 14.9012L11.4811 14.6378L11.3023 14.5207L11.4513 14.3158L11.6003 14.4329L11.7493 14.1695L11.6003 14.0524L11.7493 13.8475L11.8983 13.9939ZM12.6434 12.7061C12.6136 12.7353 12.554 12.7353 12.554 12.7061C12.5242 12.6768 12.5242 12.6183 12.554 12.6183C12.6136 12.589 12.6732 12.5597 12.7328 12.5597C12.7924 12.5597 12.852 12.5597 12.9116 12.5597C12.9414 12.5597 12.9712 12.589 13.001 12.589C13.0308 12.6183 13.0606 12.6183 13.0904 12.6475C13.1202 12.6768 13.1202 12.7061 13.0904 12.7353C13.0606 12.7646 13.0308 12.7646 13.001 12.7353C13.001 12.7061 12.9712 12.7061 12.9414 12.7061C12.9116 12.7061 12.9116 12.6768 12.8818 12.6768C12.852 12.6768 12.7924 12.6768 12.7626 12.6768C12.703 12.6768 12.6732 12.6768 12.6434 12.7061ZM13.2395 12.5597L13.5077 12.9109L13.8951 13.0865C14.2528 13.2329 14.3124 13.8183 13.9845 14.0231L13.0308 14.6963L11.7493 13.6719L12.256 12.6475C12.4646 12.3256 13.0308 12.267 13.2395 12.5597ZM10.6466 10.5695C11.8685 10.6865 12.3752 10.8329 13.5375 11.2426C12.7924 11.5939 11.0639 11.2426 10.6466 10.5695ZM12.256 10.1304C12.2262 10.1597 12.1666 10.1597 12.1368 10.189C12.0772 10.2183 12.0175 10.1304 11.9877 10.1012C11.7493 9.8085 10.7658 9.98411 10.2294 10.3061C10.1102 10.3939 10.0208 10.4231 10.0506 10.5695C10.0804 11.0378 10.7956 11.7109 11.6599 11.9451C12.703 12.2378 13.8653 12.0036 14.1633 11.3012C14.1633 11.2719 14.1633 11.2426 14.1335 11.1841C13.7759 10.8036 12.8222 9.92557 12.256 10.1304ZM6.23581 5.82801L6.29542 6.67679C6.29542 6.8524 6.0868 6.9402 5.87818 6.9402L5.13311 6.96947C5.0735 6.96947 5.0437 6.91093 5.0437 6.8524C5.0437 6.70606 4.9841 6.58898 4.9841 6.44264C4.9841 6.32557 4.9841 6.26703 5.0735 6.26703C5.31193 6.23776 5.46094 6.09142 5.60995 5.7402C5.66956 5.59386 5.66956 5.62313 5.81857 5.6524L6.17621 5.71093C6.20601 5.71093 6.23581 5.76947 6.23581 5.82801ZM6.38483 4.30606C6.41463 4.39386 6.38483 4.4524 6.29542 4.48167C6.26561 4.48167 6.26561 4.48167 6.23581 4.48167C6.23581 4.62801 6.23581 4.77435 6.23581 4.92069C6.23581 5.06703 6.23581 5.21337 6.23581 5.35971C6.23581 5.50606 6.23581 5.50606 6.0868 5.47679C6.05699 5.47679 6.02719 5.47679 5.99739 5.44752C5.93778 5.44752 5.93778 5.41825 5.87818 5.41825C5.75897 5.38898 5.75897 5.38898 5.81857 5.24264C5.87818 5.12557 5.93778 4.97923 5.99739 4.86215L6.17621 4.4524C6.17621 4.4524 6.17621 4.4524 6.17621 4.42313C6.1464 4.39386 6.1166 4.39386 6.1166 4.33532C6.0868 4.24752 6.1166 4.18898 6.20601 4.15972C6.26561 4.18898 6.35502 4.21825 6.38483 4.30606ZM4.83508 6.53045C4.86488 6.64752 4.89469 6.79386 4.80528 6.8524C4.77548 6.8524 4.74567 6.88167 4.71587 6.88167C4.59666 6.9402 4.59666 6.9402 4.53705 6.82313C4.50725 6.79386 4.50725 6.76459 4.50725 6.73532C4.44765 6.58898 4.44765 6.61825 4.56686 6.53045C4.62646 6.50118 4.65627 6.47191 4.71587 6.44264C4.80528 6.3841 4.80528 6.41337 4.83508 6.53045ZM5.34173 6.35484C5.31193 6.3841 5.25232 6.35484 5.25232 6.32557C5.22252 6.2963 5.25232 6.23776 5.28212 6.23776C5.34173 6.2085 5.40133 6.14996 5.46094 6.12069C5.52055 6.06215 5.55035 6.00362 5.60995 5.94508C5.63976 5.91581 5.66956 5.91581 5.69936 5.91581C5.72916 5.94508 5.72916 5.97435 5.72916 6.00362C5.66956 6.06215 5.63976 6.14996 5.58015 6.2085C5.49074 6.26703 5.40133 6.32557 5.34173 6.35484ZM3.49396 6.9402C3.52376 6.91093 3.58337 6.9402 3.58337 6.96947C3.61317 6.99874 3.58337 7.05728 3.55356 7.05728L3.43435 7.11581C3.16613 7.29142 2.98731 7.40849 2.80849 7.46703C2.77869 7.46703 2.71909 7.46703 2.71909 7.43776C2.71909 7.40849 2.71909 7.34996 2.74889 7.34996C2.8979 7.29142 3.10652 7.17435 3.34494 6.99874L3.49396 6.9402ZM4.29863 6.53045L4.53705 7.32069C4.59666 7.46703 4.53705 7.64264 4.41784 7.70118C3.88139 7.96459 1.73559 9.69142 1.67599 8.84264L1.61638 7.96459C1.61638 7.81825 1.58658 7.61337 1.73559 7.5841C2.45086 7.37923 3.37475 6.99874 3.941 6.41337C4.03041 6.2963 4.26883 6.38411 4.29863 6.53045ZM11.6897 3.74996C11.6599 3.77923 11.6003 3.77923 11.6003 3.74996C11.5705 3.72069 11.5705 3.66215 11.6003 3.66215C11.7195 3.57435 11.8387 3.51581 11.9579 3.48654C12.0772 3.45728 12.2262 3.45728 12.3454 3.45728C12.3752 3.45728 12.405 3.48654 12.405 3.54508C12.405 3.60362 12.3752 3.60362 12.3156 3.60362C12.1964 3.57435 12.0772 3.60362 11.9877 3.60362C11.8983 3.63289 11.7791 3.69142 11.6897 3.74996ZM12.1666 5.30118C12.4646 5.30118 12.703 5.1841 12.9116 5.00849C13.0904 4.83289 13.2097 4.56947 13.2097 4.27679C13.2097 3.98411 13.0904 3.74996 12.9116 3.54508C12.7328 3.36947 12.4646 3.2524 12.1666 3.2524C11.8685 3.2524 11.6301 3.36947 11.4215 3.54508C11.2427 3.72069 11.1235 3.98411 11.1235 4.27679C11.1235 4.56947 11.2427 4.80362 11.4215 5.00849C11.6003 5.21337 11.8685 5.30118 12.1666 5.30118ZM12.1666 5.44752C11.8387 5.44752 11.5407 5.33045 11.3321 5.12557C11.1235 4.92069 10.9745 4.62801 10.9745 4.30606C10.9745 3.98411 11.0937 3.69142 11.3023 3.48654C11.5109 3.28167 11.8089 3.13532 12.1368 3.13532C12.4646 3.13532 12.7626 3.2524 12.9712 3.45728C13.1799 3.66215 13.3289 3.95484 13.3289 4.27679C13.3289 4.59874 13.2097 4.89142 13.001 5.0963C12.7924 5.30118 12.4944 5.44752 12.1666 5.44752ZM11.6599 6.06215C11.8089 6.17923 11.8685 6.35484 11.7791 6.53045L11.6599 6.91093C11.5705 7.14508 11.3321 7.26215 11.0937 7.17435C10.8552 7.08654 10.736 6.8524 10.8254 6.61825L10.9446 6.26703C11.0043 6.09142 11.1831 5.97435 11.3619 5.97435L11.5407 5.47679C11.0937 5.27191 10.7956 4.80362 10.7956 4.30606C10.7956 3.57435 11.3917 2.98898 12.1368 2.98898C12.8818 2.98898 13.4779 3.57435 13.4779 4.30606C13.4779 5.03776 12.8818 5.62313 12.1368 5.62313C12.0175 5.62313 11.9281 5.62313 11.8387 5.59386L11.6599 6.06215ZM10.1996 13.9353C10.4976 13.9353 10.736 13.8183 10.9446 13.6426C11.1235 13.467 11.2427 13.2036 11.2427 12.9109C11.2427 12.6183 11.1235 12.3841 10.9446 12.1792C10.7658 12.0036 10.4976 11.8865 10.1996 11.8865C9.90155 11.8865 9.66313 12.0036 9.45451 12.1792C9.27569 12.3548 9.15648 12.6183 9.15648 12.9109C9.15648 13.2036 9.27569 13.4378 9.45451 13.6426C9.63333 13.8183 9.90155 13.9353 10.1996 13.9353ZM10.1996 14.0817C9.87175 14.0817 9.57372 13.9646 9.3651 13.7597C9.15648 13.5548 9.00747 13.2622 9.00747 12.9402C9.00747 12.6183 9.12668 12.3256 9.3353 12.1207C9.54392 11.9158 9.84195 11.7695 10.1698 11.7695C10.4976 11.7695 10.7956 11.8865 11.0043 12.0914C11.2129 12.2963 11.3619 12.589 11.3619 12.9109C11.3619 13.2329 11.2427 13.5256 11.0341 13.7304C10.8254 13.9353 10.5274 14.0817 10.1996 14.0817ZM10.7658 13.2914C10.7956 13.2622 10.8254 13.2622 10.8552 13.2622C10.885 13.2914 10.885 13.3207 10.885 13.35C10.7956 13.467 10.7062 13.5548 10.587 13.6134C10.4678 13.6719 10.3486 13.7304 10.2294 13.7304C10.1996 13.7304 10.14 13.7012 10.14 13.6719C10.14 13.6426 10.1698 13.5841 10.1996 13.5841C10.3188 13.5841 10.4082 13.5256 10.5274 13.467C10.6168 13.467 10.7062 13.3792 10.7658 13.2914ZM8.62003 11.828C8.47102 11.9158 8.2624 11.8865 8.11339 11.7987L7.81536 11.5646C7.63654 11.4183 7.60674 11.1548 7.75575 10.95C7.90477 10.7743 8.17299 10.7451 8.38161 10.8914L8.67964 11.1256C8.82865 11.2426 8.88826 11.4475 8.79885 11.6231L9.24589 11.9451C9.60352 11.5939 10.14 11.4768 10.6168 11.6524C11.3023 11.8865 11.6599 12.6475 11.4215 13.3207C11.1831 13.9939 10.4082 14.3451 9.72273 14.1109C9.03727 13.8768 8.67964 13.1158 8.91806 12.4426C8.94786 12.3548 9.00747 12.2378 9.06707 12.15L8.62003 11.828ZM15.1766 5.6524C15.1766 5.62313 15.2064 5.56459 15.2362 5.56459C15.266 5.56459 15.3257 5.59386 15.3257 5.62313C15.3555 5.79874 15.3555 5.94508 15.3555 6.12069C15.3555 6.26703 15.3257 6.3841 15.266 6.50118L15.4449 6.55971C15.7131 6.64752 15.7727 6.61825 15.6535 6.91093C15.4151 7.5841 14.521 9.28167 12.4646 9.2524V9.31093C12.4646 9.42801 12.2858 9.39874 12.2858 9.3402L12.0474 7.93532C12.0474 7.87679 12.1964 7.78898 12.2262 7.90606V8.08167C12.554 8.08167 12.8222 8.02313 13.0904 7.96459L13.1501 8.28654C13.1501 8.31581 13.1799 8.34508 13.2395 8.34508C13.2693 8.34508 13.2991 8.31581 13.2991 8.25728L13.2395 7.93532C13.3885 7.87679 13.5375 7.81825 13.6567 7.73045C13.6567 7.73045 13.6567 7.73045 13.6567 7.75971L13.8355 8.0524C13.8653 8.08167 13.8951 8.08167 13.9249 8.08167C13.9547 8.0524 13.9547 8.02313 13.9547 7.99386L13.7759 7.70118C13.7759 7.70118 13.7759 7.67191 13.7461 7.67191C13.8951 7.55484 14.0143 7.43776 14.1335 7.32069C14.1335 7.32069 14.1335 7.32069 14.1335 7.34996L14.4316 7.5841C14.4614 7.61337 14.521 7.61337 14.521 7.5841C14.5508 7.55484 14.5508 7.4963 14.521 7.4963L14.223 7.26215C14.223 7.26215 14.223 7.26215 14.1931 7.26215C14.372 7.02801 14.4912 6.79386 14.5508 6.61825C14.6402 6.35484 14.6402 6.3841 14.8786 6.47191L15.117 6.55971C15.1468 6.44264 15.1766 6.32557 15.2064 6.2085C15.2064 5.94508 15.2064 5.79874 15.1766 5.6524ZM12.0175 8.1402C11.8089 8.19874 11.9281 9.19386 12.1666 9.13532L12.0175 8.1402ZM9.81214 0.64752C10.2294 0.676788 10.7658 0.735325 11.0639 0.793861C11.2427 0.82313 11.6301 0.852398 11.8387 0.881666C12.0474 0.910934 12.0474 0.969471 11.8387 1.08654C11.0937 1.55484 10.1698 1.34996 9.63333 0.793861C9.45451 0.618252 9.57372 0.64752 9.81214 0.64752ZM11.0639 0.325569C11.0341 0.354837 10.9745 0.354837 10.9446 0.384105C10.885 0.413373 10.8254 0.325569 10.7956 0.2963C10.4976 0.00361737 9.57372 0.120691 9.00747 0.47191C8.85845 0.559715 8.82865 0.559715 8.88826 0.735325C9.45451 1.96459 11.5407 2.25728 12.4646 1.29142C12.7626 0.969471 12.7626 0.969471 12.4348 0.764593C12.0474 0.501178 11.3917 0.149959 11.0639 0.325569ZM6.56364 8.19874L5.99739 8.75484L6.35502 9.07679C6.44443 9.16459 6.53384 9.19386 6.65305 9.19386C6.74246 9.19386 6.86167 9.16459 6.92128 9.07679C7.01068 8.98898 7.04049 8.90118 7.04049 8.7841C7.04049 8.6963 7.01068 8.57923 6.92128 8.52069L6.56364 8.19874ZM5.49074 7.70118C5.58015 7.58411 5.72916 7.55484 5.87818 7.52557C6.02719 7.52557 6.1464 7.58411 6.26561 7.67191L7.01068 8.37435C7.12989 8.46215 7.1597 8.60849 7.1895 8.75484C7.1895 8.90118 7.12989 9.01825 7.04049 9.13532C6.95108 9.2524 6.80206 9.28167 6.65305 9.31093C6.50404 9.31093 6.38483 9.2524 6.26561 9.16459L5.52055 8.46215C5.40133 8.37435 5.37153 8.22801 5.34173 8.08167C5.34173 7.96459 5.40133 7.81825 5.49074 7.70118ZM6.20601 2.95971C6.23581 2.84264 6.32522 2.78411 6.41463 2.72557C6.50404 2.6963 6.62325 2.66703 6.74246 2.72557L7.48753 3.01825C7.60674 3.04752 7.66634 3.13532 7.72595 3.22313C7.75575 3.31093 7.78555 3.42801 7.72595 3.54508C7.69615 3.66215 7.60674 3.72069 7.51733 3.77923C7.42792 3.8085 7.30871 3.83776 7.1895 3.77923L6.44443 3.48654C6.32522 3.45728 6.26561 3.36947 6.20601 3.28167C6.17621 3.19386 6.17621 3.07679 6.20601 2.95971ZM7.12989 2.98898L6.92128 3.54508L7.2491 3.66215C7.33851 3.69142 7.39812 3.69142 7.48753 3.66215C7.54713 3.63289 7.60674 3.57435 7.63654 3.51581C7.66634 3.42801 7.66634 3.36947 7.63654 3.28167C7.60674 3.22313 7.54713 3.16459 7.48753 3.13532L7.12989 2.98898ZM3.58337 9.16459C3.55356 9.19386 3.49396 9.16459 3.49396 9.13532C3.46415 9.10606 3.49396 9.04752 3.52376 9.04752C3.58337 9.01825 3.64297 8.98898 3.70258 8.98898C3.76218 8.98898 3.82179 8.98898 3.88139 9.01825C3.9112 9.01825 3.941 9.04752 3.9708 9.07679C4.0006 9.10606 4.03041 9.13532 4.06021 9.13532C4.09001 9.16459 4.09001 9.22313 4.06021 9.22313C4.03041 9.2524 3.9708 9.2524 3.9708 9.22313C3.9708 9.19386 3.941 9.19386 3.9112 9.16459C3.88139 9.16459 3.88139 9.13532 3.85159 9.13532C3.82179 9.13532 3.76218 9.10606 3.73238 9.13532C3.67277 9.13532 3.61317 9.13532 3.58337 9.16459ZM4.56686 9.57435C4.56686 8.40362 2.77869 8.28654 2.42106 10.189C2.33165 10.7158 2.42106 10.7451 2.92771 11.1548C3.01711 11.4183 3.31514 11.8573 3.85159 11.7987C5.78877 11.5939 5.90798 9.95484 4.65627 9.69142C5.25232 9.3402 5.22252 8.72557 5.19271 8.40362C5.19271 8.34508 5.19271 8.28654 5.19271 8.25728C5.22252 8.25728 5.22252 8.22801 5.22252 8.19874C5.22252 8.16947 5.19271 8.11093 5.16291 8.11093C5.10331 8.11093 5.0735 8.1402 5.0437 8.19874C5.0437 8.22801 5.0437 8.31581 5.0437 8.37435C5.0735 8.6963 5.10331 9.28167 4.56686 9.57435ZM13.3587 15.4573C13.3289 15.4865 13.2693 15.4865 13.2693 15.4573C13.2395 15.428 13.2395 15.3695 13.2693 15.3695C13.3289 15.3402 13.3885 15.3109 13.4481 15.2817C13.5077 15.2817 13.5673 15.2817 13.6269 15.2817C13.6567 15.2817 13.6865 15.3109 13.7163 15.3402C13.7461 15.3695 13.7759 15.3695 13.8057 15.3987C13.8355 15.428 13.8355 15.4573 13.8057 15.4865C13.7759 15.5158 13.7461 15.5158 13.7163 15.4865C13.6865 15.4573 13.6865 15.4573 13.6567 15.428C13.6269 15.428 13.6269 15.3987 13.5971 15.3987C13.5673 15.3987 13.5077 15.3987 13.4779 15.3987C13.4183 15.428 13.3885 15.428 13.3587 15.4573ZM14.2528 15.6036C13.8951 14.6378 12.405 15.1061 12.7328 16.7158C12.8222 17.1548 12.9116 17.1548 13.4481 17.3304C13.5971 17.5061 13.9845 17.7695 14.4018 17.5646C15.8621 16.8036 15.4747 15.5158 14.4614 15.6036C14.7594 15.2524 14.6402 14.8134 14.5806 14.5792C14.5806 14.55 14.5508 14.4914 14.5508 14.4914C14.5508 14.4914 14.5806 14.4622 14.5806 14.4329C14.5806 14.4036 14.5508 14.3743 14.521 14.3743C14.4614 14.3743 14.4316 14.4036 14.4316 14.4622C14.4316 14.4914 14.4614 14.55 14.4614 14.6085C14.4614 14.8426 14.5806 15.2524 14.2528 15.6036ZM6.23581 9.8963C6.20601 9.86703 6.23581 9.8085 6.26561 9.8085C6.29542 9.77923 6.35502 9.8085 6.35502 9.83776C6.41463 9.92557 6.59344 10.0426 6.77226 10.1012C6.98088 10.189 7.2193 10.2475 7.33851 10.2183C7.36832 10.2183 7.39812 10.2475 7.42792 10.2768C7.42792 10.3061 7.39812 10.3353 7.36832 10.3646C7.2193 10.3939 6.95108 10.3353 6.71266 10.2183C6.50404 10.1304 6.29542 10.0134 6.23581 9.8963ZM11.5705 8.37435C11.5109 8.37435 11.4811 8.40362 11.4215 8.46215C11.4215 8.46215 11.4215 8.46215 11.3917 8.46215C11.3321 8.37435 11.1831 8.19874 11.0043 8.08167C10.885 7.99386 10.736 7.90606 10.6168 7.90606C10.5572 7.90606 10.5274 7.93532 10.4678 8.02313C10.438 8.08167 10.3486 8.19874 10.2294 8.22801C10.1698 8.25728 10.0804 8.37435 9.99096 8.52069C9.93135 8.66703 9.84195 8.87191 9.84195 8.93045C9.87175 9.01825 9.96116 9.13532 10.0804 9.2524C10.1996 9.3402 10.3188 9.42801 10.438 9.45728C9.12668 10.3061 7.12989 10.4817 6.23581 9.51581C6.05699 9.3402 5.90798 9.3402 5.78877 9.36947C5.63976 9.39874 5.55035 9.57435 5.58015 9.66215C5.87818 11.1548 10.14 11.0963 11.5705 8.90118C11.6301 8.7841 11.8983 8.40362 11.5705 8.37435ZM10.6466 8.0524C10.6466 8.08167 10.6168 8.11093 10.587 8.11093L11.0937 8.54996C11.1235 8.57923 11.1235 8.60849 11.0937 8.63776C11.0639 8.66703 11.0341 8.66703 11.0043 8.63776L10.4976 8.19874C10.438 8.22801 10.3784 8.28654 10.3188 8.28654C10.3188 8.28654 10.2294 8.40362 10.1698 8.52069L10.4678 8.75484C10.4976 8.7841 10.4976 8.81337 10.4678 8.84264C10.438 8.87191 10.4082 8.87191 10.3784 8.84264L10.0804 8.66703C10.0208 8.7841 9.96116 8.87191 9.96116 8.87191C9.99096 8.93045 10.0506 9.04752 10.14 9.10606C10.2592 9.19386 10.3784 9.28167 10.4976 9.31093C10.5274 9.31093 10.6764 9.16459 10.8552 9.01825C11.0341 8.81337 11.2427 8.57923 11.2725 8.49142C11.2427 8.46215 11.0937 8.28654 10.9148 8.1402C10.8552 8.08167 10.6764 7.96459 10.6466 8.0524ZM1.25875 2.46215C1.52698 2.52069 1.825 2.46215 2.03362 2.34508C2.27204 2.19874 2.42106 1.99386 2.51047 1.73045C2.57007 1.43776 2.54027 1.14508 2.39126 0.940203C2.24224 0.706056 2.03362 0.530447 1.7654 0.47191C1.46737 0.384105 1.19914 0.442642 0.960723 0.588983C0.722301 0.706056 0.573287 0.940203 0.483879 1.20362C0.424273 1.4963 0.483879 1.75971 0.60309 1.99386C0.752104 2.22801 0.960723 2.37435 1.25875 2.46215ZM1.22895 2.57923C0.901117 2.52069 0.632893 2.31581 0.483879 2.0524C0.334865 1.78898 0.275259 1.4963 0.334865 1.17435C0.424273 0.881666 0.632893 0.618252 0.901117 0.47191C1.16934 0.325569 1.46737 0.267032 1.7952 0.325569C2.09323 0.413373 2.36145 0.588983 2.51047 0.852398C2.65948 1.11581 2.71909 1.4085 2.65948 1.73045C2.57007 2.0524 2.36145 2.28654 2.12303 2.46215C1.85481 2.6085 1.52698 2.66703 1.22895 2.57923ZM1.19915 0.82313C1.16934 0.852398 1.10974 0.82313 1.10974 0.793861C1.07993 0.764593 1.10974 0.735325 1.13954 0.706056C1.25875 0.64752 1.40776 0.618252 1.52698 0.618252C1.64619 0.618252 1.7952 0.64752 1.91441 0.706056C1.94421 0.735325 1.97402 0.764593 1.94421 0.793861C1.94421 0.82313 1.88461 0.852398 1.85481 0.82313C1.73559 0.793861 1.64619 0.764593 1.52698 0.764593C1.40776 0.764593 1.31836 0.793861 1.19915 0.82313ZM1.13954 2.84264C1.28855 2.95972 1.31836 3.13532 1.25875 3.31093L1.13954 3.66215C1.05013 3.8963 0.811709 3.98411 0.573287 3.92557C0.334865 3.83776 0.245457 3.60362 0.305062 3.36947L0.424273 3.01825C0.483879 2.84264 0.662695 2.72557 0.841512 2.75484L0.901117 2.63776C0.334865 2.37435 0.0368374 1.75971 0.185851 1.14508C0.364668 0.442642 1.07993 0.0328857 1.7952 0.208495C2.51047 0.384105 2.92771 1.08654 2.74889 1.78898C2.57007 2.49142 1.85481 2.90118 1.13954 2.72557V2.84264ZM3.70258 0.384105C3.76218 0.442642 3.79199 0.530447 3.79199 0.618252C3.79199 0.852398 3.64297 1.02801 3.40455 1.05728C3.31514 1.05728 3.22573 1.02801 3.16613 0.998739L3.70258 0.384105ZM2.95751 0.64752C2.95751 0.413373 3.10652 0.237764 3.34494 0.208495C3.43435 0.208495 3.52376 0.237764 3.58337 0.267032L3.04692 0.852398C3.01711 0.793861 2.98731 0.735325 2.95751 0.64752ZM2.27204 3.36947C2.18264 3.28167 2.15283 3.19386 2.15283 3.13532C2.15283 3.04752 2.18264 2.95971 2.24224 2.87191L2.68928 2.40362C2.74889 2.34508 2.8383 2.28654 2.92771 2.28654C3.01711 2.28654 3.10652 2.31581 3.19593 2.37435C3.25554 2.43289 3.31514 2.52069 3.31514 2.6085C3.31514 2.6963 3.28534 2.78411 3.22573 2.87191L2.77869 3.31093C2.71909 3.36947 2.62968 3.42801 2.54027 3.42801C2.42106 3.45728 2.33165 3.42801 2.27204 3.36947ZM2.59987 2.72557L2.92771 3.01825L3.13632 2.81337C3.16613 2.78411 3.19593 2.72557 3.19593 2.66703C3.19593 2.6085 3.16613 2.54996 3.13632 2.52069C3.04692 2.46215 2.98731 2.43289 2.92771 2.43289C2.8979 2.43289 2.8383 2.46215 2.77869 2.52069L2.59987 2.72557ZM0.454076 16.95C0.424273 17.0085 0.483879 17.067 0.573287 17.1256C0.722301 17.1841 1.05013 17.2719 1.58658 17.3304C1.64619 17.3304 1.70579 17.3304 1.70579 17.2719C1.70579 17.2426 1.70579 17.2134 1.61638 17.1841C1.49717 17.1548 1.31836 17.1548 1.07993 17.0963C0.960723 17.067 0.841512 17.0378 0.752104 16.9792C0.573287 16.95 0.483879 16.8914 0.454076 16.95ZM2.57007 14.8134C3.04692 14.7841 3.79199 15.0475 3.13632 15.8378C4.32843 16.4231 5.19271 17.2134 4.71587 17.5353C4.44765 17.7109 1.13954 17.5646 0.632892 17.6231C0.126246 17.6817 0.185851 17.4475 0.156048 17.0378C0.126246 16.7743 0.0964429 16.5695 0.334865 16.6573C2.39126 17.4475 5.10331 17.1548 2.92771 16.2475C1.94421 15.9256 2.8681 15.5451 2.8979 15.3987C2.92771 15.1646 2.71909 15.1646 2.51047 15.1939C2.33165 15.2231 2.36145 15.1646 2.36145 15.0768V14.989C2.36145 14.8426 2.39126 14.8426 2.57007 14.8134ZM4.0006 15.75C3.85159 15.5158 3.76218 15.2817 3.85159 15.0768C4.11982 14.3743 7.2193 13.7304 6.26561 17.4475C6.0868 18.2378 4.20922 16.0719 4.0006 15.75ZM4.29863 14.9597C4.32843 14.8719 4.26883 14.8426 4.20922 14.9012C4.11982 14.989 4.0006 15.0768 4.0006 15.2231C4.0006 15.3109 4.0006 15.3987 4.09001 15.3987C4.17942 15.3695 4.11982 15.2817 4.14962 15.1939C4.17942 15.1061 4.26883 15.0475 4.29863 14.9597ZM5.84838 16.4524C5.93778 16.189 5.93778 15.5158 5.78877 15.2817C5.55035 14.9597 5.31193 14.9304 4.92449 15.0183C4.62646 15.1061 4.20922 15.3109 4.44765 15.6622C4.56686 15.8378 4.65627 15.9256 4.83508 16.1012C5.10331 16.3353 5.66956 16.9207 5.84838 16.4524ZM5.90798 14.0817C5.81857 14.1402 5.72916 14.1695 5.60995 14.1695C5.34173 14.1695 5.13311 13.9646 5.13311 13.7012C5.13311 13.5841 5.16291 13.4963 5.25232 13.4085L5.90798 14.0817ZM5.60995 13.2036C5.87818 13.2036 6.0868 13.4085 6.0868 13.6719C6.0868 13.789 6.05699 13.8768 5.99739 13.9646L5.34173 13.2914C5.40133 13.2329 5.52055 13.2036 5.60995 13.2036ZM0.573287 15.1939C0.752104 14.989 0.901117 14.8134 1.10974 14.6378C1.25875 14.5207 1.70579 14.0817 1.825 13.9939C1.88461 13.9646 1.73559 15.1939 0.573287 15.3695C0.39447 15.3987 0.483879 15.3402 0.573287 15.1939ZM0.841512 14.2865C0.841512 14.3158 0.811709 14.3743 0.811709 14.4036C0.781906 14.4622 0.692498 14.4622 0.662695 14.4622C0.275259 14.4914 -0.0525709 15.2524 0.00703457 15.7792C0.275259 16.1012 1.37796 15.8378 1.7952 15.3109C2.15283 14.8719 2.36145 14.3743 2.15283 13.7012C1.97402 13.5256 0.990526 13.7597 0.841512 14.2865ZM1.88461 16.1304L1.70579 16.5987L2.03362 16.7158C2.09323 16.7451 2.18264 16.7451 2.24224 16.7158C2.30185 16.6865 2.36145 16.628 2.39126 16.5695C2.42106 16.5109 2.42106 16.4231 2.39126 16.3646C2.36145 16.3061 2.30185 16.2475 2.24224 16.2183L1.88461 16.1304ZM1.05013 16.1012C1.10974 15.9841 1.16934 15.8963 1.25875 15.867C1.34816 15.8378 1.46737 15.8085 1.55678 15.867L2.24224 16.1304C2.33165 16.1597 2.42106 16.2475 2.48066 16.3353C2.51047 16.4231 2.54027 16.5402 2.48066 16.628C2.45086 16.7158 2.39126 16.8036 2.27204 16.8622C2.18264 16.8914 2.06343 16.9207 1.97402 16.8622L1.28855 16.5987C1.16934 16.5695 1.10974 16.4817 1.05013 16.3939C1.02033 16.3061 1.02033 16.189 1.05013 16.1012ZM1.40776 4.59874C1.40776 4.5402 1.46737 4.5402 1.49717 4.56947C1.52698 4.59874 1.55678 4.62801 1.52698 4.65728C1.46737 4.77435 1.37796 4.86215 1.28855 4.92069C1.19915 5.0085 1.07993 5.03776 0.960723 5.0963C0.93092 5.0963 0.871315 5.0963 0.871315 5.03776C0.871315 5.0085 0.871315 4.94996 0.93092 4.94996C1.02033 4.92069 1.10974 4.86215 1.19915 4.80362C1.28855 4.74508 1.34816 4.68654 1.40776 4.59874ZM7.78555 2.37435C7.12989 1.61337 5.84838 1.73045 5.10331 2.22801C4.83508 2.40362 4.71587 2.6963 4.59666 2.90118C4.50725 3.07679 4.20922 3.16459 3.9708 2.95971C2.57007 1.73045 5.46094 -1.34272 8.67964 0.969471C9.06707 1.23289 9.21609 1.43776 8.94786 1.67191C8.56043 1.99386 7.96437 2.54996 7.78555 2.37435ZM3.76218 2.93045C3.941 3.16459 4.35824 3.13532 4.11982 3.39874C4.09001 3.45728 4.03041 3.48654 4.0006 3.51581C3.88139 3.63289 3.85159 3.66215 3.70258 3.57435C3.61317 3.54508 3.55356 3.48654 3.49396 3.42801C3.37475 3.31093 3.37475 3.28167 3.43435 3.13532C3.43435 3.07679 3.46415 3.01825 3.52376 2.87191C3.64297 2.49142 3.58337 2.6963 3.76218 2.93045ZM5.55035 1.78898C5.46094 1.61337 5.16291 1.14508 4.9841 1.02801C4.74567 0.852398 6.26561 0.2963 7.07029 0.618252C7.1597 0.64752 7.33851 1.81825 7.2193 1.78898C6.50404 1.4963 5.58015 1.81825 5.55035 1.78898ZM4.47745 1.29142C4.50725 1.26215 4.56686 1.26215 4.56686 1.29142C4.59666 1.32069 4.59666 1.37923 4.56686 1.37923C4.47745 1.43776 4.41784 1.52557 4.35824 1.58411C4.29863 1.67191 4.23903 1.75971 4.20922 1.84752C4.17942 1.90606 4.11982 1.93532 4.09001 1.90606C4.06021 1.87679 4.03041 1.84752 4.06021 1.81825C4.11982 1.73045 4.17942 1.61337 4.23903 1.52557C4.29863 1.46703 4.38804 1.37923 4.47745 1.29142ZM9.12668 1.61337C8.91806 1.90606 8.59023 2.28654 8.20279 2.46215C7.99417 2.52069 7.90477 2.46215 8.05378 2.66703C8.08358 2.72557 8.08358 2.75484 8.17299 2.81337C8.38161 2.95971 8.38161 2.93045 8.62003 2.78411C9.00747 2.54996 9.18628 2.08167 9.48431 1.84752C9.69293 1.70118 9.60352 1.58411 9.3949 1.52557C9.21609 1.46703 9.18629 1.4963 9.12668 1.61337ZM2.8383 4.92069C2.51047 4.94996 2.18264 4.51093 1.91441 4.56947C1.46737 4.68654 1.31836 5.53532 0.513682 5.24264C0.275259 5.15484 0.215654 4.92069 0.364668 4.71581C0.93092 3.92557 1.97402 3.51581 2.65948 3.86703C3.04692 4.04264 3.07672 3.48654 3.22573 3.51581C3.85159 3.69142 3.85159 4.80362 2.8383 4.92069ZM3.10652 5.53532C3.07672 5.53532 3.04692 5.50606 3.01711 5.47679C3.01711 5.44752 3.04692 5.41825 3.07672 5.38898C3.43435 5.35971 3.82179 5.41825 4.20922 5.50606C4.35824 5.53532 4.50725 5.56459 4.65627 5.62313C4.68607 5.62313 4.71587 5.6524 4.71587 5.71093C4.71587 5.7402 4.68607 5.76947 4.62646 5.76947C4.47745 5.7402 4.32843 5.68167 4.17942 5.6524C3.82179 5.56459 3.43435 5.50606 3.10652 5.53532ZM0.454076 6.2085C0.483879 6.2085 0.483879 6.2085 0.513682 6.2085C0.692498 6.17923 0.960723 6.12069 1.28855 6.06215C1.73559 5.97435 2.15283 5.88654 2.18264 5.88654C2.24224 5.94508 2.24224 6.06215 2.24224 6.2085C2.24224 6.2963 2.27204 6.53045 2.21244 6.61825C2.21244 6.61825 2.09323 6.67679 1.97402 6.70606C1.85481 6.73532 1.73559 6.76459 1.67599 6.76459C1.67599 6.76459 1.67599 6.76459 1.64619 6.76459L1.55678 6.14996C1.55678 6.12069 1.52698 6.09142 1.46737 6.09142C1.43757 6.09142 1.40776 6.12069 1.40776 6.17923L1.49717 6.76459C1.31836 6.79386 1.10974 6.88167 0.93092 6.96947L0.811709 6.44264C0.811709 6.41337 0.752104 6.38411 0.722301 6.38411C0.692498 6.38411 0.662695 6.44264 0.662695 6.47191L0.781906 7.02801L0.722301 7.05728C0.632893 7.08654 0.573287 7.11581 0.543484 7.14508C0.483879 6.99874 0.454076 6.82313 0.454076 6.67679C0.424273 6.44264 0.454076 6.2963 0.454076 6.2085ZM0.215654 5.88654C0.126246 5.91581 0.156048 6.12069 0.305062 6.17923C0.305062 6.2963 0.305062 6.47191 0.334865 6.64752C0.364668 6.76459 0.39447 7.08654 0.454076 7.20362C0.483879 7.26215 0.513682 7.26215 0.573287 7.23289C0.573287 7.23289 0.781906 7.11581 0.811709 7.11581C0.841512 7.08654 0.871315 7.08654 0.93092 7.05728C1.13954 6.9402 1.40776 6.82313 1.58658 6.82313C1.61638 6.82313 1.61638 6.82313 1.64619 6.82313C1.70579 6.82313 1.85481 6.79386 2.00382 6.76459C2.06343 6.73532 2.30185 6.67679 2.33165 6.61825C2.39126 6.50118 2.39126 6.32557 2.36145 6.14996C2.36145 6.00362 2.36145 5.85728 2.27204 5.76947C2.54027 5.7402 2.8383 5.7402 3.13632 5.76947C4.47745 5.88654 4.35824 6.09142 4.80528 6.00362C4.9841 5.97435 5.0437 5.6524 4.92449 5.59386C3.28534 4.80362 0.632893 5.76947 0.215654 5.88654ZM12.6434 2.72557C13.2097 2.93045 13.7759 3.13532 14.0441 3.57435C14.5508 4.39386 13.8355 5.06703 14.2826 5.27191C15.5939 5.79874 16.3688 4.39386 15.3555 2.6963C15.0872 2.25728 14.8488 1.87679 14.3422 1.43776C14.1335 1.23289 14.1335 1.17435 13.8355 1.37923C13.4183 1.61337 12.7328 2.22801 12.5242 2.52069C12.3752 2.66703 12.4944 2.66703 12.6434 2.72557ZM12.3752 2.40362C12.5838 2.11093 13.3587 1.43776 13.7163 1.26215C13.8951 1.17435 13.9249 1.11581 13.8653 1.02801C13.8355 0.969471 13.7759 0.910934 13.7163 0.852398C13.5077 0.706056 13.4183 0.735325 13.1799 0.852398C12.7924 1.08654 12.3454 1.90606 12.0175 2.1402C11.8089 2.28654 11.8983 2.40362 12.107 2.46215C12.2858 2.52069 12.3156 2.52069 12.3752 2.40362ZM14.4316 4.18898C14.4316 4.15971 14.4614 4.13045 14.4912 4.10118C14.521 4.10118 14.5508 4.13045 14.5806 4.15972C14.6104 4.36459 14.6104 4.48167 14.5806 4.59874C14.5806 4.71581 14.5508 4.80362 14.521 4.92069C14.521 4.94996 14.4614 4.97923 14.4316 4.97923C14.4018 4.97923 14.372 4.92069 14.372 4.89142C14.4018 4.77435 14.4316 4.68654 14.4316 4.59874C14.4614 4.51093 14.4614 4.39386 14.4316 4.18898ZM14.819 3.77923C15.266 3.69142 15.4151 3.72069 15.2959 3.22313C15.2064 2.81337 14.8786 2.37435 14.5508 2.02313C14.3124 1.78898 14.3124 1.78898 14.0441 1.96459C13.6269 2.22801 13.3289 2.46215 13.2991 2.6085C13.2991 2.6963 13.4481 2.72557 13.6865 2.87191C13.9845 3.07679 14.1633 3.28167 14.2826 3.45728C14.5508 3.8963 14.4912 3.86703 14.819 3.77923ZM12.2262 7.05728C12.2262 7.08654 12.1964 7.11581 12.1368 7.11581C12.107 7.11581 12.0772 7.08654 12.0772 7.02801C12.107 6.91093 12.1368 6.79386 12.1666 6.67679C12.2262 6.55971 12.2858 6.47191 12.3454 6.38411C12.3752 6.35484 12.405 6.35484 12.4348 6.38411C12.4646 6.41337 12.4646 6.44264 12.4348 6.47191C12.3752 6.55971 12.3156 6.64752 12.2858 6.73532C12.256 6.82313 12.2262 6.9402 12.2262 7.05728ZM12.554 6.03289C12.9116 5.88654 13.1501 6.73532 13.5673 5.97435C13.8057 5.59386 14.1037 6.12069 13.9547 6.64752C13.8653 7.02801 13.4183 6.79386 13.001 6.8524C12.405 6.9402 12.852 7.84752 12.0474 7.67191C11.6301 7.58411 12.0473 6.26703 12.554 6.03289ZM14.7594 5.47679C14.5806 5.47679 14.4316 5.44752 14.2528 5.35971C14.0143 5.24264 14.1037 5.12557 13.8653 5.53532C13.7759 5.68167 13.8653 5.7402 14.0739 5.85728C14.3422 5.97435 14.3124 5.88654 14.5806 5.7402C14.7594 5.59386 14.9084 5.47679 14.7594 5.47679ZM18.8424 5.88654C18.753 5.97435 18.6338 6.00362 18.5145 6.00362C18.2463 6.00362 18.0377 5.79874 18.0377 5.53532C18.0377 5.44752 18.0675 5.35971 18.0973 5.30118L18.8424 5.88654ZM18.5145 5.03776C18.7828 5.03776 18.9914 5.24264 18.9914 5.50606C18.9914 5.59386 18.9616 5.68167 18.9318 5.7402L18.1867 5.15484C18.2761 5.0963 18.3655 5.03776 18.5145 5.03776ZM31.3893 7.20362C31.4191 7.23289 31.4191 7.26215 31.4191 7.29142C31.3893 7.32069 31.3595 7.32069 31.3297 7.32069C31.2701 7.29142 31.2403 7.23288 31.2105 7.17435C31.1807 7.11581 31.1509 7.05728 31.1509 6.99874C31.1509 6.96947 31.1509 6.9402 31.1509 6.88167C31.1509 6.8524 31.1807 6.82313 31.1807 6.79386C31.2105 6.76459 31.2403 6.73532 31.2701 6.76459C31.2999 6.79386 31.3297 6.82313 31.2999 6.8524C31.2999 6.88167 31.2701 6.88167 31.2701 6.91093C31.2701 6.9402 31.2701 6.96947 31.2701 6.96947C31.2701 6.99874 31.2701 7.05728 31.2999 7.08654C31.3297 7.14508 31.3595 7.17435 31.3893 7.20362ZM32.9093 6.41337L32.0748 5.97435L31.9258 5.88654L32.045 5.71093L32.194 5.79874L32.343 5.59386L32.194 5.50606L32.3132 5.33045L32.4622 5.41825L32.6113 5.21337L32.4622 5.12557L32.5815 4.94996L32.7305 5.03776L32.8795 4.83289L32.7305 4.74508L32.8497 4.56947L32.9987 4.65728L33.1179 4.48167C33.2073 4.36459 33.3265 4.30606 33.4755 4.39386C33.5947 4.4524 33.6245 4.59874 33.5649 4.74508L33.4755 4.94996L33.6245 5.03776L33.5351 5.24264L33.3861 5.15484L33.2967 5.38898L33.4457 5.47679L33.3563 5.68167L33.2073 5.59386L33.1179 5.82801L33.2669 5.91581L33.1775 6.12069L33.0285 6.03289L32.9391 6.26703L33.0881 6.35484L32.9987 6.55971L32.9093 6.41337ZM31.9854 7.84752L31.7172 7.5841L31.3595 7.4963C31.0317 7.40849 30.8827 6.9402 31.1211 6.70606L31.8364 5.97435L33.1477 6.67679L32.8199 7.61337C32.7007 7.90606 32.2238 8.0524 31.9854 7.84752ZM18.753 0.764593C18.753 0.793861 18.6934 0.82313 18.6636 0.82313C18.6338 0.82313 18.604 0.764593 18.604 0.735325C18.604 0.706056 18.6338 0.676788 18.6636 0.64752C18.6934 0.618252 18.7232 0.588983 18.753 0.588983C18.7828 0.588983 18.8126 0.559715 18.8424 0.559715C18.8722 0.559715 18.902 0.559715 18.9318 0.559715C18.9616 0.559715 18.9914 0.618252 18.9616 0.64752C18.9616 0.676788 18.902 0.706056 18.8722 0.676788H18.8424H18.8126C18.8126 0.676788 18.7828 0.676788 18.7828 0.706056C18.753 0.764593 18.753 0.764593 18.753 0.764593ZM18.5742 1.14508C18.604 1.20362 18.604 1.37923 18.6338 1.46703C18.6636 1.58411 18.7232 1.93532 18.902 1.93532C18.9914 1.93532 19.051 1.87679 19.051 1.78898C19.051 1.75971 19.051 1.73045 19.0212 1.73045C18.9914 1.70118 18.9616 1.67191 18.9616 1.58411C18.9616 1.4963 19.0212 1.34996 19.1702 1.34996C19.3192 1.34996 19.3788 1.4963 19.3788 1.58411C19.3788 1.67191 19.349 1.70118 19.3192 1.73045C19.3192 1.75971 19.2894 1.75971 19.2894 1.78898C19.2894 1.87679 19.349 1.93532 19.4384 1.93532C19.5874 1.93532 19.6769 1.58411 19.7067 1.46703C19.7365 1.34996 19.7365 1.20362 19.7663 1.14508C19.8259 1.02801 19.8855 0.969471 19.8855 0.82313C19.8855 0.618252 19.7067 0.442642 19.498 0.442642C19.3192 0.442642 19.3192 0.530447 19.1404 0.530447C18.9616 0.530447 18.9616 0.442642 18.7828 0.442642C18.5742 0.442642 18.3953 0.588983 18.3953 0.82313C18.4549 0.969471 18.5444 1.02801 18.5742 1.14508ZM20.6603 2.72557L20.1239 2.19874C20.0941 2.16947 20.0941 2.1402 20.0941 2.11093C20.0941 2.08167 20.0941 2.0524 20.1239 2.02313L20.3623 1.78898C20.3921 1.75971 20.4219 1.75971 20.4517 1.75971C20.4815 1.75971 20.5113 1.78898 20.5411 1.78898L21.0776 2.31581C21.1074 2.34508 21.1074 2.37435 21.1074 2.40362C21.1074 2.43289 21.1074 2.46215 21.0776 2.49142L20.8392 2.72557C20.8094 2.75484 20.7796 2.75484 20.7498 2.75484C20.72 2.75484 20.6902 2.75484 20.6603 2.72557ZM18.0973 0.0914223H20.3027C20.4815 0.0914223 20.6007 0.237764 20.6007 0.413373V1.75971L20.5709 1.70118C20.5411 1.67191 20.5113 1.64264 20.4517 1.64264C20.4219 1.64264 20.3623 1.64264 20.3325 1.67191L20.0345 1.96459C20.0047 2.02313 19.9749 2.08167 19.9749 2.11093C19.9749 2.1402 20.0047 2.19874 20.0345 2.22801L20.1537 2.34508H18.0973C17.9185 2.34508 17.7993 2.19874 17.7993 2.02313V0.384105C17.7993 0.208495 17.9185 0.0914223 18.0973 0.0914223ZM22.2995 0.179227C22.2995 0.149959 22.3293 0.120691 22.3591 0.120691C22.3889 0.120691 22.4187 0.149959 22.4187 0.179227C22.4187 0.325569 22.4187 0.384105 22.4187 0.442642C22.4187 0.530447 22.4187 0.588983 22.4187 0.735325C22.4187 0.764593 22.3889 0.793861 22.3293 0.793861C22.2995 0.793861 22.2697 0.764593 22.2697 0.706056C22.2697 0.559715 22.2697 0.501178 22.2697 0.442642C22.2995 0.384105 22.2995 0.325569 22.2995 0.179227ZM22.3591 0.0328857C22.5379 0.0328857 22.7167 0.0328857 22.8956 0.0328857C23.1042 0.0328857 23.0744 0.00361739 23.0744 0.208495C23.0744 0.384105 23.0744 0.530447 23.0744 0.706056C23.0744 0.969471 23.0148 0.940203 23.283 0.940203C23.4618 0.940203 23.6406 0.940203 23.8194 0.940203C24.0877 0.940203 24.0579 0.881666 24.0579 1.17435C24.0579 1.34996 24.0579 1.4963 24.0579 1.67191C24.0579 1.90606 24.0579 1.84752 23.8194 1.84752C23.6406 1.84752 23.432 1.84752 23.2234 1.84752C23.0446 1.84752 23.0744 1.81825 23.0744 1.99386C23.0744 2.1402 23.0744 2.1402 23.0744 2.28654C23.0744 2.54996 23.134 2.52069 22.8956 2.57923C22.7167 2.6085 22.5677 2.66703 22.3889 2.66703C22.0611 2.6963 22.1803 2.28654 22.1803 1.96459C22.1803 1.78898 22.2101 1.81825 22.0313 1.81825C21.8227 1.81825 21.6438 1.81825 21.4352 1.81825C21.167 1.81825 21.2266 1.84752 21.2266 1.58411C21.2266 1.46703 21.2266 1.34996 21.2266 1.23289C21.2266 0.940203 21.167 0.940203 21.4352 0.940203C21.614 0.940203 21.7929 0.940203 21.9717 0.940203C22.2101 0.940203 22.1505 0.910934 22.1505 0.618252C22.1505 0.501178 22.1505 0.354837 22.1505 0.237764C22.1505 -0.0256509 22.1207 0.0328857 22.3591 0.0328857ZM33.7736 12.4134C33.8928 12.0914 34.2206 11.5061 34.3696 11.2134C34.5186 10.9792 34.7571 10.4524 34.9061 10.2768C35.1445 11.2719 34.5782 12.2963 33.7736 12.4134ZM34.0418 10.7158C34.0418 10.7743 34.012 11.0085 34.012 11.0378C34.012 11.0963 33.714 11.2719 33.6842 11.3012C33.4159 11.4183 33.4755 11.9158 33.3563 12.4134C33.2669 12.7353 33.3265 12.8524 33.6544 12.8524C34.31 12.8231 34.9955 12.3548 35.2339 11.7402C35.4425 11.1548 35.5617 9.8085 35.2339 9.66215C35.2041 9.66215 35.1743 9.66215 35.1147 9.66215C34.9061 9.8085 34.2802 10.3353 34.0418 10.7158ZM30.7337 2.81337C31.0615 2.93045 31.5682 3.13532 31.8066 3.2524C31.9556 3.3402 32.5516 3.60362 32.7007 3.72069C32.8497 3.83776 31.2701 4.15971 30.7039 3.01825C30.6443 2.87191 30.5549 2.72557 30.7337 2.81337ZM32.0748 2.90118C32.045 2.90118 31.9854 2.90118 31.9556 2.90118C31.896 2.90118 31.8662 2.81337 31.8662 2.78411C31.6874 2.43289 30.8529 2.37435 30.3462 2.63776C30.1078 3.04752 30.5549 3.83776 31.2403 4.18898C31.8662 4.51093 32.7305 4.42313 33.1477 3.86703C33.1477 3.83776 33.1477 3.8085 33.1477 3.77923C32.9689 3.3402 32.6411 2.84264 32.0748 2.90118ZM27.366 16.95C27.3362 16.95 27.2766 16.9207 27.2766 16.8914C27.2766 16.8622 27.3064 16.8036 27.3362 16.8036C27.3958 16.8036 27.4554 16.7743 27.515 16.7451C27.5746 16.7158 27.6044 16.6573 27.6342 16.628C27.664 16.5987 27.6938 16.5987 27.7236 16.5987C27.7534 16.628 27.7534 16.6573 27.7534 16.6865C27.6938 16.7451 27.664 16.8036 27.5746 16.8622C27.5448 16.9207 27.4554 16.95 27.366 16.95ZM28.2601 16.5402L28.3197 17.389C28.3197 17.5646 28.0812 17.7109 27.9024 17.6524L26.8891 17.3597C26.8295 17.3304 26.7997 17.3012 26.7997 17.2426C26.8295 17.1548 26.8295 17.0378 26.8593 16.9207C26.8891 16.7158 26.8593 16.7451 27.0381 16.7451C27.2468 16.7451 27.4554 16.7158 27.5746 16.4524C27.6342 16.3353 27.6342 16.3353 27.7534 16.3646L28.1408 16.4524C28.2302 16.4231 28.2601 16.4817 28.2601 16.5402ZM26.6805 17.0085C26.6209 17.2719 26.6507 17.2134 26.3825 17.2134C26.1143 17.2134 26.1739 17.2719 26.2037 17.0085C26.2335 16.8036 26.2037 16.8329 26.4123 16.8329C26.7103 16.8329 26.7401 16.7451 26.6805 17.0085ZM23.1042 15.1646C23.134 15.1939 23.134 15.2524 23.1042 15.2524C23.0744 15.2817 23.0148 15.2817 23.0148 15.2524C22.985 15.1939 22.8956 15.1939 22.8359 15.2231C22.7465 15.2817 22.6273 15.3695 22.5379 15.4573C22.5081 15.4865 22.4783 15.4865 22.4485 15.4573C22.4187 15.428 22.4187 15.3987 22.4485 15.3695C22.5677 15.2524 22.6869 15.1646 22.8061 15.1061C22.8956 15.0475 23.0148 15.0475 23.1042 15.1646ZM26.1143 16.6573L25.9652 17.4768C25.9354 17.6231 25.7566 17.6817 25.6076 17.6817C24.2963 17.7402 20.8988 16.3061 21.6736 15.75L22.5081 15.1353C22.9552 14.8134 22.9254 14.8134 23.3724 15.1939C23.7896 15.5743 23.9685 15.9256 25.9056 16.3061C26.0546 16.3353 26.1441 16.5109 26.1143 16.6573ZM28.2302 15.2231C28.2302 15.3695 28.2302 15.5158 28.2302 15.6622C28.2302 15.8085 28.2302 15.9841 28.2302 16.1304C28.2302 16.3353 28.2004 16.2475 27.9918 16.2183C27.7534 16.189 27.7236 16.2183 27.813 16.0426C27.8726 15.8963 27.9322 15.75 27.9918 15.6036L28.1706 15.1939V15.1646C28.1408 15.1646 28.111 15.1061 28.0812 15.0768C28.0514 14.989 28.0812 14.9304 28.1706 14.9012C28.2601 14.8719 28.3197 14.9012 28.3495 14.989C28.3793 15.0768 28.3495 15.1353 28.2601 15.1646C28.2601 15.2231 28.2302 15.2231 28.2302 15.2231ZM22.0611 11.9743C22.2399 12.2085 22.5081 12.5304 22.6571 12.7939C22.7465 12.9402 23.0744 13.467 23.134 13.6426C23.1638 13.7012 21.8525 13.2329 22.0611 11.9743ZM23.0744 12.6183C23.0446 12.589 22.985 12.589 22.9552 12.5597C22.9254 12.5304 22.9254 12.4426 22.9552 12.4134C23.0148 12.0329 22.3591 11.5353 21.7929 11.4768C21.4352 11.6524 21.4352 12.7646 21.8525 13.2914C22.2101 13.7304 22.6571 14.0524 23.3426 13.9939C23.5512 13.8768 23.5512 12.8817 23.0744 12.6183ZM20.5113 12.2378C20.3325 12.1207 19.9451 12.0622 19.8557 12.0622C19.6769 12.0329 19.4682 13.2622 19.8259 13.9646C20.0345 14.3451 20.1239 14.2573 20.5411 14.1695C20.6902 14.1402 20.8392 14.1109 20.9584 14.0817C21.316 13.9939 21.167 13.9939 21.0478 13.789C20.8094 13.4378 20.7498 12.9109 20.72 12.589C20.6902 12.3256 20.72 12.3548 20.5113 12.2378ZM20.3921 11.0963C20.4219 11.067 20.4815 11.0963 20.4815 11.1256C20.5113 11.1548 20.4815 11.2134 20.4517 11.2134C20.3623 11.2719 20.2729 11.3304 20.2133 11.389C20.1537 11.4475 20.0643 11.5353 20.0047 11.6231C19.9749 11.6524 19.9451 11.6524 19.9153 11.6524C19.8855 11.6231 19.8855 11.5939 19.8855 11.5646C19.9451 11.4768 20.0345 11.389 20.0941 11.3012C20.2133 11.2134 20.3027 11.1548 20.3921 11.0963ZM21.8525 14.0524C21.3756 13.8768 21.0478 13.2036 20.9882 12.5304C20.8988 11.8865 21.4352 11.5939 21.167 11.2426C20.8988 10.8622 20.5411 10.8329 20.2431 11.0378C18.9318 11.828 18.8722 13.9061 20.1239 14.8426C20.3623 15.0183 20.3623 15.0183 20.6902 14.8719C21.0478 14.6963 21.6438 14.3743 21.9717 14.228C22.2399 14.1109 22.0611 14.1402 21.8525 14.0524ZM21.4352 11.1548C21.4948 11.0963 21.5246 11.0378 21.5544 10.9792C21.614 10.8622 21.5842 10.8622 21.5246 10.7743C21.465 10.6865 21.4054 10.628 21.3458 10.5987C21.2564 10.5402 21.2266 10.5402 21.1074 10.5695C20.9882 10.5987 20.8094 10.6865 20.6603 10.8036C20.6305 10.8036 20.6305 10.8329 20.6603 10.8329C20.8988 10.8329 21.1372 10.9792 21.2564 11.1841C21.3458 11.2134 21.3458 11.2426 21.4352 11.1548ZM23.4618 9.31093C23.4618 9.3402 23.432 9.39874 23.4022 9.39874C23.3724 9.39874 23.3128 9.36947 23.3128 9.3402C23.3128 9.2524 23.3128 9.16459 23.3426 9.10606C23.3724 9.04752 23.432 8.95971 23.5214 8.93045C23.5512 8.90118 23.6108 8.93045 23.6108 8.95971C23.6406 8.98898 23.6108 9.04752 23.581 9.04752C23.5214 9.07679 23.4916 9.10606 23.4618 9.16459C23.4618 9.19386 23.4618 9.2524 23.4618 9.31093ZM23.0744 9.74996C23.3426 9.54508 23.0446 8.93045 23.5214 8.81337C24.5049 8.57923 24.2069 10.6865 22.7167 10.2183C22.2399 10.0719 21.5246 10.7158 21.5246 10.5109C21.5246 10.4231 21.8525 9.95484 22.4187 9.74996C22.7167 9.66215 22.9552 9.83776 23.0744 9.74996ZM22.1505 14.2573C21.8525 14.4622 21.0478 14.9012 20.6603 15.0475C20.4815 15.1353 20.3921 15.0768 20.5113 15.2817C20.5411 15.3402 20.6007 15.3987 20.6603 15.4573C20.869 15.6036 20.869 15.5743 21.1074 15.428C21.4948 15.1939 22.1803 14.7548 22.5081 14.5207C22.7167 14.3743 22.6273 14.2573 22.4187 14.1987C22.2697 14.1402 22.2399 14.1987 22.1505 14.2573ZM32.2536 1.4085C32.2536 1.43776 32.2238 1.46703 32.194 1.4963C32.1642 1.4963 32.1344 1.46703 32.1046 1.43776C32.1046 1.32069 32.1046 1.20362 32.1642 1.08654C32.194 0.969471 32.2834 0.881666 32.343 0.793861C32.3728 0.764593 32.4026 0.764593 32.4324 0.793861C32.4622 0.82313 32.4622 0.852398 32.4324 0.881666C32.3728 0.969471 32.3132 1.02801 32.2834 1.14508C32.2536 1.20362 32.2536 1.29142 32.2536 1.4085ZM31.9556 1.23289C31.9258 1.46703 32.0152 1.70118 32.194 1.90606C32.3728 2.11093 32.6113 2.19874 32.8497 2.22801C33.0881 2.25728 33.3265 2.16947 33.5351 1.99386C33.7438 1.81825 33.8332 1.58411 33.863 1.34996C33.8928 1.11581 33.8034 0.881666 33.6245 0.676788C33.4457 0.47191 33.2073 0.384105 32.9689 0.354837C32.7305 0.325569 32.492 0.413373 32.2834 0.588983C32.0748 0.764593 31.9854 0.998739 31.9556 1.23289ZM32.0748 1.99386C31.8662 1.75971 31.7768 1.4963 31.8066 1.20362C31.8364 0.940203 31.9556 0.676788 32.1642 0.47191C32.4026 0.267032 32.6709 0.179227 32.9689 0.208495C33.2371 0.237764 33.5053 0.354837 33.714 0.559715C33.9226 0.793861 34.012 1.05728 33.9822 1.34996C33.9524 1.61337 33.8332 1.87679 33.6245 2.08167C33.3861 2.28654 33.1179 2.37435 32.8199 2.34508C32.5516 2.34508 32.2834 2.22801 32.0748 1.99386ZM31.9556 2.11093C31.5086 1.61337 31.5384 0.82313 32.0748 0.384105C32.5815 -0.0549192 33.3861 -0.0256509 33.8332 0.501178C33.8928 0.588983 33.9524 0.676788 34.012 0.764593L34.4292 0.588983C34.4292 0.442642 34.5186 0.267032 34.7571 0.179227L35.0849 0.062154C35.2935 -0.0256509 35.5319 0.0914223 35.6213 0.2963C35.7107 0.501178 35.5915 0.735325 35.3829 0.82313L35.0551 0.940203C34.8167 1.02801 34.6378 0.969471 34.5186 0.852398L34.1014 1.02801C34.2206 1.46703 34.1014 1.93532 33.714 2.25728C33.2073 2.66703 32.4324 2.6085 31.9556 2.11093ZM18.6338 3.01825C18.4847 2.87191 17.6503 3.48654 17.8887 3.74996L18.6338 3.01825ZM23.0744 4.15972C23.1042 4.13045 23.134 4.13045 23.1638 4.13045C23.1936 4.15971 23.1936 4.18898 23.1936 4.21825C23.0744 4.39386 22.9254 4.5402 22.7763 4.65728C22.6273 4.77435 22.4783 4.86215 22.2995 4.92069L22.3591 5.06703C22.4783 5.35971 22.5081 5.38898 22.1505 5.44752C21.316 5.62313 19.2 5.76947 18.0675 4.01337L17.9781 4.10118C17.9185 4.18898 17.7993 4.04264 17.8291 3.98411L18.7232 3.10606L18.8126 3.01825C18.8424 2.98898 19.0212 3.04752 18.9616 3.13532L18.8424 3.2524C19.051 3.51581 19.2596 3.69142 19.4682 3.86703L19.1702 4.21825C19.1404 4.24752 19.1404 4.30606 19.1702 4.30606C19.2 4.33532 19.2596 4.33532 19.2596 4.30606L19.5576 3.95484C19.7365 4.07191 19.9451 4.18898 20.1239 4.24752L19.9749 4.65728C19.9749 4.68654 19.9749 4.74508 20.0345 4.74508C20.0643 4.74508 20.1239 4.74508 20.1239 4.68654L20.2729 4.27679C20.4815 4.33532 20.6902 4.39386 20.8988 4.42313L20.9286 4.89142C20.9286 4.92069 20.9584 4.94996 20.9882 4.94996C21.018 4.94996 21.0478 4.92069 21.0478 4.89142L21.018 4.4524C21.2862 4.48167 21.5246 4.4524 21.7034 4.42313C22.0611 4.36459 22.0611 4.24752 22.1803 4.51093L22.2995 4.80362C22.4485 4.74508 22.5975 4.65728 22.7167 4.56947C22.8359 4.4524 22.9552 4.30606 23.0744 4.15972ZM22.0015 7.32069C22.0015 7.34996 21.9717 7.37923 21.9121 7.37923C21.8823 7.37923 21.8525 7.34996 21.8525 7.29142C21.8823 7.17435 21.9121 7.02801 22.0015 6.9402C22.0611 6.82313 22.1803 6.73532 22.2697 6.67679C22.2995 6.64752 22.3591 6.67679 22.3591 6.70606C22.3889 6.73532 22.3591 6.79386 22.3293 6.79386C22.2399 6.8524 22.1505 6.9402 22.0909 7.02801C22.0611 7.11581 22.0313 7.20362 22.0015 7.32069ZM22.7167 8.43289C23.0148 8.43289 23.2532 8.31581 23.4618 8.1402C23.6406 7.96459 23.7598 7.70118 23.7598 7.40849C23.7598 7.11581 23.6406 6.88167 23.4618 6.67679C23.283 6.50118 23.0148 6.38411 22.7167 6.38411C22.4187 6.38411 22.1803 6.50118 21.9717 6.67679C21.7929 6.8524 21.6736 7.11581 21.6736 7.40849C21.6736 7.70118 21.7929 7.93532 21.9717 8.1402C22.1803 8.31581 22.4187 8.43289 22.7167 8.43289ZM22.7167 8.57923C22.3889 8.57923 22.0909 8.46215 21.8823 8.25728C21.6736 8.0524 21.5246 7.75971 21.5246 7.43776C21.5246 7.11581 21.6438 6.82313 21.8525 6.61825C22.0611 6.41337 22.3591 6.26703 22.6869 6.26703C23.0148 6.26703 23.3128 6.3841 23.5214 6.58898C23.73 6.79386 23.879 7.08654 23.879 7.40849C23.879 7.73045 23.7598 8.02313 23.5512 8.22801C23.3426 8.43289 23.0446 8.57923 22.7167 8.57923ZM22.7167 8.75484C21.9717 8.75484 21.3458 8.16947 21.3458 7.40849C21.3458 6.67679 21.9419 6.06215 22.7167 6.06215C22.8359 6.06215 22.9552 6.06215 23.0446 6.09142L23.1936 5.6524C23.0744 5.53532 23.0148 5.35971 23.0744 5.1841L23.1936 4.83289C23.283 4.59874 23.5214 4.48167 23.7598 4.56947C23.9983 4.65728 24.1175 4.89142 24.0281 5.12557L23.9088 5.47679C23.8492 5.68167 23.6406 5.79874 23.432 5.76947L23.283 6.2085C23.73 6.41337 24.0579 6.88167 24.0579 7.40849C24.0877 8.1402 23.4916 8.75484 22.7167 8.75484ZM29.333 16.6573C29.4522 16.7743 29.631 16.8622 29.8098 16.8622C29.9886 16.8622 30.1674 16.7743 30.2866 16.6573C30.4058 16.5402 30.4953 16.3646 30.4953 16.189C30.4953 16.0134 30.4058 15.8378 30.2866 15.7207C30.1674 15.6036 29.9886 15.5158 29.8098 15.5158C29.631 15.5158 29.4522 15.6036 29.333 15.7207C29.2137 15.8378 29.1243 16.0134 29.1243 16.189C29.1243 16.3646 29.2137 16.5402 29.333 16.6573ZM29.8098 17.0085C29.5714 17.0085 29.3628 16.9207 29.2137 16.7743C29.0647 16.628 28.9753 16.4231 28.9753 16.189C28.9753 15.9548 29.0647 15.75 29.2137 15.6036C29.3628 15.4573 29.5714 15.3695 29.8098 15.3695C30.0482 15.3695 30.2568 15.4573 30.4059 15.6036C30.5549 15.75 30.6443 15.9548 30.6443 16.189C30.6443 16.4231 30.5549 16.628 30.4059 16.7743C30.2568 16.9207 30.0482 17.0085 29.8098 17.0085ZM29.4224 15.9841C29.3926 16.0134 29.3628 16.0426 29.333 16.0134C29.3031 15.9841 29.2733 15.9548 29.3032 15.9256C29.333 15.867 29.3628 15.8085 29.4224 15.7792C29.482 15.7207 29.5416 15.6914 29.6012 15.6914C29.631 15.6914 29.6906 15.6914 29.6906 15.7207C29.6906 15.75 29.6906 15.8085 29.6608 15.8085C29.631 15.8378 29.5714 15.8378 29.5416 15.867C29.4522 15.9256 29.4224 15.9548 29.4224 15.9841ZM29.8098 17.1548C29.2733 17.1548 28.8263 16.7158 28.8263 16.189C28.8263 15.6622 29.2733 15.2231 29.8098 15.2231C30.227 15.2231 30.5847 15.4865 30.7337 15.8378C31.7172 15.6036 33.0583 15.3402 33.3563 13.5256C33.3861 13.35 33.5351 13.1158 33.714 13.1158C34.0418 13.0865 34.0418 13.467 34.012 13.6134C33.6245 15.0475 32.1642 16.1012 30.8231 16.189C30.7933 16.7158 30.376 17.1548 29.8098 17.1548ZM22.1505 3.48654C22.7763 3.36947 23.3724 3.16459 23.7002 3.07679C23.73 3.10606 23.7896 3.16459 23.8194 3.2524C23.879 3.3402 23.9983 3.8085 23.9088 3.8085C23.9088 3.8085 23.8492 3.8085 23.7598 3.83776L23.5512 3.2524C23.5214 3.22313 23.4916 3.19386 23.4618 3.22313C23.432 3.2524 23.4022 3.28167 23.432 3.31093L23.6406 3.8085C23.6108 3.8085 23.5512 3.8085 23.5214 3.8085C23.3724 3.83776 23.2532 3.83776 23.1042 3.86703L22.9552 3.48654C22.9254 3.45728 22.8956 3.42801 22.8658 3.45728C22.8359 3.48654 22.8061 3.51581 22.8359 3.54508L22.985 3.92557C22.9254 3.92557 22.8658 3.95484 22.8359 3.95484C22.7763 3.98411 22.6273 4.01337 22.5379 4.04264C22.4783 4.04264 22.4783 4.07191 22.4485 4.07191C22.3591 3.98411 22.2399 3.77923 22.2101 3.60362C22.1803 3.54508 22.1505 3.51581 22.1505 3.48654ZM20.5411 3.22313C20.5709 3.22313 20.6007 3.2524 20.6007 3.31093C20.6007 3.3402 20.5709 3.36947 20.5113 3.36947C20.3325 3.3402 20.1239 3.31093 19.9749 3.22313C19.7961 3.16459 19.6471 3.07679 19.498 2.95971C19.4682 2.93045 19.4682 2.90118 19.498 2.87191C19.5278 2.84264 19.5576 2.84264 19.5874 2.87191C19.7067 2.98898 19.8557 3.04752 20.0047 3.10606C20.1537 3.13532 20.3325 3.19386 20.5411 3.22313ZM23.9088 3.04752C24.0281 3.01825 23.9685 2.66703 23.6704 2.72557C22.9254 2.81337 21.7332 3.36947 20.6603 3.19386C19.3192 2.95971 19.7365 2.49142 19.2894 2.54996C19.1106 2.57923 19.051 2.84264 19.1404 2.93045C19.8259 3.74996 21.018 3.72069 22.0313 3.51581C22.0313 3.54508 22.0313 3.60362 22.0611 3.63289C22.1207 3.83776 22.2399 4.04264 22.3293 4.15972C22.3591 4.18898 22.4485 4.18898 22.5379 4.18898C22.6571 4.15971 22.8061 4.13045 22.8658 4.10118C23.0446 4.04264 23.3128 4.01337 23.5512 3.98411C23.6108 3.98411 23.7002 3.95484 23.7598 3.95484C23.9088 3.92557 23.9983 3.8963 24.0579 3.86703C24.1771 3.69142 24.0877 3.3402 23.9685 3.16459C23.9685 3.10606 23.9387 3.07679 23.9088 3.04752ZM29.482 4.21825C29.482 4.18898 29.5118 4.15972 29.5416 4.15972C29.5714 4.15972 29.6012 4.18898 29.6012 4.21825C29.6012 4.42313 29.6012 4.71581 29.5714 4.94996C29.5714 5.27191 29.5714 5.53532 29.5714 5.6524C29.5714 5.68167 29.5416 5.71093 29.5118 5.71093C29.482 5.71093 29.4522 5.68167 29.4522 5.6524C29.4522 5.53532 29.4522 5.24264 29.4522 4.94996C29.4522 4.68654 29.4522 4.42313 29.482 4.21825ZM30.2866 0.618252C30.2568 0.618252 30.227 0.588983 30.227 0.559715C30.227 0.530447 30.2568 0.501178 30.2866 0.501178H30.9125C30.9423 0.442642 30.9423 0.413373 30.9721 0.354837C30.9721 0.354837 30.9423 0.325569 30.9125 0.2963C30.8529 0.267032 30.7933 0.237764 30.7039 0.237764C30.4357 0.179227 30.0482 0.208495 29.8992 0.267032C29.8396 0.2963 29.8396 0.325569 29.8098 0.354837C29.8098 0.384105 29.8098 0.384105 29.8098 0.413373V1.93532H29.8396C29.9886 1.93532 30.1674 1.93532 30.3164 1.93532C30.4058 1.93532 30.4655 1.93532 30.5251 1.93532C30.7039 1.93532 30.7635 1.93532 30.7933 1.90606C30.7933 1.90606 30.7933 1.87679 30.7933 1.81825C30.7933 1.78898 30.7933 1.73045 30.7933 1.67191H30.0482C30.0184 1.67191 29.9886 1.64264 29.9886 1.61337C29.9886 1.58411 30.0184 1.55484 30.0482 1.55484H30.7933C30.7933 1.52557 30.7933 1.46703 30.7933 1.43776C30.7933 1.23289 30.7933 0.969471 30.8827 0.676788H30.2866V0.618252ZM29.5714 0.120691C29.631 0.120691 29.6906 0.149959 29.7502 0.208495C29.78 0.179227 29.8098 0.149959 29.8694 0.120691C30.0184 0.062154 30.4357 0.0328857 30.7337 0.0914223C30.8231 0.120691 30.9125 0.120691 30.9721 0.149959C31.0615 0.179227 31.0913 0.237764 31.1211 0.325569C31.1211 0.354837 31.1211 0.384105 31.0913 0.413373C30.8827 0.82313 30.8827 1.14508 30.9125 1.37923C30.9125 1.43776 30.9125 1.46703 30.9125 1.52557C30.9125 1.55484 30.9125 1.55484 30.9125 1.58411C30.9125 1.67191 30.9125 1.73045 30.9125 1.75971C30.9125 1.87679 30.9423 1.90606 30.8827 1.96459C30.8231 2.02313 30.7337 2.02313 30.5549 2.02313C30.4953 2.02313 30.4357 2.02313 30.3462 2.02313C30.1674 2.02313 29.9886 2.02313 29.8694 2.02313H29.8396V5.79874C29.8396 6.14996 29.3628 6.03289 29.3628 5.7402V0.2963C29.3628 0.208495 29.4522 0.120691 29.5714 0.120691ZM31.1509 4.68654C31.2105 4.77435 31.2403 4.86215 31.2403 4.94996C31.2403 5.21337 31.0317 5.41825 30.7635 5.41825C30.6443 5.41825 30.5251 5.38898 30.4357 5.30118L31.1509 4.68654ZM30.7635 4.48167C30.8827 4.48167 31.0019 4.51093 31.0913 4.59874L30.376 5.24264C30.3164 5.15484 30.2866 5.06703 30.2866 4.97923C30.2568 4.68654 30.4953 4.48167 30.7635 4.48167ZM31.3595 11.9451C31.3893 11.9451 31.4191 11.9743 31.4191 12.0036C31.4191 12.0329 31.3893 12.0622 31.3595 12.0622C31.2105 12.0622 31.0317 12.0914 30.8827 12.15C30.7337 12.2085 30.5847 12.2963 30.4655 12.3841C30.4357 12.4134 30.376 12.4134 30.376 12.3841C30.3462 12.3548 30.3462 12.2963 30.376 12.2963C30.5251 12.1792 30.6741 12.0914 30.8231 12.0329C31.0019 11.9743 31.1807 11.9451 31.3595 11.9451ZM29.5714 13.9939C30.4655 15.6622 32.4324 15.1646 32.7305 14.228C32.9391 13.6426 32.6113 13.9061 32.2834 14.0817C31.6874 14.4036 30.6741 14.8134 29.9886 13.4963C29.8694 13.6719 29.7502 13.8475 29.5714 13.9939ZM27.4256 12.5304C27.5448 12.7353 27.6044 12.5597 27.6938 12.4719C28.1706 12.0329 28.9753 12.6768 29.2137 13.1451C29.2435 13.0865 29.2733 13.0573 29.333 12.9987C29.3926 12.8817 29.482 12.7646 29.6012 12.6475C29.5416 12.5597 29.482 12.4719 29.3926 12.3841C29.1541 12.1207 28.7071 11.9451 28.3197 11.9158C27.7832 11.9158 27.3362 12.4134 27.4256 12.5304ZM27.4256 13.4085C27.4852 13.35 27.6044 13.3207 27.6044 13.35C27.7832 13.6719 28.5283 14.4036 29.3628 13.1158C30.9125 10.8036 33.1775 12.1207 32.8497 12.5597C32.6709 12.8231 32.5517 11.9743 31.0019 12.3841C30.1674 12.589 30.0482 13.7304 29.1839 14.1695C28.8859 14.3158 28.2302 14.4036 27.8428 14.1695C27.6342 14.0524 27.3064 13.4963 27.4256 13.4085ZM28.9753 11.2719C28.9455 11.3012 28.8859 11.2719 28.8859 11.2426C28.8561 11.2134 28.8859 11.1548 28.9157 11.1548C28.9753 11.1256 29.0349 11.067 29.0945 11.0378C29.1541 10.9792 29.1839 10.9207 29.2435 10.8622C29.2733 10.8329 29.3031 10.8329 29.333 10.8329C29.3628 10.8622 29.3628 10.8914 29.3628 10.9207C29.3031 10.9792 29.2733 11.067 29.2137 11.1256C29.0945 11.1841 29.0349 11.2426 28.9753 11.2719ZM28.8561 11.6817L29.6608 11.6231C29.8098 11.6231 29.8694 11.4183 29.8694 11.2719V10.3353C29.8694 10.2768 29.8098 10.2475 29.7502 10.2768C29.6906 10.3061 29.5714 10.3061 29.4522 10.3353C29.2137 10.3939 29.3031 10.3939 29.2137 10.5695C29.1541 10.7158 28.9753 11.0085 28.7667 11.1256C28.5581 11.2426 28.5581 11.1548 28.6475 11.3597L28.7369 11.6231C28.7667 11.6817 28.7965 11.6817 28.8561 11.6817ZM29.6012 10.189H29.631C29.78 10.189 29.78 10.2183 29.8098 10.0719C29.8098 10.0426 29.8098 10.0134 29.8396 9.98411C29.8694 9.8085 29.8694 9.83776 29.6906 9.77923C29.5714 9.74996 29.5416 9.72069 29.5118 9.92557C29.5118 9.98411 29.482 10.0426 29.482 10.0719C29.4522 10.2183 29.4224 10.189 29.6012 10.189ZM29.5714 7.61337C29.5714 7.5841 29.6012 7.52557 29.631 7.52557C29.6608 7.52557 29.7204 7.55484 29.7204 7.5841C29.7502 7.81825 29.78 8.0524 29.78 8.31581C29.78 8.54996 29.7502 8.81337 29.7204 9.07679C29.7204 9.10606 29.6906 9.13532 29.631 9.13532C29.6012 9.13532 29.5714 9.10606 29.5714 9.04752C29.6012 8.81337 29.631 8.54996 29.631 8.31581C29.631 8.08167 29.631 7.84752 29.5714 7.61337ZM29.9886 9.8085C30.1376 9.8963 30.3462 9.8085 30.4059 9.66215C30.6741 9.07679 31.0913 6.38411 30.1376 6.53045L29.7204 6.58898C29.3628 6.64752 29.3926 6.61825 29.3926 7.02801V8.81337C29.3926 8.95971 29.3926 9.07679 29.3628 9.22313C29.3031 9.57435 29.1839 9.54508 29.5118 9.66215C29.6906 9.66215 29.8396 9.72069 29.9886 9.8085ZM27.7534 11.6231H28.0514C28.1706 11.6231 28.2601 11.6231 28.3793 11.6231C28.5879 11.6231 28.5581 11.6524 28.5283 11.4183C28.4985 11.2426 28.5283 11.2134 28.3793 11.2719C28.2601 11.3304 28.1408 11.3597 28.0216 11.4183L27.7534 11.5353C27.7236 11.4768 27.6342 11.4475 27.5746 11.4768C27.4852 11.5061 27.4554 11.5939 27.4852 11.6524C27.515 11.7402 27.6044 11.7695 27.664 11.7402C27.7236 11.7109 27.7534 11.6817 27.7534 11.6231ZM25.548 13.467C25.5182 13.467 25.4884 13.4378 25.4884 13.3792C25.4884 13.35 25.5182 13.3207 25.5778 13.3207C25.6374 13.3207 25.697 13.35 25.7566 13.3792C25.8162 13.4085 25.846 13.467 25.8758 13.5256C25.9056 13.5548 25.9056 13.5841 25.9056 13.6134C25.9056 13.6426 25.9056 13.6719 25.9056 13.7012C25.9056 13.7304 25.8758 13.7597 25.8162 13.7597C25.7864 13.7597 25.7566 13.7304 25.7566 13.6719C25.7566 13.6426 25.7566 13.6426 25.7566 13.6134C25.7566 13.5841 25.7566 13.5841 25.7268 13.5548C25.697 13.5256 25.697 13.4963 25.6374 13.467C25.6374 13.4963 25.6076 13.467 25.548 13.467ZM26.0546 14.1987C26.5613 13.35 25.3394 12.5012 24.2069 13.7012C23.9088 14.0231 23.879 14.3158 24.1473 14.6378C24.0877 14.8719 24.0877 15.3109 24.5347 15.5158C26.0248 16.2183 26.8593 15.1061 26.1143 14.3451C26.6209 14.4036 26.9189 14.0231 27.0679 13.8183C27.0977 13.789 27.1275 13.7597 27.1275 13.7304C27.1574 13.7304 27.1573 13.7304 27.1872 13.7012C27.217 13.6719 27.217 13.6426 27.1872 13.6134C27.1573 13.5548 27.0977 13.5548 27.0381 13.6134C27.0083 13.6426 26.9785 13.6719 26.9487 13.7304C26.7997 13.9353 26.5315 14.2865 26.0546 14.1987ZM19.0808 8.57923C19.0212 8.54996 18.9914 8.60849 18.9914 8.63776C18.902 8.7841 18.3953 9.2524 18.2463 9.31093C18.2165 9.3402 18.1569 9.3402 18.1867 9.39874C18.2165 9.45728 18.2761 9.42801 18.3059 9.39874C18.5444 9.2524 19.2298 8.6963 19.0808 8.57923ZM17.9781 6.2085C18.4549 6.17923 19.3192 6.44264 18.6636 7.23289C20.72 7.90606 19.051 9.2524 18.1271 10.2183C17.9781 10.3646 17.8887 10.3646 17.8589 10.1304L17.8291 9.74996C17.7993 9.48654 17.7993 9.54508 18.0079 9.36947C18.6636 8.81337 19.7365 8.11093 18.5742 7.70118C17.5907 7.37923 18.3953 6.96947 18.4549 6.82313C18.4847 6.58898 18.1867 6.58898 17.9781 6.61825C17.7993 6.64752 17.8291 6.58898 17.8291 6.50118V6.41337C17.7695 6.20849 17.7993 6.2085 17.9781 6.2085ZM19.7663 7.90606C19.6471 7.67191 19.5278 7.43776 19.4384 7.26215C19.3192 6.99874 19.2298 6.76459 19.1702 6.53045C19.1106 6.26703 19.1404 6.03289 19.2596 5.88654C19.4384 5.68167 19.9749 5.71093 20.2133 5.7402C20.4219 5.76947 20.6305 5.79874 20.8094 5.91581C20.9882 6.03289 21.1372 6.17923 21.2266 6.41337C21.3458 6.91093 21.167 7.81825 20.72 8.22801C20.2431 8.6963 20.0047 8.34508 19.7663 7.90606ZM19.6173 5.88654C19.4086 5.88654 19.1702 6.2085 19.3192 6.2085C19.4086 6.2085 19.3788 6.12069 19.4682 6.03289C19.5278 6.00362 19.6173 5.97435 19.6471 5.97435C19.6769 5.94508 19.6769 5.88654 19.6173 5.88654ZM20.5411 7.84752C20.72 7.64264 20.9286 6.8524 20.869 6.58898C20.8392 6.47191 20.7498 6.3841 20.6603 6.32557C20.5411 6.26703 20.3921 6.2085 20.2431 6.2085C19.9749 6.17923 19.5278 6.14996 19.5874 6.53045C19.6173 6.73532 19.6769 6.91093 19.7961 7.14508C19.9153 7.43776 20.2431 8.19874 20.5411 7.84752ZM27.5746 14.7841C27.664 14.9012 27.6938 15.0768 27.6342 15.2231C27.5448 15.4865 27.2766 15.6036 27.0083 15.5158C26.9487 15.4865 26.9189 15.4865 26.8891 15.4573L27.5746 14.7841ZM26.7103 14.9304C26.7997 14.667 27.0679 14.55 27.3362 14.6378C27.3958 14.667 27.4256 14.667 27.4554 14.6963L26.7699 15.3695C26.6805 15.2524 26.6507 15.0768 26.7103 14.9304ZM32.1642 12.7353C32.2536 12.8231 32.2834 12.9402 32.2536 13.028C32.2536 13.1451 32.194 13.2329 32.1046 13.3207L31.5086 13.8183C31.4191 13.9061 31.2999 13.9353 31.2105 13.9061C31.0913 13.9061 31.0019 13.8475 30.9125 13.7597C30.8231 13.6719 30.7933 13.5548 30.8231 13.467C30.8231 13.35 30.8827 13.2622 30.9721 13.1743L31.5682 12.6768C31.6576 12.589 31.7768 12.5597 31.8662 12.589C31.9556 12.6183 32.0748 12.6475 32.1642 12.7353ZM31.3297 13.0865L31.0615 13.3207C31.0019 13.3792 30.9721 13.4378 30.9721 13.4963C30.9721 13.5548 31.0019 13.6426 31.0317 13.7012C31.0913 13.7597 31.1509 13.789 31.2105 13.789C31.2701 13.789 31.3595 13.7597 31.4191 13.7304L31.6874 13.4963L31.3297 13.0865ZM18.8424 11.3597C18.8722 11.3304 18.9318 11.3304 18.9616 11.3597C18.9616 11.3597 18.9914 11.389 18.9914 11.4183C18.9318 11.4768 18.8722 11.5061 18.7828 11.5061C18.7232 11.5353 18.6338 11.5353 18.5742 11.5061C18.5444 11.5061 18.4847 11.4768 18.4549 11.4475C18.4251 11.4183 18.3953 11.389 18.3655 11.3597C18.3357 11.3304 18.3357 11.2719 18.3655 11.2426C18.3953 11.2134 18.4549 11.2134 18.4847 11.2426C18.5145 11.2719 18.5145 11.2719 18.5444 11.3012C18.5742 11.3012 18.604 11.3304 18.6338 11.3304C18.6934 11.3304 18.7232 11.3304 18.7828 11.3304C18.753 11.4183 18.8126 11.389 18.8424 11.3597ZM18.9914 11.6231C18.8722 11.7109 18.7232 11.7402 18.5742 11.7402C18.4251 11.7109 18.2761 11.6524 18.1867 11.5353C18.0973 11.4183 18.0675 11.2719 18.0675 11.1256C18.0973 10.9792 18.1569 10.8329 18.2761 10.7451C19.1404 10.1012 20.0047 9.42801 20.869 8.7841C20.8392 8.72557 20.8094 8.66703 20.8392 8.63776C20.8392 8.57923 20.869 8.52069 20.9286 8.49142C20.9882 8.46215 21.0478 8.43289 21.0776 8.46215C21.1372 8.46215 21.1968 8.49142 21.2266 8.54996L21.9419 9.45728C21.9717 9.51581 22.0015 9.57435 21.9717 9.60362C21.9717 9.66215 21.9419 9.72069 21.8823 9.74996C21.8227 9.77923 21.7631 9.8085 21.7332 9.77923C21.6736 9.77923 21.614 9.74996 21.5842 9.69142C20.72 10.3353 19.8557 10.9792 18.9914 11.6231ZM21.6438 9.51581L21.7034 9.60362L21.7332 9.63289H21.7631L21.7929 9.60362V9.57435L21.0776 8.66703L21.0478 8.63776H21.018L20.9882 8.66703V8.6963L21.0478 8.7841C21.0776 8.81337 21.0776 8.87191 21.018 8.90118L20.0345 9.63289L20.5411 10.2768L21.5246 9.51581C21.5842 9.45728 21.614 9.48654 21.6438 9.51581ZM34.5782 8.87191C34.5782 8.81337 34.5484 8.7841 34.4888 8.7841C34.459 8.7841 34.459 8.7841 34.4292 8.81337C34.4292 8.90118 34.4292 8.95971 34.459 9.04752C34.4888 9.10606 34.5484 9.16459 34.608 9.22313C34.6378 9.2524 34.6676 9.28166 34.7272 9.28166C34.7571 9.31093 34.8167 9.31093 34.8465 9.31093C34.8763 9.31093 34.9359 9.28167 34.9359 9.22313C34.9359 9.16459 34.9061 9.13532 34.8763 9.13532C34.8465 9.13532 34.8167 9.13532 34.7869 9.10606C34.7571 9.10606 34.7272 9.07679 34.7272 9.07679C34.6974 9.04752 34.6676 9.01825 34.6378 8.95971C34.5782 8.95971 34.5782 8.90118 34.5782 8.87191ZM34.2802 8.93045C34.2802 9.10606 34.3398 9.2524 34.459 9.3402C34.5782 9.45728 34.7272 9.51581 34.8763 9.51581C35.0253 9.51581 35.1743 9.45728 35.2935 9.3402C35.4127 9.22313 35.4723 9.07679 35.4723 8.93045C35.4723 7.81825 35.4723 6.70606 35.4723 5.59386H35.5021C35.5617 5.59386 35.6213 5.56459 35.6511 5.53532C35.6809 5.50606 35.7107 5.44752 35.7107 5.38898C35.7107 5.33045 35.6809 5.27191 35.6511 5.24264C35.6213 5.21337 35.5617 5.1841 35.5021 5.1841H34.2802C34.2206 5.1841 34.161 5.21337 34.1312 5.24264C34.1014 5.27191 34.0716 5.33045 34.0716 5.38898C34.0716 5.44752 34.1014 5.50606 34.1312 5.53532C34.161 5.56459 34.2206 5.59386 34.2802 5.59386C34.2802 6.70606 34.2802 7.81825 34.2802 8.93045ZM34.3398 5.41825H34.2504C34.2504 5.41825 34.2206 5.41825 34.2206 5.38898L34.1908 5.35971C34.1908 5.35971 34.1908 5.33045 34.2206 5.33045L34.2504 5.30118H35.4723C35.4723 5.30118 35.5021 5.30118 35.5021 5.33045L35.5319 5.35971C35.5319 5.35971 35.5319 5.38898 35.5021 5.38898L35.4723 5.41825H35.3829C35.3233 5.41825 35.2935 5.44752 35.2935 5.50606V6.76459H34.459V5.47679C34.4292 5.47679 34.3994 5.41825 34.3398 5.41825ZM31.9258 8.60849C31.896 8.63776 31.8364 8.60849 31.8066 8.57923C31.7768 8.54996 31.8066 8.49142 31.8364 8.46215C31.896 8.43289 31.9854 8.40362 32.0748 8.40362C32.1642 8.40362 32.2238 8.43289 32.2834 8.46215C32.3132 8.49142 32.3728 8.52069 32.4026 8.54996C32.4324 8.57923 32.4622 8.60849 32.492 8.63776C32.5218 8.66703 32.492 8.72557 32.4622 8.75484C32.4324 8.7841 32.3728 8.75484 32.343 8.72557C32.343 8.6963 32.3132 8.66703 32.2834 8.66703C32.2536 8.63776 32.2536 8.63776 32.2238 8.60849C32.1642 8.57923 32.1344 8.57923 32.0748 8.57923C32.0152 8.57923 31.9556 8.60849 31.9258 8.60849ZM32.9391 8.95971C32.7305 7.75971 30.8827 7.96459 30.8827 9.92557C30.8827 10.4524 31.0019 10.4817 31.5682 10.8036C31.7172 11.0378 32.0748 11.4475 32.6411 11.2719C34.5186 10.7158 34.3696 9.10606 33.1477 8.98898C33.5947 8.63776 33.5351 8.11093 33.5053 7.81825C33.5053 7.75971 33.5053 7.73045 33.5053 7.70118C33.5351 7.70118 33.5351 7.67191 33.5351 7.64264C33.5351 7.5841 33.5053 7.55484 33.4755 7.55484C33.3861 7.55484 33.3563 7.5841 33.3563 7.64264C33.3563 7.67191 33.3563 7.75971 33.3563 7.81825C33.3563 8.1402 33.4159 8.66703 32.9391 8.95971ZM31.0019 10.8036C31.0913 10.9207 31.1211 11.067 31.0615 11.2134C30.9721 11.4475 30.7337 11.5646 30.4953 11.4768C30.4655 11.4475 30.4059 11.4475 30.376 11.4183L31.0019 10.8036ZM30.227 10.9207C30.3164 10.6865 30.5549 10.5695 30.7933 10.6573C30.8231 10.6573 30.8827 10.6865 30.9125 10.7158L30.2866 11.3304C30.1972 11.2134 30.1674 11.067 30.227 10.9207ZM34.5782 1.58411V2.52069V2.54996C34.5782 2.54996 34.5782 2.54996 34.608 2.54996H35.0551C35.0551 2.54996 35.0551 2.54996 35.0849 2.54996V2.52069V1.58411V1.55484C35.0849 1.55484 35.0849 1.55484 35.0551 1.55484H34.608C34.608 1.55484 34.608 1.55484 34.5782 1.55484C34.5782 1.55484 34.5782 1.55484 34.5782 1.58411ZM34.5484 3.8085C34.5782 3.8085 34.608 3.83776 34.608 3.86703C34.608 3.8963 34.5782 3.92557 34.5484 3.92557C34.5186 3.92557 34.4888 3.8963 34.459 3.8963C34.4292 3.86703 34.4292 3.86703 34.3994 3.83776C34.3994 3.8085 34.3696 3.77923 34.3696 3.77923C34.3696 3.74996 34.3696 3.72069 34.3696 3.72069C34.3696 3.69142 34.4292 3.66215 34.459 3.69142C34.4888 3.69142 34.5186 3.74996 34.4888 3.77923V3.8085V3.83776C34.4888 3.83776 34.4888 3.86703 34.5186 3.86703L34.5484 3.8085C34.5484 3.8085 34.5186 3.8085 34.5484 3.8085ZM34.7869 3.92557C34.8465 3.8963 34.9359 3.8963 35.0253 3.8963C35.1147 3.86703 35.3531 3.83776 35.3531 3.72069C35.3531 3.66215 35.2935 3.63289 35.2637 3.63289C35.2339 3.63289 35.2339 3.63289 35.2041 3.63289C35.1743 3.66215 35.1743 3.66215 35.0849 3.66215C35.0253 3.66215 34.9061 3.60362 34.9061 3.51581C34.9061 3.42801 35.0253 3.36947 35.0849 3.36947C35.1445 3.36947 35.1743 3.36947 35.2041 3.39874C35.2041 3.39874 35.2339 3.39874 35.2637 3.39874C35.3233 3.39874 35.3531 3.3402 35.3531 3.31093C35.3531 3.19386 35.1147 3.13532 35.0253 3.13532C34.9359 3.10606 34.8465 3.10606 34.7869 3.10606C34.6974 3.07679 34.6676 3.01825 34.5484 3.01825C34.3994 3.01825 34.2802 3.13532 34.2802 3.28167C34.2802 3.39874 34.3398 3.42801 34.3398 3.51581C34.3398 3.63289 34.2802 3.63289 34.2802 3.74996C34.2802 3.8963 34.3994 4.01337 34.5484 4.01337C34.6676 4.01337 34.6974 3.95484 34.7869 3.92557ZM34.012 4.30606V2.66703C34.012 2.54996 34.1014 2.43289 34.2504 2.43289H34.459V2.52069C34.459 2.54996 34.4888 2.6085 34.4888 2.63776C34.5186 2.66703 34.5484 2.6963 34.608 2.6963H35.0551C35.0849 2.6963 35.1445 2.66703 35.1743 2.63776C35.2041 2.6085 35.2041 2.57923 35.2041 2.52069V2.46215H35.4127C35.5319 2.46215 35.6511 2.54996 35.6511 2.6963V4.30606C35.6511 4.42313 35.5617 4.5402 35.4127 4.5402H34.2504C34.1312 4.51093 34.012 4.42313 34.012 4.30606ZM9.03727 3.45728C9.06707 3.42801 9.06707 3.39874 9.06707 3.36947L9.03727 3.3402C8.97766 3.36947 8.94786 3.39874 8.91806 3.42801C8.88826 3.45728 8.85845 3.51581 8.85845 3.57435C8.85845 3.60362 8.85845 3.63289 8.85845 3.66215C8.85845 3.69142 8.85845 3.72069 8.88826 3.74996C8.88826 3.77923 8.94786 3.77923 8.94786 3.77923C8.97766 3.77923 8.97767 3.72069 8.97767 3.69142C8.97767 3.66215 8.97766 3.66215 8.94786 3.63289C8.94786 3.60362 8.94786 3.60362 8.94786 3.57435C8.94786 3.54508 8.97767 3.51581 8.97767 3.48654C8.97767 3.51581 9.00747 3.48654 9.03727 3.45728ZM8.88826 3.31093C8.79885 3.36947 8.73924 3.45728 8.70944 3.54508C8.67964 3.63289 8.70944 3.74996 8.73924 3.83776C8.79885 3.92557 8.88826 3.98411 8.97767 4.01337C9.06707 4.04264 9.18629 4.01337 9.27569 3.98411C9.93135 3.60362 10.5572 3.22313 11.2129 2.84264C11.2427 2.87191 11.2725 2.90118 11.3023 2.90118C11.3321 2.90118 11.3917 2.90118 11.4215 2.87191C11.4513 2.84264 11.4811 2.81337 11.4811 2.78411C11.4811 2.75484 11.4811 2.6963 11.4513 2.66703L11.0341 1.96459C11.0043 1.93532 10.9745 1.90606 10.9446 1.90606C10.9148 1.90606 10.8552 1.90606 10.8254 1.93532C10.7956 1.96459 10.7658 1.99386 10.7658 2.02313C10.7658 2.0524 10.7658 2.11093 10.7956 2.1402C10.1698 2.54996 9.54392 2.93045 8.88826 3.31093ZM10.9446 2.16947L10.9148 2.11093V2.08167C10.9148 2.08167 10.9148 2.0524 10.9446 2.0524H10.9745C10.9745 2.0524 11.0043 2.0524 11.0043 2.08167L11.4215 2.78411V2.81337C11.4215 2.81337 11.4215 2.84264 11.3917 2.84264H11.3619C11.3619 2.84264 11.3321 2.84264 11.3321 2.81337L11.3023 2.75484C11.2725 2.72557 11.2427 2.72557 11.2129 2.72557L10.4678 3.16459L10.1698 2.6963L10.9148 2.25728C10.9745 2.22801 10.9745 2.19874 10.9446 2.16947ZM5.43114 2.52069L5.0735 3.28167V3.31093L5.43114 3.48654C5.43114 3.48654 5.43114 3.48654 5.46094 3.48654C5.46094 3.48654 5.49074 3.48654 5.49074 3.45728L5.84838 2.6963V2.66703L5.49074 2.49142C5.46094 2.49142 5.46094 2.49142 5.43114 2.52069C5.46094 2.52069 5.46094 2.52069 5.43114 2.52069ZM4.59666 4.27679C4.62646 4.30606 4.62646 4.33532 4.59666 4.36459C4.56686 4.39386 4.53705 4.39386 4.50725 4.36459C4.47745 4.33532 4.47745 4.33532 4.44765 4.30606C4.44765 4.27679 4.41784 4.24752 4.41784 4.24752C4.41784 4.21825 4.41784 4.21825 4.41784 4.18898C4.41784 4.15971 4.44765 4.15971 4.44765 4.13045C4.47745 4.10118 4.50725 4.10118 4.53705 4.13045C4.56686 4.15971 4.56686 4.18898 4.53705 4.21825C4.53705 4.21825 4.53705 4.21825 4.53705 4.24752C4.53705 4.24752 4.53705 4.24752 4.53705 4.27679C4.56686 4.24752 4.56686 4.24752 4.59666 4.27679C4.56686 4.27679 4.56686 4.27679 4.59666 4.27679ZM4.74567 4.48167C4.80528 4.48167 4.89469 4.51093 4.95429 4.5402C5.0437 4.56947 5.25232 4.59874 5.28212 4.51093C5.31193 4.4524 5.28212 4.42313 5.25232 4.39386H5.22252C5.19271 4.39386 5.16291 4.39386 5.13311 4.39386C5.0735 4.36459 5.0139 4.30606 5.0437 4.21825C5.0735 4.13045 5.19271 4.13045 5.25232 4.15972C5.31193 4.18898 5.31193 4.18898 5.31193 4.21825L5.34173 4.24752C5.40133 4.27679 5.43114 4.24752 5.46094 4.21825C5.49074 4.13045 5.31193 4.01337 5.25232 3.95484C5.19271 3.92557 5.10331 3.86703 5.0735 3.83776C5.0139 3.77923 5.0139 3.72069 4.92449 3.69142C4.80528 3.63289 4.65627 3.69142 4.62646 3.8085C4.56686 3.8963 4.62646 3.92557 4.59666 4.04264C4.56686 4.13045 4.50725 4.10118 4.44765 4.21825C4.38804 4.33532 4.44765 4.48167 4.56686 4.5402C4.59666 4.51093 4.65626 4.4524 4.74567 4.48167ZM3.9708 4.48167L4.56686 3.19386C4.62646 3.10606 4.74567 3.04752 4.83508 3.10606L4.9841 3.19386L4.95429 3.2524C4.92449 3.28167 4.92449 3.31093 4.95429 3.36947C4.95429 3.39874 4.9841 3.42801 5.0139 3.45728L5.37153 3.63289C5.40133 3.66215 5.43114 3.63289 5.49074 3.63289C5.52055 3.63289 5.55035 3.60362 5.58015 3.54508L5.60995 3.48654L5.75897 3.57435C5.84838 3.63289 5.90798 3.74996 5.84838 3.83776L5.25232 5.12557C5.19271 5.21337 5.0735 5.27191 4.9841 5.21337L4.06021 4.80362C3.9708 4.71581 3.941 4.59874 3.9708 4.48167ZM27.217 12.0329C27.2468 12.0036 27.2766 12.0329 27.3064 12.0622C27.3362 12.0914 27.3064 12.1207 27.2766 12.15C27.1574 12.2378 27.0083 12.2963 26.8593 12.3256C26.7401 12.3548 26.6209 12.3841 26.5017 12.3841V12.5304C26.5017 12.7646 26.5613 12.7939 26.2633 12.8231C25.6076 12.8524 23.9088 12.6475 23.2532 10.9792L23.2234 11.0085C23.134 11.0378 23.0744 10.8914 23.134 10.8622L24.2367 10.2183C24.2665 10.189 24.4155 10.3061 24.3261 10.3646L24.2069 10.4231C24.3261 10.6865 24.4453 10.8914 24.5943 11.067L24.3559 11.2134C24.3261 11.2426 24.3261 11.2719 24.3261 11.3012C24.3559 11.3304 24.3857 11.3304 24.4155 11.3304L24.6837 11.1841C24.7731 11.3012 24.8923 11.389 24.9817 11.4475C24.9817 11.4475 24.9817 11.4475 24.9519 11.4475L24.7731 11.6817C24.7433 11.7109 24.7433 11.7402 24.7731 11.7695C24.8029 11.7987 24.8327 11.7987 24.8625 11.7695L25.0414 11.5353V11.5061C25.1904 11.5939 25.3096 11.6524 25.4586 11.7109C25.4586 11.7109 25.4586 11.7109 25.4586 11.7402L25.3692 12.0622C25.3692 12.0914 25.3692 12.1207 25.399 12.15C25.4288 12.15 25.4586 12.15 25.4884 12.1207L25.5778 11.7987C25.5778 11.7987 25.5778 11.7987 25.5778 11.7695C25.846 11.828 26.0844 11.8573 26.2335 11.8573C26.4719 11.8573 26.4719 11.8573 26.4719 12.0622V12.267C26.5911 12.267 26.6805 12.2378 26.7997 12.2085C26.9487 12.1792 27.0977 12.1207 27.217 12.0329ZM24.0877 10.2768C23.9685 10.1012 23.1638 10.5402 23.283 10.7158L24.0877 10.2768ZM0.39447 11.5939H2.27204C2.42106 11.5939 2.54027 11.7109 2.54027 11.8573V12.0914H2.45086C2.39126 12.0914 2.36145 12.1207 2.33165 12.15C2.30185 12.1792 2.27204 12.2378 2.27204 12.267V12.7646C2.27204 12.8231 2.30185 12.8524 2.33165 12.8817C2.36145 12.9109 2.42106 12.9402 2.45086 12.9402H2.54027V13.1743C2.54027 13.3207 2.42106 13.4378 2.27204 13.4378H0.39447C0.245457 13.4378 0.126246 13.3207 0.126246 13.1743V11.8573C0.126246 11.7109 0.245457 11.5939 0.39447 11.5939Z" fill="#E81D25"/>
<path fill-rule="evenodd" clip-rule="evenodd" d="M115.241 4.18537C115.152 4.44878 115.033 4.8 114.854 5.23902C114.675 5.67805 114.496 6.17561 114.258 6.76098C114.049 7.34634 113.781 7.96098 113.513 8.66341C113.244 9.36585 112.946 10.0976 112.678 10.8585H117.804C117.536 10.0976 117.268 9.36585 117 8.66341C116.731 7.96098 116.493 7.34634 116.255 6.76098C116.016 6.17561 115.837 5.67805 115.659 5.23902C115.509 4.77073 115.36 4.44878 115.241 4.18537ZM120.099 17.8244C119.891 17.2098 119.682 16.5951 119.443 15.9512C119.205 15.3073 118.996 14.6634 118.758 14.0195H111.754C111.516 14.6634 111.307 15.3073 111.069 15.9512C110.83 16.5951 110.622 17.2098 110.443 17.8244H106.241C106.926 15.922 107.552 14.1659 108.148 12.5561C108.744 10.9463 109.34 9.42439 109.936 7.99024C110.503 6.5561 111.099 5.20976 111.665 3.92195C112.231 2.63415 112.827 1.40488 113.423 0.17561H117.238C117.834 1.40488 118.4 2.63415 118.996 3.92195C119.563 5.20976 120.159 6.5561 120.725 7.99024C121.321 9.42439 121.887 10.9463 122.513 12.5561C123.139 14.1659 123.765 15.922 124.45 17.8244H120.099ZM107.612 0.204878V3.6H102.188V17.8537H98.1345V3.57073H92.7104V0.204878H107.612ZM86.7498 17.8244C85.5875 15.8049 84.3358 13.8146 82.9947 11.8537C81.6536 9.89268 80.223 8.01951 78.7031 6.29268V17.8537H74.7095V0.204878H77.9878C78.5541 0.760976 79.1799 1.46341 79.8654 2.25366C80.5509 3.07317 81.2661 3.95122 81.9814 4.85854C82.6967 5.79512 83.4119 6.73171 84.1272 7.72683C84.8424 8.72195 85.4981 9.65854 86.124 10.5951V0.204878H90.1473V17.8244H86.7498ZM59.0035 17.8244V0.204878H71.1332V3.54146H63.0566V6.99512H70.2391V10.2439H63.0566V14.4878H71.7292V17.8244H59.0035ZM55.6357 8.98537C55.6357 10.5073 55.3973 11.8537 54.9205 12.9659C54.4436 14.1073 53.7582 15.0439 52.8641 15.7756C51.97 16.5073 50.8971 17.0927 49.6156 17.4439C48.3341 17.8244 46.9035 18 45.324 18C44.6087 18 43.7444 17.9707 42.7908 17.9122C41.8371 17.8537 40.8834 17.7366 39.9297 17.5317V0.439024C40.8536 0.263415 41.8371 0.146341 42.8504 0.0878049C43.8637 0.0292683 44.7279 0 45.4432 0C46.9929 0 48.3639 0.17561 49.6156 0.497561C50.8673 0.84878 51.9402 1.37561 52.8343 2.10732C53.7284 2.83902 54.4138 3.77561 54.9205 4.91707C55.3973 6.02927 55.6357 7.40488 55.6357 8.98537ZM43.9531 14.6049C44.1319 14.6341 44.3703 14.6341 44.6087 14.6341C44.8471 14.6341 45.1452 14.6341 45.5028 14.6341C47.5294 14.6341 49.0195 14.1366 50.003 13.1415C50.9865 12.1463 51.4634 10.7707 51.4634 8.98537C51.4634 7.14146 50.9865 5.73659 50.0626 4.8C49.1387 3.86341 47.6486 3.36585 45.622 3.36585C45.3538 3.36585 45.0558 3.36585 44.7577 3.36585C44.4597 3.36585 44.1915 3.39512 43.9233 3.42439V14.6049H43.9531Z" fill="#3A3A3A"/>
</svg>
