<svg width="14" height="14" viewBox="0 0 14 14" fill="none" xmlns="http://www.w3.org/2000/svg">
<path fill-rule="evenodd" clip-rule="evenodd" d="M4.17514 0.333985H9.8302C10.3668 0.333976 10.8098 0.333969 11.1706 0.363447C11.5453 0.394064 11.8898 0.459774 12.2133 0.624634C12.7151 0.880296 13.123 1.28824 13.3787 1.79001C13.5435 2.11357 13.6093 2.45804 13.6399 2.83277C13.6694 3.19356 13.6693 3.63646 13.6693 4.1731V7.8282C13.6693 8.36484 13.6694 8.80774 13.6399 9.16854C13.6093 9.54327 13.5435 9.88774 13.3787 10.2113C13.123 10.7131 12.7151 11.121 12.2133 11.3767C11.8898 11.5415 11.5453 11.6072 11.1706 11.6379C10.8098 11.6673 10.3669 11.6673 9.83022 11.6673H8.12517C7.68243 11.6673 7.5535 11.6705 7.43617 11.6945C7.31849 11.7187 7.20461 11.7586 7.09763 11.8133C6.99097 11.8678 6.88833 11.9459 6.54261 12.2224L4.93386 13.5095C4.8114 13.6075 4.68658 13.7073 4.57685 13.7799C4.4719 13.8493 4.2684 13.9735 4.00375 13.9738C3.69921 13.9741 3.41111 13.8356 3.22113 13.5976C3.05602 13.3908 3.02589 13.1543 3.0145 13.029C3.0026 12.898 3.00264 12.7381 3.00267 12.5813L3.00267 11.6618C2.74146 11.6532 2.51746 11.6314 2.31248 11.5765C1.39224 11.3299 0.673445 10.6111 0.426866 9.69083C0.335469 9.34973 0.335682 8.95596 0.335969 8.4257C0.335985 8.39558 0.336002 8.36501 0.336002 8.33398L0.336001 4.17312C0.335993 3.63647 0.335986 3.19356 0.365464 2.83277C0.396081 2.45804 0.461791 2.11357 0.626651 1.79001C0.882313 1.28824 1.29026 0.880297 1.79203 0.624634C2.11558 0.459774 2.46005 0.394064 2.83478 0.363447C3.19558 0.333969 3.63849 0.333976 4.17514 0.333985ZM2.94336 1.69235C2.65108 1.71623 2.50161 1.75952 2.39735 1.81264C2.14647 1.94047 1.94249 2.14445 1.81466 2.39533C1.76153 2.4996 1.71825 2.64907 1.69437 2.94134C1.66985 3.2414 1.66934 3.6296 1.66934 4.20065V8.33398C1.66934 8.99689 1.67506 9.19756 1.71477 9.34574C1.83806 9.80587 2.19745 10.1653 2.65758 10.2886C2.80576 10.3283 3.00643 10.334 3.66934 10.334C4.03752 10.334 4.336 10.6325 4.336 11.0007V12.2802L5.70968 11.1813C5.72484 11.1692 5.73979 11.1572 5.75456 11.1454C6.03594 10.9201 6.24864 10.7498 6.49102 10.6259C6.70499 10.5166 6.93275 10.4367 7.16812 10.3884C7.43474 10.3337 7.70723 10.3338 8.0677 10.334C8.08661 10.334 8.10576 10.334 8.12517 10.334H9.80267C10.3737 10.334 10.7619 10.3335 11.062 10.3089C11.3543 10.2851 11.5037 10.2418 11.608 10.1887C11.8589 10.0608 12.0628 9.85685 12.1907 9.60597C12.2438 9.50171 12.2871 9.35224 12.311 9.05996C12.3355 8.7599 12.336 8.3717 12.336 7.80065V4.20065C12.336 3.6296 12.3355 3.2414 12.311 2.94134C12.2871 2.64907 12.2438 2.4996 12.1907 2.39533C12.0628 2.14445 11.8589 1.94047 11.608 1.81264C11.5037 1.75952 11.3543 1.71623 11.062 1.69235C10.7619 1.66784 10.3737 1.66732 9.80267 1.66732H4.20267C3.63162 1.66732 3.24342 1.66784 2.94336 1.69235ZM3.00267 4.66732C3.00267 4.29913 3.30115 4.00065 3.66934 4.00065H7.00267C7.37086 4.00065 7.66934 4.29913 7.66934 4.66732C7.66934 5.03551 7.37086 5.33398 7.00267 5.33398H3.66934C3.30115 5.33398 3.00267 5.03551 3.00267 4.66732ZM3.00267 7.00065C3.00267 6.63246 3.30115 6.33398 3.66934 6.33398H9.00267C9.37086 6.33398 9.66934 6.63246 9.66934 7.00065C9.66934 7.36884 9.37086 7.66732 9.00267 7.66732H3.66934C3.30115 7.66732 3.00267 7.36884 3.00267 7.00065Z" fill="white"/>
</svg>
