<svg width="10" height="10" viewBox="0 0 10 10" fill="none" xmlns="http://www.w3.org/2000/svg">
<path fill-rule="evenodd" clip-rule="evenodd" d="M9.49618 0.476647C9.80765 0.788122 9.80765 1.29312 9.49618 1.6046L6.11233 4.98845L9.49618 8.3723C9.80765 8.68378 9.80765 9.18878 9.49618 9.50025C9.1847 9.81173 8.6797 9.81173 8.36823 9.50025L4.98438 6.1164L1.60052 9.50025C1.28905 9.81173 0.784047 9.81173 0.472572 9.50025C0.161097 9.18878 0.161097 8.68378 0.472572 8.3723L3.85642 4.98845L0.472572 1.6046C0.161097 1.29312 0.161097 0.788122 0.472572 0.476647C0.784047 0.165172 1.28905 0.165172 1.60052 0.476647L4.98438 3.8605L8.36823 0.476647C8.6797 0.165172 9.1847 0.165172 9.49618 0.476647Z" fill="#747B83"/>
</svg>
