<svg width="21" height="20" viewBox="0 0 21 20" fill="none" xmlns="http://www.w3.org/2000/svg">
<path d="M8.69313 1.80757C9.41606 0.284163 11.5839 0.284162 12.3069 1.80757L13.7176 4.78026C14.0027 5.38115 14.5679 5.80097 15.2256 5.90036L18.5058 6.39606C20.1218 6.64028 20.7785 8.61459 19.6308 9.77813L17.1593 12.2835C16.71 12.7391 16.5057 13.3822 16.6098 14.0135L17.1796 17.4683C17.4508 19.113 15.7093 20.3482 14.2468 19.5486L11.4595 18.0246C10.8616 17.6977 10.1384 17.6977 9.54053 18.0246L6.75323 19.5486C5.29071 20.3482 3.54919 19.113 3.82042 17.4683L4.39017 14.0135C4.49429 13.3821 4.29003 12.7391 3.84066 12.2835L1.36924 9.77813C0.221472 8.61459 0.878193 6.64028 2.49422 6.39606L5.77442 5.90036C6.43208 5.80097 6.99729 5.38115 7.28244 4.78026L8.69313 1.80757Z" fill="#42C8F8"/>
</svg>
