<svg width="27" height="26" viewBox="0 0 27 26" fill="none" xmlns="http://www.w3.org/2000/svg">
<path d="M11.6956 1.774C12.4206 0.257581 14.5794 0.257583 15.3044 1.774L17.5974 6.57014C17.8838 7.16906 18.4486 7.58686 19.1051 7.68533L24.335 8.46978C25.9557 8.71288 26.6121 10.6951 25.4569 11.8575L21.593 15.7453C21.1395 16.2017 20.9332 16.8483 21.0386 17.483L21.9397 22.9061C22.2126 24.5486 20.4762 25.7859 19.0128 24.9917L14.454 22.5177C13.859 22.1948 13.141 22.1948 12.546 22.5177L7.98719 24.9917C6.52375 25.7859 4.78737 24.5486 5.06029 22.9061L5.96136 17.483C6.06681 16.8483 5.86051 16.2017 5.40699 15.7453L1.54312 11.8575C0.387885 10.6951 1.04434 8.71288 2.66502 8.46978L7.89485 7.68533C8.55135 7.58686 9.11621 7.16906 9.40256 6.57014L11.6956 1.774Z" fill="#42C8F8"/>
</svg>
